<svg xmlns="http://www.w3.org/2000/svg" opacity=".08" viewBox="0 0 750 500"><path d="M403 203.25s32.7 77.66 40.57 81.77 238.59-15.92 238.59-15.92l-6.55-7.29-.31-50.26 8.63-.38-88.14-116.08-199.16 14.55S386 117 384.52 123.44s-1.1 16.07-1.1 16.07Z" style="fill:#263238"/><path d="M451.28 286c-4.39 0-7.16-.18-7.93-.58-7.94-4.14-39.47-78.84-40.8-82v-.05l-19.63-63.77v-.07c0-.1-.31-9.81 1.11-16.2s11.87-13.8 12.32-14.11l.11-.07h.13L596 94.57l.16.22 88.74 116.83-9.1.41.31 49.59 7.09 7.89-1 .08c-8.51.74-189.97 16.41-230.92 16.41m-47.8-83c11.29 26.81 34.23 78.31 40.33 81.49s157.3-8.95 237.31-15.89l-6-6.68v-.19l-.31-50.74 8.15-.36-87.4-115.02-198.75 14.51c-1.13.81-10.51 7.64-11.8 13.43-1.34 6-1.12 15-1.1 15.88Z" style="fill:#263238"/><path d="M675.3 211.55 449 229.77A27.85 27.85 0 0 0 436.65 250c-1.66 14.13 4.05 28.48 8.3 30.54a28 28 0 0 0 9.77 2.23l220.89-21Z" style="fill:#e0e0e0"/><path d="M454.77 283.28a28.3 28.3 0 0 1-10-2.28c-4.57-2.22-10.23-17-8.58-31a28.6 28.6 0 0 1 12.56-20.62l.21-.07L675.8 211l.32 51.25-.46.05Zm-5.66-53a27.67 27.67 0 0 0-12 19.81c-1.67 14.28 4.28 28.21 8 30a27.5 27.5 0 0 0 9.57 2.18l220.37-20.92-.31-49.27Z" style="fill:#263238"/><path d="m445 36.14-91.29 126.05s-5 4.9-4.74 16.91.85 31.6 4.42 33 267.73 21.4 267.73 21.4l61-140.87-4.76-2L679 55.9l4-11.24-231.29-10.84Z" style="fill:#92e3a9"/><path d="M621.44 234h-.36c-10.79-.81-264.26-20.07-267.86-21.45-2.89-1.11-4.31-11.11-4.75-33.43-.24-12.09 4.68-17.07 4.89-17.28l91.33-126.12 6.94-2.41h.1l231.93 10.88L679.5 56l-1.64 34.26 4.9 2.1-.2.47ZM445.31 36.56l-91.2 125.92c-.1.11-4.87 5-4.64 16.61.15 7.71.62 31.18 4.1 32.52C357 212.72 529.64 226.05 620.8 233l60.65-140.11-4.62-2 1.7-35.17 3.74-10.62-230.49-10.78Z" style="fill:#263238"/><path d="M361.92 165.78s-8.26-2.56-10.61 5.38 3.43 36.71 3.43 36.71 4.93 2.06 7.2 2.13 256.47 16.85 256.47 16.85l58.93-136.26L679 55.9 622.62 178Z" style="fill:#fff"/><path d="M618.73 227.37h-.35c-2.54-.17-254.23-16.79-256.46-16.85s-7.17-2.08-7.38-2.16l-.24-.11-.05-.26c-.24-1.18-5.77-29-3.41-36.95a8.1 8.1 0 0 1 3.89-5.15 10.5 10.5 0 0 1 7.28-.59l260.3 12.21 57.31-124.15-1.82 37.42Zm-263.56-19.86c1 .41 4.91 1.93 6.78 2 2.23.06 241.58 15.87 256.14 16.83l58.76-135.87 1.53-32-55.44 120.05h-.34l-260.76-12.25h-.07a9.58 9.58 0 0 0-6.57.49 7.23 7.23 0 0 0-3.41 4.55c-2.16 7.32 2.82 33.3 3.38 36.2" style="fill:#263238"/><path d="m616.79 177.73-254.87-11.95s-8.26-2.56-10.61 5.38 3.43 36.71 3.43 36.71 4.93 2.06 7.2 2.13 256.47 16.85 256.47 16.85l-.35-48Z" style="fill:#e0e0e0"/><path d="M618.92 227.38h-.54c-2.54-.17-254.23-16.79-256.46-16.85s-7.17-2.08-7.38-2.16l-.24-.11-.05-.26c-.24-1.18-5.77-29-3.41-36.95a8.1 8.1 0 0 1 3.89-5.15 10.5 10.5 0 0 1 7.28-.59l255 12 1.57 1.34v.23Zm-263.75-19.87c1 .41 4.91 1.93 6.78 2 2.22.06 239.67 15.74 256 16.81l-.35-47.26-1-.83-254.76-11.96h-.07a9.58 9.58 0 0 0-6.57.49 7.23 7.23 0 0 0-3.41 4.55c-2.16 7.32 2.82 33.3 3.38 36.2" style="fill:#263238"/><path d="M396.16 424s9.34 13.47 19.1 13.26C480.32 435.84 592.52 467 605.54 467s22.7-1.15 22.7-3.92-45.79-184-45.79-184l-9.08-2.76 31.18 176.86s-38.69-5.52-116.85-18.55-75-24-84.44-22.06-7.1 11.43-7.1 11.43" style="fill:#92e3a9"/><path d="M605.54 467.48c-3.94 0-16.74-2.79-34.45-6.65-41.24-9-110.29-24.08-155.82-23H415c-9.82 0-18.89-12.92-19.27-13.47l-.08-.17c0-.18-1.08-4.48 1.14-8a9.35 9.35 0 0 1 6.35-4c3.4-.7 5.26.18 9.32 2.12 7.75 3.69 23.87 11.36 75.3 19.94 71.72 12 110.64 17.65 116.16 18.45l-31.21-177 10.13 3.09.07.27c1.87 7.4 45.81 181.3 45.81 184.09s-7.78 4.33-23.18 4.33m-185.8-30.74c45.62 0 111.61 14.39 151.56 23.11 17.65 3.85 30.4 6.63 34.24 6.63 16.37 0 22.2-1.76 22.2-3.42-.14-2.69-29.92-121.06-45.74-183.57l-8-2.44 31.17 176.74-.69-.1c-.38-.06-39.59-5.68-116.86-18.56-51.58-8.59-67.78-16.31-75.57-20-4-1.89-5.62-2.68-8.68-2a8.4 8.4 0 0 0-5.72 3.59 10.4 10.4 0 0 0-1 7.16c.78 1.09 9.65 13.16 18.63 13 1.44-.13 2.94-.14 4.46-.14" style="fill:#263238"/><path d="M614.82 462.27c-13.42-.79-39.53-7.58-104-20.81s-112.74-21.24-112.74-21.24l-1.36 4.65c2.23 2.93 10.21 12.6 18.49 12.42C480.32 435.84 592.52 467 605.54 467s22.7-1.15 22.7-3.92c0-.24-6.73-.41-13.42-.81" style="fill:#263238"/><path d="M605.54 467.48c-3.94 0-16.74-2.79-34.45-6.65-41.24-9-110.27-24.07-155.82-23-8.54.22-16.61-9.61-18.9-12.62l-.15-.2 1.55-5.31.44.07c.48.08 49.08 8.17 112.76 21.24 23.08 4.74 41.15 8.63 55.66 11.76 25.56 5.51 39.64 8.54 48.22 9 2.55.15 5.12.27 7.31.37 6.58.31 6.58.31 6.58.92 0 2.94-7.8 4.42-23.2 4.42m-185.8-30.74c45.62 0 111.61 14.39 151.56 23.11 17.65 3.85 30.4 6.63 34.24 6.63 15.11 0 21.24-1.5 22.09-3-.92-.1-3.17-.2-5.52-.31-2.19-.1-4.76-.22-7.32-.37-8.65-.51-22.76-3.55-48.37-9.06-14.51-3.13-32.58-7-55.65-11.76-60.45-12.41-107.29-20.32-112.29-21.16l-1.16 4c2.38 3.09 9.93 12 17.71 12h.22c1.47-.07 2.97-.08 4.49-.08" style="fill:#263238"/><path d="M185.34 272s-4.74 1.58-5.52 5.13-46.19 185.55-41.85 186 243.58 2 246.34-.79S396.16 424 396.16 424L376 451.27l-207.65-5.13 24.87-169.76Z" style="fill:#92e3a9"/><path d="M287.91 464.48c-68.59 0-148.69-.75-150-.87a.66.66 0 0 1-.49-.29c-.72-1-2.92-4.1 39.81-177.73 1.24-5 2-8.1 2.09-8.53.84-3.78 5.65-5.43 5.85-5.49l.21-.07 8.39 4.61-24.83 169.54 206.84 5.12 21.49-29.09-.63 2.48c-.93 3.65-9.19 35.74-12 38.52-1.36 1.39-45.89 1.8-96.73 1.8m-149.7-1.85c7.93.22 240.58 1.93 245.81-.7 2-2 8.11-24.38 11-35.53l-18.76 25.38H376l-208.22-5.14.08-.56 24.82-169.42-7.39-4.06c-.88.34-4.37 1.86-5 4.69-.09.44-.84 3.49-2.09 8.55-36.15 146.93-40.68 174.16-39.99 176.79" style="fill:#263238"/><path d="M384.31 462.33c2.77-2.77 11.85-38.3 11.85-38.3l-1.34 1.8L382.34 458l-242 3.12-2.41 2c4.38.39 243.62 1.97 246.38-.79" style="fill:#263238"/><path d="M287.91 464.48c-68.59 0-148.69-.75-150-.87l-1.2-.11 3.48-2.9h.18L382 457.49l12.42-31.95 2.85-3.86-.63 2.48c-.93 3.65-9.19 35.74-12 38.52-1.36 1.39-45.88 1.8-96.73 1.8m-148.6-1.83c19 .29 238.89 1.84 244.68-.71 2-2.17 7.84-23.31 10.81-34.66l-12.12 31.2h-.33l-241.78 3.12Z" style="fill:#263238"/><path d="m190.87 269.67-5.53 2.37-38.29 185.15 235.29.79 15.79-40.66-221.08 10.66 20.53-158.7z" style="fill:#fff"/><path d="M382.68 458.48h-.34l-235.91-.79 38.48-186 5.93-2.51 7.31-.43-.07.6-20.46 158.1 221.26-10.66Zm-235-1.78 234.34.78 15.39-39.62-220.93 10.65.08-.59L197 269.81l-6 .36-5.21 2.23Z" style="fill:#263238"/><path d="m162.84 433.9-10.73 17.85-5.06 5.44 235.29.79 15.79-40.66-221.08 10.66z" style="fill:#e0e0e0"/><path d="M382.68 458.48h-.34l-236.44-.79 5.81-6.25 10.79-17.94 14.53-6 221.85-10.69Zm-234.49-1.78 233.81.78 15.39-39.62-220.23 10.62-14 5.82-10.7 17.79Z" style="fill:#263238"/><path d="M398.13 417.32V381l-189.89 20.92-14.21 24.88z" style="fill:#b8b8b8"/><path d="m193.14 427.34 14.79-25.88h.26l190.44-21v37.34h-.48Zm15.41-24.95-13.64 23.86 202.72-9.41v-35.28Z" style="fill:#263238"/><path d="m199.55 249.54-5.52.79-31.19 183.57s25.66-2 60.4-10.26 105.41-20.93 129.1-17.37S396.16 424 396.16 424s29.56 5.87 62.72 12.58 82.51 17 115.28 22.51 40.66 3.15 40.66 3.15l-40.66-189.1-3.95-1.14 21.71 171.33S455 405.48 436.82 405.48s-28-19.35-64.35-26.45-77 7.1-111.33 13a476 476 0 0 0-63.56 15.8l9.08-158.31Z" style="fill:#e0e0e0"/><path d="M608.1 463.29c-5.9 0-16.35-.7-34-3.68-27.6-4.61-66.88-12.61-98.44-19.08l-16.88-3.43c-32.78-6.63-62.42-12.52-62.72-12.58l-.19-.08c-.2-.14-20.32-14.18-43.61-17.68-24.06-3.61-97 9.75-128.9 17.36a436 436 0 0 1-60.48 10.28l-.64.05.11-.63 31.25-183.94 6-.84h7.64l-9.07 158.1a483 483 0 0 1 62.94-15.58c8.66-1.49 17.59-3.48 27.05-5.59 28.13-6.28 57.21-12.76 84.46-7.43 19.67 3.85 31.66 11.3 41.3 17.28 8.23 5.12 14.73 9.16 22.95 9.16 17.53 0 142.62 34.38 154.51 37.66l-21.77-171.35 5 1.49.06.29 40.73 189.55-.44.13c-.15.05-1.91.54-6.86.54m-211.74-39.73c1.94.39 30.8 6.12 62.62 12.56l16.88 3.43c31.55 6.43 70.82 14.42 98.38 19.07 28.07 4.74 37.89 3.64 40 3.27l-40.51-188.32-2.93-.88L592.51 444l-.72-.2c-1.37-.38-137.08-37.83-155-37.83-8.51 0-15.12-4.11-23.48-9.31-9.56-5.94-21.47-13.34-41-17.15-27-5.29-56 1.17-84 7.42-9.47 2.11-18.41 4.11-27.1 5.61a479 479 0 0 0-63.49 15.77l-.7.24L206.13 250h-6.54l-5.13.73-31 182.58a444 444 0 0 0 59.69-10.2c33-7.87 104.77-21 129.28-17.38 22.72 3.45 42.44 16.8 43.93 17.83" style="fill:#263238"/><path d="m177.05 427.98-14.21 5.92 31.19-183.57 12.63-.79z" style="fill:#fff"/><path d="m162.19 434.71 31.41-184.86 13.66-.85-29.76 179.34Zm32.26-183.91-31 182.29 13.12-5.47 29.46-177.54Z" style="fill:#263238"/><path d="M393.39 225.06s3.56-6.32 35.93 2 66.27 29.16 93.91 33.1S569 268 569 268l37.51 190.29S545.34 450 487.7 434.64s-82.07-25.64-89.57-17.32Z" style="fill:#fff"/><path d="m607.15 458.92-.69-.1c-.61-.08-61.88-8.47-118.89-23.7-13.72-3.66-25.42-7-35.73-9.93-31.84-9.07-47.84-13.62-53.34-7.53l-.84.92-4.77-193.64.07-.12c.15-.28 4.11-6.56 36.48 1.73 14.78 3.79 29.9 10.2 44.52 16.39 17.67 7.49 34.35 14.57 49.34 16.71 27.33 3.9 45.65 7.86 45.83 7.9l.32.07ZM407 413.85c8.7 0 22.87 4 45.15 10.38 10.31 2.93 22 6.26 35.72 9.93 53.63 14.33 111.13 22.6 118.03 23.57l-37.3-189.27c-2.56-.54-20.12-4.2-45.44-7.82-15.12-2.16-31.86-9.26-49.59-16.77-14.58-6.19-29.67-12.58-44.38-16.35-29-7.44-34.62-3-35.29-2.29l4.7 191c1.93-1.65 4.65-2.38 8.4-2.38" style="fill:#263238"/><path d="M558.84 292c-63.72-14-67.55-14.42-67.69-14.43v-1c.08 0 2.79.16 67.87 14.46Zm1.4 8.21c-8.12-1.79-15.6-3.45-22.31-4.95-8.49-1.89-15.82-3.52-21.66-4.77-22.06-4.73-24.37-4.93-24.46-4.94l.05-1c.08 0 2.15.15 24.62 5 5.84 1.25 13.17 2.89 21.66 4.78l22.32 4.94Zm1.4 8.22c-8.46-1.86-16.81-3.76-24.19-5.44-7.87-1.79-14.66-3.33-20.24-4.53-21.66-4.64-24.63-4.9-24.75-4.91l.07-1c.11 0 3 .24 24.89 4.93 5.58 1.2 12.38 2.75 20.26 4.54 7.37 1.67 15.72 3.57 24.18 5.43Zm1.36 8.22c-8-1.75-16.15-3.65-24.06-5.49-7.74-1.79-15.06-3.49-20.82-4.73-21.17-4.54-25-4.87-25-4.88l.07-1c.15 0 3.85.32 25.19 4.9 5.77 1.24 13.09 2.93 20.84 4.73 7.91 1.83 16.09 3.73 24 5.48Zm1.45 8.22c-7.28-1.6-15.48-3.54-23.4-5.41-8.15-1.92-15.85-3.75-21.95-5-20.64-4.43-25.29-4.85-25.34-4.85l.08-1c.18 0 4.7.41 25.47 4.87 6.11 1.31 13.81 3.13 22 5.06 7.92 1.87 16.11 3.8 23.38 5.4Zm1.4 8.22c-6.54-1.44-14.63-3.38-22.46-5.26-8.28-2-16.85-4.06-23.34-5.45-20.11-4.32-25.58-4.82-25.64-4.82l.09-1c.22 0 5.55.5 25.76 4.84 6.5 1.4 15.07 3.46 23.37 5.45 7.82 1.88 15.9 3.83 22.43 5.26Zm1.4 8.22c-5.79-1.27-13.36-3.12-21.38-5.08-8.82-2.16-18-4.39-24.88-5.88-19.55-4.2-25.86-4.78-25.92-4.79l.08-1c.06 0 6.41.58 26.05 4.8 6.94 1.5 16.08 3.73 24.91 5.89 8 1.95 15.57 3.8 21.35 5.07Zm1.4 8.22c-5-1.11-12.39-2.93-20.16-4.86-9.41-2.34-19.14-4.75-26.55-6.35-19-4.08-26.15-4.75-26.22-4.75l.09-1c.07 0 7.26.68 26.34 4.77 7.42 1.6 17.16 4 26.58 6.36 7.77 1.93 15.1 3.75 20.13 4.85Zm1.4 8.22c-4.32-.95-11.35-2.72-18.78-4.59-9.58-2.42-20.44-5.16-28.39-6.87-18.44-4-26.43-4.71-26.51-4.72l.09-1c.08 0 8.12.77 26.63 4.75 8 1.71 18.83 4.45 28.42 6.87 7.43 1.87 14.45 3.64 18.76 4.59Zm1.4 8.25c-3.62-.79-10-2.41-17.3-4.29-10.22-2.62-21.8-5.58-30.32-7.42-17.88-3.84-26.72-4.68-26.8-4.69l.09-1c.09 0 9 .85 26.92 4.71 8.54 1.84 20.13 4.8 30.36 7.42 7.33 1.87 13.66 3.5 17.27 4.29Zm1.4 8.2c-2.94-.65-8.83-2.18-15.65-3.95-10.37-2.69-23.27-6-32.43-8-17.31-3.73-27-4.66-27.09-4.66l.09-1a262 262 0 0 1 27.23 4.67c9.18 2 22.09 5.33 32.47 8 6.81 1.77 12.69 3.3 15.62 3.94Zm1.41 8.22c-2.31-.51-7.42-1.86-13.89-3.56-10.46-2.75-24.79-6.52-34.65-8.65a262 262 0 0 0-27.39-4.63l.1-1a265 265 0 0 1 27.5 4.65c9.88 2.13 24.22 5.91 34.7 8.67 6.45 1.69 11.55 3 13.84 3.54Zm1.4 8.22c-1.71-.38-6.21-1.58-11.9-3.1-11.16-3-26.44-7.06-37.1-9.36a266 266 0 0 0-27.67-4.6l.09-1a267 267 0 0 1 27.79 4.61c10.68 2.31 26 6.39 37.15 9.38 5.68 1.51 10.16 2.71 11.85 3.08Zm1.4 8.22c-1.16-.26-4.73-1.22-9.67-2.56-10.54-2.86-28.2-7.64-39.78-10.15a274 274 0 0 0-28-4.57l.1-1a270 270 0 0 1 28.08 4.59c11.61 2.5 29.28 7.29 39.83 10.15 4.93 1.34 8.49 2.3 9.62 2.55Zm1.4 8.22c-.67-.15-3.25-.86-7.15-1.93-10.5-2.9-30-8.28-42.76-11a275 275 0 0 0-28.26-4.53l.1-1a276 276 0 0 1 28.37 4.56c12.74 2.75 32.3 8.14 42.81 11 3.75 1 6.46 1.78 7.1 1.92Zm1.4 8.22c-.26-.06-1.63-.44-4.1-1.13-9.58-2.69-32-9-46.26-12.07a281 281 0 0 0-28.5-4.51l.09-1a286 286 0 0 1 28.67 4.53c14.29 3.09 36.74 9.39 46.32 12.08 2.21.62 3.81 1.07 4.05 1.12Zm1.37 8.21c-.32-.09-32.58-9.5-50.79-13.44-13.94-3-28.69-4.46-28.84-4.48l.1-1a292 292 0 0 1 28.95 4.49c18.24 4 50.54 13.37 50.86 13.46ZM481 274.76c-12.41-5.71-21.14-10.69-28.15-14.69-7.29-4.17-13.06-7.45-19.42-9.51a116.8 116.8 0 0 0-27.72-4.82v-1a117.5 117.5 0 0 1 28 4.87c6.47 2.09 12.27 5.4 19.62 9.59 7 4 15.7 9 28.07 14.65Zm.67 8.12c-11.13-5.12-19.33-9.74-25.92-13.45-7.69-4.33-13.77-7.75-20.9-10.06-13.82-4.49-27.84-5.23-28.92-5.06l-.26-1c.66-.2 15 .38 29.49 5.08 7.23 2.34 13.34 5.78 21.08 10.14 6.91 3.89 14.75 8.31 25.85 13.42Zm.63 8.12c-9.92-4.57-17.25-8.64-23.72-12.24-8.05-4.48-14.41-8-22.34-10.6-15.52-5.06-29.37-5.54-30.22-5.29l-.3-1c1.2-.38 15.54.31 30.83 5.3 8 2.62 14.42 6.17 22.52 10.68 6.45 3.58 13.76 7.65 23.65 12.2Zm.64 8.13c-8.78-4-15.56-7.76-21.54-11-8-4.42-15-8.23-23.77-11.11-16.36-5.36-30.09-6-31.56-5.53l-.3-.95c2-.64 16.15.28 32.17 5.53 8.87 2.9 15.85 6.74 23.94 11.18 6 3.28 12.73 7 21.47 11Zm.63 8.13c-7.69-3.54-13.9-6.91-19.38-9.88-8.32-4.52-15.5-8.41-25.18-11.6-17.52-5.76-31-6.35-32.89-5.75l-.3-.95c2.43-.78 16.77.25 33.51 5.75 9.76 3.21 17 7.13 25.34 11.67 5.46 3 11.66 6.32 19.31 9.85Zm.63 8.12c-6.66-3.06-12.05-5.95-17.25-8.75-8.55-4.58-15.94-8.54-26.55-12-18.53-6.12-31.81-6.75-34.23-6l-.3-.95c3.05-1 17.31.19 34.84 6 10.7 3.53 18.48 7.7 26.71 12.11 5.19 2.79 10.57 5.67 17.2 8.72Zm.63 8.12c-5.69-2.61-10.51-5.17-15.16-7.64-8.37-4.43-16.27-8.62-27.88-12.47-19.07-6.31-32.58-7.16-35.57-6.2l-.3-1c3.58-1.14 17.56 0 36.18 6.21 11.69 3.88 19.63 8.08 28 12.54 4.65 2.46 9.46 5 15.12 7.61Zm.63 8.13c-4.78-2.2-9-4.43-13.13-6.58-8.48-4.45-16.5-8.65-29.16-12.85-20.35-6.77-33.43-7.54-36.9-6.44l-.3-.95c4.49-1.43 19.17.34 37.52 6.44 12.74 4.23 21.16 8.65 29.31 12.92 4.09 2.14 8.32 4.36 13.08 6.55Zm.63 8.12c-3.94-1.81-7.44-3.63-11.15-5.55a189.6 189.6 0 0 0-30.38-13.2c-19.86-6.62-33.75-8.09-38.24-6.66l-.3-.95c4.8-1.53 18.67-.06 38.86 6.66a191 191 0 0 1 30.52 13.26c3.7 1.92 7.19 3.73 11.11 5.53Zm.63 8.12c-3.16-1.45-6.11-3-9.24-4.57A202 202 0 0 0 446 329.81c-22.05-7.37-35.1-8.31-39.58-6.89l-.3-.95c4.84-1.54 17.94-.54 40.2 6.89a203 203 0 0 1 31.67 13.55c3.11 1.6 6.06 3.11 9.2 4.56Zm.63 8.13c-2.45-1.13-4.86-2.36-7.42-3.65a216 216 0 0 0-32.59-13.74c-27.83-9.31-37.89-8.08-40.92-7.11l-.3-1c6.6-2.09 21.74.5 41.53 7.12a215 215 0 0 1 32.73 13.8c2.55 1.29 4.95 2.51 7.39 3.63Zm.65 8.12c-1.82-.84-3.71-1.79-5.71-2.79a228 228 0 0 0-33.55-13.92c-26.28-8.81-37.48-8.85-42.25-7.33l-.3-1c7-2.24 21.87.3 42.87 7.35a229.6 229.6 0 0 1 33.68 14c2 1 3.88 1.94 5.68 2.77Zm.61 8.13c-1.26-.59-2.59-1.25-4.13-2-6.12-3-15.37-7.63-34.37-14-21.74-7.31-36.4-9.85-43.59-7.57l-.3-.95c7.49-2.38 21.95.09 44.21 7.57 19.06 6.41 28.35 11 34.49 14.07 1.54.76 2.86 1.42 4.11 2Zm.63 8.12c-.79-.37-1.68-.8-2.72-1.31-5.41-2.66-14.47-7.11-35-14-23-7.74-37.29-10.22-44.93-7.79l-.3-1c7.85-2.5 22.32 0 45.55 7.8 20.61 6.94 29.71 11.41 35.14 14.08 1 .51 1.92.94 2.7 1.3Zm.63 8.12-1.52-.73c-4-1.92-13.21-6.43-35.46-13.93-24.32-8.2-38.16-10.6-46.26-8l-.31-.95c8.33-2.65 22.35-.25 46.89 8 22.31 7.53 31.61 12.05 35.58 14 .6.3 1.09.54 1.5.72Zm.63 8.13-.58-.28c-7.62-3.68-19.61-8.29-35.65-13.71-25.33-8.55-39.12-10.94-47.59-8.24l-.31-1c8.82-2.8 22.34-.49 48.22 8.26 16.08 5.43 28.11 10.05 35.76 13.75l.57.27Zm.62 8.11c-.08 0-8.38-4.13-35.46-13.29-26.7-9-40-11.33-48.93-8.48l-.31-.95c9.2-2.93 22.63-.63 49.56 8.48 27.17 9.19 35.51 13.31 35.59 13.35Z" style="fill:#263238"/><path d="m393.39 225.06 4.74 192.26s-14.21-29.21-52.11-28-121.59 30.4-135 33.16-33.97 5.52-33.97 5.52l22.5-183.57S299 226.25 320 219.93s39.09-13 52.51-9.87 20.88 5.53 20.88 15" style="fill:#fff"/><path d="m176.48 428.56.08-.64L199.1 244l.36-.07c1-.18 99.7-18.22 120.36-24.46q4.06-1.23 8-2.45c17.69-5.48 33-10.21 44.78-7.43 13.21 3.11 21.31 5.52 21.31 15.48l4.8 194.55-1-2.06c-.14-.29-14.53-28.92-51.65-27.75-27.84.87-80.37 16.88-111.76 26.44-11.38 3.47-19.61 6-23.17 6.71-13.28 2.74-33.78 5.51-34 5.54ZM200 244.83 177.63 427.4c3.58-.5 21.35-3 33.27-5.44 3.52-.72 12.15-3.35 23.08-6.68 31.44-9.58 84-25.61 112-26.49 32.33-1 47.72 20.21 51.58 26.55l-4.69-190.28c0-9.23-7.42-11.43-20.53-14.51-11.56-2.72-26.71 2-44.26 7.41-2.62.8-5.28 1.63-8 2.45C300 226.47 206.62 243.62 200 244.83" style="fill:#263238"/><path d="M220.31 257.82h75.55v1h-75.55z" style="fill:#263238" transform="matrix(.98 -.22 .22 .98 -50.04 62.37)"/><path d="m220.51 275.25-.22-1c16.19-3.65 47-10.62 47.87-10.89 1-.32 25.46-5.76 26.5-6l.21 1c-8.79 2-25.63 5.73-26.41 6-1.1.33-46.04 10.46-47.95 10.89m-.81 8.22-.22-1c.46-.11 46.13-10.52 48.26-11.19s25.72-5.9 26.73-6.13l.22 1c-.25 0-24.68 5.48-26.65 6.1-2.17.75-46.45 10.75-48.34 11.22m-.8 8.22-.23-1c.45-.1 45.44-10.48 48.66-11.49 3-.94 26-6.05 26.95-6.26l.22 1c-.24.06-23.92 5.31-26.87 6.24-3.25 1.02-46.88 11.09-48.73 11.51m-.81 8.23-.23-1c.45-.1 44.76-10.45 49.05-11.8 4-1.25 26.24-6.18 27.19-6.39l.21 1c-.23 0-23.16 5.13-27.1 6.37-4.33 1.36-47.3 11.39-49.12 11.82m-.81 8.21-.23-1c.44-.1 44.08-10.41 49.45-12.1 5-1.56 26.5-6.32 27.41-6.52l.22 1c-.23.05-22.4 5-27.33 6.5-5.41 1.7-47.72 11.7-49.52 12.12m-.81 8.23-.23-1c.43-.1 43.39-10.37 49.84-12.4 6-1.88 27.43-6.61 27.64-6.66l.22 1c-.22.05-21.64 4.77-27.56 6.63-6.48 2.07-49.48 12.32-49.91 12.43m-.81 8.22-.23-1c.42-.1 42.71-10.34 50.23-12.7 7-2.19 27.67-6.75 27.88-6.79l.21 1c-.21.05-20.87 4.6-27.79 6.77-7.55 2.37-49.87 12.61-50.3 12.72m-.81 8.22-.23-1c.41-.11 42-10.31 50.63-13 7.94-2.5 27.9-6.88 28.1-6.93l.22 1c-.21 0-20.12 4.42-28 6.9-8.66 2.71-50.3 12.93-50.72 13.03m-.8 8.2-.25-1c.42-.1 41.35-10.27 51-13.32 8.94-2.81 28.14-7 28.33-7.05l.22 1c-.19 0-19.35 4.23-28.25 7-9.68 3.11-50.64 13.29-51.05 13.37m-.81 8.24-.25-1c.41-.1 40.66-10.24 51.43-13.62 9.92-3.12 28.37-7.15 28.56-7.19l.21 1c-.18 0-18.59 4.06-28.48 7.16-10.78 3.41-51.07 13.55-51.47 13.65m-.81 8.22-.25-1c.4-.1 40-10.2 51.82-13.92 10.92-3.43 28.61-7.28 28.79-7.32l.21 1c-.17 0-17.83 3.87-28.7 7.29-11.87 3.74-51.47 13.85-51.87 13.95m-.81 8.22-.25-1c.39-.1 39.3-10.16 52.21-14.22 11.91-3.75 28.86-7.42 29-7.46l.21 1c-.17 0-17.07 3.7-28.94 7.43-12.91 4.08-51.85 14.15-52.23 14.25m-.81 8.22-.25-1c.38-.1 38.61-10.13 52.61-14.52 12.9-4.06 29.09-7.56 29.25-7.59l.21 1c-.16 0-16.31 3.52-29.16 7.56-14.02 4.41-52.27 14.45-52.66 14.55m-.81 8.22-.26-1c.38-.11 37.93-10.1 53-14.84 13.89-4.36 29.33-7.68 29.48-7.72l.21 1c-.15 0-15.54 3.34-29.39 7.7C248 372 210.38 382 210 382.12m-.8 8.22-.26-1c.37-.1 37.24-10.06 53.39-15.14 14.89-4.68 29.57-7.82 29.72-7.85l.2 1c-.14 0-14.78 3.16-29.62 7.82-16.17 5.11-53.06 15.07-53.43 15.17m-.81 8.22-.26-1c.36-.1 36.56-10 53.79-15.44 15.87-5 29.8-8 29.94-8l.21 1c-.14 0-14 3-29.85 8-17.22 5.41-53.47 15.34-53.83 15.44m97.18-150.97-.31-1c2.82-.9 69.18-21.9 79.25-10.83l-.74.68c-9.64-10.56-77.52 10.93-78.2 11.15m-.22 7.97-.31-.95c.24-.08 23.61-7.58 44.4-11.49 8.82-1.64 29.9-4.84 35.1.88l-.74.68c-3.37-3.72-16.15-3.93-34.18-.58-20.72 3.9-44.04 11.38-44.27 11.46m-.22 7.97-.3-.95c.23-.08 24-7.79 44.53-11.59 17.79-3.22 31.62-2.75 35.21 1.2l-.74.68c-3.31-3.65-17.1-4-34.29-.89-20.44 3.78-44.17 11.47-44.41 11.55m-.21 7.97-.32-.95c.25-.08 24.44-8.05 44.67-11.68 16.91-3 31.77-2.4 35.33 1.51l-.74.68c-3.29-3.62-18.08-4.14-34.41-1.21-20.16 3.62-44.29 11.57-44.53 11.65m-.22 7.97-.31-1c.24-.08 24.85-8.27 44.8-11.78 16.33-2.87 31.9-2.07 35.44 1.83l-.74.68c-2.86-3.15-16.87-4.63-34.53-1.53-19.87 3.55-44.36 11.72-44.66 11.8m-.21 7.98-.32-.95c.25-.09 25.27-8.5 44.94-11.89 17.38-3 32.41-1.3 35.56 2.15l-.75.68c-2.5-2.76-16.28-5-34.64-1.84-19.59 3.4-44.54 11.76-44.79 11.85m-.22 7.97-.32-.95c.25-.09 25.69-8.72 45.08-12 18.66-3.13 32.97-.47 35.67 2.53l-.74.68c-2.27-2.5-15.83-5.35-34.77-2.16-19.3 3.2-44.67 11.81-44.92 11.9" style="fill:#263238"/><path d="m304.05 303.39-.32-.95c.26-.09 26.12-8.93 45.21-12.08s33.39.15 35.79 2.78l-.74.68c-2.21-2.43-16.52-5.5-34.88-2.48-19.02 3.14-44.8 11.96-45.06 12.05" style="fill:#263238"/><path d="m303.84 311.36-.33-.94c.26-.1 26.54-9.15 45.35-12.19 18.66-3 33.5.47 35.9 3.1l-.76.67c-2-2.2-16.32-5.81-35-2.79s-44.9 12.06-45.16 12.15" style="fill:#263238"/><path d="m303.62 319.33-.33-.94c.27-.1 27-9.36 45.49-12.29 19-3 33.84 1 36 3.42l-.74.68c-1.6-1.76-15.68-6.18-35.12-3.11-18.42 2.91-45.03 12.15-45.3 12.24" style="fill:#263238"/><path d="m303.4 327.3-.33-.94c.27-.1 27.38-9.57 45.63-12.38 19.75-3.05 34.39 1.83 36.12 3.73l-.74.68c-1.2-1.32-14.74-6.59-35.23-3.43-18.15 2.81-45.18 12.25-45.45 12.34" style="fill:#263238"/><path d="m303.18 335.28-.33-.95c.28-.1 27.81-9.77 45.76-12.48 20.83-3.15 34.95 2.63 36.24 4l-.74.68c-1.07-1.19-15-6.81-35.35-3.74-17.86 2.74-45.3 12.39-45.58 12.49" style="fill:#263238"/><path d="m303 343.25-.34-.95c.28-.09 28.23-10 45.9-12.58 20.68-3 35.2 3.1 36.35 4.37l-.74.68c-.63-.7-14.16-7.2-35.46-4.06-17.61 2.59-45.46 12.44-45.71 12.54" style="fill:#263238"/><path d="m302.75 351.22-.34-.94c.29-.11 28.65-10.18 46-12.69 20.62-3 35.28 3.39 36.46 4.69l-.74.68c-.81-.81-14.64-7.39-35.58-4.38-17.24 2.49-45.55 12.54-45.8 12.64" style="fill:#263238"/><path d="m302.53 359.19-.33-.94c.28-.1 29.07-10.35 46.16-12.78 21.62-3 35.9 4.25 36.58 5l-.73.68c-1.13-1-15.15-7.54-35.71-4.69-16.99 2.42-45.68 12.63-45.97 12.73" style="fill:#263238"/><path d="m302.32 367.16-.34-.94c.29-.1 29.49-10.56 46.3-12.88 21.56-2.93 36 4.55 36.7 5.32l-.74.68c-.07 0-13.78-8-35.82-5-16.71 2.29-45.81 12.72-46.1 12.82" style="fill:#263238"/><path d="m302.1 375.13-.34-.94c.3-.11 29.92-10.77 46.44-13 22.33-3 36.56 5.47 36.7 5.55l-.52.86c-.14-.09-14.08-8.34-36.05-5.41-16.41 2.2-45.94 12.81-46.23 12.94m172.7 60.8s-3.1-.77-7.92-1.78l.21-1c4.84 1 7.93 1.78 8 1.79Zm-11.51-2.51c-4.22-.83-7.73-3.85-11.44-7-4.68-4-9.52-8.21-16.32-8.41a108.7 108.7 0 0 0-39.19 6.53l-.39.15-.22-.36a62 62 0 0 0-5.05-6.67l.75-.65a64 64 0 0 1 4.93 6.45 111 111 0 0 1 39.2-6.45c7.15.21 12.13 4.5 16.95 8.65 3.6 3.1 7 6 11 6.82Zm-75.22-18.66a69 69 0 0 0-8-7.15l.6-.79a68.4 68.4 0 0 1 8.1 7.25Z" style="fill:#263238"/><path d="M380.09 407.61a53.1 53.1 0 0 0-13.21-7.43c-20.56-7.8-43.44-1.94-46-1.25l-.26-1c2.57-.7 25.74-6.63 46.6 1.29a54 54 0 0 1 13.45 7.57Z" style="fill:#263238"/><path d="m262.64 413.17-.22-1c.56-.13 56.22-12.56 80-12a86 86 0 0 1 27.21 4.83l-.34.94a84.6 84.6 0 0 0-26.93-4.75c-23.65-.55-79.16 11.86-79.72 11.98m115.66-2.92a31.7 31.7 0 0 0-4.61-2.49l.41-.91a36 36 0 0 1 4.77 2.57Z" style="fill:#263238"/><path d="M223.87 429.16h151.28v1H223.87z" style="fill:#263238" transform="rotate(-2.74 300.143 430.366)"/><path d="M381.03 425.04h8.26v1h-8.26z" style="fill:#263238" transform="rotate(-2.74 385.797 426.348)"/><path d="M262.31 439.79h8.81v1h-8.81z" style="fill:#263238" transform="rotate(-1.45 267.484 441.646)"/><path d="M187.39 440.92h69.88v1h-69.88z" style="fill:#263238" transform="rotate(-1.45 223.21 442.666)"/><path d="M360.86 444.05h7.76v1h-7.76z" style="fill:#263238" transform="translate(-14.55 12.35)"/><path d="M256.26 446.01h98.4v1h-98.4z" style="fill:#263238" transform="translate(-14.65 10.38)"/><path d="M306.09 437.21h20.62v1h-20.62z" style="fill:#263238" transform="rotate(-1.96 315.895 437.253)"/><path d="M332.33 435.79h51.14v1h-51.14z" style="fill:#263238" transform="rotate(-1.96 357.442 435.624)"/><path d="M231.14 448.26h7.13v1h-7.13z" style="fill:#263238" transform="rotate(-1.57 234.026 447.76)"/><path d="M160.36 449.38h66.34v1h-66.34z" style="fill:#263238" transform="rotate(-1.57 193.135 448.66)"/><path d="M279.12 230.29s14.7-19.33 24-27.38 25.17-20.74 31.62-20.74 8.05 4 8.46 5.43 5.8 21.75 5.8 22.76-5.63 2.62-6 1.41-2.82-18.53-3.82-21.75-.81-5-8.46-1.81-30.2 27.38-34.84 33-9.06 11.48-9.06 11.48-5.48-2.4-7.7-2.4" style="fill:#263238"/><path d="m286.93 233.33-.36-.16c-.05 0-5.37-2.38-7.45-2.38h-1l.61-.8c.15-.19 14.84-19.46 24-27.46 7.21-6.27 24.76-20.86 31.94-20.86 6.57 0 8.44 4.05 8.94 5.8.28 1 5.85 21.74 5.85 22.89s-3.37 2.09-4.27 2.24c-1.59.25-2.51 0-2.74-.67-.16-.5-.55-2.93-1.23-7.19-.84-5.34-2-12.66-2.6-14.57l-.22-.74c-.33-1.14-.58-2-1.21-2.26-.9-.43-2.87 0-6.36 1.5-7.42 3.12-29.72 26.89-34.64 32.88-4.57 5.57-9 11.4-9.05 11.46Zm-6.87-3.44a35.6 35.6 0 0 1 6.55 2.21c1-1.29 4.86-6.34 8.84-11.18 4.41-5.38 27.09-29.83 35-33.17 3.92-1.65 5.94-2.07 7.17-1.48 1 .49 1.36 1.6 1.74 2.88.07.23.14.47.22.72.62 2 1.73 9 2.63 14.71.54 3.39 1 6.59 1.19 7a3 3 0 0 0 1.6 0 7.4 7.4 0 0 0 3.48-1.33c-.07-1-5.31-20.72-5.84-22.55s-2.29-5.07-8-5.07c-7 0-25.73 15.78-31.29 20.62-8.06 7.09-20.54 23.08-23.29 26.64" style="fill:#263238"/><path d="M527.94 250c-.47-.68-1.1-1.47-1.54-1.58-.71-.18-5.43 7.84-6.59 9.82a13.5 13.5 0 0 1 2.16-2.17c0 .6-2.42 12.48-4.63 18.12s-1.62 8.26.6 8.06 5.23-10.27 7-15.91a78.4 78.4 0 0 0 3-16.34" style="fill:#fff"/><path d="M517.71 282.76a2 2 0 0 1-1.7-.8c-1-1.3-.67-4 .86-7.95 1.78-4.53 3.7-13.17 4.36-16.57l-1.05 1.14L517 262l2.36-4.05c6-10.34 6.7-10.17 7.14-10.06s.84.35 1.83 1.78l.1.15v.18a78 78 0 0 1-3 16.46l-.45 1.43c-2.64 8.28-4.83 14.62-7 14.82Zm4.29-27.22.15.05.32.12v.36c0 .7-2.45 12.64-4.67 18.3-1.93 4.92-1.34 6.52-1 7a1.12 1.12 0 0 0 1.08.39c1.71-.16 4.72-9.6 6.16-14.13l.46-1.44a77 77 0 0 0 2.92-16 4.7 4.7 0 0 0-1-1.17 48 48 0 0 0-4.42 6.52" style="fill:#263238"/><path d="M527.81 245.8c-.81-3.63-6 1-8.26 4.23s-12.28 14.09-17.92 19.53-26.78 23.56-29 25.17-4.83 4.43-6.44 4.63-5.84 0-7.85-1.21-3-3.42-12.69-8.65-51.55-17.32-54.57-17.5-5.44 2.82-9.67 4.63-11.27 2.21-14.29-.41-6.65-9.26-8.66-14.09-5.24-6-8.06-7.65-36.64-16.48-42.89-18.55-12.48-3.42-15.3-3.62a21 21 0 0 0-5.44.4s-.4.6-2-.6-6.85-3.43-8.46-.21-4 10.68-2.62 13.5l1.41 2.82s-1.41 18.12-.8 24.36 5.44 14.3 9.46 19.13 20.14 13.89 32 16.71 19.13 1.21 22.35-1 13.09-13.29 15.51-15.91 2.21-4.23 10.06-1.81 10.68 8.05 12.09 12.28 6.64 21.14 10.87 26.58a50.6 50.6 0 0 0 20.54 16.31c10.27 4.43 17.11 7.85 26.78 6.65s14.9-5.64 17.92-10.88 5-15.7 6-18.93a11 11 0 0 1 4.23-5.23s4-1.81 5.24-4.63 10.67-11.48 10.67-11.48 15.3-12.08 21.14-18.73S522 255.46 522 256.07s-2.42 12.48-4.63 18.12-1.62 8.26.6 8.06 5.23-10.27 7-15.91 3.64-16.92 2.84-20.54M356.65 279a12.4 12.4 0 0 1-1.61 3.43c-1.21 1.81-9.27 14.7-14.3 18.72s-10.87 7.45-16.92 6.85-21.54-6.44-33-15.5-13.09-20.95-11.88-32.42 5.24-19.34 11.28-20.54 26 3.82 39.67 11.07 25.37 16.11 26.17 19.13.59 9.26.59 9.26m96.45 41.3c-1.21 10.47-3.62 16.52-7.25 21.35s-7.85 7.05-19.13 6-19.73-5.24-27.59-10.87-10.47-13.09-13.49-20.14-8.25-21.14-5.23-30 11.88-6.64 11.88-6.64 7.45 1.61 8 1.81 45.11 13.29 47.12 16.31 6.9 11.71 5.69 22.18" style="fill:#263238"/><path d="M430.11 352.26c-7.17 0-13.09-2.57-20.83-5.94l-2.29-1a51 51 0 0 1-20.73-16.46c-3.86-5-8.45-19.06-10.42-25.08-.21-.66-.4-1.22-.54-1.65-1.33-4-4-9.58-11.75-12-6.48-2-7.12-1.21-8.68.66-.26.32-.54.66-.88 1l-1.5 1.64c-3.66 4-11.29 12.42-14.09 14.34-1.64 1.13-8.14 4.55-22.75 1.08-11.69-2.78-28.1-11.86-32.28-16.88-4.34-5.2-9-13.22-9.58-19.4-.58-6 .66-22.5.79-24.32l-1.34-2.69c-1.52-3 1-10.7 2.62-13.94a3.34 3.34 0 0 1 2.33-1.82c2.5-.59 5.77 1 6.87 1.85.86.64 1.25.66 1.35.65l.06-.09.19-.05a21 21 0 0 1 5.59-.41c3.06.22 9.54 1.75 15.42 3.65 6.24 2 40.26 17 43 18.56l1.08.6c2.51 1.37 5.36 2.91 7.19 7.3 2.11 5.07 5.72 11.48 8.52 13.91s9.54 2.13 13.78.32a28.5 28.5 0 0 0 4.26-2.42c2-1.28 3.65-2.37 5.63-2.25 3.22.21 45.35 12.47 54.78 17.58 6.88 3.72 9.37 5.9 11 7.34a12 12 0 0 0 1.68 1.32c1.86 1.12 6 1.34 7.54 1.15.93-.12 2.44-1.42 3.91-2.67.76-.65 1.55-1.33 2.3-1.87 2.14-1.56 23.25-19.64 28.94-25.13 5.49-5.3 15.65-16.25 17.86-19.46 1.53-2.22 5.37-6.17 7.67-5.73a1.92 1.92 0 0 1 1.48 1.68c.87 3.91-1.09 15.39-2.83 20.8l-.45 1.43c-2.64 8.28-4.83 14.62-7 14.82a2.07 2.07 0 0 1-2-.78c-1-1.3-.67-4 .86-7.95 1.78-4.53 3.7-13.18 4.36-16.57-2.89 3.07-11.36 12.76-16.73 18.91l-4.91 5.71c-5.8 6.61-21.06 18.67-21.21 18.79-3.22 2.95-9.6 9.13-10.52 11.28-1.27 3-5.32 4.82-5.49 4.89a10.56 10.56 0 0 0-4 4.93c-.25.81-.58 2.14-1 3.68-1.13 4.54-2.83 11.4-5.12 15.35-3.69 6.41-9.67 10-18.29 11.12a32 32 0 0 1-3.85.22M358 288a21.6 21.6 0 0 1 5.84 1.22c8.2 2.52 11 8.4 12.41 12.6.14.43.33 1 .54 1.66 1.95 6 6.51 20 10.25 24.77a50.05 50.05 0 0 0 20.35 16.16l2.29 1c9 3.9 15.43 6.72 24.23 5.62 8.28-1 14-4.51 17.55-10.63 2.21-3.83 3.9-10.61 5-15.1.39-1.55.72-2.88 1-3.73a11.38 11.38 0 0 1 4.44-5.51c.09-.05 3.92-1.8 5-4.4 1.23-2.89 10.4-11.29 10.79-11.65.18-.14 15.36-12.15 21.11-18.69l4.91-5.61c17.77-20.35 17.87-20.31 18.39-20.11l.32.12v.36c0 .7-2.45 12.64-4.67 18.3-1.93 4.92-1.34 6.52-1 7a1.12 1.12 0 0 0 1.08.39c1.71-.16 4.72-9.6 6.16-14.13l.46-1.44c1.85-5.75 3.57-16.82 2.81-20.27-.16-.73-.48-.87-.7-.92-1.48-.27-4.84 2.68-6.66 5.32-2.29 3.33-12.39 14.22-18 19.61s-26.9 23.65-29.05 25.21c-.72.52-1.49 1.19-2.24 1.83-1.65 1.41-3.21 2.74-4.44 2.9-1.47.18-5.92.08-8.17-1.28a12.6 12.6 0 0 1-1.83-1.42c-1.61-1.42-4.06-3.55-10.84-7.23-9.36-5.07-51.18-17.24-54.36-17.45-1.65-.12-3.14.86-5 2.09a28.5 28.5 0 0 1-4.42 2.5c-4.51 1.93-11.71 2.21-14.82-.49s-6.7-9.26-8.79-14.28c-1.69-4.06-4.26-5.45-6.75-6.8l-1.09-.61c-2.71-1.55-36.58-16.48-42.8-18.48a81 81 0 0 0-15.19-3.6 20.5 20.5 0 0 0-5.16.36 1 1 0 0 1-.42.17 3 3 0 0 1-2.13-.83c-1.06-.8-4-2.15-6-1.68a2.37 2.37 0 0 0-1.66 1.3c-1.6 3.19-3.9 10.48-2.62 13l1.47 3v.13c0 .19-1.4 18.15-.8 24.28.57 6 5.11 13.77 9.35 18.86 4.08 4.91 20.22 13.81 31.74 16.55 14.22 3.37 20.4.14 22-.94 2.7-1.85 10.27-10.18 13.91-14.18.64-.7 1.15-1.27 1.51-1.65s.59-.68.84-1c1.08-1.36 1.86-2.2 3.86-2.2m73.59 60.43c-1.47 0-3.1-.08-4.91-.24-9.92-.89-18.51-4.27-27.84-11-7.28-5.23-10.12-12-12.87-18.49-.26-.62-.52-1.24-.79-1.85-4-9.25-8.09-22-5.25-30.37 3.14-9.18 12.39-7 12.48-7 .75.16 7.48 1.61 8.09 1.82l1.06.32c20.24 6.05 44.71 13.78 46.32 16.19s7 11.48 5.72 22.48c-1.13 9.77-3.33 16.23-7.35 21.59-3.08 4.17-6.56 6.55-14.66 6.55m-41.76-68.16c-2.71 0-7 1-8.95 6.57-2.88 8.46 2 22.2 5.22 29.64.27.62.53 1.24.79 1.86 2.69 6.39 5.48 13 12.54 18.07 9.17 6.59 17.6 9.91 27.34 10.78 11.26 1 15.26-1.27 18.68-5.84 3.91-5.21 6.05-11.52 7.15-21.1 1.23-10.67-3.94-19.4-5.55-21.82-.41-.61-4.92-3.56-45.78-15.79l-1.09-.32c-.42-.14-5-1.15-8-1.8a10.3 10.3 0 0 0-2.35-.25m-64.57 28.32a15 15 0 0 1-1.49-.07c-6.32-.64-21.81-6.56-33.28-15.61-12.85-10.15-13-23.62-12.07-32.87 1.28-12.1 5.53-19.74 11.68-21s26.13 3.78 40 11.12c13.17 7 25.52 16.06 26.43 19.44.81 3.06.62 9.15.62 9.41v.11a12.9 12.9 0 0 1-1.68 3.57c-.13.2-.33.52-.61.94-2.28 3.52-9.23 14.26-13.79 17.9-5.98 4.8-11.07 7.06-15.81 7.06m-32.81-68.72a11 11 0 0 0-2.16.18c-5.6 1.12-9.67 8.63-10.87 20.1-1.51 14.32 2.2 24.48 11.69 32 10.89 8.6 26.42 14.77 32.76 15.4 4.93.5 10.19-1.64 16.56-6.74 4.43-3.54 11.31-14.17 13.58-17.67l.61-.94a12 12 0 0 0 1.53-3.22c0-.63.15-6.3-.59-9.06s-12.22-11.56-25.93-18.82c-12.34-6.56-29.55-11.23-37.18-11.23" style="fill:#263238"/><path d="M371.63 282.81a11.7 11.7 0 0 1-2.61-.28c-7.18-1.59-9.95-9.35-11.78-14.49l-.26-.73c-1.71-4.75-3.42-6-3.43-6l.55-.82c.08.05 2 1.35 3.82 6.48l.26.73c1.76 4.93 4.42 12.38 11.06 13.86 6.92 1.53 14-4.47 14.06-4.53l.66.76c-.27.21-5.96 5.02-12.33 5.02m90.16 22.96A16.4 16.4 0 0 1 455 304a2.2 2.2 0 0 1-.55-.72c-.93-1.58-3.78-6.36-15.69-11.73-14.09-6.35-46.31-14.39-46.63-14.47l.24-1c.32.08 32.63 8.14 46.8 14.53 12.19 5.5 15.17 10.48 16.14 12.12.11.18.23.38.27.43.41.26 6.28 2.84 9.06.79l.6.81a5.86 5.86 0 0 1-3.45 1.01m-109.89-46.3s-4-3.29-20.63-10.8a207 207 0 0 0-33.81-11.52c-1.18-.31-2.11-.55-2.77-.74a19.55 19.55 0 0 0-10.8.41c-3.05.86-6.76-2.39-6.91-2.53l.66-.75s3.46 3 6 2.31a20.5 20.5 0 0 1 11.34-.4c.66.19 1.59.43 2.75.73a207.3 207.3 0 0 1 34 11.58c16.79 7.59 20.7 10.81 20.86 10.95Zm-66.66 31.21c-9.14-7.93-8.44-21.42-8.43-21.55l1 .06c0 .13-.68 13.14 8.08 20.73Z" style="fill:#fff"/></svg>