<svg xmlns="http://www.w3.org/2000/svg" viewBox="0 0 500 500"><defs><clipPath id="a"><path d="M291.82 232.72s11.73 5.53 15.48 10.54 6.95 15.61 6.12 21c-1.35 8.79-14.48 29.88-13.84 32.79s-18 28-18 28 8 3.41 11.87 1.27 8.56 2.28 8.56 2.28l7.48-2.28s15.71 9.1 5.07 26.2l-10.13 3.62s-6.27 7.8-12.63 9.91-34.16 5.48-46.44 1-14.04-20.05-17.43-29.45 27.59-73.32 27.59-73.32Z" style="fill:#fff;stroke:#263238;stroke-linecap:round;stroke-linejoin:round"/></clipPath><clipPath id="b"><path d="M298.1 270.23c-.13 1.39-.28 2.81-.46 4.25-.41 3.53-.95 7.16-1.59 10.75C293.63 299 289.71 312 285 316.35c-10 9.12-16.88 34.79-14.95 37.56s-10.48 22.55-10.48 22.55 3.06 5 .54 8.07H197.2V372.6H165v-18.74l-7.76-1.19c6.94-32.31 8.49-73.65 11.11-90.54 3.57-22.95 12.66-35.61 26.43-51.83 12.76-15 35.18-15.4 52.58-8.23a36 36 0 0 1 3.77-2.31c3.76-2 9.74-4.5 15.07-3.43 8.57 1.71 26.2 31.89 27.76 38.11l1.26 11" style="fill:#fff;stroke:#263238;stroke-linecap:round;stroke-linejoin:round"/></clipPath><clipPath id="c"><path d="M203.23 206.77a44.3 44.3 0 0 1 22.43-4.85c14.49.4 20.94 24.47 20.94 24.47s25 12.66 29.15 31.39-17.49 43-52 44.54-44.26-23.32-46.37-38c-1-6.9 0-21.29 5.79-34.51" style="fill:#fff;stroke:#263238;stroke-linecap:round;stroke-linejoin:round"/></clipPath><clipPath id="d"><path d="M319.75 325.28s-3.7 4.17-8.44 4.39a16.06 16.06 0 0 0-3 10.48 8.67 8.67 0 0 0 5.69 8l10.19-3.17" style="fill:#fff;stroke:#263238;stroke-linecap:round;stroke-linejoin:round"/></clipPath><clipPath id="e"><path d="M316.4 344.67c1.34 3 12.49 2.42 18.45-.91s8.66-7 8.81-9.25 3.37-5.05 3.1-6.42.46-3.51.3-5.11-7.8-8.92-9.17-9-3.72 1.85-3.72 1.85-4.62-4.78-7.13-2.56c-7.69 6.82-10.81 19.59-10.81 19.59-.37 2.14 0 2.57 0 2.57" style="fill:#fff;stroke:#263238;stroke-linecap:round;stroke-linejoin:round"/></clipPath><clipPath id="f"><path d="M298.5 222a35 35 0 0 1-3.16 3.71c-1.1 1.15-2.29 2.26-3.5 3.32a97 97 0 0 1-13.23 9.59c-13.35-12.66-27.27-31.91-21.09-36.13s4.37-15.49 4.37-15.49a17 17 0 0 1 2.64.11c12.56 1.43 28.72 15.58 33.53 26.09 1.63 3.55 1.94 6.68.44 8.8" style="fill:#fff;stroke:#263238;stroke-linecap:round;stroke-linejoin:round"/></clipPath><clipPath id="g"><path d="M265.4 199.42s-.33 4 .12 5.53c2.37 8.11 12.86 22 17.6 23.15s10.84 1 14.05-2c5.91-5.43 18-14.24 19.58-21.76s9.3-20.35 9.3-34.42c0-7.71-1.1-27.18-23.15-32.9-31.51-8.18-37.79 11.28-40.22 24.53-1.06 5.8-1.14 13.78-1.05 19.51" style="fill:#fff;stroke:#263238;stroke-linecap:round;stroke-linejoin:round"/></clipPath></defs><path d="M248.34 67.68C54 78.56 12.22 336.4 77.32 415.25c50.53 61.2 140.61 51.1 188.17-8.81 39.15-49.32 102.54-12.88 154.79-66.22 68.06-69.49 46.19-284.74-171.94-272.54" style="fill:#92e3a9"/><path d="M248.34 67.68C54 78.56 12.22 336.4 77.32 415.25c50.53 61.2 140.61 51.1 188.17-8.81 39.15-49.32 102.54-12.88 154.79-66.22 68.06-69.49 46.19-284.74-171.94-272.54" style="fill:#fff;opacity:.7000000000000001"/><path d="m105.74 344.54 60.66 9.32v18.74h32.17v11.93H309.6v21.06l56.71-8.42v-19.2l34.81-6.04-3.16-34.12-40.09 3.49-2.1-28.57 36.38-4.08-3.42-32.42 41.4-5.65v-28.4h-41.4V213l37.71-.24 1.58-30.83-42.72-2.6.52-32.62-50.63-4.95-2.74-29.42-65.48-5.77-3.85 25.83-65.08-2.21 1.06-25.69h-44.31l-4.22 22.2-22.68.75-2.64 22.96 42.2.59-1.58 24.22-59.61 3.6-3.69 24.93-32.7 2.59v23.43h46.42l-4.22 25.27-24.79 2.62-1.59 27.59 47.09 3.2-2.25 26.74-25.32 1.66z" style="fill:#263238"/><path d="M150.57 126.7s-40.51 1.18-63.84 3.48M167.45 151s-65.95-2.86-90.54.92m88.96 23.3-94.03 4.11m18.85-28.71-3.96 19.87m15.84 33.27-56.05 4.81m69.77 21.2-69.77.37m12.13 0v26.47l18.26.54m29.81-152.65h92.38l41.4 1.01m-108.82-1.01 2.45-21.59h44.96l-2.08 18.88M232 98.74l.52-18.47s36.75.65 66.2 5.34l1 18.88m-32.75 2.08 107.44 10.61m-39.22 24.58 73.17 7.06-1.58-25.52m-38.37-10.69-2-16.45m13.52 83.17 60.61 3.58m-32.18-34.09 29.01 4.95v15.06M388.73 213c3.28 0 69.22.7 69.22.7m-69.22 28.48 69.22-.23m-102.18 70.78 90.04-7.29m-87.94 35.86 59.97-4.61-2.27-23.16m-164.24 78.7 4.68 22.5 110.3-17.56 59.99-4.94m-59.99-14.26 82.67-13.32-3.17-23.35M166.4 353.86l-89.49-14.63-5.08 28.36 44.46 5.91m85.55 11.03-49.83 2.51-.34 30.26 59.95-2.37m-66.74 4.55-38.15 2.93m23.8-107.22-84.01 4.13v15.04m86.26-45.91-95.23-.44m161.02 96.52v21.06m-16.02 11.02v25.14m112.52-31.68 3.66 27.68m-60.7-20.45v24.45h-38.05m226.32-74.16 3.83 14.8" style="fill:none;stroke:#263238;stroke-linecap:round;stroke-linejoin:round"/><path d="m344.86 401.16 4.03 26.71 44.7-3.96m8.49-29.69 1.28 19.49M264.8 81.86l-.55-24.15m46.79 28.89 40.22 5.78m-17.29-2.48V67.73m-177.62-8.12 49.46-.79v19.99h16.27" style="fill:none;stroke:#263238;stroke-linecap:round;stroke-linejoin:round"/><path d="M291.82 232.72s11.73 5.53 15.48 10.54 6.95 15.61 6.12 21c-1.35 8.79-14.48 29.88-13.84 32.79s-18 28-18 28 8 3.41 11.87 1.27 8.56 2.28 8.56 2.28l7.48-2.28s15.71 9.1 5.07 26.2l-10.13 3.62s-6.27 7.8-12.63 9.91-34.16 5.48-46.44 1-14.04-20.05-17.43-29.45 27.59-73.32 27.59-73.32Z" style="fill:#fff"/><g style="clip-path:url(#a)"><path d="M281.6 325.1a30 30 0 0 0 5.91 1.73C281 331 274.86 336.51 273 343.48c-3.17 11.7 8.69 19.52 16.42 23.26-9.19 2.05-32.92 4.4-44 .36-12.16-4.43-14-19.75-17.34-29.19l27.46-73.59 38 4.1s.61 7.73 8.56 6.72c3.46-.44 7.53-4.57 11-9.08-2.53 9.56-14.07 28.32-13.47 31.05.6 2.89-18.03 27.99-18.03 27.99" style="fill-opacity:.7000000000000001;opacity:.30000000000000004"/><path d="m314.58 352.57-10.13 3.62s-.89 1.1-2.33 2.59c-4.23-5.28-11.86-17.52-1.74-27.61 0 0-1.2 9.63 4.07 15.45s7.55 3.74 7.55 3.74-6.37-2.52-6.16-13.67c.05-2.9 1.28-7.58 3.59-10.3h.08s15.71 9.08 5.07 26.18" style="fill-opacity:.7000000000000001;opacity:.30000000000000004"/></g><path d="M291.82 232.72s11.73 5.53 15.48 10.54 6.95 15.61 6.12 21c-1.35 8.79-14.48 29.88-13.84 32.79s-18 28-18 28 8 3.41 11.87 1.27 8.56 2.28 8.56 2.28l7.48-2.28s15.71 9.1 5.07 26.2l-10.13 3.62s-6.27 7.8-12.63 9.91-34.16 5.48-46.44 1-14.04-20.05-17.43-29.45 27.59-73.32 27.59-73.32Z" style="fill:none;stroke:#263238;stroke-linecap:round;stroke-linejoin:round"/><path d="M302 328.65a15.62 15.62 0 0 0-3.3 9.61c-.08 6 3.3 11.55 3.3 11.55m2.45 6.38s-5.76-5.06-7-11.65M281.6 325.1s-11.88.35-14.43 6.07M311 260.53s-8.44 14.38-22.68 15.7" style="fill:none;stroke:#263238;stroke-linecap:round;stroke-linejoin:round"/><path d="M298.1 270.23c-.13 1.39-.28 2.81-.46 4.25-.41 3.53-.95 7.16-1.59 10.75C293.63 299 289.71 312 285 316.35c-10 9.12-16.88 34.79-14.95 37.56s-10.48 22.55-10.48 22.55 3.06 5 .54 8.07H197.2V372.6H165v-18.74l-7.76-1.19c6.94-32.31 8.49-73.65 11.11-90.54 3.57-22.95 12.66-35.61 26.43-51.83 12.76-15 35.18-15.4 52.58-8.23a36 36 0 0 1 3.77-2.31c3.76-2 9.74-4.5 15.07-3.43 8.57 1.71 26.2 31.89 27.76 38.11l1.26 11" style="fill:#fff"/><g style="clip-path:url(#b)"><path d="M259.52 376.46s3.06 5 .54 8.07H197.2V372.6H165v-18.74l-7.76-1.19c2.31-10.74 4-22.48 5.37-34 13.5 17.17 42.32 50.67 64 53.91 29.29 4.38 35.8-11.84 35.8-11.84s-30.85 4.39-53.69-19.76 16.35.95 39.89 0a83.7 83.7 0 0 0 24.82-4.81c-3 8.42-4.47 16.26-3.45 17.72 1.95 2.79-10.46 22.57-10.46 22.57m26.67-122.78 5.7 5.15s8.34-14-6.1-36.15-32.59-20.78-32.59-20.78c-3.78 3.33-8.14 5.11-7.51 15.43-2.06-3.6-4.52-6.41-7.46-8-20.4-11.24-59.85 29.28-59.85 29.28s-14.24 44 2.38 62.31S256 288.45 256 288.45a281 281 0 0 0-1.56-38.25c.53 1.45 1.08 2.94 1.67 4.49l7.54-9.65s10.33 11.47 11.88 23.34c1.2 9.17-3.17 40.91 5.91 52a26 26 0 0 1 3.5-4c1.93-1.76 3.73-5 5.34-9.05a12.9 12.9 0 0 1-3.29-4.15c-6.35-12-5.4-40.48-5.4-40.48Z" style="fill-opacity:.7000000000000001;opacity:.30000000000000004"/></g><path d="M298.1 270.23c-.13 1.39-.28 2.81-.46 4.25-.41 3.53-.95 7.16-1.59 10.75C293.63 299 289.71 312 285 316.35c-10 9.12-16.88 34.79-14.95 37.56s-10.48 22.55-10.48 22.55 3.06 5 .54 8.07H197.2V372.6H165v-18.74l-7.76-1.19c6.94-32.31 8.49-73.65 11.11-90.54 3.57-22.95 12.66-35.61 26.43-51.83 12.76-15 35.18-15.4 52.58-8.23a36 36 0 0 1 3.77-2.31c3.76-2 9.74-4.5 15.07-3.43 8.57 1.71 26.2 31.89 27.76 38.11l1.26 11" style="fill:none;stroke:#263238;stroke-linecap:round;stroke-linejoin:round"/><path d="M259.6 232.72s8.94 15.54 17 21l8.34 9.64s7.38 27.69 29.53 36.39S349.83 266.15 363 268l7.39-10.25-14.24-8.18a24.64 24.64 0 0 0-15 7.91c-6.85 7.39-16.35 33.86-24.53 32.49s-28.21-25.14-28.74-29.47v-9s5.23-9.67 4-15.95l-4-.52s-.79 9.54-2.9 12.15l-8.34 1.07a57.5 57.5 0 0 1-13-18.55l-5 4.51" style="fill:#92e3a9;stroke:#263238;stroke-linecap:round;stroke-linejoin:round"/><path d="m276.61 246.87-10.39-12-8 9.13s-12.22-29.45-11.43-36.46c.59-5.47 8.13-14.84 23.21-13.65s26.62 36 25.5 49.45a25.4 25.4 0 0 1-2 8.23l-5.82-14.22-7.45 5.79" style="fill:#fff;stroke:#263238;stroke-linecap:round;stroke-linejoin:round"/><path d="M232.39 384.53a3.2 3.2 0 0 0 .19-2.8C231 379 233 358 235 352.45s35-65.31 39.43-89.78" style="fill:none;stroke:#263238;stroke-linecap:round;stroke-linejoin:round"/><path d="M203.23 206.77a44.3 44.3 0 0 1 22.43-4.85c14.49.4 20.94 24.47 20.94 24.47s25 12.66 29.15 31.39-17.49 43-52 44.54-44.26-23.32-46.37-38c-1-6.9 0-21.29 5.79-34.51" style="fill:#fff"/><g style="clip-path:url(#c)"><path d="M275.45 268.75c-4.13 16.07-23.7 32.29-51.74 33.57-33.75 1.54-43.8-22.18-46.21-37 .29-10.11 3.55-22 14.51-31.69-.22.73-8.9 28.36-5.71 42.6A62.37 62.37 0 0 1 196.57 242c11.09-16.36 26.83-15.12 31.36-13.23s35.12 7.77 43.95 28.56a62.6 62.6 0 0 1 3.57 11.42m-66.2-46.07s10.95-10.41 20-9.68 15.27 12.86 15.27 12.86l-9.41-1.06s-5.02-4.32-25.86-2.12" style="fill-opacity:.7000000000000001;opacity:.30000000000000004"/></g><path d="M203.23 206.77a44.3 44.3 0 0 1 22.43-4.85c14.49.4 20.94 24.47 20.94 24.47s25 12.66 29.15 31.39-17.49 43-52 44.54-44.26-23.32-46.37-38c-1-6.9 0-21.29 5.79-34.51" style="fill:none;stroke:#263238;stroke-linecap:round;stroke-linejoin:round"/><path d="M246.6 226.39s-21-6.59-37.35 6.33m-18.73 55.73s-6.86-4.48-7.92-24.17 14.92-38.42 14.92-38.42" style="fill:none;stroke:#263238;stroke-linecap:round;stroke-linejoin:round"/><path d="M213.73 221.37s18-3.52 24.3 3.52" style="fill:none;stroke:#263238;stroke-linecap:round;stroke-linejoin:round"/><path d="M270.92 258.83s7.14 25.79-9.76 39.41-48.51 12.1-59.21 4.91-12.74-26.38-12.74-26.38c.73-21.58 6.68-38.44 28.58-48s50.05 15.92 53.13 30.06" style="fill:#fff"/><path d="M271.16 252.14S275 287.39 260 299.43s-42.89 10.7-52.35 4.34-11.26-23.32-11.26-23.32c.64-19.08 5.93-31.64 25.29-40.09s46.76-.72 49.48 11.78" style="fill-opacity:.7000000000000001;opacity:.30000000000000004"/><path d="M270.92 258.83s7.14 25.79-9.76 39.41-48.51 12.1-59.21 4.91-12.74-26.38-12.74-26.38" style="fill:none;stroke:#263238;stroke-linecap:round;stroke-linejoin:round"/><path d="M319.75 325.28s-3.7 4.17-8.44 4.39a16.06 16.06 0 0 0-3 10.48 8.67 8.67 0 0 0 5.69 8l10.19-3.17" style="fill:#fff"/><g style="clip-path:url(#d)"><path d="M319.75 325.28s-3.7 4.17-8.44 4.39a16.06 16.06 0 0 0-3 10.48 8.67 8.67 0 0 0 5.69 8l10.19-3.17" style="fill:#92e3a9;opacity:.4"/></g><path d="M319.75 325.28s-3.7 4.17-8.44 4.39a16.06 16.06 0 0 0-3 10.48 8.67 8.67 0 0 0 5.69 8l10.19-3.17" style="fill:none;stroke:#263238;stroke-linecap:round;stroke-linejoin:round"/><path d="M316.4 344.67c1.34 3 12.49 2.42 18.45-.91s8.66-7 8.81-9.25 3.37-5.05 3.1-6.42.46-3.51.3-5.11-7.8-8.92-9.17-9-3.72 1.85-3.72 1.85-4.62-4.78-7.13-2.56c-7.69 6.82-10.81 19.59-10.81 19.59-.37 2.14 0 2.57 0 2.57" style="fill:#fff"/><g style="clip-path:url(#e)"><path d="M324 331.56a19.8 19.8 0 0 0-3 4.45s2.09.59 2.4 1.57 1.65 3.8 3.47 3.23 5.73-1.61 5.73-1.61-3.39-2.65-3.49-4.45a4.13 4.13 0 0 1 1.37-3.05s.78-3.46 2.17-4.27a5.4 5.4 0 0 1 1.81-.83s3.15-3.34 3.14-5.24-.9-2-1-2c.16-.06 1.08-.44 1.15-2.43a3.62 3.62 0 0 0-.92-2.62 11.4 11.4 0 0 0-2.41 1.43 1.75 1.75 0 0 1 .11 2.26c-1.37 2.17-2.5 7.29-4.68 6.35s-2.38-3.39-2.41-3.68c-.14.45-1.91 9.33-3.44 10.89" style="fill:#92e3a9;opacity:.4"/></g><path d="M316.4 344.67c1.34 3 12.49 2.42 18.45-.91s8.66-7 8.81-9.25 3.37-5.05 3.1-6.42.46-3.51.3-5.11-7.8-8.92-9.17-9-3.72 1.85-3.72 1.85-4.62-4.78-7.13-2.56c-7.69 6.82-10.81 19.59-10.81 19.59-.37 2.14 0 2.57 0 2.57" style="fill:none;stroke:#263238;stroke-linecap:round;stroke-linejoin:round"/><path d="M334.17 315.87c1.62 1.56-.46 2.6-2.32 6.88s-5.43-1.07-4.22-3.59" style="fill:none;stroke:#263238;stroke-linecap:round;stroke-linejoin:round"/><path d="M343.77 325.28s-5.06-5.27-6.19-5.82-4.46.68-4.46.68m7.81 11.03s-5.72-4.54-6.49-4.57-6 .55-6 .55-.69-1.12.68-3.17m8.88 11.36-7.53-3.64c-.53-.25-3.47 0-4-.83s.92-3.6 1.95-3.72m5.38 13-5.4-4.15s-2.26 0-2.68-.51" style="fill:none;stroke:#263238;stroke-linecap:round;stroke-linejoin:round"/><path d="M327.06 331.28a9.8 9.8 0 0 0-2.74 2.74c-.59 1.26 1.63 3.58 3 4.1a2.32 2.32 0 0 0 2.45-.67" style="fill:none;stroke:#263238;stroke-linecap:round;stroke-linejoin:round"/><path d="M225.66 302.82s-10 4-13.19 1.61-14-24.51-14-24.51-3.72-3.31-3.66-6.93 2.8-19.11 5.93-20.93 9.68-.74 12.44-1.62 5.82-7.38 8.62-7.84 10 .06 13.06-.37 8.25-4.89 10.4-4.87 8.17 2.57 11.82 2.31 7.94-2.38 10.33-2.32 9.77 6.28 11.12 7.6 5.28 25.2 5.28 25.2 7.31 5.55 9.29 8.29 4 12.08 5.41 15.95-2.84 10.55-4.92 11-14.09 2.55-22.85 6.44c-2.88 1.29-5.72-3.21-5.72-3.21s-11.21 2-13 1.85-5.2-3.21-5.2-3.21-2.09 2.71-8.54 3.37c-5.85.62-7.47.53-12.62-7.81" style="fill:#fff"/><path d="M298.5 294.39c-1.4-3.87-3.43-13.2-5.41-15.95s-9.29-8.29-9.29-8.29-3.94-23.89-5.28-25.2c-.63-.61-2.55-2.28-4.66-3.89 4 6.05 2.49 14.75 2.41 15.24l2.22-4.73s8 33.72 6.91 36.88-13.65 3.87-15.4 1.85-4.38-15-4.53-16.21a14.7 14.7 0 0 1 1.7-6.48c1-1.37-3.14-9.51-4.74-9.34s-3.14 9.92-2.16 11.88 1.59 7.93 2.16 10.7 3.79 17.47 1.23 20-13.87 3.1-15.06 1.5-5.53-25.7-4.95-28.3-.19-10.45-3.15-11.42-4 5.12-2.47 7.62a29 29 0 0 1 2.47 6.59c-.78 8.09 3.15 27.81 3.15 27.81s-10.47 1.67-12.84 0-6.73-23.05-6.73-23.05 3 .39 0-3.56-7.32-12.66-8.31-7.79 3.36 10.75 3.36 10.75c.58 5.14 1.58 14.12 1.58 14.12s-3.16 2.3-6.13 2.1-9.49-16.61-8.6-18.39 6.43 5.73 6.43 5.73-1-5.14-3.16-7.31-8.34-13.86-9.27-14.62c-.52-.42.11-3.16.77-5.5.59-2.07 2.13-5 4.29-5 3.83 0 9.91 1.45 11.32 1.54 2.18.13 4-8.64 5.36-9.82s12.84 2.17 14 2.17 8.11-7.12 10.85-7.45 8.73 2.11 13.6 3.6c3.84 1.17 7.73-2.52 9.19-4.12a5.1 5.1 0 0 0-2-.71c-2.39-.06-6.67 2.06-10.33 2.32s-9.68-2.3-11.82-2.31-7.35 4.44-10.4 4.87-10.25-.09-13.06.37-5.87 7-8.62 7.84-9.32-.2-12.44 1.62-5.87 17.32-5.93 20.93 3.66 6.93 3.66 6.93 10.88 22.1 14 24.51 13.19-1.61 13.19-1.61c5.15 8.34 6.77 8.43 12.6 7.84 6.45-.66 8.54-3.37 8.54-3.37s3.39 3.06 5.2 3.21 13-1.85 13-1.85 2.84 4.5 5.72 3.21c8.76-3.89 20.76-6 22.85-6.44s6.38-7.15 4.98-11.02" style="fill:#92e3a9;opacity:.4"/><path d="M225.66 302.82s-10 4-13.19 1.61-14-24.51-14-24.51-3.72-3.31-3.66-6.93 2.8-19.11 5.93-20.93 9.68-.74 12.44-1.62 5.82-7.38 8.62-7.84 10 .06 13.06-.37 8.25-4.89 10.4-4.87 8.17 2.57 11.82 2.31 7.94-2.38 10.33-2.32 9.77 6.28 11.12 7.6 5.28 25.2 5.28 25.2 7.31 5.55 9.29 8.29 4 12.08 5.41 15.95-2.84 10.55-4.92 11-14.09 2.55-22.85 6.44c-2.88 1.29-5.72-3.21-5.72-3.21s-11.21 2-13 1.85-5.2-3.21-5.2-3.21-2.09 2.71-8.54 3.37c-5.85.62-7.47.53-12.62-7.81" style="fill:none;stroke:#263238;stroke-linecap:round;stroke-linejoin:round"/><path d="M198.46 279.92s-2.28-5.79-1.83-9.63m32.9-23.04c1.8 1.68-.3 12.86-.3 12.86M250 242c2.09 2.62 1.21 8.89.75 12.74m11.94 10.44s-.61 7.74.05 9.26 2 14.59 2.56 18.1 1.41 9.13 1.75 10.52.11 5.22-2 5.59" style="fill:none;stroke:#263238;stroke-linecap:round;stroke-linejoin:round"/><path d="M266.22 298.32s1.79 3.8 3.06 4a72 72 0 0 0 10.65-1.23c1.66-.4 6.79-8.67 7.05-11s-3.18-19.89-3.18-19.89m-37 37.09c-1.45-1.74-3.52-10.43-4.49-18.89s-1.19-13.41-1.81-15.68m-14.84 30.1s-2.62-9.53-3.08-12-1.26-10.93-1.26-10.93a17.7 17.7 0 0 1-3.53-5.82m55.82-31.89c1 2.3 1.08 9.39 1.08 9.39" style="fill:none;stroke:#263238;stroke-linecap:round;stroke-linejoin:round"/><path d="M287 290c-.91 2.51-14.21 5.39-17 3m-6.34 10.15c-1.39 1.85-14.66 3.71-16.28 2.85M200 260.53c.35 3 3.72 7.5 3.72 7.5m86.72 24.16c2.56-1.05 6.06 6.05 6.06 6.05" style="fill:none;stroke:#263238;stroke-linecap:round;stroke-linejoin:round"/><path d="M298.5 222a35 35 0 0 1-3.16 3.71c-1.1 1.15-2.29 2.26-3.5 3.32a97 97 0 0 1-13.23 9.59c-13.35-12.66-27.27-31.91-21.09-36.13s4.37-15.49 4.37-15.49a17 17 0 0 1 2.64.11c12.56 1.43 28.72 15.58 33.53 26.09 1.63 3.55 1.94 6.68.44 8.8" style="fill:#fff"/><g style="clip-path:url(#f)"><path d="M295.34 225.67c-1.1 1.15-2.29 2.26-3.5 3.32a97 97 0 0 1-13.23 9.59c-13.35-12.66-27.27-31.91-21.09-36.13s4.37-15.45 4.37-15.45a17 17 0 0 1 2.64.11c.58 6.42 1.07 15.7-.69 18-2.77 3.56-5.22 4.21-5.22 4.21s10 19.41 21.38 26.25c0-.02 4.53-9.24 15.34-9.9" style="fill:#92e3a9;opacity:.4"/><path d="M298.5 222a44.8 44.8 0 0 1-6.66 7 35.2 35.2 0 0 1-10.4 3.73c-9.89-8.56-12.86-26.05-12.86-26.05s20.33 1.8 29.48 6.54c1.63 3.53 1.94 6.66.44 8.78" style="fill:#263238"/></g><path d="M298.5 222a35 35 0 0 1-3.16 3.71c-1.1 1.15-2.29 2.26-3.5 3.32a97 97 0 0 1-13.23 9.59c-13.35-12.66-27.27-31.91-21.09-36.13s4.37-15.49 4.37-15.49a17 17 0 0 1 2.64.11c12.56 1.43 28.72 15.58 33.53 26.09 1.63 3.55 1.94 6.68.44 8.8" style="fill:none;stroke:#263238;stroke-linecap:round;stroke-linejoin:round"/><path d="M265.4 199.42s-.33 4 .12 5.53c2.37 8.11 12.86 22 17.6 23.15s10.84 1 14.05-2c5.91-5.43 18-14.24 19.58-21.76s9.3-20.35 9.3-34.42c0-7.71-1.1-27.18-23.15-32.9-31.51-8.18-37.79 11.28-40.22 24.53-1.06 5.8-1.14 13.78-1.05 19.51" style="fill:#fff"/><g style="clip-path:url(#g)"><path d="M326.05 169.94c0 14.07-7.72 26.9-9.3 34.42s-13.67 16.33-19.58 21.76a11 11 0 0 1-6 2.48c6.54-4 4.84-7.36 4.84-7.36a7.87 7.87 0 0 1-4.72.53c-2.63-.53-2.34-3.76-2.34-3.76a6.87 6.87 0 0 1 4.9.07c2.56 1 5.62-3.17 5.66-3.56s-4.41-.94-4.41-.94l5.69-1.28-4.61-2.55s-.53.94-2.91 1.21-3.83-5.66-3.83-5.66l13.49-6.38s0-1.81-.26-5.14a25.5 25.5 0 0 1 .26-5.84l.67-2.15 1.88 1.21s9.42-3.87 9.4-6.64 2.39-5.27 4-9.87-.54-11.49-.54-11.49-3-4.88 2.82-3.16c1.44.42 2.83 2.21 4.11 4.66a50 50 0 0 1 .78 9.44" style="fill:#92e3a9;opacity:.4"/></g><path d="M265.4 199.42s-.33 4 .12 5.53c2.37 8.11 12.86 22 17.6 23.15s10.84 1 14.05-2c5.91-5.43 18-14.24 19.58-21.76s9.3-20.35 9.3-34.42c0-7.71-1.1-27.18-23.15-32.9-31.51-8.18-37.79 11.28-40.22 24.53-1.06 5.8-1.14 13.78-1.05 19.51" style="fill:none;stroke:#263238;stroke-linecap:round;stroke-linejoin:round"/><path d="M274.42 178.45c1.78-.4 9.89 4.94 16.22 7.32s4-1.81 4-1.81m9.25.82-1 3.16s4.16.79 9.69-3.16 7.72-3.05 8.51-2.32" style="fill:none;stroke:#263238;stroke-linecap:round;stroke-linejoin:round"/><path d="M285 187.19c-.15 1.16-.89 2-1.65 1.91s-1.25-1.12-1.09-2.27.89-2 1.65-1.91 1.22 1.08 1.09 2.27m25.67 3.1c-.15 1.15-.89 2-1.65 1.9s-1.25-1.12-1.09-2.27.89-2 1.65-1.91 1.25 1.12 1.09 2.28" style="fill:#263238"/><path d="M282.2 212.34a29 29 0 0 1 9.1 1 9.1 9.1 0 0 0 4.71 0s3.46-.84 5.57.31M287 216.56s1.32 1.45 2 1.45 4.86-.4 5.73 0 2.85-1.06 2.85-1.45" style="fill:#fff;stroke:#263238;stroke-linecap:round;stroke-linejoin:round"/><path d="m266.38 182.46 1.84-.64s-.79-8.65 1.85-11 8.17-4.75 8.17-6.07 1.06-11.68 1.85-12.43c0 0 16.35 8.74 25.05 10.85s17.94-1.58 17.94-1.58.79 10.55 0 14.24.35 9.51.35 9.51 10.07-15.31 2.62-31.14c0 0 2.83-11.07-4.95-20.3s-32.18-5.81-32.18-5.81 4.51.53 6.15 1.85a24.63 24.63 0 0 0-23.42 4.48c-11.34 9.23-13.38 34.67-9.76 52.61 0 0 .53-9.62 1.85-10.94s2.64 6.37 2.64 6.37" style="fill:#263238"/><path d="M264.66 178.43s-1.58-6.43-2.66-7.63-5.93 1.3-6.33 3.81.53 12.14 1.45 13.4 3.43 2.57 4.88 5.34 3.17 2.5 3.56 0a4.34 4.34 0 0 0-1.31-3.92" style="fill:#fff;stroke:#263238;stroke-linecap:round;stroke-linejoin:round"/><path d="M307.5 160.43a22.5 22.5 0 0 1 3.66 2 12.5 12.5 0 0 1 3.13 2.83 6 6 0 0 1 1 2 4.5 4.5 0 0 1 .07 2.28A7 7 0 0 1 313 173a9 9 0 0 1-3.47 2.22 3.8 3.8 0 0 1-2.16 0 3.13 3.13 0 0 1-1.65-1.36 3.73 3.73 0 0 1 .17-3.95 3.36 3.36 0 0 1 3.38-1.73 3.22 3.22 0 0 0-3.16 1.86 3.32 3.32 0 0 0 0 3.55 2.47 2.47 0 0 0 1.4 1 3.15 3.15 0 0 0 1.74-.14 8.1 8.1 0 0 0 3-2.22 6 6 0 0 0 1.82-3.06 3.76 3.76 0 0 0-1-3.09 15.7 15.7 0 0 0-6.31-3.85Z" style="fill:#263238"/><path d="M324.1 155.84s4.86-18.16-8.18-24.8c-7.51-3.82-22.1-2.9-22.1-2.9" style="fill:none;stroke:#fff;stroke-linecap:round;stroke-linejoin:round"/><path d="M261.2 168.23s-1.46-18.2 6.19-29 21.63-11.74 31.52-7.38m27.14 23.99a26.56 26.56 0 0 1 2.07 13.84 36.3 36.3 0 0 1-3.7 12.14M312 160.58s9.59-9.1 4.32-22.28m-8.44 22.28s6.79-19.12-10.55-24.39" style="fill:none;stroke:#fff;stroke-linecap:round;stroke-linejoin:round"/><path d="M302.9 159s-6.95-20.31-28.48-16.22" style="fill:none;stroke:#fff;stroke-linecap:round;stroke-linejoin:round"/><path d="M302.9 190.1c-.79 1 0 4.47 0 8.82 0 1.64.92 9.65-2.17 10.25-4.74.93-6.27-3.29-8.77-3.43s-3-.26-3-1.84a3 3 0 0 1 3.43-2.64" style="fill:#fff;stroke:#263238;stroke-linecap:round;stroke-linejoin:round"/><path d="m128.54 372.23 69.92-2.92 5.52 21.72-8.95 10.01-63.35 3.72-6.05-23.33zm156.06 36.26 6.68-14.54 62.02 14.99 2.84 15.85-5.58 12.96-57.94-14.07zM133.02 206.34l54.33-27.91 14.49 3.5v28.32l-49.83 23.03h-15.82zm66.96-110.18-10.77 22.93 5.38 12.38 56.74 12.7 18.36-16.72-6.03-20.03zm147.1 99.17-8.64 20.79.64 10.87 57.68 13.75 10.02-20.25v-10.24zM76.35 274.91l-9.26 23.06 3.26 10.73 59.3 16.58 10.76-22.46v-11.36zm303.58-2.88-3.73 11.43 4.53 24.21 67.65.19 6.57-8.39-4.21-27.12z" style="fill:#fff"/><path d="m189.21 119.09 57.39 10.31 17.06-21.98 6.03 20.03-18.36 16.72-56.74-12.7zm12.63 62.84-51.15 26.9 1.32 24.45h-15.82l-3.17-26.94 54.33-27.91zM67.09 297.97l60.26 16.9 13.06-23.41v11.36l-10.76 22.46-59.3-16.58zm61.45 74.26 7.91 23.74 67.53-4.94-8.95 10.01-63.35 3.72-6.05-23.33zm162.74 21.72 9.1 17.05 55.76 13.79-5.58 12.96-57.94-14.07-8.02-15.19zm88.65-121.92 8.13 26.21 66.89 1.23-6.57 8.39-67.65-.19-4.53-24.21zm-40.85-45.04 12.18-23.29 55.52 16.79v-10.24l-59.7-14.92-8.64 20.79z" style="fill:#92e3a9;opacity:.4"/><path d="m133.02 206.34 17.67 2.49 1.32 24.45h-15.82zM246.6 129.4l4.73 14.77-56.74-12.7-5.38-12.38zm100.48 65.93 4.18 8.37-12.18 23.29-.64-10.87zm33.65 112.34 7.33-9.43 66.89 1.23-6.57 8.39zM300.38 411l-7.76 12.68-8.02-15.19 6.68-14.54zm-163.93-15.03-4.77 8.79 63.35-3.72 8.95-10.01zm-69.36-98 60.26 16.9 2.3 10.41-59.3-16.58z" style="fill:#92e3a9;opacity:.4"/><path d="m128.54 372.23 69.92-2.92 5.52 21.72-8.95 10.01-63.35 3.72-6.05-23.33zm156.06 36.26 6.68-14.54 62.02 14.99 2.84 15.85-5.58 12.96-57.94-14.07zM133.02 206.34l54.33-27.91 14.49 3.5v28.32l-49.83 23.03h-15.82zm66.96-110.18-10.77 22.93 5.38 12.38 56.74 12.7 18.36-16.72-6.03-20.03zm147.1 99.17-8.64 20.79.64 10.87 57.68 13.75 10.02-20.25v-10.24zM76.35 274.91l-9.26 23.06 3.26 10.73 59.3 16.58 10.76-22.46v-11.36zm303.58-2.88-3.73 11.43 4.53 24.21 67.65.19 6.57-8.39-4.21-27.12z" style="fill:none;stroke:#263238;stroke-linecap:round;stroke-linejoin:round"/><path d="m215.05 123.73 31.55 5.67 3.4 10.61m13.66-32.59-8.06 10.38m-2.4 3.1-1.87 2.4m-62.12-4.21 5.97 1.07m151.9 75.17 4.18 8.37-4.75 9.09m9.42-7.68 12.48 3.78m4.2 1.27 3.59 1.08m-34.86 11.44-2.26 4.31m69.28 71.62-20.3-.37-1.91-6.16m29.43 6.53h2.26m-37.91-26.58 3.61 11.66m-2.81 23.98 4.15-5.35M296.4 403.53l3.98 7.47 10.98 2.71m4.9 1.22 5.4 1.33m34.48 8.53-9.06-2.24m-48.98-7.82-2.91 4.75m-161.06-19.24 2.32-4.27 14.22-1.04m8.72-.64 4.64-.34m-35.49-21.72 3.14 9.43m4.77 14.31-2.32-7.48m-5.59-68.38-1.19-5.24 4.81-8.63m8.25-14.78-3.64 6.51m-69.68 0 19.64 5.51m7.01 1.96 25.97 7.29M161.6 203.1l-10.91 5.73.63 11.66m.69 12.8-.34-6.3m21.62-30.04 11.6-6.1m-51.87 15.49 11.86 1.67m5.81.82-1.86-.26" style="fill:none;stroke:#263238;stroke-linecap:round;stroke-linejoin:round"/></svg>