<svg xmlns="http://www.w3.org/2000/svg" opacity=".1" viewBox="0 0 500 500"><path d="M213.75 46.58 83.29 121.89a10.54 10.54 0 0 0-4.74 8.23v294.2c0 3 2.13 4.26 4.74 2.74l130.46-75.31a10.53 10.53 0 0 0 4.74-8.22V49.32c0-3.02-2.13-4.25-4.74-2.74m-2.09 269.84c0 2.59-1.81 4.24-4.07 5.53L89 390.43c-2.24 1.3-4.07.25-4.07-2.35V157.62a9 9 0 0 1 4.07-7.06l118.59-68.47c2.26-1.3 4.07-.25 4.07 2.34Z" style="fill:#37474f"/><path d="M82.7 427.36a10.63 10.63 0 0 1-8.9-.29l-5.43-3.14a10.47 10.47 0 0 1-4.76-8.22V121.52a9 9 0 0 1 .83-3.55 11 11 0 0 1 .56-1.14l14.93 8.62a12 12 0 0 0-.82 1.74 8.8 8.8 0 0 0-.58 2.94v294.2c.02 2.78 1.83 4.05 4.17 3.03m66.95-63.81c4.14-2.39 7.49-.45 7.49 4.33a16.55 16.55 0 0 1-7.49 13c-4.14 2.39-7.49.45-7.49-4.33a16.55 16.55 0 0 1 7.49-13" style="fill:#263238"/><path d="M148.52 90.58c1.76-1 3.18-.19 3.18 1.84a7 7 0 0 1-3.18 5.51c-1.76 1-3.18.19-3.18-1.84a7 7 0 0 1 3.18-5.51m-12.28 19.35 24.56-14.18c1.46-.84 2.65-.24 2.65 1.34a5.71 5.71 0 0 1-2.65 4.41l-24.56 14.18c-1.46.84-2.65.24-2.65-1.35a5.69 5.69 0 0 1 2.65-4.4"/><path d="M211.66 316.18c0 2.58-1.81 4.23-4.07 5.53L89 390.19c-2.24 1.29-4.07.25-4.07-2.35V157.37a9 9 0 0 1 4.07-7.05l118.59-68.47c2.26-1.3 4.07-.25 4.07 2.34Z" style="fill:#ba68c8"/><path d="M211.66 316.18c0 2.58-1.81 4.23-4.07 5.53L89 390.19c-2.24 1.29-4.07.25-4.07-2.35V157.37a9 9 0 0 1 4.07-7.05l118.59-68.47c2.26-1.3 4.07-.25 4.07 2.34Z" style="opacity:.5"/><path d="M218.44 48.57c-.34-2.47-2.31-3.36-4.68-2L83.29 121.89a9.7 9.7 0 0 0-3.35 3.55L65 116.82a9.66 9.66 0 0 1 3.36-3.52L198.82 38a10.51 10.51 0 0 1 9.49 0l5.45 3.13a10.6 10.6 0 0 1 4.68 7.44" style="fill:#455a64"/><path d="m237.51 82.35-115.23 66.58a9 9 0 0 0-4.07 7v230.52c0 2.6 1.83 3.64 4.07 2.35l115.23-66.6c2.25-1.29 4.07-2.94 4.07-5.53v-232c0-2.57-1.82-3.67-4.07-2.32m-12.18 202.18a4.78 4.78 0 0 1-2.17 3.75l-89.77 51.9c-1.19.69-2.16.13-2.16-1.25V222a4.8 4.8 0 0 1 2.16-3.75l89.77-51.9c1.2-.69 2.17-.13 2.17 1.25Z" style="fill:#fafafa"/><path d="M120.47 389.85a2.54 2.54 0 0 1-1.31-.34 3.31 3.31 0 0 1-1.45-3.06V156a9.47 9.47 0 0 1 4.29-7.5l115.26-66.58a3 3 0 0 1 4.82 2.77v232c0 3.13-2.47 4.9-4.32 6l-115.23 66.54a4.23 4.23 0 0 1-2.06.62M239.33 82.29a3.2 3.2 0 0 0-1.57.49l-115.23 66.58a8.52 8.52 0 0 0-3.82 6.62v230.47a2.4 2.4 0 0 0 1 2.2 2.37 2.37 0 0 0 2.37-.29l115.23-66.59c2.64-1.52 3.82-3.09 3.82-5.1v-232a2.41 2.41 0 0 0-.94-2.2 1.57 1.57 0 0 0-.86-.18M132.43 341a1.55 1.55 0 0 1-.82-.22 2 2 0 0 1-.88-1.83V222a5.29 5.29 0 0 1 2.41-4.19l89.77-51.89a1.81 1.81 0 0 1 2.92 1.68v116.93a5.27 5.27 0 0 1-2.42 4.19l-89.77 51.89a2.5 2.5 0 0 1-1.21.39m91.7-174.44a1.43 1.43 0 0 0-.72.23l-89.77 51.89a4.33 4.33 0 0 0-1.91 3.32v117a.84.84 0 0 0 1.41.82l89.77-51.9a4.31 4.31 0 0 0 1.92-3.32V167.58a1.07 1.07 0 0 0-.39-1 .6.6 0 0 0-.31-.04Z" style="fill:#e6e6e6"/><path d="M123.58 161.73V160a1.07 1.07 0 0 1 .32-.85l.09-.05c.17-.11.32.1.32.47v1.69a1.1 1.1 0 0 1-.32.85h-.09c-.18.2-.32-.02-.32-.38m1.42-.85V158a1.07 1.07 0 0 1 .33-.85l.09-.05c.17-.11.32.11.32.47v2.92a1.1 1.1 0 0 1-.32.85h-.09c-.14.12-.33-.1-.33-.46m1.51-.88v-4.15a1.07 1.07 0 0 1 .33-.85l.08-.05c.18-.1.33.11.33.47v4.16a1.06 1.06 0 0 1-.33.84l-.08.06c-.18.13-.33-.08-.33-.48m1.49-.82V152a1.1 1.1 0 0 1 .32-.84l.09-.06c.18-.1.33.11.33.48v7.17a1.06 1.06 0 0 1-.32.84l-.09.06c-.2.11-.33-.1-.33-.47m4-1.8a.37.37 0 0 1-.05-.22v-1l-1.64.95c-.09.05-.14 0-.14-.15v-.37a1 1 0 0 1 0-.21v-.2l1.75-4.78a1 1 0 0 1 .09-.19.27.27 0 0 1 .11-.1l.23-.13c.07 0 .12-.05.15 0a.4.4 0 0 1 .05.23v3.68l.36-.21h.15a.55.55 0 0 1 0 .23v.25a1 1 0 0 1 0 .27.4.4 0 0 1-.15.16l-.36.21v1.05a.6.6 0 0 1-.05.26.4.4 0 0 1-.15.17l-.28.15c-.07-.02-.07-.02-.07-.05m.06-2.23v-2.62l-1.19 3.31Zm1.85.46a3.48 3.48 0 0 1-.48-2.15 6.9 6.9 0 0 1 .48-2.7 3.28 3.28 0 0 1 1.37-1.64 1.8 1.8 0 0 1 .66-.26.77.77 0 0 1 .51.08.1.1 0 0 1 0 .09.3.3 0 0 1 0 .12l-.15.55q0 .11-.06.12s0 0-.07 0a.93.93 0 0 0-.84.13 2.37 2.37 0 0 0-.93 1.13 5.3 5.3 0 0 0-.34 2 2.7 2.7 0 0 0 .33 1.62c.22.27.52.29.9.08a2.2 2.2 0 0 0 .4-.3 1.8 1.8 0 0 0 .33-.35v-1.71l-.69.39h-.14a.4.4 0 0 1-.05-.23v-.24a.6.6 0 0 1 .05-.27.3.3 0 0 1 .14-.15l1.1-.64h.16a.5.5 0 0 1 0 .27V154a1 1 0 0 1 0 .21.7.7 0 0 1-.06.17 3.55 3.55 0 0 1-1.3 1.28c-.54.34-1 .34-1.32-.05m101.45-64.33c-.19-.27-.42-.35-.66-.21l-4.93 2.84a2.53 2.53 0 0 0-.76 2v3.69a2.1 2.1 0 0 0 .29 1.18.7.7 0 0 0 .26.24.45.45 0 0 0 .39 0l4.93-2.85a2.48 2.48 0 0 0 .76-2v-3.72a2.2 2.2 0 0 0-.28-1.17m-5.88 9a1 1 0 0 1-.11-.54v-3.67a2 2 0 0 1 .58-1.52l4.93-2.85a.23.23 0 0 1 .21 0 .3.3 0 0 1 .09.07 1.2 1.2 0 0 1 .1.54V96a2 2 0 0 1-.58 1.52l-4.93 2.84a.2.2 0 0 1-.29-.07Z" style="fill:#455a64"/><path d="M232.59 93.68v4.37l-2.65 1.53h-.09a.7.7 0 0 0 0-.15v-3.28a1.52 1.52 0 0 1 .43-1.13Zm3.3-1.34c.18-.11.33.41.33 1.17v.69a2.65 2.65 0 0 1-.34 1.59l-.33.23v-3.49Zm-92.56 57.3a2.52 2.52 0 0 1-1 2c-.53.3-1-.11-1-.92a2.51 2.51 0 0 1 1-2c.58-.3 1 .11 1 .92" style="fill:#455a64"/><path d="M142.38 146.32a5.75 5.75 0 0 0-2.23 3.33c-.08.3 0 .58.11.67.18.12.45-.12.55-.49a4.06 4.06 0 0 1 1.57-2.36 1 1 0 0 1 1.56.55c.11.26.38.18.56-.14a1 1 0 0 0 .1-.78 1.43 1.43 0 0 0-2.22-.78" style="fill:#455a64"/><path d="M142.38 144a9 9 0 0 0-3.41 4.86c-.11.31-.08.63.07.73.17.11.43-.1.54-.46a7.28 7.28 0 0 1 2.79-4 1.84 1.84 0 0 1 2.78.75c.12.22.37.15.55-.16a1 1 0 0 0 .08-.83 2.27 2.27 0 0 0-3.4-.89m33.1-11.94a.5.5 0 0 1 0 .21c0 .06-.07.11-.12.13l-.24.14a.08.08 0 0 1-.11 0 .2.2 0 0 1-.05-.15v-5L174 129a.23.23 0 0 1-.12.12.11.11 0 0 1-.11 0l-.14-.2a.23.23 0 0 1 0-.17.8.8 0 0 1 .06-.2l1.27-2.23a.6.6 0 0 1 .09-.11l.1-.07.24-.14a.1.1 0 0 1 .12 0 .2.2 0 0 1 0 .14Zm1.41-4.86a.08.08 0 0 1 .11 0 .2.2 0 0 1 0 .15v.65a.5.5 0 0 1 0 .2.4.4 0 0 1-.11.14l-.4.23h-.11a.17.17 0 0 1 0-.15v-.61a.35.35 0 0 1 0-.2.23.23 0 0 1 .11-.14Zm0 3.2a.08.08 0 0 1 .11 0 .22.22 0 0 1 0 .15v.62a.5.5 0 0 1 0 .19.27.27 0 0 1-.11.14l-.4.23h-.11a.16.16 0 0 1 0-.14V131a.4.4 0 0 1 0-.21.2.2 0 0 1 .11-.13Zm2.91-.58a.09.09 0 0 1-.11 0 .2.2 0 0 1-.05-.15v-1.27l-1.86 1.08a.09.09 0 0 1-.11 0 .2.2 0 0 1 0-.15V129a1 1 0 0 1 0-.17l.06-.19 1.88-4.87a1.5 1.5 0 0 1 .1-.22.4.4 0 0 1 .13-.13l.24-.14a.09.09 0 0 1 .11 0 .2.2 0 0 1 .05.15v3.81l.51-.29a.09.09 0 0 1 .11 0 .2.2 0 0 1 0 .14v.33a.5.5 0 0 1 0 .21.3.3 0 0 1-.11.13l-.51.3v1.26a.5.5 0 0 1-.05.2.33.33 0 0 1-.11.14Zm-.16-2.24V125l-1.29 3.31Zm2.23-.5a1 1 0 0 0 .08.25.44.44 0 0 0 .16.17.5.5 0 0 0 .28 0 1.67 1.67 0 0 0 .8-.46 1.7 1.7 0 0 0 .3-.39 2.2 2.2 0 0 0 .19-.47 1.7 1.7 0 0 0 .08-.56 1.1 1.1 0 0 0-.07-.45.36.36 0 0 0-.19-.22.4.4 0 0 0-.29 0 1.3 1.3 0 0 0-.36.15l-.5.29a.09.09 0 0 1-.11 0 .2.2 0 0 1-.05-.15v-.33a.6.6 0 0 1 0-.17l.06-.15 1.07-2.39-1.71 1a.08.08 0 0 1-.11 0 .16.16 0 0 1 0-.14v-.33a.35.35 0 0 1 0-.2.23.23 0 0 1 .11-.14L184 121a.09.09 0 0 1 .11 0 .2.2 0 0 1 0 .15v.32a.4.4 0 0 1 0 .18 2 2 0 0 1-.07.19l-1 2.35a1.26 1.26 0 0 1 .54-.16.6.6 0 0 1 .42.12.9.9 0 0 1 .27.43 2.1 2.1 0 0 1 .1.72 3.4 3.4 0 0 1-.12.9 3.3 3.3 0 0 1-.31.8 3 3 0 0 1-.47.66 2.2 2.2 0 0 1-.57.47 1.7 1.7 0 0 1-.69.25.65.65 0 0 1-.47-.1.7.7 0 0 1-.28-.35 1.5 1.5 0 0 1-.1-.54.3.3 0 0 1 0-.16.2.2 0 0 1 .09-.11l.27-.16a.09.09 0 0 1 .11 0 .23.23 0 0 1 .04.12" style="fill:#455a64"/><path d="M135.29 189c4.49-2.59 8.13-.49 8.13 4.69s-3.64 11.48-8.13 14.07-8.12.49-8.12-4.69 3.63-11.49 8.12-14.07" style="fill:#ba68c8"/><path d="M135.19 192.08c1.21-.69 2.18-.13 2.18 1.26a4.78 4.78 0 0 1-2.18 3.77c-1.2.7-2.17.14-2.17-1.25a4.83 4.83 0 0 1 2.17-3.78m4.3 7.92c0-2.28-1.61-3.3-3.58-2.16l-1.24.72a7.92 7.92 0 0 0-3.58 6.19v.62s.85 1.73 4.2-.25a9.4 9.4 0 0 0 4.2-4.59Z" style="fill:#fff"/><path d="m152.27 186.66 38.62-22.3c1.68-1 3-.19 3 1.72a6.69 6.69 0 0 1-3 5.23l-38.63 22.38c-1.67 1-3 .19-3-1.75a6.72 6.72 0 0 1 3.01-5.28" style="fill:#455a64"/><path d="m136.76 354.56-1.79-.48c-1.71-.45-3.74-1.44-3.74-3.63a5.76 5.76 0 0 1 2.77-4.38 1.74 1.74 0 0 1 2.75 1.32 6.94 6.94 0 0 1 2.75-4.5c1.54-.88 2.78-.35 2.78 1.18 0 2.19-2 5.53-3.73 7.95Z" style="fill:#ba68c8"/><path d="M151.6 346.1a2.77 2.77 0 0 1-1.39-.36 3.56 3.56 0 0 1-1.53-3.27 10.42 10.42 0 0 1 4.7-8.14 3.16 3.16 0 0 1 5.13 3 7.7 7.7 0 0 1-.29 2.06l1.52 2.09a.45.45 0 0 1 0 .46.46.46 0 0 1-.39.24H157a9.3 9.3 0 0 1-3.19 3.28 4.45 4.45 0 0 1-2.21.64m4-11.56a3.63 3.63 0 0 0-1.78.56 9.41 9.41 0 0 0-4.26 7.37 2.3 2.3 0 0 0 3.82 2.2 8.7 8.7 0 0 0 3-3.18.44.44 0 0 1 .38-.22h1.76l-1.09-1.49a.42.42 0 0 1-.12-.44 7.4 7.4 0 0 0 .32-2 2.73 2.73 0 0 0-1.09-2.52 1.9 1.9 0 0 0-.94-.28m11.4 3.2a.44.44 0 0 1-.38-.41l-.39-6.34-3.76-1a.43.43 0 0 1-.32-.36.44.44 0 0 1 .22-.44l8.95-5.17a.46.46 0 0 1 .5 0 .45.45 0 0 1 .13.49l-4.47 12.91a.44.44 0 0 1-.48.32m-3.33-8.34 3 .82a.44.44 0 0 1 .32.4l.28 4.45 3.36-9.71Z" style="fill:#455a64"/><path d="M166.61 331.09a.4.4 0 0 1-.27-.1.43.43 0 0 1-.07-.61l4.88-6.27a.45.45 0 0 1 .62-.08.44.44 0 0 1 .07.62l-4.84 6.27a.46.46 0 0 1-.39.17m51.74-19.29h-.09a.43.43 0 0 1-.35-.43V301a.43.43 0 0 1 .22-.38l6.54-3.79a.46.46 0 0 1 .44 0 .47.47 0 0 1 .22.39v10.33a.45.45 0 0 1-.27.41.45.45 0 0 1-.48-.1l-2.84-2.82-3 6.49a.43.43 0 0 1-.39.27m.44-10.52v8.07l2.41-5.23a.41.41 0 0 1 .32-.25.43.43 0 0 1 .39.12l2.54 2.52V298Zm-65.09 59.49a.55.55 0 0 1-.07.23.5.5 0 0 1-.17.18l-.65.37c-.07 0-.12.05-.17 0a.16.16 0 0 1-.07-.15v-6.56a.43.43 0 0 1 .07-.23.5.5 0 0 1 .17-.18l.65-.37c.07 0 .12-.05.17 0a.18.18 0 0 1 .07.15Zm2.13-8.06a.16.16 0 0 1 .16 0 .17.17 0 0 1 .07.16v.77a.52.52 0 0 1-.23.41l-.75.43a.14.14 0 0 1-.16 0s-.07-.07-.07-.14v-.79a.4.4 0 0 1 .07-.22.5.5 0 0 1 .16-.18Zm.19 6.72a.55.55 0 0 1-.07.23.5.5 0 0 1-.17.18l-.65.37c-.07 0-.12.05-.17 0a.18.18 0 0 1-.07-.15v-4.66a.55.55 0 0 1 .07-.23.4.4 0 0 1 .17-.17l.65-.39a.17.17 0 0 1 .17 0 .18.18 0 0 1 .07.15Zm2.32-3.06v1.72a.43.43 0 0 1-.07.23.5.5 0 0 1-.17.18l-.65.37c-.07 0-.12.05-.17 0a.18.18 0 0 1-.07-.15v-6.56a.55.55 0 0 1 .07-.23.4.4 0 0 1 .17-.17l.65-.38h.17a.16.16 0 0 1 .07.15v3.15l1.45-2.19a1.3 1.3 0 0 1 .13-.18.7.7 0 0 1 .2-.18l.89-.51a.12.12 0 0 1 .14 0s.06.06.06.13a.3.3 0 0 1 0 .1.8.8 0 0 1-.08.16l-2 3 2.21 1.18a.2.2 0 0 1 .07.06.13.13 0 0 1 0 .08.4.4 0 0 1-.06.2.36.36 0 0 1-.15.15l-.84.49a.46.46 0 0 1-.22.07H160Zm-12.51 6.8v1.72a.5.5 0 0 1-.06.23.6.6 0 0 1-.17.18l-.66.38a.16.16 0 0 1-.16 0c-.05 0-.07-.07-.07-.15V359a.43.43 0 0 1 .07-.23.4.4 0 0 1 .16-.17l.66-.38a.15.15 0 0 1 .17 0 .18.18 0 0 1 .06.15v3.15l1.45-2.18a2 2 0 0 1 .14-.19.7.7 0 0 1 .2-.18l.88-.51h.15a.14.14 0 0 1 .06.13s0 .07 0 .1a.5.5 0 0 1-.09.16l-2 3 2.21 1.18.06.06v.08a.4.4 0 0 1-.06.2.46.46 0 0 1-.15.16l-.84.48a.43.43 0 0 1-.22.07.4.4 0 0 1-.13 0Zm15.73-9.27a4.6 4.6 0 0 1 .15-1.14 5.2 5.2 0 0 1 .42-1.1 5 5 0 0 1 .67-1 3.7 3.7 0 0 1 .88-.71 2.1 2.1 0 0 1 .88-.31 1.05 1.05 0 0 1 .67.17 1.13 1.13 0 0 1 .43.56 2.4 2.4 0 0 1 .15.88v.46a.4.4 0 0 1-.07.22.5.5 0 0 1-.16.18l-2.89 1.67a.64.64 0 0 0 .08.36.4.4 0 0 0 .22.17.7.7 0 0 0 .32 0 1.4 1.4 0 0 0 .37-.15 2.2 2.2 0 0 0 .45-.33 2 2 0 0 0 .29-.33 1.5 1.5 0 0 1 .15-.2l.17-.13.69-.4a.17.17 0 0 1 .17 0c.05 0 .07.07.07.15a1.5 1.5 0 0 1-.14.44 3.6 3.6 0 0 1-.38.65 5.4 5.4 0 0 1-.61.71 4 4 0 0 1-.86.64 2.06 2.06 0 0 1-.88.32 1 1 0 0 1-.67-.17 1.3 1.3 0 0 1-.42-.61 3 3 0 0 1-.15-1m2.12-2.72a1.6 1.6 0 0 0-.43.33 1.8 1.8 0 0 0-.29.39 1.5 1.5 0 0 0-.19.41 2 2 0 0 0-.08.36l1.95-1.13a1.6 1.6 0 0 0-.06-.28.37.37 0 0 0-.16-.21.4.4 0 0 0-.28-.05 1.2 1.2 0 0 0-.46.18m5.53-.58q0-.12-.06-.15a.34.34 0 0 0-.21 0l-.41.11-.64.22a2.1 2.1 0 0 1-.63.11.62.62 0 0 1-.4-.12.57.57 0 0 1-.22-.33 2 2 0 0 1-.06-.52 1.9 1.9 0 0 1 .13-.66 3 3 0 0 1 .35-.72 4.3 4.3 0 0 1 .55-.68 3.3 3.3 0 0 1 .76-.58 3.2 3.2 0 0 1 .76-.33 1.4 1.4 0 0 1 .56 0 .65.65 0 0 1 .37.21.74.74 0 0 1 .14.39.35.35 0 0 1-.06.23.46.46 0 0 1-.17.17l-.67.39a.3.3 0 0 1-.19.06l-.14-.05h-.21a1.2 1.2 0 0 0-.39.17 1.8 1.8 0 0 0-.46.36.62.62 0 0 0-.2.43.23.23 0 0 0 0 .16.22.22 0 0 0 .18 0 2 2 0 0 0 .37-.09l.62-.21c.51-.16.88-.18 1.09 0a.94.94 0 0 1 .31.82 2 2 0 0 1-.13.67 3 3 0 0 1-.37.72 4.4 4.4 0 0 1-.61.71 4 4 0 0 1-.81.6 2.8 2.8 0 0 1-.81.35 1.5 1.5 0 0 1-.59 0 .67.67 0 0 1-.51-.65.35.35 0 0 1 .06-.23.6.6 0 0 1 .17-.18l.67-.38a.21.21 0 0 1 .19 0l.15.07a.4.4 0 0 0 .23 0 1.2 1.2 0 0 0 .44-.19 1.3 1.3 0 0 0 .27-.17l.26-.21.19-.23a.5.5 0 0 0 .13-.27m-37.81 18.02a.21.21 0 0 1 0-.18.5.5 0 0 1 .07-.23l1.44-2.58.11-.18a.3.3 0 0 1 .13-.13l.52-.3a.08.08 0 0 1 .12 0 .19.19 0 0 1 .05.16v6.62a.5.5 0 0 1-.05.23.4.4 0 0 1-.12.15l-.54.31a.1.1 0 0 1-.13 0 .22.22 0 0 1-.05-.17v-5.06L132 369c0 .07-.08.12-.13.13a.09.09 0 0 1-.12 0Zm3.52-4.07a.5.5 0 0 1 .06-.23.27.27 0 0 1 .12-.15l2.51-1.45a.09.09 0 0 1 .12 0 .2.2 0 0 1 .06.16v.73a.5.5 0 0 1-.06.23.4.4 0 0 1-.12.15l-1.87 1.08-.08 1.36a1.6 1.6 0 0 1 .36-.34 3 3 0 0 1 .29-.19 1.8 1.8 0 0 1 .69-.25.8.8 0 0 1 .55.14 1.1 1.1 0 0 1 .37.53 2.8 2.8 0 0 1 .13.94 4.5 4.5 0 0 1-.14 1.2 4 4 0 0 1-.37 1 3.4 3.4 0 0 1-.55.77 3.7 3.7 0 0 1-.68.53 2.1 2.1 0 0 1-.79.29.82.82 0 0 1-.55-.13 1 1 0 0 1-.32-.46 2.1 2.1 0 0 1-.13-.69.6.6 0 0 1 0-.23.33.33 0 0 1 .13-.15l.54-.31a.11.11 0 0 1 .12 0 .24.24 0 0 1 .08.14.56.56 0 0 0 .12.31.33.33 0 0 0 .2.12.37.37 0 0 0 .25 0 2 2 0 0 0 .3-.13 1.57 1.57 0 0 0 .61-.68 2.2 2.2 0 0 0 .23-1 .78.78 0 0 0-.23-.64.55.55 0 0 0-.61 0 1.5 1.5 0 0 0-.32.23 1.2 1.2 0 0 0-.19.22l-.13.18a.7.7 0 0 1-.15.14l-.62.35a.09.09 0 0 1-.12 0 .2.2 0 0 1-.06-.16Zm4.58 2.69a.1.1 0 0 1 .13 0 .25.25 0 0 1 .05.16v1a.7.7 0 0 1-.05.23.4.4 0 0 1-.13.15l-.62.36a.09.09 0 0 1-.12 0 .22.22 0 0 1-.06-.17v-1a.5.5 0 0 1 .06-.23.3.3 0 0 1 .12-.15Zm.86-1.36a4 4 0 0 1 .14-1.09c.08-.32.19-.64.3-1l1.27-3.48a.8.8 0 0 1 .07-.17.24.24 0 0 1 .13-.15l.6-.35a.1.1 0 0 1 .13 0 .23.23 0 0 1 .05.16.2.2 0 0 1 0 .09v.07l-.83 2.3a1.6 1.6 0 0 1 .72-.23.87.87 0 0 1 .57.19 1.24 1.24 0 0 1 .37.58 3.2 3.2 0 0 1 .13.94 5 5 0 0 1-.51 2.12 4.2 4.2 0 0 1-.57.85 2.9 2.9 0 0 1-.73.6 1.46 1.46 0 0 1-.74.24.8.8 0 0 1-.57-.18 1.3 1.3 0 0 1-.37-.59 3 3 0 0 1-.16-.9m2.71-1.57a1 1 0 0 0-.24-.74c-.15-.14-.38-.13-.66 0a1.66 1.66 0 0 0-.67.74 2.3 2.3 0 0 0-.24 1 1 1 0 0 0 .24.75c.15.15.38.14.67 0a1.58 1.58 0 0 0 .66-.75 2.3 2.3 0 0 0 .24-1M135.4 177a1.6 1.6 0 0 1-.82-.22 2.43 2.43 0 0 1-1-2.22 5.75 5.75 0 0 1 2.46-4.66 1.92 1.92 0 0 1 1.95-.12 2.43 2.43 0 0 1 1 2.22 5.77 5.77 0 0 1-2.47 4.67 2.25 2.25 0 0 1-1.12.33m1.12-6.24a4.86 4.86 0 0 0-2 3.8 1.54 1.54 0 0 0 .52 1.36 1 1 0 0 0 .94-.12 4.81 4.81 0 0 0 2-3.8 1.5 1.5 0 0 0-.52-1.35 1 1 0 0 0-.95.11Z" style="fill:#455a64"/><path d="M131.4 181.29a.9.9 0 0 1-.41-.11 1.06 1.06 0 0 1-.48-1V173a2.05 2.05 0 0 1 .9-1.67l1.89-1.09a1.06 1.06 0 0 0 .39-.8 2.07 2.07 0 0 1 .9-1.68l2.87-1.65a.9.9 0 0 1 .92 0 1.07 1.07 0 0 1 .48.95l1.78-1a.9.9 0 0 1 .92 0 1.06 1.06 0 0 1 .48 1v7.19a2.06 2.06 0 0 1-.9 1.67l-9.23 5.33a1.1 1.1 0 0 1-.51.04m6.46-14.22-2.77 1.59a1.1 1.1 0 0 0-.4.81 2.06 2.06 0 0 1-.89 1.67l-1.89 1.09a1.07 1.07 0 0 0-.4.8v7.19l9.13-5.27a1.07 1.07 0 0 0 .4-.8V167l-1.79 1a.9.9 0 0 1-.92 0 1 1 0 0 1-.47-.93" style="fill:#455a64"/><path d="M245.3 173.76c4.67.08 7.84 1.36 11.76 7.09s13.72 18.69 13.72 18.69 12.67-8.52 14.32-10.41 6.79-4.95 6.79-4.95l1.76 7.74s-16.69 16.46-21 19.24c-3.17 2.06-4.79 2.21-8.62-1.74s-17.93-20.1-17.93-20.1Z" style="fill:#ffa8a7"/><path d="m294.28 175.63 4.53-2.63v25a2.64 2.64 0 0 0 .91 1.57l-4.54 2.62a2.64 2.64 0 0 1-.9-1.57Z" style="fill:#37474f"/><path d="M298.81 183.08s1.28.34 1.73 2.34.62 5.82-.56 7.06-2.75 1.74-3.78 1.27c-1.92-.89-1.25-4.82.33-5.7 2.52-1.4 2.26-3 2.26-3Z" style="fill:#ffa8a7"/><path d="m288.76 175.58 1.91 2.44v17l-2.06 3.29 6.58 3.8a2.4 2.4 0 0 1-.9-1.57v-21.77Z" style="fill:#455a64"/><path d="M288.6 198.36v1.05l6.58 3.8v-1.05zm6.58 4.85 4.54-2.62v-1.05l-4.54 2.62z" style="fill:#ba68c8"/><path d="m295.18 203.21 4.54-2.62v-1.05l-4.54 2.62z" style="opacity:.1"/><path d="M294.07 164.61a3 3 0 0 0-3 .28 9.39 9.39 0 0 0-4.25 7.36 2.92 2.92 0 0 0 1.33 2.79l3.43 2 5.73-10.65Z" style="fill:#ba68c8"/><path d="M294.07 164.61a3 3 0 0 0-3 .28 9.39 9.39 0 0 0-4.25 7.36 2.92 2.92 0 0 0 1.33 2.79l3.43 2 5.73-10.65Z" style="fill:#fafafa;opacity:.8"/><path d="m288.08 175.11 3.43 2 1.9-3.53-6.27-3.58a7.5 7.5 0 0 0-.39 2.29 2.92 2.92 0 0 0 1.33 2.82" style="fill:#ba68c8;opacity:.2"/><path d="M301.48 167.22a3.55 3.55 0 0 0-3.35.15l-.41.22-.49.31q-.39.27-.78.6a11 11 0 0 0-1.3 1.34 12.8 12.8 0 0 0-2.4 4.57 9 9 0 0 0-.36 2.41 3.79 3.79 0 0 0 1.49 3.4l-3.28-1.89a4.24 4.24 0 0 1-1.94-3.66 9 9 0 0 1 .33-2.3 12.6 12.6 0 0 1 2.43-4.68 11 11 0 0 1 1.31-1.34 7 7 0 0 1 .77-.59 4 4 0 0 1 .49-.31l.42-.22a4.22 4.22 0 0 1 3.71.06l.09.05.11.07Z" style="fill:#ba68c8"/><path d="M290.6 178.33a4.24 4.24 0 0 1-1.94-3.66 9 9 0 0 1 .33-2.3l3.75 2a9 9 0 0 0-.36 2.41 3.79 3.79 0 0 0 1.49 3.4Z" style="opacity:.1"/><path d="M303 170.67a11.74 11.74 0 0 1-5.32 9.22 3.7 3.7 0 0 1-3.78.36h-.06a3.79 3.79 0 0 1-1.49-3.4 11.79 11.79 0 0 1 5.33-9.23 3.25 3.25 0 0 1 5.32 3.08Z" style="fill:#ba68c8"/><path d="M303 170.67a11.74 11.74 0 0 1-5.32 9.22 3.7 3.7 0 0 1-3.78.36h-.06a3.79 3.79 0 0 1-1.49-3.4 11.79 11.79 0 0 1 5.33-9.23 3.25 3.25 0 0 1 5.32 3.08Z" style="opacity:.2"/><path d="M319.37 169.79s-5.37 2.76-10 10.7a37 37 0 0 0-2.17 4.44 24.6 24.6 0 0 0-2.12 9.54c-1.6-3.92-3.59-8-6.91-11.09a51 51 0 0 0-4.09-3.41 3.44 3.44 0 0 1-1.4-3.14 9.3 9.3 0 0 1 .61-3.13 11.5 11.5 0 0 1 .91-1.95 10.5 10.5 0 0 1 3.64-3.85 3.45 3.45 0 0 1 3.42-.37 52 52 0 0 0 5 1.83c4.4 1.31 8.92 1 13.11.43" style="fill:#ba68c8"/><path d="M319.37 169.79s-5.37 2.76-10 10.7a37 37 0 0 0-2.17 4.44 24.6 24.6 0 0 0-2.12 9.54c-1.6-3.92-3.59-8-6.91-11.09a51 51 0 0 0-4.09-3.41 3.44 3.44 0 0 1-1.4-3.14 9.3 9.3 0 0 1 .61-3.13 11.5 11.5 0 0 1 .91-1.95 10.5 10.5 0 0 1 3.64-3.85 3.45 3.45 0 0 1 3.42-.37 52 52 0 0 0 5 1.83c4.4 1.31 8.92 1 13.11.43" style="fill:#fafafa;opacity:.8"/><path d="M307.24 184.93a24.6 24.6 0 0 0-2.12 9.54c-1.6-3.92-3.59-8-6.91-11.09a51 51 0 0 0-4.09-3.41 3.44 3.44 0 0 1-1.4-3.14 9.3 9.3 0 0 1 .61-3.13c4.08 2.03 10.67 5.79 13.91 11.23" style="fill:#ba68c8;opacity:.2"/><path d="M329.49 177.46a25 25 0 0 1-2.9 11 26.76 26.76 0 0 1-9.77 10.95c-7 4-12.67.76-12.67-7.32a21 21 0 0 1 .84-5.73 30.1 30.1 0 0 1 7.67-13q.75-.73 1.53-1.38l.66-.52c.32-.24.63-.46 1-.68s.67-.43 1-.63c6.97-4.05 12.64-.78 12.64 7.31" style="fill:#ba68c8"/><path d="M326.59 188.46a26.76 26.76 0 0 1-9.77 10.95c-7 4-12.67.76-12.67-7.32a21 21 0 0 1 .84-5.73c.47 1 2.17 2.54 2.93 1.49a19.7 19.7 0 0 0-.73 5.08 8.7 8.7 0 0 0 1.5 5.43 4.15 4.15 0 0 0 3.41 1.57 9.66 9.66 0 0 0 4.66-1.47 24.65 24.65 0 0 0 8.6-9.32s.43.37 1.23-.68" style="opacity:.1"/><path d="M328.63 177.91a24 24 0 0 1-3.27 11.23 24.65 24.65 0 0 1-8.6 9.32 9.66 9.66 0 0 1-4.66 1.47 4.15 4.15 0 0 1-3.41-1.57 8.7 8.7 0 0 1-1.5-5.43 19.7 19.7 0 0 1 .73-5.08c.18-.65.39-1.31.63-2a28 28 0 0 1 1.5-3.39c.11-.23.24-.46.36-.68.2-.37.41-.74.63-1.1a30 30 0 0 1 2.5-3.52 24 24 0 0 1 1.89-2q.7-.68 1.44-1.26l.62-.48c.26-.19.51-.36.77-.53l.75-.47a9.7 9.7 0 0 1 4.67-1.47c3.11-.04 4.95 2.58 4.95 6.96" style="fill:#ba68c8"/><path d="M328.63 177.91a24 24 0 0 1-3.27 11.23 24.65 24.65 0 0 1-8.6 9.32 9.66 9.66 0 0 1-4.66 1.47 4.15 4.15 0 0 1-3.41-1.57 8.7 8.7 0 0 1-1.5-5.43 19.7 19.7 0 0 1 .73-5.08c.18-.65.39-1.31.63-2a28 28 0 0 1 1.5-3.39c.11-.23.24-.46.36-.68.2-.37.41-.74.63-1.1a30 30 0 0 1 2.5-3.52 24 24 0 0 1 1.89-2q.7-.68 1.44-1.26l.62-.48c.26-.19.51-.36.77-.53l.75-.47a9.7 9.7 0 0 1 4.67-1.47c3.11-.04 4.95 2.58 4.95 6.96" style="opacity:.30000000000000004"/><path d="m317.86 179.89-4.45 8.31c-1.25-.47-3.36-1.22-5.08-1.66.07-.22.14-.44.22-.66a28 28 0 0 1 1.5-3.39l.36-.68c.2-.37.41-.74.64-1.1a29 29 0 0 1 2.49-3.52l.4-.47a28.4 28.4 0 0 0 3.92 3.17" style="fill:#ba68c8"/><g style="opacity:.6000000000000001"><path d="m317.86 179.89-4.45 8.31c-1.25-.47-3.36-1.22-5.08-1.66.07-.22.14-.44.22-.66a28 28 0 0 1 1.5-3.39l.36-.68c.2-.37.41-.74.64-1.1a29 29 0 0 1 2.49-3.52l.4-.47a28.4 28.4 0 0 0 3.92 3.17" style="fill:#fafafa"/></g><path d="M313.78 188.17c-1 0-1.6-.81-1.6-2.17a7.4 7.4 0 0 1 3.35-5.81 2.84 2.84 0 0 1 1.4-.44c1 0 1.61.81 1.61 2.17a7.44 7.44 0 0 1-3.36 5.82 2.9 2.9 0 0 1-1.4.43" style="fill:#ba68c8"/><g style="opacity:.8"><path d="M313.78 188.17c-1 0-1.6-.81-1.6-2.17a7.4 7.4 0 0 1 3.35-5.81 2.84 2.84 0 0 1 1.4-.44c1 0 1.61.81 1.61 2.17a7.44 7.44 0 0 1-3.36 5.82 2.9 2.9 0 0 1-1.4.43" style="fill:#fafafa"/></g><path d="M318.58 164.79a1 1 0 0 1-1-1v-9.67a1 1 0 0 1 2 0v9.67a1 1 0 0 1-1 1m-8.8 2.36a1 1 0 0 1-.87-.5l-4.83-8.37a1 1 0 1 1 1.73-1l4.84 8.37a1 1 0 0 1-.87 1.5m-9.15 46.6a1 1 0 0 1-.87-1.5l4.84-8.38a1 1 0 0 1 1.36-.36 1 1 0 0 1 .37 1.36l-4.84 8.38a1 1 0 0 1-.86.5m17.95 1.25a1 1 0 0 1-1-1v-9.67a1 1 0 0 1 2 0V214a1 1 0 0 1-1 1m13.63-9a1 1 0 0 1-.86-.5l-4.84-8.37a1 1 0 1 1 1.73-1l4.84 8.37a1 1 0 0 1-.87 1.5m9.98-10a1 1 0 0 1-.5-.13l-8.37-4.84a1 1 0 0 1-.37-1.36 1 1 0 0 1 1.37-.37l8.37 4.84a1 1 0 0 1 .37 1.36 1 1 0 0 1-.87.5m3.65-13.61h-9.66a1 1 0 1 1 0-2h9.66a1 1 0 1 1 0 2m-12.02-8.8a1 1 0 0 1-.5-1.87l8.37-4.83a1 1 0 1 1 1 1.73l-8.37 4.84a1 1 0 0 1-.5.13m-6.44-6.44a1 1 0 0 1-.5-.13 1 1 0 0 1-.37-1.37l4.84-8.37a1 1 0 0 1 1.36-.37 1 1 0 0 1 .37 1.37l-4.84 8.37a1 1 0 0 1-.86.5" style="fill:#e0e0e0"/><path d="M285.1 189.13c2-2.38 2.06-3.89 3.57-5s3-1.2 5.21-.51c1.66.51 3.62.31 4.29 1 .18.13-.14 1.19-.93 1.56a9.2 9.2 0 0 1-3.59.28c-2.56 0-.52 2.51-3 5-1.12 1.71-5.55-2.33-5.55-2.33" style="fill:#ffa8a7"/><path d="m257.79 172.2-20.54-.64a19.2 19.2 0 0 1-18.59-19.69l.11-3.94a18.72 18.72 0 0 1 19.3-18.14l2.18.06a18.74 18.74 0 0 1 18.14 19.31Z" style="fill:#ba68c8"/><path d="m257.79 172.2-20.54-.64a19.2 19.2 0 0 1-18.59-19.69l.11-3.94a18.72 18.72 0 0 1 19.3-18.14l2.18.06a18.74 18.74 0 0 1 18.14 19.31Z" style="opacity:.7000000000000001"/><path d="M251.8 138.64a12.64 12.64 0 0 1-2.73 9.31 17.89 17.89 0 0 1-17.17 5.91 120 120 0 0 0 11.71-7.92 55 55 0 0 0 8.19-7.3m-23.71-8.78a3 3 0 0 0-3.71 1.94 2.9 2.9 0 0 0-.06 1.46l-2-3a3 3 0 0 0 3.28 4.92v-.05a2.8 2.8 0 0 0 .75.37Z" style="fill:#ba68c8"/><path d="M228.09 129.86a3 3 0 0 0-3.71 1.94 2.9 2.9 0 0 0-.06 1.46l-2-3a3 3 0 0 0 3.28 4.92v-.05a2.8 2.8 0 0 0 .75.37Z" style="opacity:.7000000000000001"/><path d="M257.07 342.76a.6.6 0 0 0-.41.58c-.07.74-.49 2.22-.65 3.49a17 17 0 0 0 0 5.43c.37 1.32 3.61 3.05 5.73 3.22s5.87 1.94 7.64 3.34c2.18 1.72 6.67 3 9.63 2.84 3.48-.14 6.16-1.11 6.82-3.66.28-1.08-.66-2.32-5.25-4.13 0 0-2.32-1-3.65-1.73-6.7-3.58-9-5.72-11.2-9.7Z" style="fill:#263238"/><path d="M268.35 345.66a7.83 7.83 0 0 1-2.09-5.62l-.43-5.53-10.06.05c.55 3.85 1.23 6.15 1.31 8.2l.09 1.19c.74 3.78 4 4.13 7.08 6.08 1.55 1 7.62 5.14 11.57 5.66 3.22.42 4.35-.9 4.73-1.82a64.3 64.3 0 0 1-12.2-8.21" style="fill:#ffa8a7"/><path d="m236.74 246.35 11.25 38a59 59 0 0 0-.17 15.59c1.07 7.41 6.63 27.05 8.6 38 .45 2.48 3.92 3 9.73.76 0 0-2.08-46.14-1.88-55.13.34-15.11-6.57-59.34-9.8-68.1" style="fill:#ffa8a7"/><path d="m256.32 224.67-39.52 1c-3.57 9.35-3.94 13.63-5.47 24.84-1.46 10.67-5 24.42-5 24.42s-10 6.38-15.26 14.89c-4.24 6.88-14.58 25.55-14.58 25.55l29.16-16.83s11.2-9 16.54-15.15c7.39-8.48 13.91-29.32 13.91-29.32" style="fill:#ffa8a7"/><path d="M254.66 210c.13-2.22.21-4.12.19-5.22 5.1-6.07 6-11.46 3.91-15.63-4.17-8.36-10.72-15.64-14.4-15.46h-13.77c-2.88.11-5.18.44-6.66 1.21-3.08 1.59-3.44 4.61-3.59 8.2-.16 3.94.73 7 1.73 13.53l4.5 8.54.16 4.41s-18.17 14.74-27.88 31.25c0 0 5.88 18.66 36.42 20.4 33.51 1.91 40.31-15.78 40.31-15.78s-5.4-17.68-20.92-35.45" style="fill:#37474f"/><path d="M230.44 205c-1.44-1.44-3.14-6.64-3.14-6.64s.4-1.6 1.53-5.19 0-10.55 0-10.73l-3.5-5.31-4.67 2.52a25 25 0 0 0-.32 3.39c-.16 3.94.73 7 1.73 13.53l4.5 8.54.16 4.41s-18.17 14.74-27.88 31.25c0 0 5 15.79 29.59 19.67-.91-.38-14.79-6.36-15.93-17.88-1.17-11.91 16.23-29.18 19.39-31.67s-.02-4.45-1.46-5.89" style="fill:#263238"/><path d="M251.8 138.64c2 1.31 4.48 6.65 3.88 17.68-.51 9.34-3.61 11.56-5.16 12.17s-4.46.13-7.3-.44l-.17 5.61s3.8 2.55 3.47 5.12-5.8 3-9.41.37a22.1 22.1 0 0 1-5.41-5.52v-13.39s-1.93 2-5-.16a5.38 5.38 0 0 1-.8-8.09 3.74 3.74 0 0 1 6 1.87s4.55.31 10.71-2.83a17 17 0 0 0 9.19-12.39" style="fill:#ffa8a7"/><path d="M244.26 153.61a1.19 1.19 0 0 1-1.15 1.24 1.2 1.2 0 0 1-1.2-1.2 1.18 1.18 0 1 1 2.35 0Z" style="fill:#263238"/><path d="m245.38 161.58 2.7.95a1.41 1.41 0 0 1-1.81.93 1.51 1.51 0 0 1-.89-1.88" style="fill:#f28f8f"/><path d="m254 150.3-2.33-1.73a1.39 1.39 0 0 1 2-.34 1.53 1.53 0 0 1 .33 2.07m-.62 2.7a1.18 1.18 0 0 1-1.15 1.24 1.2 1.2 0 0 1-1.2-1.2 1.19 1.19 0 0 1 1.15-1.24 1.2 1.2 0 0 1 1.2 1.2" style="fill:#263238"/><path d="m247.66 152.19-.03 7.08 3.76-1.03zm-4.44 15.86c-3-.49-9.13-2.46-10-4.93a6.37 6.37 0 0 0 2.08 3.19c1.8 1.64 7.88 3.61 7.88 3.61Z" style="fill:#f28f8f"/><path d="M203.87 213.51c1.91-7.46 9.5-24 11.8-30 2.63-6.83 6.35-9.41 11.24-9.48 1.8 2.32 3.88 12.4-1.67 21.07-2.35 5-9.43 18.86-9.43 18.86.19 1.34 5.13 19.52 7.23 24.07a3.63 3.63 0 0 0 1.86 1.78c2.18.95 3.87 2.85 5.61 4.2 1.36 1.06 2.41 1.22 2.31 1.63a2 2 0 0 1-2.35 1.25 13.6 13.6 0 0 1-3.06-1.11 18 18 0 0 0 3.65 4.55c3.31 3 3.14 5.54-2.51 6.43-3.54.56-6.69-1.2-10.53-8.61-1.1-2.13-2.52-5.25-3.63-8.09-2.63-6.7-5.45-10.69-7.28-15.12-2.87-7.03-3.98-8.56-3.24-11.43" style="fill:#ffa8a7"/><path d="m462.3 177.62-9.89-5.72c-3.66-2.17-9.1-1.75-15.17 1.75-8.41 4.86-15.6 16.64-18.54 26.52l-7-4c-3.61-2.42-8.56-2.79-14 .37-.69.39-1.36.81-2 1.26-.35.24-.7.51-1 .76s-.61.43-.91.66c-.47.37-.92.75-1.37 1.14l-.51.43c-.53.47-1.05 1-1.56 1.46l-.24.22c-.57.57-1.12 1.15-1.66 1.75h-.05a46.4 46.4 0 0 0-4.54 5.94C380 216 377.7 222.36 377.7 228c0 10.45 6.45 17.12 14.38 21.38l7.8 4.5a54.8 54.8 0 0 0 14.88 6.12l12.86 3.4 12.86-18.26c12.25-17.4 26.85-41.45 26.85-57.21 0-5.07-1.91-8.59-5.03-10.31" style="fill:#ba68c8"/><path d="m462.3 177.62-9.89-5.72c-3.66-2.17-9.1-1.75-15.17 1.75-8.41 4.86-15.6 16.64-18.54 26.52l-7-4c-3.61-2.42-8.56-2.79-14 .37-.69.39-1.36.81-2 1.26-.35.24-.7.51-1 .76s-.61.43-.91.66c-.47.37-.92.75-1.37 1.14l-.51.43c-.53.47-1.05 1-1.56 1.46l-.24.22c-.57.57-1.12 1.15-1.66 1.75h-.05a46.4 46.4 0 0 0-4.54 5.94C380 216 377.7 222.36 377.7 228c0 10.45 6.45 17.12 14.38 21.38l7.8 4.5a54.8 54.8 0 0 0 14.88 6.12l12.86 3.4 12.86-18.26c12.25-17.4 26.85-41.45 26.85-57.21 0-5.07-1.91-8.59-5.03-10.31" style="fill:#ba68c8;opacity:.7000000000000001"/><path d="m399.76 253.78-7.69-4.42c-7.91-4.27-14.38-10.93-14.38-21.39 0-5.6 2.33-12 6.07-17.8L393.9 216c-3.74 5.78-6.06 12.2-6.06 17.8 0 9.37 5.16 15.7 11.92 19.98" style="fill:#ba68c8"/><path d="m399.76 253.78-7.69-4.42c-7.91-4.27-14.38-10.93-14.38-21.39 0-5.6 2.33-12 6.07-17.8L393.9 216c-3.74 5.78-6.06 12.2-6.06 17.8 0 9.37 5.16 15.7 11.92 19.98" style="opacity:.1"/><path d="M462.25 177.56c-3.65-2-9-1.47-14.88 1.94-10.14 5.85-18.52 21.78-19.79 32.31-1.27-9.06-9.64-15.32-19.78-9.46A42.56 42.56 0 0 0 393.9 216l-10.14-5.85c.15-.24.31-.48.48-.73a7 7 0 0 1 .42-.6c.34-.5.7-1 1-1.48a47 47 0 0 1 3.3-3.89c.28-.32.58-.62.88-.92l.64-.63a37.8 37.8 0 0 1 7.12-5.43 15.5 15.5 0 0 1 7.71-2.27 11.3 11.3 0 0 1 6.32 1.91l7 4c2.93-9.89 10.12-21.66 18.54-26.51 6.08-3.51 11.51-3.94 15.17-1.77Z" style="fill:#ba68c8"/><path d="M462.25 177.56c-3.65-2-9-1.47-14.88 1.94-10.14 5.85-18.52 21.78-19.79 32.31-1.27-9.06-9.64-15.32-19.78-9.46A42.56 42.56 0 0 0 393.9 216l-10.14-5.85c.15-.24.31-.48.48-.73a7 7 0 0 1 .42-.6c.34-.5.7-1 1-1.48a47 47 0 0 1 3.3-3.89c.28-.32.58-.62.88-.92l.64-.63a37.8 37.8 0 0 1 7.12-5.43 15.5 15.5 0 0 1 7.71-2.27 11.3 11.3 0 0 1 6.32 1.91l7 4c2.93-9.89 10.12-21.66 18.54-26.51 6.08-3.51 11.51-3.94 15.17-1.77Z" style="fill:#fff;opacity:.4"/><path d="m382.3 263.24-3.85-2.24c-1.43-.84-3.55-.68-5.92.69-3.27 1.89-6.08 6.48-7.22 10.33l-2.74-1.57a5 5 0 0 0-5.46.14c-.27.16-.53.32-.79.5s-.27.19-.4.29l-.36.26-.53.44-.2.17c-.21.18-.41.37-.61.57l-.09.09c-.22.22-.44.44-.65.68a19 19 0 0 0-1.77 2.31 13.5 13.5 0 0 0-2.36 6.94c0 4.07 2.51 6.67 5.6 8.33L358 293a21.3 21.3 0 0 0 5.79 2.39l5 1.33 5-7.12c4.77-6.78 10.46-16.15 10.46-22.29a4.26 4.26 0 0 0-1.95-4.07" style="fill:#ba68c8"/><path d="m382.3 263.24-3.85-2.24c-1.43-.84-3.55-.68-5.92.69-3.27 1.89-6.08 6.48-7.22 10.33l-2.74-1.57a5 5 0 0 0-5.46.14c-.27.16-.53.32-.79.5s-.27.19-.4.29l-.36.26-.53.44-.2.17c-.21.18-.41.37-.61.57l-.09.09c-.22.22-.44.44-.65.68a19 19 0 0 0-1.77 2.31 13.5 13.5 0 0 0-2.36 6.94c0 4.07 2.51 6.67 5.6 8.33L358 293a21.3 21.3 0 0 0 5.79 2.39l5 1.33 5-7.12c4.77-6.78 10.46-16.15 10.46-22.29a4.26 4.26 0 0 0-1.95-4.07" style="opacity:.5"/><path d="m357.93 292.92-3-1.73c-3.08-1.66-5.6-4.25-5.6-8.33a13.4 13.4 0 0 1 2.36-6.94l3.95 2.28a13.5 13.5 0 0 0-2.36 6.94c0 3.64 2.01 6.11 4.65 7.78" style="fill:#ba68c8"/><path d="m357.93 292.92-3-1.73c-3.08-1.66-5.6-4.25-5.6-8.33a13.4 13.4 0 0 1 2.36-6.94l3.95 2.28a13.5 13.5 0 0 0-2.36 6.94c0 3.64 2.01 6.11 4.65 7.78" style="opacity:.7000000000000001"/><path d="M382.28 263.21c-1.42-.76-3.5-.57-5.8.76-4 2.28-7.21 8.49-7.71 12.59-.49-3.53-3.76-6-7.71-3.68a16.5 16.5 0 0 0-5.42 5.32l-3.95-2.28c.06-.09.12-.19.19-.28a2 2 0 0 1 .16-.23c.13-.2.27-.39.41-.58a17 17 0 0 1 1.29-1.52l.34-.36.25-.24a14.6 14.6 0 0 1 2.78-2.12 6 6 0 0 1 3-.88 4.4 4.4 0 0 1 2.46.74l2.74 1.57c1.14-3.85 3.94-8.44 7.22-10.33 2.37-1.37 4.49-1.54 5.91-.69Z" style="fill:#ba68c8"/><path d="M382.28 263.21c-1.42-.76-3.5-.57-5.8.76-4 2.28-7.21 8.49-7.71 12.59-.49-3.53-3.76-6-7.71-3.68a16.5 16.5 0 0 0-5.42 5.32l-3.95-2.28c.06-.09.12-.19.19-.28a2 2 0 0 1 .16-.23c.13-.2.27-.39.41-.58a17 17 0 0 1 1.29-1.52l.34-.36.25-.24a14.6 14.6 0 0 1 2.78-2.12 6 6 0 0 1 3-.88 4.4 4.4 0 0 1 2.46.74l2.74 1.57c1.14-3.85 3.94-8.44 7.22-10.33 2.37-1.37 4.49-1.54 5.91-.69Z" style="opacity:.2"/><path d="M394.72 86a11.27 11.27 0 0 0 3.92-7.88c0-4.31-3.21-3.35-3.21-3.35a11.78 11.78 0 0 0 2.57-6.94 3.88 3.88 0 0 0-1.66-3.46l-8.15-4.59c-.77-.53-1.88-.59-3.37.27l-7.13 4.14a19.5 19.5 0 0 0-1.6-5.54 3.34 3.34 0 0 0-1.57-1.72l-8.08-4.55C363.72 50.6 359 54 359 55.31c0 .91.22 4 .29 6.91v1.91a16.5 16.5 0 0 1-.3 3.64c-.07.23-.19.58-.36 1-.07.19-.16.41-.25.63l-.39 1c-.34.83-.73 1.8-1.17 2.84-.1.25-.21.52-.33.79-1.23 2.93-2.68 6.3-3.78 8.84l-.56 1.3-1.11 2.54v34.84l.12-.06 8.3 4.79 26.59-15.38c3.48-2 5.92-6.34 5.9-9.23a9.5 9.5 0 0 0-.68-3.83c2.25-1.31 4.51-6 4.51-8 0-3.03-1.06-3.84-1.06-3.84" style="fill:#ba68c8"/><g style="opacity:.4"><path d="M374.53 56.93c-2.75-1.35-7.12 1.81-7.12 3.12L359 55.32c0-1.35 4.73-4.73 7.46-2.94Zm21.82 7.43a3.18 3.18 0 0 0-3.12.42l-16.07 9.29a29.2 29.2 0 0 0 .54-9.9l7.14-4.13c1.48-.87 2.59-.79 3.36-.27Z" style="fill:#fff"/></g><path d="m359.46 126.28-8.41-4.86-.03-34.71 8.41 4.86z" style="opacity:.1"/><path d="M367.41 72.49c-.68 2.43-8 19.08-8 19.08L351 86.83s7.28-16.65 8-19.06 0-10.84 0-12.45l8.42 4.73c-.01 1.62.69 10.04-.01 12.44" style="opacity:.05"/><path d="M355.61 94.54a3.4 3.4 0 0 0-1.54-2.66l-5.34-3.08a3.43 3.43 0 0 0-3.06 0l-8.52 4.93a3.15 3.15 0 0 0-1.09 1.14 3.3 3.3 0 0 0-.45 1.52v36.86a3.35 3.35 0 0 0 1.54 2.66l5.34 3.09a3.06 3.06 0 0 0 1.53.36 3.2 3.2 0 0 0 1.53-.35l8.55-4.94a3.37 3.37 0 0 0 1.53-2.65Z" style="fill:#ba68c8"/><path d="M344 99.47v39.89a3.06 3.06 0 0 1-1.53-.36l-5.34-3.09a3.35 3.35 0 0 1-1.54-2.66V96.39a3.3 3.3 0 0 1 .45-1.52Z" style="opacity:.1"/><g style="opacity:.30000000000000004"><path d="M355.16 93 344 99.47l-8-4.6a3.15 3.15 0 0 1 1.09-1.14l8.52-4.93a3.43 3.43 0 0 1 3.06 0l5.34 3.08a3.26 3.26 0 0 1 1.15 1.12" style="fill:#fff"/></g><path d="M411.76 156.69a6.87 6.87 0 0 0 2.38-4.81c0-2.62-1.95-2-1.95-2a7.17 7.17 0 0 0 1.57-4.23 2.36 2.36 0 0 0-1-2.11l-5-2.8a1.84 1.84 0 0 0-2 .17l-4.35 2.52a12 12 0 0 0-1-3.38 2 2 0 0 0-1-1l-4.94-2.78c-1.66-1.08-4.54 1-4.54 1.8 0 .55.13 2.42.18 4.21v1.17a9.6 9.6 0 0 1-.18 2.21c0 .14-.12.35-.22.63 0 .12-.1.25-.15.39l-.24.6c-.2.51-.45 1.1-.71 1.73l-.2.48c-.75 1.79-1.64 3.84-2.31 5.39-.12.29-.23.55-.34.79-.35.82-.6 1.39-.68 1.56v21.25h.07l5.06 2.92 16.22-9.38a7.49 7.49 0 0 0 3.6-5.63 5.7 5.7 0 0 0-.42-2.33c1.38-.8 2.75-3.67 2.75-4.9.04-1.98-.6-2.47-.6-2.47" style="fill:#ba68c8"/><path d="M411.76 156.69a6.87 6.87 0 0 0 2.38-4.81c0-2.62-1.95-2-1.95-2a7.17 7.17 0 0 0 1.57-4.23 2.36 2.36 0 0 0-1-2.11l-5-2.8a1.84 1.84 0 0 0-2 .17l-4.35 2.52a12 12 0 0 0-1-3.38 2 2 0 0 0-1-1l-4.94-2.78c-1.66-1.08-4.54 1-4.54 1.8 0 .55.13 2.42.18 4.21v1.17a9.6 9.6 0 0 1-.18 2.21c0 .14-.12.35-.22.63 0 .12-.1.25-.15.39l-.24.6c-.2.51-.45 1.1-.71 1.73l-.2.48c-.75 1.79-1.64 3.84-2.31 5.39-.12.29-.23.55-.34.79-.35.82-.6 1.39-.68 1.56v21.25h.07l5.06 2.92 16.22-9.38a7.49 7.49 0 0 0 3.6-5.63 5.7 5.7 0 0 0-.42-2.33c1.38-.8 2.75-3.67 2.75-4.9.04-1.98-.6-2.47-.6-2.47" style="opacity:.5"/><path d="M399.45 139c-1.68-.82-4.35 1.1-4.35 1.9L390 138c0-.82 2.88-2.88 4.55-1.79Zm13.3 4.49a1.94 1.94 0 0 0-1.9.25l-9.8 5.67a17.8 17.8 0 0 0 .33-6l4.35-2.53a1.86 1.86 0 0 1 2-.16Z" style="fill:#ba68c8"/><path d="M399.45 139c-1.68-.82-4.35 1.1-4.35 1.9L390 138c0-.82 2.88-2.88 4.55-1.79Zm13.3 4.49a1.94 1.94 0 0 0-1.9.25l-9.8 5.67a17.8 17.8 0 0 0 .33-6l4.35-2.53a1.86 1.86 0 0 1 2-.16Z" style="opacity:.2"/><path d="m390.25 181.25-5.12-2.96-.02-21.17 5.13 2.96z" style="fill:#ba68c8"/><path d="m390.25 181.25-5.12-2.96-.02-21.17 5.13 2.96z" style="opacity:.7000000000000001"/><g style="opacity:.2"><path d="M395.1 148.45c-.41 1.48-4.86 11.63-4.86 11.63l-5.13-2.89s4.44-10.19 4.89-11.62 0-6.61 0-7.59l5.13 2.88c-.03.99.4 6.14-.03 7.59" style="fill:#455a64"/></g><path d="M387.91 161.9a1.9 1.9 0 0 0-.28-.92 1.94 1.94 0 0 0-.66-.7l-3.26-1.88a2 2 0 0 0-1.86 0l-5.2 3a2.06 2.06 0 0 0-.93 1.62v22.48a2 2 0 0 0 .93 1.62l3.25 1.88a1.9 1.9 0 0 0 .94.23 2 2 0 0 0 .93-.22l5.21-3a2.06 2.06 0 0 0 .94-1.61Z" style="fill:#ba68c8"/><path d="M387.91 161.9a1.9 1.9 0 0 0-.28-.92 1.94 1.94 0 0 0-.66-.7l-3.26-1.88a2 2 0 0 0-1.86 0l-5.2 3a2.06 2.06 0 0 0-.93 1.62v22.48a2 2 0 0 0 .93 1.62l3.25 1.88a1.9 1.9 0 0 0 .94.23 2 2 0 0 0 .93-.22l5.21-3a2.06 2.06 0 0 0 .94-1.61Z" style="opacity:.5"/><path d="M380.84 164.9v24.33a1.9 1.9 0 0 1-.94-.23l-3.26-1.88a2 2 0 0 1-.93-1.62V163a1.94 1.94 0 0 1 .27-.92Z" style="fill:#ba68c8"/><path d="M380.84 164.9v24.33a1.9 1.9 0 0 1-.94-.23l-3.26-1.88a2 2 0 0 1-.93-1.62V163a1.94 1.94 0 0 1 .27-.92Z" style="opacity:.7000000000000001"/><path d="m387.63 161-6.79 3.92-4.84-2.82a1.94 1.94 0 0 1 .66-.7l5.2-3a2 2 0 0 1 1.86 0l3.26 1.88a1.94 1.94 0 0 1 .65.72" style="fill:#ba68c8"/><path d="m387.63 161-6.79 3.92-4.84-2.82a1.94 1.94 0 0 1 .66-.7l5.2-3a2 2 0 0 1 1.86 0l3.26 1.88a1.94 1.94 0 0 1 .65.72" style="opacity:.2"/><path d="M464.38 109.66a7.17 7.17 0 0 0 2.47-5c0-2.73-2-2.13-2-2.13a7.5 7.5 0 0 0 1.64-4.39A2.43 2.43 0 0 0 465.4 96l-5.17-2.9a1.9 1.9 0 0 0-2.13.17l-4.52 2.62a12.5 12.5 0 0 0-1-3.51 2.15 2.15 0 0 0-1-1.09l-5.12-2.89c-1.73-1.12-4.73 1-4.73 1.87 0 .57.15 2.51.19 4.37v1.22a11 11 0 0 1-.19 2.3c0 .14-.12.36-.23.65 0 .12-.1.26-.16.4s-.15.4-.24.63l-.74 1.79-.21.51c-.78 1.86-1.7 4-2.4 5.6-.13.29-.24.57-.35.82l-.71 1.62v22.07h.07l5.26 3 16.85-9.75a7.75 7.75 0 0 0 3.74-5.84 6 6 0 0 0-.43-2.43c1.43-.83 2.86-3.82 2.86-5.09.01-1.97-.66-2.48-.66-2.48" style="fill:#ba68c8"/><g style="opacity:.4"><path d="M451.58 91.24c-1.74-.85-4.51 1.15-4.51 2l-5.33-3c0-.85 3-3 4.72-1.86ZM465.41 96a2 2 0 0 0-2 .26l-10.18 5.89a18.5 18.5 0 0 0 .34-6.27l4.52-2.62a1.94 1.94 0 0 1 2.13-.18Z" style="fill:#fff"/></g><path d="m442.03 135.18-5.33-3.08-.01-21.99 5.32 3.08z" style="opacity:.1"/><path d="M447.07 101.1c-.43 1.54-5.06 12.09-5.06 12.09l-5.32-3s4.61-10.56 5.06-12.08 0-6.87 0-7.89l5.33 3c-.01 1.02.44 6.36-.01 7.88" style="opacity:.05"/><path d="M439.59 115.07a2.1 2.1 0 0 0-1-1.68l-3.38-2a2.2 2.2 0 0 0-1.94 0l-5.4 3.13a1.9 1.9 0 0 0-.69.72 2.1 2.1 0 0 0-.28 1v23.36a2.12 2.12 0 0 0 1 1.68l3.38 2a2.1 2.1 0 0 0 1 .23 2 2 0 0 0 1-.23l5.42-3.13a2.13 2.13 0 0 0 1-1.68Z" style="fill:#ba68c8"/><path d="M432.25 118.2v25.27a2.1 2.1 0 0 1-1-.23l-3.38-2a2.12 2.12 0 0 1-1-1.68v-23.32a2.1 2.1 0 0 1 .28-1Z" style="opacity:.1"/><g style="opacity:.30000000000000004"><path d="m439.31 114.11-7.06 4.09-5.05-2.92a1.9 1.9 0 0 1 .69-.72l5.4-3.13a2.2 2.2 0 0 1 1.94 0l3.38 2a2.1 2.1 0 0 1 .7.68" style="fill:#fff"/></g></svg>