<svg xmlns="http://www.w3.org/2000/svg" opacity=".08" viewBox="0 0 500 500"><path d="M222.76 34.28h242.46v368.6H222.76z" style="opacity:.30000000000000004"/><path d="M217.76 27.28h242.46v368.6H217.76z" style="fill:#fff;stroke:gray;stroke-linecap:round;stroke-linejoin:round"/><path d="M451.71 37.31v107.68l-.85-.31-24.26-8.77-27.22-9.82-25.25-9.1-34.84-12.58-18.32-6.61-95.28-34.39v-26.1zm0 113.03L225.69 68.76l.67 232.23 225.35 1.45z" style="fill:#c7c7c7"/><path d="m451.37 150.21-3.63-1.31a3.66 3.66 0 0 0 3.63 4.37h.34v-2.9Zm-3.7 14.16a3.7 3.7 0 0 0 3.7 3.7h.34v-7.37h-.34a3.7 3.7 0 0 0-3.7 3.67m-11.1-11.1a3.7 3.7 0 1 0-3.7-3.7 3.69 3.69 0 0 0 3.7 3.7m-7.39 0a3.7 3.7 0 1 0 3.69 3.7 3.7 3.7 0 0 0-3.69-3.7m14.82 7.4a3.7 3.7 0 1 0-3.7-3.7 3.7 3.7 0 0 0 3.7 3.7m-14.82-14.8a3.68 3.68 0 0 0 3.45-2.42L425.7 141a3.5 3.5 0 0 0-.22 1.22 3.69 3.69 0 0 0 3.7 3.65m-7.4 14.8a3.7 3.7 0 1 0 3.7 3.7 3.7 3.7 0 0 0-3.7-3.7M447.67 194a3.7 3.7 0 0 0 3.7 3.7h.34v-7.33h-.34a3.7 3.7 0 0 0-3.7 3.63m-11.1-3.74a3.7 3.7 0 1 0 3.7 3.69 3.7 3.7 0 0 0-3.7-3.69m11.1-11.1a3.7 3.7 0 0 0 3.7 3.7 2 2 0 0 0 .34 0v-7.36a2 2 0 0 0-.34 0 3.7 3.7 0 0 0-3.7 3.66m-11.1 3.7a3.7 3.7 0 1 0-3.7-3.7 3.7 3.7 0 0 0 3.7 3.7m-7.39 0a3.7 3.7 0 1 0 3.69 3.7 3.69 3.69 0 0 0-3.69-3.7m14.82 0a3.7 3.7 0 1 0 3.7 3.7 3.7 3.7 0 0 0-3.7-3.7m-14.82-14.8a3.7 3.7 0 1 0 3.69 3.7 3.7 3.7 0 0 0-3.69-3.7m14.82 0a3.7 3.7 0 1 0 3.7 3.7 3.7 3.7 0 0 0-3.7-3.7m-22.22 7.4a3.7 3.7 0 1 0 3.7 3.7 3.7 3.7 0 0 0-3.7-3.7m14.79-7.39a3.7 3.7 0 1 0-3.7-3.7 3.7 3.7 0 0 0 3.7 3.7m11.1 55.47a3.7 3.7 0 0 0 3.7 3.7h.34v-7.33h-.34a3.7 3.7 0 0 0-3.7 3.63m-11.1-3.7a3.7 3.7 0 1 0 3.7 3.7 3.7 3.7 0 0 0-3.7-3.7m11.1-11.09a3.7 3.7 0 0 0 3.7 3.7h.34v-7.33h-.34a3.7 3.7 0 0 0-3.7 3.63m-11.1-3.7a3.7 3.7 0 1 0 3.7 3.7 3.7 3.7 0 0 0-3.7-3.7m-7.39 7.4a3.7 3.7 0 1 0 3.69 3.7 3.69 3.69 0 0 0-3.69-3.7m14.82 0a3.7 3.7 0 1 0 3.7 3.7 3.7 3.7 0 0 0-3.7-3.7m-14.82-14.8a3.7 3.7 0 1 0 3.69 3.7 3.7 3.7 0 0 0-3.69-3.7m14.82 0a3.7 3.7 0 1 0 3.7 3.7 3.7 3.7 0 0 0-3.7-3.7m-22.22 7.4a3.7 3.7 0 1 0 3.7 3.7 3.7 3.7 0 0 0-3.7-3.7m26.97 45.46a3.7 3.7 0 0 0 2.62 6.32 2 2 0 0 0 .34 0v-7.32h-.34a3.74 3.74 0 0 0-2.62 1m-1.08-12.17a3.7 3.7 0 0 0 3.7 3.7h.34v-7.33h-.34a3.7 3.7 0 0 0-3.7 3.63m-11.1-3.7a3.7 3.7 0 1 0 3.7 3.7 3.7 3.7 0 0 0-3.7-3.7m-7.39 7.36a3.7 3.7 0 1 0 3.69 3.69 3.69 3.69 0 0 0-3.69-3.69m14.82 0a3.7 3.7 0 1 0 3.7 3.69A3.7 3.7 0 0 0 444 242m-14.82-7.36a3.7 3.7 0 1 0-3.7-3.7 3.7 3.7 0 0 0 3.7 3.7m14.82-7.4a3.7 3.7 0 1 0 3.7 3.7 3.7 3.7 0 0 0-3.7-3.7m-22.22 7.4a3.7 3.7 0 1 0 3.7 3.7 3.7 3.7 0 0 0-3.7-3.7m25.89 48.08a3.7 3.7 0 0 0 3.7 3.7h.34v-7.33h-.34a3.7 3.7 0 0 0-3.7 3.63m0-14.8a3.7 3.7 0 0 0 3.7 3.7h.34v-7.33h-.34a3.7 3.7 0 0 0-3.7 3.63m-11.1-3.7a3.7 3.7 0 1 0 3.7 3.7 3.7 3.7 0 0 0-3.7-3.7M429.18 279a3.7 3.7 0 1 0-3.7-3.7 3.7 3.7 0 0 0 3.7 3.7m14.82 0a3.7 3.7 0 1 0-3.7-3.7 3.7 3.7 0 0 0 3.7 3.7m-14.82-14.78a3.7 3.7 0 1 0-3.7-3.69 3.69 3.69 0 0 0 3.7 3.69m14.82-7.39a3.7 3.7 0 1 0 3.7 3.7 3.7 3.7 0 0 0-3.7-3.7m-7.43 0a3.71 3.71 0 0 0 2.62-6.32 3.7 3.7 0 1 0-5.23 5.24 3.67 3.67 0 0 0 2.61 1.08m11.1 40.68a3.7 3.7 0 0 0 3.7 3.7h.34v-7.33h-.34a3.7 3.7 0 0 0-3.7 3.63m-11.1-3.7a3.7 3.7 0 1 0 3.7 3.7 3.7 3.7 0 0 0-3.7-3.7m-9.99 8.47h5.22a3.68 3.68 0 0 0-5.22 0m14.71.09h5.39a3.67 3.67 0 0 0-5.39 0m-8.42-12.26a3.7 3.7 0 1 0-3.69 3.7 3.69 3.69 0 0 0 3.69-3.7m11.13 3.7a3.7 3.7 0 1 0-3.7-3.7 3.7 3.7 0 0 0 3.7 3.7m-22.22 0a3.7 3.7 0 1 0 3.7 3.7 3.7 3.7 0 0 0-3.7-3.7m14.79-7.39a3.7 3.7 0 1 0-3.7-3.7 3.7 3.7 0 0 0 3.7 3.7M407 160.67a3.7 3.7 0 1 0 3.7 3.7 3.69 3.69 0 0 0-3.7-3.7m14.78-7.4a3.7 3.7 0 1 0-3.7-3.7 3.7 3.7 0 0 0 3.7 3.7m-14.78-7.4a3.7 3.7 0 1 0 3.7 3.7 3.7 3.7 0 0 0-3.7-3.7m-7.41 7.4a3.7 3.7 0 1 0 3.7 3.7 3.7 3.7 0 0 0-3.7-3.7m14.79 0a3.7 3.7 0 1 0 3.7 3.7 3.7 3.7 0 0 0-3.7-3.7m-14.79-7.4a3.7 3.7 0 1 0-3.7-3.7 3.7 3.7 0 0 0 3.7 3.7m14.79 0a3.7 3.7 0 1 0-3.7-3.7 3.69 3.69 0 0 0 3.7 3.7m-22.19 0a3.7 3.7 0 1 0 2.62 1.09 3.7 3.7 0 0 0-2.62-1.09m14.81-7.39a3.7 3.7 0 0 0 3.63-3l-2-.72-4.88-1.76a3.57 3.57 0 0 0-.46 1.75 3.7 3.7 0 0 0 3.71 3.73m0 51.78a3.7 3.7 0 1 0 3.7 3.69 3.69 3.69 0 0 0-3.7-3.69m0-14.8a3.7 3.7 0 1 0 3.7 3.7 3.7 3.7 0 0 0-3.7-3.7m-7.41 7.4a3.7 3.7 0 1 0 3.7 3.7 3.69 3.69 0 0 0-3.7-3.7m14.79 0a3.7 3.7 0 1 0 3.7 3.7 3.7 3.7 0 0 0-3.7-3.7m-14.79-14.8a3.7 3.7 0 1 0 3.7 3.7 3.7 3.7 0 0 0-3.7-3.7m14.79 7.4a3.7 3.7 0 1 0-3.7-3.7 3.69 3.69 0 0 0 3.7 3.7m-22.19 14.8a3.69 3.69 0 1 0 2.62 1.08 3.7 3.7 0 0 0-2.62-1.08m0-14.8a3.69 3.69 0 1 0 2.62 1.08 3.7 3.7 0 0 0-2.62-1.08M407 212.45a3.7 3.7 0 1 0-3.69-3.7 3.7 3.7 0 0 0 3.69 3.7m-7.41 7.39a3.7 3.7 0 1 0-3.7-3.69 3.7 3.7 0 0 0 3.7 3.69m14.79-7.39a3.7 3.7 0 1 0 3.7 3.7 3.7 3.7 0 0 0-3.7-3.7m-14.79-14.8a3.7 3.7 0 1 0 3.7 3.7 3.7 3.7 0 0 0-3.7-3.7m14.79 0a3.7 3.7 0 1 0 3.7 3.7 3.7 3.7 0 0 0-3.7-3.7m-22.19 7.4a3.69 3.69 0 1 0 2.62 1.08 3.7 3.7 0 0 0-2.62-1.08m29.59-7.4a3.7 3.7 0 1 0-3.7-3.7 3.7 3.7 0 0 0 3.7 3.7M407 242a3.7 3.7 0 1 0-3.69-3.7A3.7 3.7 0 0 0 407 242m-7.41 0a3.7 3.7 0 1 0 3.7 3.69 3.69 3.69 0 0 0-3.7-3.69m14.79 7.43a3.7 3.7 0 1 0-3.7-3.7 3.69 3.69 0 0 0 3.7 3.7m-14.79-14.79a3.7 3.7 0 1 0-3.7-3.7 3.7 3.7 0 0 0 3.7 3.7m14.79 0a3.7 3.7 0 1 0-3.7-3.7 3.7 3.7 0 0 0 3.7 3.7m-19.57 1.08a3.71 3.71 0 1 0 1.08 2.62 3.7 3.7 0 0 0-1.08-2.62m26.97-8.48a3.7 3.7 0 1 0-3.7-3.7 3.7 3.7 0 0 0 3.7 3.7m-14.78 0a3.7 3.7 0 1 0-3.69-3.7 3.69 3.69 0 0 0 3.69 3.7m14.78 44.38a3.7 3.7 0 1 0-3.7-3.7 3.7 3.7 0 0 0 3.7 3.7m-14.78-7.4a3.7 3.7 0 1 0 3.7 3.7 3.7 3.7 0 0 0-3.7-3.7M399.59 279a3.7 3.7 0 1 0-3.7-3.7 3.7 3.7 0 0 0 3.7 3.7m14.79 0a3.7 3.7 0 1 0-3.7-3.7 3.7 3.7 0 0 0 3.7 3.7m-14.79-14.78a3.7 3.7 0 1 0-3.7-3.69 3.7 3.7 0 0 0 3.7 3.69m14.79 0a3.7 3.7 0 1 0-3.7-3.69 3.69 3.69 0 0 0 3.7 3.69m7.4-7.39a3.7 3.7 0 0 0 2.62-1.08 3.7 3.7 0 0 0-2.62-6.32 3.7 3.7 0 0 0-2.61 6.32 3.65 3.65 0 0 0 2.61 1.08m-14.78 0a3.71 3.71 0 0 0 2.62-6.32 3.7 3.7 0 0 0-5.23 5.24 3.67 3.67 0 0 0 2.61 1.08m0 36.98a3.7 3.7 0 1 0 3.7 3.7 3.7 3.7 0 0 0-3.7-3.7m-9.78 8.28h4.77a3.63 3.63 0 0 0-4.77 0m14.68.09h5a3.67 3.67 0 0 0-5 0m-12.31-15.76a3.7 3.7 0 1 0 3.7 3.69 3.69 3.69 0 0 0-3.7-3.69m14.79 0a3.7 3.7 0 1 0 3.7 3.69 3.7 3.7 0 0 0-3.7-3.69m-22.19 7.39a3.7 3.7 0 1 0 2.62 1.09 3.7 3.7 0 0 0-2.62-1.09m29.59-7.39a3.7 3.7 0 1 0-3.7-3.7 3.7 3.7 0 0 0 3.7 3.7m-14.78 0a3.7 3.7 0 1 0-3.69-3.7 3.7 3.7 0 0 0 3.69 3.7m-33.3-151.64a3.7 3.7 0 1 0 3.69-3.7 3.7 3.7 0 0 0-3.69 3.7m4.06-11.13-3-1.09a3.66 3.66 0 0 0 2.64 1.12c.12 0 .24-.02.36-.03m-7.76 7.43a3.7 3.7 0 1 0-3.7-3.7 3.7 3.7 0 0 0 3.7 3.7m14.8 0a3.69 3.69 0 0 0 3.68-3.56l-6.6-2.39a3.63 3.63 0 0 0-.78 2.25 3.7 3.7 0 0 0 3.7 3.7m-22.2 0a3.7 3.7 0 1 0 3.7 3.7 3.7 3.7 0 0 0-3.7-3.7m14.79 29.59a3.7 3.7 0 1 0 3.71 3.7 3.69 3.69 0 0 0-3.71-3.7m0-14.8a3.7 3.7 0 1 0 3.71 3.7 3.7 3.7 0 0 0-3.71-3.7m-7.39 7.4a3.7 3.7 0 1 0 3.7 3.7 3.7 3.7 0 0 0-3.7-3.7m14.8 0a3.7 3.7 0 1 0 3.69 3.7 3.7 3.7 0 0 0-3.69-3.7M370 138.48a3.7 3.7 0 1 0 3.7 3.69 3.7 3.7 0 0 0-3.7-3.69m14.8 0a3.7 3.7 0 1 0 3.69 3.69 3.69 3.69 0 0 0-3.69-3.69m-22.2 22.19a3.7 3.7 0 1 0 3.7 3.7 3.69 3.69 0 0 0-3.7-3.7m29.59-22.19a3.7 3.7 0 0 0 2.62-1.09 3.65 3.65 0 0 0 1.08-2.61 3.7 3.7 0 1 0-3.7 3.7m-14.8 51.78a3.7 3.7 0 1 0 3.71 3.74 3.69 3.69 0 0 0-3.71-3.74m0-14.8a3.7 3.7 0 1 0 3.71 3.7 3.7 3.7 0 0 0-3.71-3.7m-7.39 7.4a3.7 3.7 0 1 0 3.7 3.7 3.7 3.7 0 0 0-3.7-3.7m14.8 0a3.7 3.7 0 1 0 3.69 3.7 3.69 3.69 0 0 0-3.69-3.7m-14.8-14.8a3.7 3.7 0 1 0 3.7 3.7 3.7 3.7 0 0 0-3.7-3.7m14.8 0a3.7 3.7 0 1 0 3.69 3.7 3.7 3.7 0 0 0-3.69-3.7m-22.2 22.2a3.7 3.7 0 1 0 3.7 3.69 3.69 3.69 0 0 0-3.7-3.69m0-14.8a3.7 3.7 0 1 0 3.7 3.7 3.7 3.7 0 0 0-3.7-3.7m29.59-7.39a3.7 3.7 0 1 0-3.7-3.7 3.7 3.7 0 0 0 3.7 3.7m-14.8 44.38a3.7 3.7 0 1 0-3.69-3.7 3.71 3.71 0 0 0 3.69 3.7m-7.39 7.39a3.7 3.7 0 1 0-3.7-3.69 3.7 3.7 0 0 0 3.7 3.69m14.8-7.39a3.7 3.7 0 1 0 3.69 3.7 3.69 3.69 0 0 0-3.69-3.7m-14.8-7.4a3.7 3.7 0 1 0-3.7-3.7 3.7 3.7 0 0 0 3.7 3.7m14.8-7.4a3.7 3.7 0 1 0 3.69 3.7 3.7 3.7 0 0 0-3.69-3.7M377.39 242a3.7 3.7 0 1 0-3.69-3.7 3.71 3.71 0 0 0 3.69 3.7m-7.39 0a3.7 3.7 0 1 0 3.7 3.69A3.7 3.7 0 0 0 370 242m14.8 7.43a3.7 3.7 0 1 0-3.7-3.7 3.69 3.69 0 0 0 3.7 3.7M370 234.64a3.7 3.7 0 1 0-3.7-3.7 3.7 3.7 0 0 0 3.7 3.7m14.8 0a3.7 3.7 0 1 0-3.7-3.7 3.7 3.7 0 0 0 3.7 3.7m-22.2 0a3.7 3.7 0 1 0 3.7 3.7 3.69 3.69 0 0 0-3.7-3.7m29.59-7.4a3.7 3.7 0 1 0-3.7-3.7 3.7 3.7 0 0 0 3.7 3.7m-14.8 0a3.7 3.7 0 1 0-3.69-3.7 3.7 3.7 0 0 0 3.69 3.7m14.8 44.38a3.7 3.7 0 1 0-3.7-3.7 3.7 3.7 0 0 0 3.7 3.7m-14.8-7.4a3.7 3.7 0 1 0 3.71 3.7 3.7 3.7 0 0 0-3.71-3.7M370 279a3.7 3.7 0 1 0-3.7-3.7 3.7 3.7 0 0 0 3.7 3.7m14.8 0a3.7 3.7 0 1 0-3.7-3.7 3.7 3.7 0 0 0 3.7 3.7M370 264.22a3.7 3.7 0 1 0-3.7-3.69 3.7 3.7 0 0 0 3.7 3.69m14.8 0a3.7 3.7 0 1 0-3.7-3.69 3.69 3.69 0 0 0 3.7 3.69m7.39-7.39a3.71 3.71 0 0 0 2.62-6.32 3.7 3.7 0 1 0-5.23 5.24 3.67 3.67 0 0 0 2.61 1.08m-14.8 0a3.7 3.7 0 0 0 2.62-6.32 3.7 3.7 0 0 0-5.23 5.24 3.67 3.67 0 0 0 2.61 1.08m0 36.98a3.7 3.7 0 1 0 3.71 3.7 3.7 3.7 0 0 0-3.71-3.7m-9.53 8.09h4.31a3.65 3.65 0 0 0-2.17-.72 3.7 3.7 0 0 0-2.14.72m14.69.1h4.53a3.62 3.62 0 0 0-4.53 0M370 286.42a3.7 3.7 0 1 0 3.7 3.69 3.7 3.7 0 0 0-3.7-3.69m14.8 0a3.7 3.7 0 1 0 3.69 3.69 3.69 3.69 0 0 0-3.69-3.69m-22.2 7.39a3.7 3.7 0 1 0 3.7 3.7 3.7 3.7 0 0 0-3.7-3.7m29.59-7.39a3.7 3.7 0 1 0-3.7-3.7 3.7 3.7 0 0 0 3.7 3.7m-14.8 0a3.7 3.7 0 1 0-3.69-3.7 3.71 3.71 0 0 0 3.69 3.7m-29.58-155.34a3.7 3.7 0 1 0 3.7 3.7 3.7 3.7 0 0 0-3.7-3.7m14.79-7.4a3.69 3.69 0 0 0 3.7-3.7 4 4 0 0 0-.05-.49l-3.65-1.31-2.5-.91a3.69 3.69 0 0 0 2.5 6.41m-14.79 0a3.7 3.7 0 1 0-3.7-3.7 3.7 3.7 0 0 0 3.7 3.7m-7.4 0a3.7 3.7 0 1 0 3.7 3.7 3.7 3.7 0 0 0-3.7-3.7m11.1 3.7a3.7 3.7 0 1 0 3.7-3.7 3.7 3.7 0 0 0-3.7 3.7m-11.1-11.09a3.67 3.67 0 0 0 3.5-4.86l-5.46-2a3.69 3.69 0 0 0 2 6.83Zm14.8 0a3.8 3.8 0 0 0 1.39-.28l-4.6-1.67a3.68 3.68 0 0 0 3.21 1.95M333 131.08a3.7 3.7 0 0 0-2.06 6.77 3.74 3.74 0 0 0 2.06.63 3.7 3.7 0 0 0 0-7.4m14.81 29.59a3.7 3.7 0 1 0 3.7 3.7 3.69 3.69 0 0 0-3.7-3.7m14.79-7.4a3.7 3.7 0 1 0-3.69-3.7 3.69 3.69 0 0 0 3.69 3.7m-14.79-7.4a3.7 3.7 0 1 0 3.7 3.7 3.7 3.7 0 0 0-3.7-3.7m-7.4 7.4a3.7 3.7 0 1 0 3.7 3.7 3.7 3.7 0 0 0-3.7-3.7m14.8 0a3.7 3.7 0 1 0 3.7 3.7 3.7 3.7 0 0 0-3.7-3.7m-14.8-14.79a3.7 3.7 0 1 0 3.7 3.69 3.7 3.7 0 0 0-3.7-3.69m14.8 0a3.7 3.7 0 1 0 3.7 3.69 3.69 3.69 0 0 0-3.7-3.69M333 160.67a3.7 3.7 0 0 0 0 7.4 3.7 3.7 0 0 0 0-7.4m0-14.8a3.74 3.74 0 0 0-2.06.63 3.71 3.71 0 0 0 0 6.14 3.7 3.7 0 0 0 5.76-3.07 3.7 3.7 0 0 0-3.7-3.7m14.81 44.39a3.7 3.7 0 1 0 3.7 3.69 3.69 3.69 0 0 0-3.7-3.69m0-14.8a3.7 3.7 0 1 0 3.7 3.7 3.7 3.7 0 0 0-3.7-3.7m-7.4 14.8a3.7 3.7 0 1 0-3.7-3.7 3.7 3.7 0 0 0 3.7 3.7m14.8-7.4a3.7 3.7 0 1 0 3.7 3.7 3.69 3.69 0 0 0-3.7-3.7m-14.8-14.8a3.7 3.7 0 1 0 3.7 3.7 3.7 3.7 0 0 0-3.7-3.7m14.8 0a3.7 3.7 0 1 0 3.7 3.7 3.7 3.7 0 0 0-3.7-3.7M333 190.26a3.7 3.7 0 1 0 3.7 3.69 3.66 3.66 0 0 0-3.7-3.69m29.6 22.19a3.7 3.7 0 1 0-3.69-3.7 3.7 3.7 0 0 0 3.69 3.7m-14.79 0a3.7 3.7 0 1 0-3.7-3.7 3.7 3.7 0 0 0 3.7 3.7m-7.4 7.39a3.7 3.7 0 1 0-3.7-3.69 3.7 3.7 0 0 0 3.7 3.69m14.8-7.39a3.7 3.7 0 1 0 3.7 3.7 3.69 3.69 0 0 0-3.7-3.7m-14.8-7.4a3.7 3.7 0 1 0-3.7-3.7 3.7 3.7 0 0 0 3.7 3.7m14.8 0a3.7 3.7 0 1 0-3.7-3.7 3.7 3.7 0 0 0 3.7 3.7m-7.4 36.95a3.7 3.7 0 1 0-3.7-3.7 3.7 3.7 0 0 0 3.7 3.7m-7.4 0a3.7 3.7 0 1 0 3.7 3.69 3.7 3.7 0 0 0-3.7-3.69m14.8 7.43a3.7 3.7 0 1 0-3.7-3.7 3.7 3.7 0 0 0 3.7 3.7m-14.8-14.79a3.7 3.7 0 1 0-3.7-3.7 3.7 3.7 0 0 0 3.7 3.7m14.8 0a3.7 3.7 0 1 0-3.7-3.7 3.7 3.7 0 0 0 3.7 3.7m-22.21 0a3.7 3.7 0 0 0 0 7.4 3.7 3.7 0 0 0 0-7.4m29.6-7.4a3.7 3.7 0 1 0-3.69-3.7 3.69 3.69 0 0 0 3.69 3.7m-14.79 0a3.7 3.7 0 1 0-3.7-3.7 3.7 3.7 0 0 0 3.7 3.7m14.79 44.38a3.7 3.7 0 1 0-3.69-3.7 3.69 3.69 0 0 0 3.69 3.7m-14.79-7.4a3.7 3.7 0 1 0 3.7 3.7 3.7 3.7 0 0 0-3.7-3.7m-7.4 14.78a3.7 3.7 0 1 0-3.7-3.7 3.7 3.7 0 0 0 3.7 3.7m14.8 0a3.7 3.7 0 1 0-3.7-3.7 3.7 3.7 0 0 0 3.7 3.7m-14.8-14.78a3.7 3.7 0 1 0-3.7-3.69 3.7 3.7 0 0 0 3.7 3.69m14.8 0a3.7 3.7 0 1 0-3.7-3.69 3.7 3.7 0 0 0 3.7 3.69m7.39-7.39a3.71 3.71 0 0 0 2.62-6.32 3.71 3.71 0 0 0-5.23 0 3.7 3.7 0 0 0 2.61 6.32m-14.79 0a3.7 3.7 0 0 0 2.61-6.32 3.7 3.7 0 1 0-2.61 6.32m0 36.98a3.7 3.7 0 1 0 3.7 3.7 3.7 3.7 0 0 0-3.7-3.7m-9.22 7.9h3.69a3.7 3.7 0 0 0-1.87-.52 3.6 3.6 0 0 0-1.82.52m14.62.09h4a3.68 3.68 0 0 0-4 0m-12.8-15.38a3.7 3.7 0 1 0 3.7 3.69 3.7 3.7 0 0 0-3.7-3.69m14.8 0a3.7 3.7 0 1 0 3.7 3.69 3.69 3.69 0 0 0-3.7-3.69M333 293.81a3.74 3.74 0 0 0-2.06.63 3.7 3.7 0 1 0 2.06-.63m29.6-7.39a3.7 3.7 0 1 0-3.69-3.7 3.7 3.7 0 0 0 3.69 3.7m-14.79 0a3.7 3.7 0 1 0-3.7-3.7 3.7 3.7 0 0 0 3.7 3.7m-36.99-184.93a3.73 3.73 0 0 0 2.6-1.06l-6.26-2.26a3.69 3.69 0 0 0 3.66 3.32M331 116.92a3.7 3.7 0 1 0 2.06-.63 3.67 3.67 0 0 0-2.06.63m-12.78-.63a3.7 3.7 0 1 0 3.7 3.69 3.7 3.7 0 0 0-3.7-3.69m-7.4 7.39a3.7 3.7 0 1 0 3.7 3.7 3.7 3.7 0 0 0-3.7-3.7m14.8 0a3.7 3.7 0 1 0 3.7 3.7 3.7 3.7 0 0 0-3.7-3.7m-18.5-11.09a3.7 3.7 0 1 0 3.7-3.7 3.7 3.7 0 0 0-3.7 3.7m18.5 3.7a3.7 3.7 0 1 0-3.7-3.7 3.7 3.7 0 0 0 3.7 3.7m-22.19 14.79a3.7 3.7 0 1 0 3.69 3.7 3.7 3.7 0 0 0-3.69-3.7m0-14.79a3.7 3.7 0 1 0 3.69 3.69 3.69 3.69 0 0 0-3.69-3.69m27.57-8.03a3.69 3.69 0 0 0 4.14 0l-2.14-.76-3.53-1.28a3.72 3.72 0 0 0 1.53 2.04m-12.78.63a3.7 3.7 0 0 0 3.7-3.7 3.6 3.6 0 0 0-.54-1.89l-4.38-1.58a3.69 3.69 0 0 0 1.23 7.17Zm0 51.78a3.7 3.7 0 1 0 3.7 3.7 3.7 3.7 0 0 0-3.7-3.7m0-14.8a3.7 3.7 0 1 0 3.7 3.7 3.7 3.7 0 0 0-3.7-3.7m-7.4 7.4a3.7 3.7 0 1 0 3.7 3.7 3.7 3.7 0 0 0-3.7-3.7m14.8 7.4a3.7 3.7 0 1 0-3.7-3.7 3.7 3.7 0 0 0 3.7 3.7m-14.8-22.19a3.7 3.7 0 1 0 3.7 3.69 3.7 3.7 0 0 0-3.7-3.69m14.8 0a3.7 3.7 0 1 0 3.7 3.69 3.7 3.7 0 0 0-3.7-3.69m-22.19 22.19a3.7 3.7 0 1 0 3.69 3.7 3.69 3.69 0 0 0-3.69-3.7m14.79-22.19a3.7 3.7 0 1 0-3.7-3.7 3.7 3.7 0 0 0 3.7 3.7m0 51.78a3.7 3.7 0 1 0 3.7 3.69 3.7 3.7 0 0 0-3.7-3.69m12.78-8.03a3.66 3.66 0 0 0 2.06.63 3.7 3.7 0 0 0 0-7.4 3.7 3.7 0 0 0-2.06 6.77m-12.78-6.77a3.7 3.7 0 1 0 3.7 3.7 3.7 3.7 0 0 0-3.7-3.7m-7.4 14.8a3.7 3.7 0 1 0-3.7-3.7 3.7 3.7 0 0 0 3.7 3.7m14.8-7.4a3.7 3.7 0 1 0 3.7 3.7 3.7 3.7 0 0 0-3.7-3.7m-14.8-14.8a3.7 3.7 0 1 0 3.7 3.7 3.7 3.7 0 0 0-3.7-3.7m14.8 0a3.7 3.7 0 1 0 3.7 3.7 3.7 3.7 0 0 0-3.7-3.7m-22.19 22.2a3.7 3.7 0 1 0 3.69 3.69 3.69 3.69 0 0 0-3.69-3.69m0-14.8a3.7 3.7 0 1 0 3.69 3.7 3.7 3.7 0 0 0-3.69-3.7M331 211.82a3.74 3.74 0 0 0 2.06.63 3.7 3.7 0 0 0 0-7.4 3.69 3.69 0 0 0-3.69 3.7 3.7 3.7 0 0 0 1.63 3.07m-12.78.63a3.7 3.7 0 1 0-3.7-3.7 3.7 3.7 0 0 0 3.7 3.7m-7.4 7.39a3.7 3.7 0 1 0-3.7-3.69 3.7 3.7 0 0 0 3.7 3.69m14.8-7.39a3.7 3.7 0 1 0 3.7 3.7 3.7 3.7 0 0 0-3.7-3.7m-14.8-7.4a3.7 3.7 0 1 0-3.7-3.7 3.7 3.7 0 0 0 3.7 3.7m14.8 0a3.7 3.7 0 1 0-3.7-3.7 3.7 3.7 0 0 0 3.7 3.7m-7.4 36.95a3.7 3.7 0 1 0-3.7-3.7 3.7 3.7 0 0 0 3.7 3.7m-7.4 0a3.7 3.7 0 1 0 3.7 3.69 3.7 3.7 0 0 0-3.7-3.69m14.8 7.43a3.7 3.7 0 1 0-3.7-3.7 3.7 3.7 0 0 0 3.7 3.7m-14.8-14.79a3.7 3.7 0 1 0-3.7-3.7 3.7 3.7 0 0 0 3.7 3.7m14.8 0a3.7 3.7 0 1 0-3.7-3.7 3.7 3.7 0 0 0 3.7 3.7m-22.19 0a3.7 3.7 0 1 0 3.69 3.7 3.69 3.69 0 0 0-3.69-3.7m27.57-8.03a3.7 3.7 0 0 0 5.76-3.07 3.7 3.7 0 1 0-5.76 3.07m-12.78.63a3.7 3.7 0 1 0-3.7-3.7 3.7 3.7 0 0 0 3.7 3.7M331 271a3.7 3.7 0 0 0 5.76-3.07A3.7 3.7 0 1 0 331 271m-12.78-6.78a3.7 3.7 0 1 0 3.7 3.7 3.7 3.7 0 0 0-3.7-3.7m-7.4 14.78a3.7 3.7 0 1 0-3.7-3.7 3.7 3.7 0 0 0 3.7 3.7m14.8 0a3.7 3.7 0 1 0-3.7-3.7 3.7 3.7 0 0 0 3.7 3.7m-14.8-14.78a3.7 3.7 0 1 0-3.7-3.69 3.7 3.7 0 0 0 3.7 3.69m14.8 0a3.7 3.7 0 1 0-3.7-3.69 3.7 3.7 0 0 0 3.7 3.69m5.38-8.02a3.7 3.7 0 0 0 4.68-.45 3.7 3.7 0 0 0-2.62-6.32 3.66 3.66 0 0 0-2.06.63 5 5 0 0 0-.55.45 3.72 3.72 0 0 0 0 5.24 5 5 0 0 0 .55.45m-12.78.63a3.65 3.65 0 0 0 2.61-1.08 3.71 3.71 0 1 0-2.61 1.08m0 36.98a3.7 3.7 0 1 0 3.7 3.7 3.7 3.7 0 0 0-3.7-3.7m-8.87 7.71h3a3.63 3.63 0 0 0-3 0m14.65.09h3.34a3.6 3.6 0 0 0-1.69-.43 3.65 3.65 0 0 0-1.65.43m-13.18-15.19a3.7 3.7 0 1 0 3.7 3.69 3.7 3.7 0 0 0-3.7-3.69m14.8 0a3.7 3.7 0 1 0 3.7 3.69 3.7 3.7 0 0 0-3.7-3.69m-22.19 7.39a3.7 3.7 0 1 0 3.69 3.7 3.7 3.7 0 0 0-3.69-3.7m27.57-8.02a3.74 3.74 0 0 0 2.06.63 3.7 3.7 0 0 0 0-7.4 3.7 3.7 0 0 0-2.06 6.77m-12.78.63a3.7 3.7 0 1 0-3.7-3.7 3.7 3.7 0 0 0 3.7 3.7m-29.59-184.93a3.7 3.7 0 1 0 3.7 3.7 3.7 3.7 0 0 0-3.7-3.7m0-7.39a3.68 3.68 0 0 0 3-1.54L285 90.15a2 2 0 0 0 0 .25 3.7 3.7 0 0 0 3.63 3.7m-7.4 7.39a3.7 3.7 0 1 0-3.7-3.7 3.69 3.69 0 0 0 3.7 3.7m14.77 0a3.68 3.68 0 0 0 2.46-6.49l-2.55-.92a3.69 3.69 0 0 0 .12 7.38Zm-22.16 0a3.7 3.7 0 1 0 3.7 3.7 3.7 3.7 0 0 0-3.7-3.7m14.79 29.59a3.7 3.7 0 1 0 3.7 3.7 3.7 3.7 0 0 0-3.7-3.7m0-14.79a3.7 3.7 0 1 0 3.7 3.69 3.7 3.7 0 0 0-3.7-3.69m-7.4 7.39a3.7 3.7 0 1 0 3.7 3.7 3.7 3.7 0 0 0-3.7-3.7m14.77 7.4a3.7 3.7 0 1 0-3.7-3.7 3.7 3.7 0 0 0 3.7 3.7m-14.77-22.19a3.7 3.7 0 1 0 3.7 3.7 3.7 3.7 0 0 0-3.7-3.7m14.77 0a3.7 3.7 0 1 0 3.7 3.7 3.7 3.7 0 0 0-3.7-3.7m-22.16 22.19a3.7 3.7 0 1 0 3.7 3.7 3.7 3.7 0 0 0-3.7-3.7m29.59-22.19a3.7 3.7 0 1 0-3.7-3.7 3.7 3.7 0 0 0 3.7 3.7m-14.8 51.78a3.7 3.7 0 1 0 3.7 3.7 3.7 3.7 0 0 0-3.7-3.7m14.8-7.4a3.7 3.7 0 1 0-3.7-3.7 3.69 3.69 0 0 0 3.7 3.7m-14.8-7.4a3.7 3.7 0 1 0 3.7 3.7 3.7 3.7 0 0 0-3.7-3.7m-7.4 7.4a3.7 3.7 0 1 0 3.7 3.7 3.7 3.7 0 0 0-3.7-3.7m14.77 0a3.7 3.7 0 1 0 3.7 3.7 3.7 3.7 0 0 0-3.7-3.7m-14.77-14.79a3.7 3.7 0 1 0 3.7 3.69 3.7 3.7 0 0 0-3.7-3.69m14.77 0a3.7 3.7 0 1 0 3.7 3.69 3.7 3.7 0 0 0-3.7-3.69m-22.16 22.19a3.7 3.7 0 1 0 3.7 3.7 3.7 3.7 0 0 0-3.7-3.7m0-14.8a3.7 3.7 0 1 0 3.7 3.7 3.7 3.7 0 0 0-3.7-3.7m14.79 44.39a3.7 3.7 0 1 0 3.7 3.69 3.7 3.7 0 0 0-3.7-3.69m0-14.8a3.7 3.7 0 1 0 3.7 3.7 3.7 3.7 0 0 0-3.7-3.7m-7.4 14.8a3.7 3.7 0 1 0-3.7-3.7 3.7 3.7 0 0 0 3.7 3.7m14.77-7.4a3.7 3.7 0 1 0 3.7 3.7 3.7 3.7 0 0 0-3.7-3.7m-14.77-14.8a3.7 3.7 0 1 0 3.7 3.7 3.7 3.7 0 0 0-3.7-3.7m14.77 0a3.7 3.7 0 1 0 3.7 3.7 3.7 3.7 0 0 0-3.7-3.7m-22.16 22.2a3.7 3.7 0 1 0 3.7 3.69 3.7 3.7 0 0 0-3.7-3.69m0-14.8a3.7 3.7 0 1 0 3.7 3.7 3.7 3.7 0 0 0-3.7-3.7m29.59 36.99a3.7 3.7 0 1 0-3.7-3.7 3.7 3.7 0 0 0 3.7 3.7m-14.8 0a3.7 3.7 0 1 0-3.7-3.7 3.7 3.7 0 0 0 3.7 3.7m-7.4 7.39a3.7 3.7 0 1 0-3.7-3.69 3.69 3.69 0 0 0 3.7 3.69m14.77-7.39a3.7 3.7 0 1 0 3.7 3.7 3.7 3.7 0 0 0-3.7-3.7m-14.77-7.4a3.7 3.7 0 1 0-3.7-3.7 3.7 3.7 0 0 0 3.7 3.7m14.77 0a3.7 3.7 0 1 0-3.7-3.7 3.7 3.7 0 0 0 3.7 3.7M288.63 242a3.7 3.7 0 1 0-3.7-3.7 3.7 3.7 0 0 0 3.7 3.7m-7.4 0a3.7 3.7 0 1 0 3.7 3.69 3.7 3.7 0 0 0-3.7-3.69m14.77 7.43a3.7 3.7 0 1 0-3.7-3.7 3.7 3.7 0 0 0 3.7 3.7m-14.77-14.79a3.7 3.7 0 1 0-3.7-3.7 3.7 3.7 0 0 0 3.7 3.7m14.77 0a3.7 3.7 0 1 0-3.7-3.7 3.7 3.7 0 0 0 3.7 3.7m-22.16 0a3.7 3.7 0 1 0 3.7 3.7 3.7 3.7 0 0 0-3.7-3.7m29.59-7.4a3.7 3.7 0 1 0-3.7-3.7 3.69 3.69 0 0 0 3.7 3.7m-14.8 0a3.7 3.7 0 1 0-3.7-3.7 3.7 3.7 0 0 0 3.7 3.7m14.8 44.38a3.7 3.7 0 1 0-3.7-3.7 3.69 3.69 0 0 0 3.7 3.7m-14.8-7.4a3.7 3.7 0 1 0 3.7 3.7 3.7 3.7 0 0 0-3.7-3.7m-7.4 14.78a3.7 3.7 0 1 0-3.7-3.7 3.7 3.7 0 0 0 3.7 3.7m14.77 0a3.7 3.7 0 1 0-3.7-3.7 3.7 3.7 0 0 0 3.7 3.7m-14.77-14.78a3.7 3.7 0 1 0-3.7-3.69 3.69 3.69 0 0 0 3.7 3.69m14.77 0a3.7 3.7 0 1 0-3.7-3.69 3.7 3.7 0 0 0 3.7 3.69m7.43-7.39a3.71 3.71 0 0 0 2.61-6.32 3.7 3.7 0 1 0-2.61 6.32m-14.8 0a3.71 3.71 0 0 0 2.62-6.32 3.71 3.71 0 0 0-5.24 5.24 3.7 3.7 0 0 0 2.62 1.08m0 36.98a3.7 3.7 0 1 0 3.7 3.7 3.7 3.7 0 0 0-3.7-3.7m-8.29 7.52h1.83a3.6 3.6 0 0 0-.94-.14 3.7 3.7 0 0 0-.89.14m14.49.1h2.45a3.45 3.45 0 0 0-2.45 0m-13.6-15.01a3.7 3.7 0 1 0 3.7 3.69 3.7 3.7 0 0 0-3.7-3.69m14.77 0a3.7 3.7 0 1 0 3.7 3.69 3.7 3.7 0 0 0-3.7-3.69m-22.16 7.39a3.7 3.7 0 1 0 3.7 3.7 3.7 3.7 0 0 0-3.7-3.7m29.59-7.39a3.7 3.7 0 1 0-3.7-3.7 3.7 3.7 0 0 0 3.7 3.7m-14.8 0a3.7 3.7 0 1 0-3.7-3.7 3.7 3.7 0 0 0 3.7 3.7M259 101.49a3.7 3.7 0 1 0 3.7 3.7 3.7 3.7 0 0 0-3.7-3.7m14.84-7.39a3.7 3.7 0 1 0-3.7-3.7 3.7 3.7 0 0 0 3.7 3.7m-14.84 0a3.7 3.7 0 1 0-3.7-3.7 3.7 3.7 0 0 0 3.7 3.7m-7.35 0a3.7 3.7 0 1 0 3.69 3.69 3.69 3.69 0 0 0-3.69-3.69m14.79 0a3.7 3.7 0 1 0 3.7 3.69 3.7 3.7 0 0 0-3.7-3.69m-14.79-7.4A3.7 3.7 0 1 0 248 83a3.7 3.7 0 0 0 3.65 3.7m14.79 0a3.7 3.7 0 0 0 3.29-2l-6.89-2.49a3.8 3.8 0 0 0-.1.83 3.7 3.7 0 0 0 3.7 3.66m-22.19 0a3.7 3.7 0 1 0 3.7 3.7 3.7 3.7 0 0 0-3.7-3.7M259 131.08a3.7 3.7 0 1 0 3.7 3.7 3.7 3.7 0 0 0-3.7-3.7m14.84-7.4a3.7 3.7 0 1 0-3.7-3.7 3.7 3.7 0 0 0 3.7 3.7M259 116.29a3.7 3.7 0 1 0 3.7 3.69 3.7 3.7 0 0 0-3.7-3.69m-7.35 7.39a3.7 3.7 0 1 0 3.69 3.7 3.7 3.7 0 0 0-3.69-3.7m14.79 0a3.7 3.7 0 1 0 3.7 3.7 3.7 3.7 0 0 0-3.7-3.7m-14.79-14.79a3.7 3.7 0 1 0 3.69 3.7 3.69 3.69 0 0 0-3.69-3.7m14.79 0a3.7 3.7 0 1 0 3.7 3.7 3.7 3.7 0 0 0-3.7-3.7m-22.19 7.4A3.7 3.7 0 1 0 248 120a3.7 3.7 0 0 0-3.75-3.71M259 145.87a3.7 3.7 0 1 0 3.7 3.7 3.7 3.7 0 0 0-3.7-3.7m-7.35 14.8A3.7 3.7 0 1 0 248 157a3.7 3.7 0 0 0 3.65 3.67m14.79-7.4a3.7 3.7 0 1 0 3.7 3.7 3.7 3.7 0 0 0-3.7-3.7m-14.79-7.4a3.7 3.7 0 1 0-3.7-3.7 3.69 3.69 0 0 0 3.7 3.7m14.79-7.39a3.7 3.7 0 1 0 3.7 3.69 3.7 3.7 0 0 0-3.7-3.69M259 182.86a3.7 3.7 0 1 0-3.7-3.7 3.7 3.7 0 0 0 3.7 3.7m-7.35 7.4a3.7 3.7 0 1 0-3.7-3.7 3.7 3.7 0 0 0 3.7 3.7m14.79 0a3.7 3.7 0 1 0-3.7-3.7 3.7 3.7 0 0 0 3.7 3.7m-14.79-14.8a3.7 3.7 0 1 0-3.7-3.7 3.69 3.69 0 0 0 3.7 3.7m14.79-7.4a3.7 3.7 0 1 0 3.7 3.7 3.7 3.7 0 0 0-3.7-3.7m-7.44.01a3.7 3.7 0 1 0-3.7-3.7 3.7 3.7 0 0 0 3.7 3.7m14.84 44.38a3.7 3.7 0 1 0-3.7-3.7 3.7 3.7 0 0 0 3.7 3.7m-14.84 0a3.7 3.7 0 1 0-3.7-3.7 3.7 3.7 0 0 0 3.7 3.7m-7.35 7.39a3.7 3.7 0 1 0-3.7-3.69 3.69 3.69 0 0 0 3.7 3.69m14.79-7.39a3.7 3.7 0 1 0 3.7 3.7 3.7 3.7 0 0 0-3.7-3.7m-14.79-7.4a3.7 3.7 0 1 0-3.7-3.7 3.7 3.7 0 0 0 3.7 3.7m14.79 0a3.7 3.7 0 1 0-3.7-3.7 3.7 3.7 0 0 0 3.7 3.7m-7.44-7.4a3.7 3.7 0 1 0-3.7-3.7 3.7 3.7 0 0 0 3.7 3.7m0 44.35a3.7 3.7 0 1 0-3.7-3.7 3.7 3.7 0 0 0 3.7 3.7m-7.35 0a3.7 3.7 0 1 0 3.69 3.69 3.69 3.69 0 0 0-3.69-3.69m14.79 7.43a3.7 3.7 0 1 0-3.7-3.7 3.7 3.7 0 0 0 3.7 3.7m-14.79-14.79a3.7 3.7 0 1 0-3.7-3.7 3.7 3.7 0 0 0 3.7 3.7m14.79 0a3.7 3.7 0 1 0-3.7-3.7 3.7 3.7 0 0 0 3.7 3.7m7.4-7.4a3.7 3.7 0 1 0-3.7-3.7 3.7 3.7 0 0 0 3.7 3.7m-14.84 0a3.7 3.7 0 1 0-3.7-3.7 3.7 3.7 0 0 0 3.7 3.7m14.84 44.38a3.7 3.7 0 1 0-3.7-3.7 3.7 3.7 0 0 0 3.7 3.7m-14.84-7.4a3.7 3.7 0 1 0 3.7 3.7 3.7 3.7 0 0 0-3.7-3.7M251.65 279a3.7 3.7 0 1 0-3.7-3.7 3.7 3.7 0 0 0 3.7 3.7m14.79 0a3.7 3.7 0 1 0-3.7-3.7 3.7 3.7 0 0 0 3.7 3.7m-14.79-14.78a3.7 3.7 0 1 0-3.7-3.69 3.69 3.69 0 0 0 3.7 3.69m14.79 0a3.7 3.7 0 1 0-3.7-3.69 3.7 3.7 0 0 0 3.7 3.69m7.4-7.39a3.7 3.7 0 0 0 2.61-6.32 3.7 3.7 0 1 0-2.61 6.32m-14.84 0a3.71 3.71 0 0 0 2.62-6.32 3.7 3.7 0 1 0-5.23 5.24 3.67 3.67 0 0 0 2.61 1.08m0 36.98a3.7 3.7 0 0 0-.15 7.39h.29a3.7 3.7 0 0 0-.14-7.39m7.13 7.43h.66-.35Zm-14.48-14.82a3.7 3.7 0 1 0 3.69 3.69 3.69 3.69 0 0 0-3.69-3.69m14.79 0a3.7 3.7 0 1 0 3.7 3.69 3.7 3.7 0 0 0-3.7-3.69m-22.19 7.39a3.7 3.7 0 0 0-.88 7.29h1.72a3.7 3.7 0 0 0-.84-7.3Zm29.59-7.39a3.7 3.7 0 1 0-3.7-3.7 3.7 3.7 0 0 0 3.7 3.7m-14.84 0a3.7 3.7 0 1 0-3.7-3.7 3.7 3.7 0 0 0 3.7 3.7M225.69 68.88a.4.4 0 0 1 0-.11Zm3.76 25.22a3.7 3.7 0 1 0-3.69-3.7 3.7 3.7 0 0 0 3.69 3.7m7.4 0a3.7 3.7 0 1 0 3.7 3.69 3.7 3.7 0 0 0-3.7-3.69m-11.12-11.38v.54zm11.12 3.98a3.7 3.7 0 1 0-3.7-3.7 3.7 3.7 0 0 0 3.7 3.7m7.4-7.4a3.69 3.69 0 0 0 3.51-2.57l-3.12-1.13-.39-.14-3.43-1.23a3.6 3.6 0 0 0-.27 1.37 3.7 3.7 0 0 0 3.7 3.7m-14.8 0a3.7 3.7 0 1 0-3.69-3.7 3.69 3.69 0 0 0 3.69 3.7m0 44.38a3.7 3.7 0 1 0-3.62-4.45v1.52a3.68 3.68 0 0 0 3.62 2.93m7.4 7.4a3.7 3.7 0 1 0-3.7-3.7 3.7 3.7 0 0 0 3.7 3.7m0-14.79a3.7 3.7 0 1 0-3.7-3.7 3.7 3.7 0 0 0 3.7 3.7m7.4-7.4a3.7 3.7 0 1 0-3.7-3.7 3.7 3.7 0 0 0 3.7 3.7m-14.8 0a3.7 3.7 0 1 0-3.66-4.06v.74a3.69 3.69 0 0 0 3.66 3.32m14.8 44.38a3.7 3.7 0 1 0-3.7-3.7 3.7 3.7 0 0 0 3.7 3.7m-14.8 0a3.7 3.7 0 1 0-3.53-4.72v2.07a3.7 3.7 0 0 0 3.53 2.65m7.4 7.4a3.7 3.7 0 1 0-3.7-3.7 3.7 3.7 0 0 0 3.7 3.7m0-14.8a3.7 3.7 0 1 0-3.7-3.7 3.69 3.69 0 0 0 3.7 3.7m7.4-7.39a3.7 3.7 0 1 0-3.7-3.7 3.7 3.7 0 0 0 3.7 3.7m-14.8 0a3.7 3.7 0 1 0-3.57-4.59v1.8a3.69 3.69 0 0 0 3.57 2.79m14.8 44.38a3.7 3.7 0 1 0-3.7-3.7 3.7 3.7 0 0 0 3.7 3.7m-14.8 0a3.7 3.7 0 1 0-3.45-5v2.62a3.69 3.69 0 0 0 3.45 2.38m7.4 7.4a3.7 3.7 0 1 0-3.7-3.7 3.7 3.7 0 0 0 3.7 3.7m0-14.8a3.7 3.7 0 1 0-3.7-3.7 3.69 3.69 0 0 0 3.7 3.7m7.4-7.39a3.7 3.7 0 1 0-3.7-3.7 3.7 3.7 0 0 0 3.7 3.7m-14.8 0a3.7 3.7 0 1 0-3.45-4.87v2.35a3.68 3.68 0 0 0 3.45 2.52m14.8 44.38a3.7 3.7 0 1 0-3.7-3.7 3.7 3.7 0 0 0 3.7 3.7m-14.8 0a3.7 3.7 0 1 0-3.36-5.22v3.05a3.68 3.68 0 0 0 3.36 2.17m7.4 7.39a3.7 3.7 0 1 0-3.7-3.69 3.69 3.69 0 0 0 3.7 3.69m0-14.79a3.7 3.7 0 1 0-3.7-3.7 3.7 3.7 0 0 0 3.7 3.7m7.4-7.4a3.7 3.7 0 1 0-3.7-3.7 3.7 3.7 0 0 0 3.7 3.7m-14.8 0a3.7 3.7 0 1 0-3.41-5.13v2.89a3.7 3.7 0 0 0 3.41 2.24m14.8 44.35a3.7 3.7 0 1 0-3.7-3.7 3.7 3.7 0 0 0 3.7 3.7m-14.8 0a3.7 3.7 0 1 0-3.28-5.38V240a3.7 3.7 0 0 0 3.28 2m7.4 7.43a3.7 3.7 0 1 0-3.7-3.7 3.69 3.69 0 0 0 3.7 3.7m0-14.79a3.7 3.7 0 1 0-3.7-3.7 3.7 3.7 0 0 0 3.7 3.7m7.4-7.4a3.7 3.7 0 1 0-3.7-3.7 3.7 3.7 0 0 0 3.7 3.7m-14.8 0a3.7 3.7 0 1 0-3.32-5.29v3.2a3.67 3.67 0 0 0 3.32 2.09m14.8 44.38a3.7 3.7 0 1 0-3.7-3.7 3.7 3.7 0 0 0 3.7 3.7m-14.8 0a3.7 3.7 0 1 0-3.19-5.53v3.68a3.68 3.68 0 0 0 3.19 1.85m7.4 7.38a3.7 3.7 0 1 0-3.7-3.7 3.7 3.7 0 0 0 3.7 3.7m0-14.78a3.7 3.7 0 1 0-3.7-3.69 3.69 3.69 0 0 0 3.7 3.69m4.78-8.47a3.7 3.7 0 0 0 2.62 1.08 3.65 3.65 0 0 0 2.61-1.08 3.7 3.7 0 1 0-5.23 0m-12.18 1.08a3.71 3.71 0 0 0 2.62-6.32 3.71 3.71 0 0 0-5.23 0 4.2 4.2 0 0 0-.63.87v3.52a3.61 3.61 0 0 0 3.23 1.93Zm0 36.98a3.7 3.7 0 0 0-3.11 1.71v4a3.7 3.7 0 0 0 1.91 1.48h2.33a3.69 3.69 0 0 0-1.14-7.2Zm7.4-7.39a3.7 3.7 0 1 0 3.7 3.69 3.7 3.7 0 0 0-3.7-3.69m7.4 0a3.7 3.7 0 1 0-3.7-3.7 3.7 3.7 0 0 0 3.7 3.7m-14.8 0a3.7 3.7 0 1 0-3.15-5.61v3.84a3.68 3.68 0 0 0 3.15 1.77M318.22 94.1a3.69 3.69 0 0 0-3.05 1.6l5.8 2.1.92.33v-.33a3.7 3.7 0 0 0-3.67-3.7m-44.38-14.8a3.68 3.68 0 0 0-2.16.71l5.73 2.07a3.7 3.7 0 0 0-3.57-2.78m110.96 29.59a3.7 3.7 0 1 0-3.7-3.7 3.7 3.7 0 0 0 3.7 3.7M273.84 49.71a3.7 3.7 0 1 0 3.7 3.7 3.7 3.7 0 0 0-3.7-3.7m88.76 59.18a3.69 3.69 0 0 0-3.53 2.66l6.93 2.5a3.7 3.7 0 0 0 .3-1.46 3.7 3.7 0 0 0-3.7-3.7m14.79 7.4a3.7 3.7 0 1 0-3.69-3.7 3.71 3.71 0 0 0 3.69 3.7m0-22.19a3.7 3.7 0 1 0 3.71 3.7 3.69 3.69 0 0 0-3.71-3.7m-96.16-44.39a3.7 3.7 0 1 0-3.7-3.69 3.69 3.69 0 0 0 3.7 3.69m59.18-7.39a3.7 3.7 0 1 0 3.7 3.7 3.7 3.7 0 0 0-3.7-3.7m-66.57 29.59a3.7 3.7 0 1 0-3.7-3.7 3.7 3.7 0 0 0 3.7 3.7M296 42.32a3.7 3.7 0 1 0 3.7 3.7 3.7 3.7 0 0 0-3.7-3.7m29.62 0a3.7 3.7 0 1 0 3.7 3.7 3.7 3.7 0 0 0-3.7-3.7m7.38 7.39a3.7 3.7 0 1 0 3.7 3.7 3.67 3.67 0 0 0-3.7-3.7m14.81 14.8a3.7 3.7 0 1 0 3.7 3.7 3.69 3.69 0 0 0-3.7-3.7m-7.4-7.4a3.7 3.7 0 1 0 3.7 3.7 3.7 3.7 0 0 0-3.7-3.7m-36.98-7.4a3.7 3.7 0 1 0 3.69 3.7 3.7 3.7 0 0 0-3.69-3.7m7.39-7.39a3.7 3.7 0 1 0 3.7 3.7 3.7 3.7 0 0 0-3.7-3.7m14.8 22.19a3.7 3.7 0 1 0-3.7-3.7 3.7 3.7 0 0 0 3.7 3.7m-7.4-14.8a3.7 3.7 0 1 0 3.7 3.7 3.7 3.7 0 0 0-3.7-3.7m36.99-7.39a3.7 3.7 0 1 0 3.7 3.7 3.69 3.69 0 0 0-3.7-3.7m22.18 22.19a3.7 3.7 0 1 0 3.71 3.7 3.69 3.69 0 0 0-3.71-3.7m14.8 0a3.69 3.69 0 1 0 2.62 1.08 3.7 3.7 0 0 0-2.62-1.08m0 22.19a3.69 3.69 0 0 0 3.7-3.7 3.65 3.65 0 0 0-1.08-2.61 3.7 3.7 0 1 0-2.62 6.31M370 57.11a3.7 3.7 0 1 0 3.7 3.7 3.7 3.7 0 0 0-3.7-3.7m14.8 14.8a3.7 3.7 0 1 0 3.69 3.69 3.69 3.69 0 0 0-3.69-3.69m-36.99-22.2a3.7 3.7 0 1 0 3.7 3.7 3.7 3.7 0 0 0-3.7-3.7m7.4 14.8a3.7 3.7 0 1 0-3.7-3.7 3.7 3.7 0 0 0 3.7 3.7m0 7.4a3.7 3.7 0 1 0 3.7 3.69 3.69 3.69 0 0 0-3.7-3.69m7.39-22.2a3.7 3.7 0 1 0 3.7 3.7 3.7 3.7 0 0 0-3.7-3.7m51.78 22.2a3.7 3.7 0 1 0 3.7 3.69 3.7 3.7 0 0 0-3.7-3.69M407 101.49a3.7 3.7 0 1 0-3.69-3.69 3.69 3.69 0 0 0 3.69 3.69m-7.41-7.39a3.7 3.7 0 1 0-3.7-3.7 3.7 3.7 0 0 0 3.7 3.7m3.7-18.5a3.7 3.7 0 1 0-3.7 3.7 3.7 3.7 0 0 0 3.7-3.7m-8.48 19.58a3.71 3.71 0 1 0 1.08 2.62 3.7 3.7 0 0 0-1.08-2.62M407 79.3a3.7 3.7 0 1 0 3.7 3.7 3.7 3.7 0 0 0-3.7-3.7m-7.41-22.19a3.7 3.7 0 1 0 3.7 3.7 3.7 3.7 0 0 0-3.7-3.7m-7.4 59.18a3.7 3.7 0 0 0 2.62-1.09 3.65 3.65 0 0 0 1.08-2.61 3.7 3.7 0 1 0-3.7 3.7M407 64.51a3.7 3.7 0 1 0 3.7 3.7 3.69 3.69 0 0 0-3.7-3.7m7.38 29.59a3.7 3.7 0 1 0-3.7-3.7 3.7 3.7 0 0 0 3.7 3.7m-73.97 7.39a3.68 3.68 0 0 0-3.33 2.12l2.21.8 4.69 1.7a3.5 3.5 0 0 0 .13-.92 3.7 3.7 0 0 0-3.7-3.7m-29.59-44.38a3.7 3.7 0 1 0 3.7 3.7 3.7 3.7 0 0 0-3.7-3.7m14.8 14.8a3.7 3.7 0 1 0 3.7 3.69 3.7 3.7 0 0 0-3.7-3.69m-7.4-7.4a3.7 3.7 0 1 0 3.7 3.7 3.7 3.7 0 0 0-3.7-3.7M331 86.07a3.66 3.66 0 0 0 2.06.63 3.7 3.7 0 0 0 0-7.4 3.7 3.7 0 0 0-2.06 6.77m-20.18-6.77a3.7 3.7 0 1 0-3.7-3.7 3.7 3.7 0 0 0 3.7 3.7m-7.39-14.79a3.7 3.7 0 1 0 3.69 3.7 3.69 3.69 0 0 0-3.69-3.7m29.57 0a3.7 3.7 0 0 0 0 7.4 3.7 3.7 0 0 0 0-7.4M303.43 79.3a3.7 3.7 0 1 0 3.69 3.7 3.7 3.7 0 0 0-3.69-3.7M296 71.91a3.7 3.7 0 1 0 3.7 3.69 3.7 3.7 0 0 0-3.7-3.69m44.41 0a3.7 3.7 0 1 0 3.7 3.69 3.7 3.7 0 0 0-3.7-3.69M407 42.32a3.7 3.7 0 0 0 3.7-3.7 3.8 3.8 0 0 0-.24-1.31h-6.91a3.8 3.8 0 0 0-.24 1.31 3.7 3.7 0 0 0 3.69 3.7m-177.55 7.39a3.69 3.69 0 0 0-3.45 2.4v2.63a3.69 3.69 0 1 0 3.44-5Zm7.4 14.8a3.7 3.7 0 1 0-3.7-3.7 3.7 3.7 0 0 0 3.7 3.7m51.78-22.19a3.7 3.7 0 0 0 3.7-3.7 3.6 3.6 0 0 0-.25-1.31h-6.9a3.8 3.8 0 0 0-.25 1.31 3.7 3.7 0 0 0 3.7 3.7m88.76 36.98a3.7 3.7 0 1 0 3.71 3.7 3.7 3.7 0 0 0-3.71-3.7M296 57.11a3.7 3.7 0 1 0 3.7 3.7 3.7 3.7 0 0 0-3.7-3.7m74 14.8a3.7 3.7 0 1 0 3.7 3.69 3.7 3.7 0 0 0-3.7-3.69m14.8 22.19a3.7 3.7 0 1 0-3.7-3.7 3.7 3.7 0 0 0 3.7 3.7m-36.99-7.4a3.7 3.7 0 1 0-3.7-3.7 3.7 3.7 0 0 0 3.7 3.7m-66.58-7.4a3.7 3.7 0 1 0-3.7-3.7 3.69 3.69 0 0 0 3.7 3.7m66.58 22.19a3.7 3.7 0 1 0-3.7-3.69 3.7 3.7 0 0 0 3.7 3.69m7.4 7.4a3.7 3.7 0 1 0-3.7-3.7 3.7 3.7 0 0 0 3.7 3.7m-66.58-59.18a3.7 3.7 0 1 0 3.7 3.7 3.7 3.7 0 0 0-3.7-3.7M331 100.86a3.7 3.7 0 1 0-1.63-3.06 3.66 3.66 0 0 0 1.63 3.06m24.21-14.16a3.7 3.7 0 1 0 3.7 3.7 3.69 3.69 0 0 0-3.7-3.7m7.39-22.19a3.7 3.7 0 1 0 3.7 3.7 3.69 3.69 0 0 0-3.7-3.7M370 86.7a3.7 3.7 0 1 0 3.7 3.7 3.7 3.7 0 0 0-3.7-3.7m0 22.19a3.7 3.7 0 1 0-3.7-3.7 3.7 3.7 0 0 0 3.7 3.7m-7.4-7.4a3.7 3.7 0 1 0-3.69-3.69 3.69 3.69 0 0 0 3.69 3.69m-22.19-7.39a3.7 3.7 0 1 0-3.7-3.7 3.7 3.7 0 0 0 3.7 3.7M292.33 83a3.7 3.7 0 0 0-7.4 0 3.65 3.65 0 0 0 .6 2l4.19 1.51a3.69 3.69 0 0 0 2.61-3.51m-11.1-25.89a3.7 3.7 0 1 0 3.7 3.7 3.7 3.7 0 0 0-3.7-3.7M362.6 86.7a3.7 3.7 0 1 0-3.69-3.7 3.7 3.7 0 0 0 3.69 3.7m-73.97-14.79a3.7 3.7 0 1 0-3.7-3.7 3.7 3.7 0 0 0 3.7 3.7m25.89 18.49a3.7 3.7 0 1 0-5.93 2.93l2.08.75h.15a3.7 3.7 0 0 0 3.7-3.68m3.7-3.7a3.7 3.7 0 1 0-3.7-3.7 3.7 3.7 0 0 0 3.7 3.7m7.4 7.4a3.7 3.7 0 1 0-3.7-3.7 3.7 3.7 0 0 0 3.7 3.7M296 86.7a3.67 3.67 0 0 0-2.66 1.14l6.33 2.28A3.68 3.68 0 0 0 296 86.7m136.87 48.08a3.7 3.7 0 1 0-7.39 0 4 4 0 0 0 .08.76l1 .37 4.87 1.76a3.69 3.69 0 0 0 1.44-2.89m3.7-25.89a3.7 3.7 0 1 0 3.7 3.7 3.7 3.7 0 0 0-3.7-3.7m0-14.79a3.7 3.7 0 1 0 3.7 3.7 3.7 3.7 0 0 0-3.7-3.7m0-14.8a3.7 3.7 0 1 0 3.7 3.7 3.7 3.7 0 0 0-3.7-3.7m2.62 50.7a3.71 3.71 0 1 0-2.62 1.08 3.7 3.7 0 0 0 2.62-1.08m-21.11-91.38a3.7 3.7 0 0 0 7.4 0 3.8 3.8 0 0 0-.25-1.31h-6.9a3.8 3.8 0 0 0-.25 1.31m11.1 3.7a3.7 3.7 0 1 0 3.69 3.7 3.69 3.69 0 0 0-3.69-3.7m7.39 22.19a3.7 3.7 0 1 0 3.7 3.7 3.7 3.7 0 0 0-3.7-3.7M248 68.21a3.7 3.7 0 1 0-7.4 0 4 4 0 0 0 .06.59l6.01 2.2a3.64 3.64 0 0 0 1.33-2.79m188.57-18.5a3.7 3.7 0 1 0 3.7 3.7 3.7 3.7 0 0 0-3.7-3.7m-14.79 0a3.7 3.7 0 1 0 3.7 3.7 3.7 3.7 0 0 0-3.7-3.7m7.4 22.2a3.7 3.7 0 1 0 3.69 3.69 3.69 3.69 0 0 0-3.69-3.69M226 39.8a3.68 3.68 0 0 0 7.18-1.18 3.6 3.6 0 0 0-.25-1.31H226l-.06.15v2.34Zm203.18 61.69a3.7 3.7 0 1 0 3.69 3.7 3.7 3.7 0 0 0-3.69-3.7m0-14.79a3.7 3.7 0 1 0 3.69 3.7 3.69 3.69 0 0 0-3.69-3.7M244.25 42.32a3.7 3.7 0 0 0 3.7-3.7 3.8 3.8 0 0 0-.25-1.31h-6.9a3.8 3.8 0 0 0-.25 1.31 3.7 3.7 0 0 0 3.7 3.7m129.45-3.7a3.7 3.7 0 1 0 7.4 0 3.8 3.8 0 0 0-.25-1.31H374a3.6 3.6 0 0 0-.3 1.31M236.85 49.71a3.7 3.7 0 1 0-3.7-3.69 3.69 3.69 0 0 0 3.7 3.69m155.34-7.39a3.74 3.74 0 0 0 2.62-1.08 3.7 3.7 0 0 0 1.08-2.62 3.6 3.6 0 0 0-.25-1.31h-6.9a3.8 3.8 0 0 0-.25 1.31 3.7 3.7 0 0 0 3.7 3.7m22.19 0a3.7 3.7 0 1 0 3.7 3.7 3.7 3.7 0 0 0-3.7-3.7m14.8 14.79a3.7 3.7 0 1 0 3.69 3.7 3.7 3.7 0 0 0-3.69-3.7m18.49 55.48a3.7 3.7 0 0 0 3.7 3.7h.34v-7.33h-.34a3.7 3.7 0 0 0-3.7 3.63m0-14.79a3.7 3.7 0 0 0 3.7 3.69h.34v-7.36h-.34a3.7 3.7 0 0 0-3.7 3.67m-14.8-59.18a3.7 3.7 0 1 0 7.4 0 3.6 3.6 0 0 0-.25-1.31h-6.9a3.8 3.8 0 0 0-.25 1.31m14.8 103.56a3.7 3.7 0 0 0 .3 1.45l2.89 1.05.85.31v-6.48h-.34a3.7 3.7 0 0 0-3.7 3.67m1.08-17.41a3.7 3.7 0 0 0 2.62 6.31h.34v-7.33h-.34a3.7 3.7 0 0 0-2.62 1.02m-1.08-71.36a3.7 3.7 0 0 0 3.7 3.7h.34v-7.36h-.34a3.7 3.7 0 0 0-3.7 3.66m0-14.79a3.7 3.7 0 0 0 3.7 3.7h.34v-5h-3.79a3.6 3.6 0 0 0-.25 1.3m0 29.59a3.7 3.7 0 0 0 3.7 3.7h.34v-7.37h-.34a3.7 3.7 0 0 0-3.7 3.67m0 14.79a3.7 3.7 0 0 0 3.7 3.7h.34v-7.36h-.34a3.7 3.7 0 0 0-3.7 3.66M444 42.32a3.7 3.7 0 1 0 3.7 3.7 3.7 3.7 0 0 0-3.7-3.7m0 73.97a3.7 3.7 0 1 0 3.7 3.7 3.7 3.7 0 0 0-3.7-3.7m0 14.79a3.7 3.7 0 1 0 3.7 3.7 3.7 3.7 0 0 0-3.7-3.7m0-29.59a3.7 3.7 0 1 0 3.7 3.7 3.7 3.7 0 0 0-3.7-3.7m-7.43 36.99a3.6 3.6 0 0 0-1.69.43l5.11 1.84a3.7 3.7 0 0 0-3.42-2.27M444 57.11a3.7 3.7 0 1 0 3.7 3.7 3.7 3.7 0 0 0-3.7-3.7m-214.55 7.4a4 4 0 0 0-.58 0l3.34 1.21a3.65 3.65 0 0 0-2.76-1.21M444 86.7a3.7 3.7 0 1 0 3.7 3.7 3.7 3.7 0 0 0-3.7-3.7m0-14.79a3.7 3.7 0 1 0 3.7 3.69 3.7 3.7 0 0 0-3.7-3.69m-51.1 51.85 1 .35a3.4 3.4 0 0 0-1-.35m21.48-.08a3.7 3.7 0 1 0-3.7-3.69 3.69 3.69 0 0 0 3.7 3.69M331 41.69a3.66 3.66 0 0 0 2.06.63 3.7 3.7 0 0 0 3.7-3.7 3.6 3.6 0 0 0-.25-1.31h-6.9a3.6 3.6 0 0 0-.24 1.31 3.69 3.69 0 0 0 1.63 3.07m68.59 59.8a3.7 3.7 0 1 0 3.7 3.7 3.7 3.7 0 0 0-3.7-3.7m0 14.8a3.7 3.7 0 1 0 3.7 3.7 3.69 3.69 0 0 0-3.7-3.7m7.41 0a3.7 3.7 0 1 0-3.69-3.7 3.7 3.7 0 0 0 3.69 3.7m14.78-36.99a3.7 3.7 0 1 0 3.7 3.7 3.7 3.7 0 0 0-3.7-3.7m0 14.8a3.7 3.7 0 1 0 3.7 3.7 3.7 3.7 0 0 0-3.7-3.7m-7.4 7.39a3.7 3.7 0 1 0 3.7 3.7 3.7 3.7 0 0 0-3.7-3.7m7.4 14.8a3.7 3.7 0 1 0-3.7-3.7 3.7 3.7 0 0 0 3.7 3.7m-36.98 0a3.69 3.69 0 0 0-3.66 3.23l6.77 2.44a3.6 3.6 0 0 0 .58-2 3.69 3.69 0 0 0-3.69-3.67M266.44 49.71a3.7 3.7 0 1 0-3.7-3.69 3.7 3.7 0 0 0 3.7 3.69m7.4-7.39a3.7 3.7 0 0 0 3.7-3.7 3.8 3.8 0 0 0-.25-1.31h-6.9a3.6 3.6 0 0 0-.25 1.31 3.7 3.7 0 0 0 3.7 3.7m25.89-3.7a3.7 3.7 0 1 0 7.39 0 3.8 3.8 0 0 0-.24-1.31H300a3.6 3.6 0 0 0-.27 1.31m18.49 3.7a3.7 3.7 0 0 0 3.7-3.7 3.8 3.8 0 0 0-.25-1.31h-6.9a3.6 3.6 0 0 0-.25 1.31 3.7 3.7 0 0 0 3.7 3.7m103.56 22.19a3.7 3.7 0 1 0 3.7 3.7 3.7 3.7 0 0 0-3.7-3.7M259 71.91a3.7 3.7 0 1 0-3.7-3.7 3.7 3.7 0 0 0 3.7 3.7m11.14 3.69a3.7 3.7 0 0 0-7.4 0 3.6 3.6 0 0 0 .24 1.27l5.31 1.92a3.69 3.69 0 0 0 1.85-3.19m-3.7-11.09a3.7 3.7 0 1 0-3.7-3.7 3.7 3.7 0 0 0 3.7 3.7M259 49.71a3.7 3.7 0 1 0 3.7 3.7 3.7 3.7 0 0 0-3.7-3.7m111-7.39a3.7 3.7 0 1 0 3.7 3.7 3.7 3.7 0 0 0-3.7-3.7m-25.89-3.7a3.7 3.7 0 1 0 7.4 0 3.8 3.8 0 0 0-.25-1.31h-6.9a3.6 3.6 0 0 0-.25 1.31m-92.46 25.89a3.7 3.7 0 1 0-3.7-3.7 3.7 3.7 0 0 0 3.7 3.7m0-14.8A3.7 3.7 0 1 0 248 46a3.69 3.69 0 0 0 3.65 3.71m7.35-7.39a3.7 3.7 0 0 0 3.7-3.7 3.6 3.6 0 0 0-.25-1.31h-6.9a3.8 3.8 0 0 0-.25 1.31 3.7 3.7 0 0 0 3.7 3.7m-14.75 7.39a3.7 3.7 0 1 0 3.7 3.7 3.7 3.7 0 0 0-3.7-3.7m170.13 81.37a4 4 0 0 0-.86.11l3.82 1.38a3.69 3.69 0 0 0-2.96-1.49M251.65 71.91a3.8 3.8 0 0 0-1.51.32L255 74a3.69 3.69 0 0 0-3.35-2.09m172.75 52.86a3.7 3.7 0 0 0-2.62-1.09 3.72 3.72 0 0 0-3.7 3.7 3.7 3.7 0 0 0 1.09 2.62 3.65 3.65 0 0 0 2.61 1.08 3.7 3.7 0 0 0 2.62-1.08 3.71 3.71 0 0 0 0-5.23m-14.8 0a3.7 3.7 0 0 0-6.31 2.61v.13l6.44 2.32a3.68 3.68 0 0 0-.14-5.06Zm-24.8-60.26a3.7 3.7 0 1 0-3.7-3.7 3.7 3.7 0 0 0 3.7 3.7m-22.2-22.19a3.7 3.7 0 0 0 3.7-3.7 3.6 3.6 0 0 0-.25-1.31h-6.9a3.8 3.8 0 0 0-.24 1.31 3.7 3.7 0 0 0 3.69 3.7m29.59 7.39a3.7 3.7 0 1 0 2.62 1.09 3.7 3.7 0 0 0-2.62-1.09m7.4-7.39a3.7 3.7 0 1 0 3.7 3.7 3.69 3.69 0 0 0-3.7-3.7m7.41 7.39a3.7 3.7 0 1 0 3.7 3.7 3.7 3.7 0 0 0-3.7-3.7m-22.2-7.39a3.7 3.7 0 1 0 3.69 3.7 3.69 3.69 0 0 0-3.69-3.7m44.38 81.36a3.7 3.7 0 1 0-3.7-3.69 3.69 3.69 0 0 0 3.7 3.69m-14.8-66.57a3.7 3.7 0 1 0 3.7 3.7 3.7 3.7 0 0 0-3.7-3.7m-36.99-7.4a3.7 3.7 0 1 0 3.71 3.7 3.7 3.7 0 0 0-3.71-3.7" style="opacity:.05"/><path d="M353.92 37.31H225.69v24.9l210.22-21.14zM320.97 97.8l18.32 6.61 93.57-58.97zm53.16 19.19 25.25 9.1 31.29-74.11zm66.15-67.18-13.68 86.1 24.26 8.77z" style="fill:#fff"/><path d="M451.71 37.31v107.68l-.85-.31-24.26-8.77-27.22-9.82-25.25-9.1-34.84-12.58-18.32-6.61-95.28-34.39v-26.1zM225.69 68.76v233.62h226.02V150.34z" style="fill:none;stroke:gray;stroke-linecap:round;stroke-linejoin:round"/><path d="M394.68 68.53a1.31 1.31 0 0 0-1.33-.92l2.92-10 9.35-2.92a3.78 3.78 0 1 0-2.25-7.22L393 50.75l-6.56-5.31a1.31 1.31 0 0 0-1.07-2.37L379.25 45a1.31 1.31 0 1 0 .78 2.5l1.35-.42 5.62 7.69 1.51 4.82-.26 9.56-1.35.42a1.31 1.31 0 0 0 .78 2.51l6.11-1.91a1.31 1.31 0 0 0 .89-1.64" style="fill:gray"/><path d="M362.51 48.79 238.19 78.07m73.46-22.6-38.01 9.24M451.71 162v140.4h-88.82s-1.41-84.03-18.43-115.4l47.89-56.18 14.27 6s20.15 4.36 45.09 25.18" style="fill:none;stroke:gray;stroke-linecap:round;stroke-linejoin:round"/><path d="M451.71 162v140.4h-88.82s-1.41-84.03-18.43-115.4l47.89-56.18 14.27 6s20.15 4.36 45.09 25.18" style="fill:gray;stroke:gray;stroke-linecap:round;stroke-linejoin:round"/><path d="M320.52 272.81s2.74 4.39 11 7.13a73.4 73.4 0 0 0 22.76 3.29c6 0 11.79.27 11.79.27s-2.2 2.2-6.31 5.76-11.52 6.31-10.69 7.95 7.13 4.12 12.34 3 10.69-7.68 15.9-10.69 9.05-6.31 6.86-9.33-9.88-4.38-9.88-4.38-6.3-2.75-7.13-3.29-6-6.31-6-6.31-3.84-2.19-6.85-1.65-16.18 5.76-18.92 6-14.87 2.25-14.87 2.25" style="fill:gray;stroke:gray;stroke-linecap:round;stroke-linejoin:round"/><path d="M332.1 167.8a18.83 18.83 0 0 0-9 9.58 25 25 0 0 0-1.74 13.05s-4.35 4.07-4.93 8.13-1.15 10.44-1.15 10.44l8.7 15.38s6.67-1.45 13.64-9.57 7.83-18.57 7.83-18.57 5.22 4.06 10.45 4.06h6.67l5.8 2 .58 18.86s-20.31 9.58-33.36 22.92-19.44 26.7-13.64 30.47 12.48.29 30.17-4.93 40.05-27.28 40.05-27.28-2.91 45.27 0 49.91 2.9 6.38 2.9 6.38l-.58 3.63H420l-2.9-16.39s5.51-19.15 6.67-36.27a134 134 0 0 0-1.72-31.6s-8.41-27.86-8.7-29.6-.87-10.73-.87-10.73v-18c0-4.35-2.32-14.8-2.32-14.8s12.76-4.93 16.24-7.54 8.71-7 10.16-7.55 11-7 13.93-11 2-7.84.29-10.16-20-15.67-24.38-20.6-7.25-10.15-13.34-7.54-10.74 2-10.74 4.06.58 6.38.58 6.38l3.48 1.45.29 3.49s7 .29 9.29.29a12.4 12.4 0 0 0 4.35-.87 68 68 0 0 1 2.61 9 62.6 62.6 0 0 1 .87 10.15s-8.7-1.16-14.8 1.46-9.86 4.64-9.86 4.64-9.87-2.61-16.54-1.16-8.22 5.29-8.22 5.29l-24.86 30.69-9.28 8.7Z" style="fill:#000;stroke:gray;stroke-linecap:round;stroke-linejoin:round"/><path d="M410.16 144.88a29 29 0 0 1-10.84.71m-53.52 49.3s8 1.48 14-4.44" style="fill:none;stroke:gray;stroke-linecap:round;stroke-linejoin:round"/><path d="M422.05 218s-8.41-27.86-8.7-29.6c0-.19-.07-.49-.11-.85-4.24 2.78-11.64 7.42-20.78 12.17a56.1 56.1 0 0 1-24 6.43l.46 15a42.9 42.9 0 0 1 13.93 8.71 45.3 45.3 0 0 1 9.29 12.47s7.54-14.8 19.15-18.57a45 45 0 0 1 11.32-2.22c-.3-2.24-.56-3.54-.56-3.54" style="fill:#000;stroke:gray;stroke-linecap:round;stroke-linejoin:round"/><path d="M426.4 88c-4.35-4.93-7.25-10.15-13.34-7.54s-10.74 2-10.74 4.06.58 6.38.58 6.38l3.48 1.45.29 3.49s7 .29 9.29.29a12.4 12.4 0 0 0 4.35-.87 68 68 0 0 1 2.61 9 48 48 0 0 1 .73 6.15 22.34 22.34 0 0 0 13.78-.06 12.34 12.34 0 0 0 7.5-6.79c-6.26-5.02-15.58-12.21-18.53-15.56" style="fill:gray;stroke:gray;stroke-linecap:round;stroke-linejoin:round"/><path d="M436 124h.9m-11.9-7.55a11.46 11.46 0 0 0 8 7.06M391.4 159a16 16 0 0 1-2.14 3m7.51-30.28c-.4 2.2-1.12 6.54-1.7 12.58a47.6 47.6 0 0 1-2.38 11.9m27.04-21.2a28.5 28.5 0 0 0 2.9-2.91" style="fill:none;stroke:gray;stroke-linecap:round;stroke-linejoin:round"/><path d="M395.65 140.24s11.26 3.54 21.58-3.33m-44.07 42.15a21.5 21.5 0 0 0 3.34.06m-13.64-5.22a13.6 13.6 0 0 0 6.95 4.5m15.1 2.75s7 2.32 12.77-1.45 7.54-6.09 7.54-6.09m3.16-5.99a16.6 16.6 0 0 1 1.19 3.08M398 156.49a33.8 33.8 0 0 1 9 8.8m-33.11 23.4s2.61 4.36 5.51 5.52a23.5 23.5 0 0 0 5.22 1.45l2.61 4.06" style="fill:none;stroke:gray;stroke-linecap:round;stroke-linejoin:round"/><path d="M414.29 191.89c-.53-1.86-.89-3.15-.94-3.49-.29-1.74-.87-10.73-.87-10.73v-2.11c-.73 1.35-1.59 2.93-2.62 4.72-3.48 6.09-8.41 12.19-19.15 18.28-8.21 4.66-18.12 4.57-22.32 4.27l.15 5 .41.05c4.36.58 16.25.87 30.76-5.8a51.1 51.1 0 0 0 14.58-10.19" style="fill:gray;stroke:gray;stroke-linecap:round;stroke-linejoin:round"/><path d="m332.73 192.32-3.24-.72m15.67 3.48-10.57-2.35m45.38-116.71-81.68 30.82m79.63-24.66-17.98 7.19" style="fill:none;stroke:gray;stroke-linecap:round;stroke-linejoin:round"/><path d="m322 148.36 1.45 4.36 2 .87 2 2h1.74s.58 3.48 2.32 4.06 4.07-2.32 4.07-2.32l6.09-6.1-11-13.34Z" style="fill:#fff;stroke:gray;stroke-linecap:round;stroke-linejoin:round"/><path d="M351.33 133s-6.05-13.6-11-16.62-16.24-3.4-24.93 4.91-.75 20.77 0 21.9 3.4 8.31 3.4 8.31l7.93-5.28 6.42-4.16 7.18 9.82-6 6.8 4.91-1.89L337 162l-4.15 2.64-2.27 3.4 28.71 3s14.35-44.95 15.11-46.46-5.29-.38-5.67.75-4.15 6-4.15 6l-1.58 1.24-3.77 2.64Z" style="fill:gray;stroke:gray;stroke-linecap:round;stroke-linejoin:round"/><path d="m321.37 140.24 2.32 1.16 1.74-4.64z" style="fill:#fff"/><path d="M330.52 211.69c0 2.45-15.32 68.95-15.32 68.95l-1.2 21.62h-52.73l7.82-27.49 17-59.71 12.25-7L317 195.14a15.2 15.2 0 0 1 4-.31c3.06 0 5.81 4.61 7.65 6.14s1.87 8.27 1.87 10.72" style="fill:#fff;stroke:gray;stroke-linecap:round;stroke-linejoin:round"/><path d="m315.6 255.75-11.15 46.51h-43.18l7.82-27.49 17.42-28.95 7.54 25.33 26.13-60.3s-14.36 49.82-13.44 48.6-.42 4-.42 4l-13.5 29.31Zm-43.91-37.01s-10.11-.92-12.26-.61-8.58 3.37-8.58 3.37-8.58 6.13-8.89 7.66-2.14 11.34-2.14 11.34-9.5 7.05-10.11 10.11-2.15 28.81-2.15 28.81Z" style="fill:gray;stroke:gray;stroke-linecap:round;stroke-linejoin:round"/><path d="m296.52 214.14-28.21 88.31h-42.62v-27.48l42.93-58.07z" style="fill:#000;stroke:gray;stroke-linecap:round;stroke-linejoin:round"/><path d="m260.65 237.56-5.31 8.17m17.26-26.59-9.4 14.49m-8.21 35.46-2.46 5.25m23.02-49-18.59 39.55m30.1-48.41-2.36 10.92m30.73-16.56-2.98 5.76m8.27-15.94-3.94 7.59m2.67 23.42-.57 3.93m4.29-29.42-3.29 22.59m-3.45-28.42-7.36 7.97" style="fill:none;stroke:gray;stroke-linecap:round;stroke-linejoin:round"/><ellipse cx="282.77" cy="191.37" rx="26.24" ry="25.55" style="fill:#fff;stroke:gray;stroke-linecap:round;stroke-linejoin:round"/><path d="M263.82 180.62a21.66 21.66 0 0 1 7.77-7.62m-6.1 31.51a20.88 20.88 0 0 1-3.83-18.93m8.14 23a21 21 0 0 1-2.44-2m17.2-33.19c0 2-2.06 3.68-4.6 3.68s-4.59-1.65-4.59-3.68 2.05-3.68 4.59-3.68 4.6 1.65 4.6 3.68m6.44 4.75a2.81 2.81 0 1 1-2.76-2.3 2.56 2.56 0 0 1 2.76 2.3" style="fill:none;stroke:gray;stroke-linecap:round;stroke-linejoin:round"/><path d="m265.25 211.69 1.54 2.76 37.38-3.98-.3-3.37z" style="fill:#fff;stroke:gray;stroke-linecap:round;stroke-linejoin:round"/><path d="M266.79 214.45a6 6 0 0 0 6.87 4.22l30.82-5.75-.31-2.45Z" style="fill:gray;stroke:gray;stroke-linecap:round;stroke-linejoin:round"/><path d="M299.27 216.9s-10.11 2.76-10.42 5.82-.92 14.1-.92 14.1-11.64 9.5-11.64 13.48v13.18c0 1.53 19.3 16.86 19.3 16.86l14.1-13.49-.92-4.9a17.4 17.4 0 0 0 .61-4v-4s3.68-5.51 4-6.43 3.06-17.78.3-23.29-6.74-6.74-6.74-6.74" style="fill:#fff;stroke:gray;stroke-linecap:round;stroke-linejoin:round"/><path d="M306.62 253.12s-10.88-7.85-13.92-5.32 13.92 5.32 13.92 5.32m.76 7.34a8.5 8.5 0 0 0-8.86-1.52c-5.32 2-9.62 6.33-7.85 6.33s9.12-4 11.14-4.3 5.57-.51 5.57-.51m-8.61-7.09s-3.29-1.26-8.6 0-5.57 4.81-4.05 3.8 6.32-3.04 12.65-3.8" style="fill:gray"/><path d="m340.02 288-11.33.92-19.31-24.21-16.24 16.54 30.34 15.94 2.76 3.06 13.17.62 1.84-3.37 2.76-.92.92-2.45z" style="fill:gray;stroke:gray;stroke-linecap:round;stroke-linejoin:round"/><path d="M309.66 385.18h-83.98v-77.09h109.95z" style="fill:gray"/><path d="M309.66 385.18h-83.98v-77.09h109.95z" style="fill:none;stroke:gray;stroke-linecap:round;stroke-linejoin:round"/><path d="M452.06 308.09v77.08H316.15l25.97-77.08z" style="fill:#c7c7c7"/><path d="M379.67 316.24a3.7 3.7 0 1 0 3.69 3.7 3.69 3.69 0 0 0-3.69-3.7m-29.59 22.19a3.7 3.7 0 1 0-3.7-3.7 3.7 3.7 0 0 0 3.7 3.7m22.19-29.59a3.7 3.7 0 1 0 3.7 3.7 3.7 3.7 0 0 0-3.7-3.7m7.4 29.59a3.7 3.7 0 1 0-3.7-3.7 3.7 3.7 0 0 0 3.7 3.7m14.79 0a3.7 3.7 0 1 0-3.7-3.7 3.7 3.7 0 0 0 3.7 3.7m-14.79-29.59a3.7 3.7 0 0 0 2.21-.75h-4.43a3.7 3.7 0 0 0 2.22.75m7.39 22.16a3.7 3.7 0 1 0-3.7-3.7 3.69 3.69 0 0 0 3.7 3.7m-22.19 7.43a3.7 3.7 0 1 0-3.7-3.7 3.7 3.7 0 0 0 3.7 3.7m-7.4 7.4a3.7 3.7 0 1 0-3.69-3.7 3.7 3.7 0 0 0 3.69 3.7m29.59-29.59a3.7 3.7 0 1 0-3.7-3.7 3.7 3.7 0 0 0 3.7 3.7m-22.19 0a3.7 3.7 0 1 0 3.7 3.7 3.7 3.7 0 0 0-3.7-3.7m7.4 14.76a3.7 3.7 0 1 0-3.7-3.7 3.7 3.7 0 0 0 3.7 3.7m-5.19-22.91h-4.43a3.65 3.65 0 0 0 4.43 0m19.98 37.74a3.7 3.7 0 1 0-3.7-3.7 3.7 3.7 0 0 0 3.7 3.7m-36.98-36.99a3.7 3.7 0 0 0 2.21-.75h-4.43a3.7 3.7 0 0 0 2.22.75m29.59 44.38a3.7 3.7 0 1 0-3.7-3.69 3.69 3.69 0 0 0 3.7 3.69m-14.8 0a3.7 3.7 0 1 0-3.7-3.69 3.7 3.7 0 0 0 3.7 3.69m7.4 7.4a3.7 3.7 0 1 0-3.7-3.7 3.7 3.7 0 0 0 3.7 3.7m22.19-7.4a3.7 3.7 0 1 0-3.7-3.69 3.7 3.7 0 0 0 3.7 3.69m-7.4 7.4a3.7 3.7 0 1 0-3.7-3.7 3.69 3.69 0 0 0 3.7 3.7m14.79 0a3.7 3.7 0 1 0-3.69-3.7 3.7 3.7 0 0 0 3.69 3.7m-66.57-7.4a3.7 3.7 0 1 0-3.7-3.69 3.7 3.7 0 0 0 3.7 3.69m7.4 7.4a3.7 3.7 0 1 0-3.7-3.7 3.7 3.7 0 0 0 3.7 3.7m14.79 0a3.7 3.7 0 1 0-3.69-3.7 3.69 3.69 0 0 0 3.69 3.7m-7.39-7.4a3.7 3.7 0 1 0-3.7-3.69 3.7 3.7 0 0 0 3.7 3.69m-7.4-14.79a3.7 3.7 0 1 0 3.7 3.7 3.69 3.69 0 0 0-3.7-3.7m29.59 0a3.7 3.7 0 1 0 3.7 3.7 3.69 3.69 0 0 0-3.7-3.7m42.31 6.77a3.75 3.75 0 0 0 2.07.63 3.7 3.7 0 1 0 0-7.4 3.67 3.67 0 0 0-2.07.63 3.71 3.71 0 0 0 0 6.14m9.47-28.96a3.7 3.7 0 1 0 3.69 3.7 3.69 3.69 0 0 0-3.69-3.7m22.19 22.19a3.7 3.7 0 1 0 3.7 3.7 3.7 3.7 0 0 0-3.7-3.7m-7.4-7.43a3.7 3.7 0 1 0 3.7 3.7 3.7 3.7 0 0 0-3.7-3.7m-29.59 0a3.7 3.7 0 1 0 3.7 3.7 3.7 3.7 0 0 0-3.7-3.7m14.8 7.43a3.7 3.7 0 1 0-3.7-3.7 3.7 3.7 0 0 0 3.7 3.7m25.89 40.68a3.69 3.69 0 0 0 2.12 3.34v-6.67a3.68 3.68 0 0 0-2.12 3.33m-33.29-70.27a3.67 3.67 0 0 0-2.07.63 3.71 3.71 0 0 0 0 6.14 3.67 3.67 0 0 0 2.07.63 3.7 3.7 0 1 0 0-7.4M316.3 384.71l-.15.46h.38a3 3 0 0 0-.23-.46M431.44 331a3.7 3.7 0 1 0-3.7-3.7 3.69 3.69 0 0 0 3.7 3.7m18.5 18.53a3.69 3.69 0 0 0 2.12 3.33v-6.67a3.69 3.69 0 0 0-2.12 3.34m-18.5-33.29a3.7 3.7 0 1 0-3.7-3.7 3.7 3.7 0 0 0 3.7 3.7m18.5 18.49a3.69 3.69 0 0 0 2.12 3.34v-6.68a3.7 3.7 0 0 0-2.12 3.34m-55.48-18.49a3.7 3.7 0 1 0 3.7 3.7 3.69 3.69 0 0 0-3.7-3.7m20.12 14.16a3.7 3.7 0 1 0-1.63-3.07 3.67 3.67 0 0 0 1.63 3.07m-57.11-14.16a3.7 3.7 0 1 0-3.69-3.7 3.7 3.7 0 0 0 3.69 3.7m-14.79-7.4a3.4 3.4 0 0 0-.85.11l-2 5.93a3.69 3.69 0 1 0 2.85-6Zm-4.04 9.57-1.6 4.76a3.67 3.67 0 0 0 1.94-3.23 3.7 3.7 0 0 0-.34-1.53m-3.36 20.02a3.7 3.7 0 1 0 0-7.4 3.6 3.6 0 0 0-.93.14l-2 5.83a3.7 3.7 0 0 0 2.93 1.43m22.19-7.43a3.7 3.7 0 1 0-3.69-3.7 3.69 3.69 0 0 0 3.69 3.7m-7.39-14.76a3.7 3.7 0 1 0 3.7 3.7 3.69 3.69 0 0 0-3.7-3.7m51.77-7.4a3.7 3.7 0 1 0 3.71 3.7 3.7 3.7 0 0 0-3.71-3.7m-70.27 33.29a3.7 3.7 0 0 0-.38-1.62l-1.66 4.91a3.68 3.68 0 0 0 2.04-3.29m77.67-25.89a3.7 3.7 0 1 0 3.7 3.7 3.69 3.69 0 0 0-3.7-3.7M342.68 331a3.7 3.7 0 1 0-3.7-3.7 3.7 3.7 0 0 0 3.7 3.7m59.17 0a3.7 3.7 0 1 0-3.69-3.7 3.7 3.7 0 0 0 3.69 3.7m-73.96 29.62a3.7 3.7 0 0 0 0-7.4 3.5 3.5 0 0 0-1 .17l-1.93 5.73a3.66 3.66 0 0 0 2.93 1.5m96.16 22.19a3.7 3.7 0 1 0-3.7-3.7 3.69 3.69 0 0 0 3.7 3.7m-22.2-44.38a3.7 3.7 0 1 0 3.71 3.7 3.69 3.69 0 0 0-3.71-3.7m22.2 22.19a3.7 3.7 0 1 0 3.69 3.7 3.7 3.7 0 0 0-3.69-3.7m-9.47 14.16a3.7 3.7 0 1 0-1.63-3.06 3.68 3.68 0 0 0 1.63 3.06m-34.91 8.03a3.7 3.7 0 1 0-3.7-3.7 3.69 3.69 0 0 0 3.7 3.7m51.77-7.39a3.7 3.7 0 1 0-3.7-3.7 3.7 3.7 0 0 0 3.7 3.7m-22.19-14.8a3.7 3.7 0 1 0 3.7 3.7 3.7 3.7 0 0 0-3.7-3.7m-14.79 22.19a3.7 3.7 0 1 0-3.7-3.7 3.7 3.7 0 0 0 3.7 3.7m-7.4-7.39a3.7 3.7 0 1 0-3.7-3.7 3.7 3.7 0 0 0 3.7 3.7m-7.39-14.8a3.7 3.7 0 1 0 3.69 3.7 3.7 3.7 0 0 0-3.69-3.7m14.79 0a3.7 3.7 0 1 0 3.7 3.7 3.7 3.7 0 0 0-3.7-3.7m14.79 22.19a3.7 3.7 0 1 0-3.69-3.7 3.69 3.69 0 0 0 3.69 3.7m-7.4-7.39a3.7 3.7 0 1 0-3.69-3.7 3.71 3.71 0 0 0 3.69 3.7m36.99 7.39a3.7 3.7 0 1 0-3.7-3.7 3.69 3.69 0 0 0 3.7 3.7m-22.19 0a3.67 3.67 0 0 0-2.07.63 4 4 0 0 0-.54.46 3.6 3.6 0 0 0-.83 1.27h6.88a3.6 3.6 0 0 0-.82-1.27 3.7 3.7 0 0 0-2.62-1.09m-12.18 1.09a3.68 3.68 0 0 0-5.23 0 3.6 3.6 0 0 0-.83 1.27h6.89a3.6 3.6 0 0 0-.83-1.27m-17.41-1.09a3.68 3.68 0 0 0-2.61 1.09 3.6 3.6 0 0 0-.83 1.27h6.88a3.6 3.6 0 0 0-.82-1.27 3.7 3.7 0 0 0-2.62-1.09m59.18-7.39a3.7 3.7 0 1 0-3.7-3.7 3.7 3.7 0 0 0 3.7 3.7m2.61 8.48a3.66 3.66 0 0 0-2.61-1.09 3.7 3.7 0 0 0-2.62 1.09 3.6 3.6 0 0 0-.82 1.27h6.88a3.6 3.6 0 0 0-.83-1.27m-73.97 0a3.68 3.68 0 0 0-5.23 0 3.5 3.5 0 0 0-.82 1.27h6.88a3.6 3.6 0 0 0-.83-1.27m59.18 0a3.68 3.68 0 0 0-5.23 0 3.6 3.6 0 0 0-.83 1.27h6.88a3.5 3.5 0 0 0-.82-1.27m4.78-75.06a3.7 3.7 0 0 0 2.22-.75h-4.43a3.7 3.7 0 0 0 2.21.75m-118.35 73.97a3.7 3.7 0 1 0 0-7.39 3.5 3.5 0 0 0-1.12.19l-1.9 5.63a3.69 3.69 0 0 0 3.02 1.57m131.57-74.72h-.64a4 4 0 0 0 .64.39Zm-94.59 74.72a3.68 3.68 0 0 0-2.61 1.09 3.6 3.6 0 0 0-.83 1.27h6.88a3.5 3.5 0 0 0-.82-1.27 3.7 3.7 0 0 0-2.62-1.09m-12.18 1.09a3.68 3.68 0 0 0-5.23 0 3.6 3.6 0 0 0-.82 1.27h6.88a3.6 3.6 0 0 0-.83-1.27m-17.4-1.09a3.7 3.7 0 0 0-2.62 1.09 3.5 3.5 0 0 0-.82 1.27h6.88a3.6 3.6 0 0 0-.83-1.27 3.68 3.68 0 0 0-2.61-1.09m110.95-22.19a3.7 3.7 0 1 0 3.7 3.7 3.7 3.7 0 0 0-3.7-3.7m11.1-40.68a3.68 3.68 0 0 0 2.12 3.33v-6.67a3.69 3.69 0 0 0-2.12 3.34m-3.7 40.68a3.7 3.7 0 1 0-3.7-3.7 3.7 3.7 0 0 0 3.7 3.7m5.82 7.04V361a3.69 3.69 0 0 0 0 6.68Zm-5.82-58.82a3.7 3.7 0 1 0 3.7 3.7 3.7 3.7 0 0 0-3.7-3.7m0 22.16a3.7 3.7 0 1 0-3.7-3.7 3.7 3.7 0 0 0 3.7 3.7m-7.4-14.76a3.7 3.7 0 1 0 3.7 3.7 3.7 3.7 0 0 0-3.7-3.7m-7.4 22.19a3.7 3.7 0 1 0 3.7 3.7 3.7 3.7 0 0 0-3.7-3.7M414.58 360a3.7 3.7 0 0 0 5.77-3.07 3.7 3.7 0 1 0-5.77 3.07m-5.33-6.78a3.7 3.7 0 1 0-3.69-3.69 3.69 3.69 0 0 0 3.69 3.69m14.8 0a3.7 3.7 0 1 0-3.7-3.69 3.69 3.69 0 0 0 3.7 3.69m7.39 7.4a3.7 3.7 0 1 0-3.7-3.7 3.69 3.69 0 0 0 3.7 3.7m-5.18-52.53h-4.43a3.65 3.65 0 0 0 4.43 0m12.58 45.13a3.7 3.7 0 1 0-3.7-3.69 3.69 3.69 0 0 0 3.7 3.69m-96.16 22.2a3.7 3.7 0 1 0-3.7-3.7 3.7 3.7 0 0 0 3.7 3.7m29.59 0a3.7 3.7 0 1 0-3.7-3.7 3.7 3.7 0 0 0 3.7 3.7m-22.19 7.39a3.7 3.7 0 1 0-3.7-3.7 3.7 3.7 0 0 0 3.7 3.7m7.39-7.39a3.7 3.7 0 1 0-3.69-3.7 3.7 3.7 0 0 0 3.69 3.7m54-67.33H407a3.65 3.65 0 0 0 4.43 0Zm-46.6 74.72a3.7 3.7 0 1 0-3.7-3.7 3.7 3.7 0 0 0 3.7 3.7m0-22.19a3.7 3.7 0 1 0 3.7 3.7 3.7 3.7 0 0 0-3.7-3.7m-14.79 0a3.7 3.7 0 1 0 3.7 3.7 3.7 3.7 0 0 0-3.7-3.7m-14.8 0a3.7 3.7 0 1 0 3.7 3.7 3.7 3.7 0 0 0-3.7-3.7m59.18-51.78a3.7 3.7 0 0 0 2.21-.75h-4.43a3.7 3.7 0 0 0 2.22.75m-70.27 55.48a3.65 3.65 0 0 0-.44-1.71l-1.7 5.05a3.69 3.69 0 0 0 2.14-3.34m11.09 18.49a3.7 3.7 0 1 0-3.7-3.7 3.7 3.7 0 0 0 3.7 3.7m-7.39-7.39a3.7 3.7 0 1 0-3.7-3.7 3.7 3.7 0 0 0 3.7 3.7" style="opacity:.05"/><path d="m377.83 357.46 2.69 8.08 3.77 1.61 3.77 3.77h3.23s1.07 6.46 4.3 7.54 7.54-4.31 7.54-4.31l11.31-11.31L394 338.08Z" style="fill:#fff;stroke:gray;stroke-linecap:round;stroke-linejoin:round"/><path d="M452.06 329.55V384c-.12.4-.25.78-.38 1.17H402l3.7-2.35 4.2-9.81-9.11 3.5L412 363.9l-13.33-18.23-11.91 7.72-14.72 9.81s-4.91-13.32-6.31-15.42-15.51-24.29-.95-39.69h56.26a163 163 0 0 1 11.28 20.76l14.72 4.2Z" style="fill:gray;stroke:gray;stroke-linecap:round;stroke-linejoin:round"/><path d="m376.75 342.38 4.31 2.16 3.23-8.62z" style="fill:#fff"/><path d="M452.06 308.09v77.08H316.15l25.97-77.08z" style="fill:none;stroke:gray;stroke-linecap:round;stroke-linejoin:round"/><path d="M310.62 144.34 298.77 140v-1c0-10.63-11.16-19.26-24.92-19.26S249 128.31 249 138.94s11.15 19.27 24.91 19.27c10.55 0 19.56-5.07 23.2-12.23Zm83.48 114.55a25.6 25.6 0 0 0-5.26.55c-1.22-3.68-3.43-9-6.71-12.36 4.65-3.06 7.6-7.56 7.6-12.59 0-9.22-9.89-16.69-22.09-16.69-8.25 0-15.43 3.42-19.22 8.49l-18.32-4.11 15.9 8.93a12.7 12.7 0 0 0-.46 3.38c0 9.22 9.89 16.7 22.09 16.7a27.3 27.3 0 0 0 12.37-2.84 28.35 28.35 0 0 1 6.21 11.81c-6.39 2.13-10.83 6.73-10.83 12.09 0 7.38 8.39 13.36 18.75 13.36s18.75-6 18.75-13.36-8.43-13.36-18.78-13.36m-22.8 107.18-8.14-3v-.69c0-7.3-7.66-13.22-17.11-13.22S329 355.07 329 362.37s7.66 13.22 17.1 13.22c7.24 0 13.43-3.48 15.92-8.39Z" style="fill:gray"/><path d="m308.57 141.6-11.85-4.39v-1c0-10.63-11.15-19.26-24.91-19.26s-24.92 8.63-24.92 19.26 11.16 19.27 24.92 19.27c10.55 0 19.56-5.07 23.19-12.23ZM392 256.15a25.6 25.6 0 0 0-5.25.55c-1.23-3.68-3.43-9-6.72-12.36 4.65-3.06 7.61-7.56 7.61-12.59 0-9.22-9.89-16.69-22.09-16.69-8.25 0-15.43 3.42-19.23 8.49L328 219.44l16 8.93a13 13 0 0 0-.45 3.38c0 9.22 9.89 16.7 22.09 16.7a27.3 27.3 0 0 0 12.33-2.84 28.5 28.5 0 0 1 6.2 11.81c-6.39 2.13-10.83 6.73-10.83 12.09 0 7.38 8.4 13.36 18.75 13.36s18.75-6 18.75-13.36-8.44-13.36-18.84-13.36m-22.76 107.18-8.13-3v-.69c0-7.3-7.66-13.22-17.1-13.22s-17.1 5.92-17.1 13.22 7.65 13.22 17.1 13.22c7.24 0 13.42-3.48 15.92-8.39Z" style="fill:#fff;stroke:gray;stroke-linecap:round;stroke-linejoin:round"/><g style="opacity:.2"><path d="M263.42 441.7a.3.3 0 0 0 0-.24l-4.34-6.81a40 40 0 0 0 4.21-1.74 7.21 7.21 0 0 0 7.38 5.69h.61a9 9 0 0 0 6.46-2.94 9.8 9.8 0 0 0 1.73-2.84l1.21 3a.27.27 0 0 0 .26.18l4.29-.49a.29.29 0 0 0 .24-.23l1.46-7.3 3.67 5.44a.26.26 0 0 0 .26.13l4.53-.49a.3.3 0 0 0 .25-.25l1.52-11.72 1.36 4.54a.29.29 0 0 0 .27.2l4.66-.74a.27.27 0 0 0 .23-.3l-1.22-12.74a.3.3 0 0 0-.11-.19.26.26 0 0 0-.22-.05l-7 1.34a.36.36 0 0 0-.18.12.34.34 0 0 0 0 .22l.39 1.81-4.13-.31a.3.3 0 0 0-.22.07.28.28 0 0 0-.08.21l.22 8.14-5.13-6.11a.28.28 0 0 0-.26-.1.27.27 0 0 0-.21.18l-3.08 7.81-1.65-8.26a.3.3 0 0 0-.14-.19.3.3 0 0 0-.24 0l-6.37 2.45a.28.28 0 0 0-.16.36l.59 1.56c-.18 0-.36-.08-.53-.1-2.49-.36-6.09 1.2-7.3 2.15a5.15 5.15 0 0 0-1.93-1.76 11.32 11.32 0 0 0-7.58 0c-2.07.86-7.86 3.93-8.1 4.06a.28.28 0 0 0-.14.33l4.6 13.71-5.59-.44 3.55-4a.28.28 0 0 0-.42-.38l-3.92 4.41a.28.28 0 0 0 .19.47l6.25.49h.1l1.47 4.36a.25.25 0 0 0 .14.16h.22l7.71-2.7a.26.26 0 0 0 .22-.17m32.16-28 6.4-1.24 1.17 12.17-4.15.66-1.66-5.52.51-3.93a.26.26 0 0 0-.06-.21.26.26 0 0 0-.19-.1l-1.66-.13Zm-20.4 7.64-.64-1.7 5.8-2.23 1.77 8.86a.29.29 0 0 0 .54 0l3.25-8.27 5.34 6.38a.28.28 0 0 0 .31.08.28.28 0 0 0 .18-.27l-.24-8.63 4 .31a.28.28 0 0 0 .3.15.3.3 0 0 0 .18-.12l1.29.1-.41 3.17a.27.27 0 0 0-.16.33l.08.26-1.65 12.75-4.12.49-4-5.86a.29.29 0 0 0-.29-.12.28.28 0 0 0-.22.22L285 435l-3.87.45-1.4-3.45a11 11 0 0 0 .49-3.87 7.84 7.84 0 0 0-5-6.81Zm-1.28.25a7.26 7.26 0 0 1 5.76 6.6 10.15 10.15 0 0 1-2.36 7.11 8.4 8.4 0 0 1-6.07 2.76c-6.41.34-7.39-5-7.43-5.28a.3.3 0 0 0 0-.09c1.69-.87 3.28-1.94 3.81-3a6.26 6.26 0 0 0 0-4.67 8.3 8.3 0 0 0-.61-1.31c1-.95 4.63-2.48 6.9-2.16Zm-18.28 22.39-6.08-18.12c1.08-.57 6-3.17 7.85-3.92a10.73 10.73 0 0 1 7.12 0 4.55 4.55 0 0 1 1.8 1.71.28.28 0 0 0 .1.21 8 8 0 0 1 .6 1.27 5.76 5.76 0 0 1 0 4.25c-1.16 2.44-8.46 4.85-8.53 4.88a.28.28 0 0 0-.18.17.33.33 0 0 0 0 .24l4.34 6.81Z"/><path d="M271.73 433.56a4.16 4.16 0 1 0-3.71-4.14 3.95 3.95 0 0 0 3.71 4.14m0-7.72a3.61 3.61 0 1 1-3.15 3.58 3.39 3.39 0 0 1 3.15-3.58M302 428c-1.87 0-3.4 1.11-3.4 2.48s1.57 2.52 3.4 2.52 3.41-1.12 3.41-2.49S303.92 428 302 428m0 4.41c-1.56 0-2.84-.87-2.84-1.93s1.28-1.92 2.84-1.92 2.85.86 2.85 1.92-1.24 1.91-2.85 1.91Zm-50.34-9.01a.31.31 0 0 0 .23.12.3.3 0 0 0 .16 0 .28.28 0 0 0 .07-.39l-3.18-4.55 2.15-.41a.27.27 0 0 0 .2-.16.28.28 0 0 0 0-.25l-2-3.46 13.19 3.5a.27.27 0 0 0 .33-.17l2.09-5.23 4.51 2.2a.28.28 0 0 0 .37-.13l4.13-8.27 7.2 5.67a.28.28 0 0 0 .37 0l4.47-4.24 1.32 3.41a.3.3 0 0 0 .16.16.33.33 0 0 0 .22 0l10.75-5.2-1.1 4.95a.28.28 0 0 0 .21.33.28.28 0 0 0 .34-.21l1.22-5.51a.25.25 0 0 0-.1-.28.28.28 0 0 0-.29 0l-11 5.26-1.36-3.54a.27.27 0 0 0-.2-.17.26.26 0 0 0-.25.07l-4.6 4.36-7.27-5.76a.3.3 0 0 0-.24-.05.3.3 0 0 0-.19.15l-4.16 8.32-4.52-2.2a.27.27 0 0 0-.23 0 .3.3 0 0 0-.16.15l-2.11 5.29-13.6-3.62a.3.3 0 0 0-.29.11.27.27 0 0 0 0 .31l2.13 3.7-2.19.41a.3.3 0 0 0-.21.17.32.32 0 0 0 0 .27Zm57.96-6.93-5.76-.86a.29.29 0 0 0-.32.24.28.28 0 0 0 .24.31l5.08.76-4.47 3.27a.28.28 0 0 0-.06.39.27.27 0 0 0 .39.06l5-3.67a.28.28 0 0 0-.12-.5ZM303 434.24a.28.28 0 0 0-.39-.1.29.29 0 0 0-.09.39l2.17 3.57-10.36-.81a.26.26 0 0 0-.21.07.3.3 0 0 0-.09.21l.22 8.69-7.7-8.39a.25.25 0 0 0-.24-.09.26.26 0 0 0-.21.15l-5 10.34-7-5.66a.26.26 0 0 0-.21-.06.28.28 0 0 0-.19.12l-5.19 7.44-.67-8.28a.29.29 0 0 0-.41-.23l-7.28 3.82.1-2a.3.3 0 0 0-.27-.3.28.28 0 0 0-.29.27l-.13 2.45a.31.31 0 0 0 .13.25.28.28 0 0 0 .28 0l7.34-3.84.7 8.64a.29.29 0 0 0 .21.24h.07a.27.27 0 0 0 .23-.12l5.46-7.83 7 5.69a.27.27 0 0 0 .23.05.28.28 0 0 0 .2-.15l5-10.28 7.93 8.63a.26.26 0 0 0 .31.07.26.26 0 0 0 .17-.26l-.23-9.12 10.59.83a.28.28 0 0 0 .26-.13.3.3 0 0 0 0-.29Zm-40.79-7.56a1.35 1.35 0 0 0-.59-1.33c-1.51-.92-5.39 1.19-5.82 1.44a.26.26 0 0 0-.14.17.26.26 0 0 0 0 .21l1.59 2.82a.29.29 0 0 0 .25.14c.08 0 4.58-.13 4.71-3.45m-4.53 2.88-1.36-2.42c1.26-.67 4-1.91 5-1.31a.84.84 0 0 1 .34.82c-.1 2.44-3.22 2.85-3.98 2.91"/></g><g style="opacity:.2"><path d="m211.93 149.45-4.79-1.17a.39.39 0 0 0-.47.29.4.4 0 0 0 .29.47l2.69.65-7.3.87 3.32-.85a1.14 1.14 0 0 0 .74-.58 1.16 1.16 0 0 0 .08-.93l-6.67-19.14a1.1 1.1 0 0 0-.36-.5l4.24-4.9a.41.41 0 0 0 0-.5.39.39 0 0 0-.49-.09l-13.28 7.25a.4.4 0 0 0-.16.53.39.39 0 0 0 .34.21.45.45 0 0 0 .19-.05l1.21-.66a1.2 1.2 0 0 0-.12.62l.85 6.79-3.16-6.27a1.17 1.17 0 0 0-1.25-.62l-.74.13 6-16.61a.39.39 0 0 0-.18-.47.38.38 0 0 0-.49.08l-12.13 14.38-.49-18.81a.39.39 0 0 0-.33-.37.4.4 0 0 0-.43.25l-6.12 17.79-7.25-17.36a.39.39 0 0 0-.75.17l.72 18.79-13-13.56a.39.39 0 0 0-.5-.06.38.38 0 0 0-.14.48l7.39 17.3-17-7.94a.39.39 0 0 0-.45.62l13.2 13.41-18.77-1.25a.38.38 0 0 0-.41.3.4.4 0 0 0 .22.45l11.7 5.28a43 43 0 0 0-4.43 1.11c-1.38.43-2.77.92-4.13 1.46a1.18 1.18 0 0 0-.66 1.5l1.06 2.83-5.36 1.68a.38.38 0 0 0-.27.42.39.39 0 0 0 .36.34l6.18.33h.1l3.1 8.29-5.2 4.14a.39.39 0 0 0 .24.7h.13l5.9-1.93.84 2.24a1.18 1.18 0 0 0 .62.66 1.15 1.15 0 0 0 .48.1 1.3 1.3 0 0 0 .43-.08c1.51-.6 3-1.26 4.35-2a44 44 0 0 0 3.9-2.26l.71-.48-7.95 13.61a.39.39 0 0 0 .08.49.38.38 0 0 0 .5 0l14.57-11.9-3 18.58a.4.4 0 0 0 .25.43.4.4 0 0 0 .47-.18l9.29-16.36 3.93 18.4a.39.39 0 0 0 .39.3.38.38 0 0 0 .37-.33l2.75-18.61 10.32 15.73a.38.38 0 0 0 .47.15.39.39 0 0 0 .23-.45l-4.16-18.34 15.3 10.94a.38.38 0 0 0 .5 0 .37.37 0 0 0 0-.49l-10.5-15.61 18.22 4.68a.39.39 0 0 0 .45-.22.38.38 0 0 0-.13-.48l-15.43-10.76 18.68-2.22a.39.39 0 0 0 .34-.36.38.38 0 0 0-.24-.47m-75.33 3.06 3-.95.42 1.13Zm4.17 12.67 3.12-2.49.49 1.31Zm56.84-21.37 2.3 6.29a1.15 1.15 0 0 0 .68.67l-2.92.35a1.15 1.15 0 0 0 .67-1.18Zm4.09-19-3 3.44a.3.3 0 0 1 0 .07.8.8 0 0 0-.22 0l-5.48 1.2ZM188.05 132l6.2 12.3-1.68-13.5 6.15-1.38 6.66 19.14-4.38 1.14-5.73-15.7 1.91 16.06-2.56.74-5.81-13 2.19 14.14-4.23.65-3.23-19.78Zm-11.27 25.45-4.3 1.14-.14-1.22-9.62 4.24-7.79-18.75 3.51-1.31 6.08 15.12 6.85-3 .75 1.91-2.05-17.25 3.79-1.32 13.22 16.18L183 155l-2.48-3.41-4.4 2.44Zm-19-4.75a9.6 9.6 0 0 0-2.4-.39h-1.7c.21-.24.41-.5.61-.76a8 8 0 0 0 1.6-3.39Zm-9.35-9.49-10-4.51 17.64 1.18a.39.39 0 0 0 .38-.23.42.42 0 0 0-.08-.44L144 126.63l16 7.47a.38.38 0 0 0 .43-.07.4.4 0 0 0 .09-.44l-7-16.23 12.24 12.75a.38.38 0 0 0 .44.09.37.37 0 0 0 .23-.37l-.67-17.67 6.81 16.32a.45.45 0 0 0 .38.24.39.39 0 0 0 .35-.27l5.7-16.71.45 17.67a.41.41 0 0 0 .26.36.39.39 0 0 0 .43-.12l11.41-13.51-5.22 14.59a.37.37 0 0 0 .07.38l-3.13.55a1.17 1.17 0 0 0-.95 1.34l2.56 15.68-10.15-12.43a1.17 1.17 0 0 0-1.29-.36l-3.8 1.32a1.15 1.15 0 0 0-.77 1.24l1.69 14.26-5.44 2.42-5.64-14a1.16 1.16 0 0 0-1.49-.65l-3.51 1.3a1.2 1.2 0 0 0-.66.63 1.18 1.18 0 0 0 0 .92l.39.93a5.7 5.7 0 0 0-2.8-.74 14.6 14.6 0 0 0-2.84.18.38.38 0 0 0-.17-.47Zm6.45 19.15a43 43 0 0 1-3.79 2.2c-1.34.68-2.75 1.32-4.25 1.91l-7.11-19c1.36-.55 2.71-1 4.05-1.43q9.83-3 10.89.49.56 1.8-1.32 4.31a15.4 15.4 0 0 1-3.26 3.23 15.7 15.7 0 0 1 5.23-.59c2.46.1 3.9.86 4.34 2.28q.85 2.93-4.81 6.62Zm51.58.22-17.13-4.4a.39.39 0 0 0-.41.15.39.39 0 0 0 0 .45l9.87 14.66-14.38-10.28a.38.38 0 0 0-.44 0 .39.39 0 0 0-.16.41l3.9 17.24L178 166a.39.39 0 0 0-.71.16l-2.58 17.48L171 166.4a.42.42 0 0 0-.32-.31.39.39 0 0 0-.4.2l-8.73 15.37 2.8-17.46a.39.39 0 0 0-.2-.4.4.4 0 0 0-.44 0L150 175l7.36-12.6a.41.41 0 0 0 0-.4 11.2 11.2 0 0 0 2.94-3.18l1.34 3.24a1.12 1.12 0 0 0 .65.63 1 1 0 0 0 .43.09 1.3 1.3 0 0 0 .47-.1l8.22-3.63a1.27 1.27 0 0 0 .41.51 1.2 1.2 0 0 0 .66.2 1 1 0 0 0 .3 0l4.3-1.14a1.17 1.17 0 0 0 .85-1.34l-.48-2.61 2.76-1.52 1.87 2.57a1.19 1.19 0 0 0 1.43.38l4.05-1.85a1.15 1.15 0 0 0 .62-.68l3-.45a1.16 1.16 0 0 0 .76-.47.5.5 0 0 0 .06-.1Zm-14.29-10.82-.85-5.52 2.26 5.06a1 1 0 0 0 .2.28Z"/><path d="M149.9 156.36c-.4.12-.81.26-1.23.43s-.87.35-1.33.57l1.74 4.72q6-1.91 5.21-4.61c-.45-1.47-1.92-1.87-4.39-1.11m-.12 4.24-1-2.61.27-.11a12 12 0 0 1 1.15-.4c2.59-.8 2.84 0 2.94.33.39 1.19-1.74 2.19-3.36 2.79m-.19-10.99c-.4-1.33-1.66-1.67-3.76-1a17 17 0 0 0-2 .8l1.55 4.3c3.25-1.3 4.62-2.65 4.21-4.1m-3.52 2.51-.76-2.11c.34-.13.62-.24.86-.31a3.66 3.66 0 0 1 1.87-.22.57.57 0 0 1 .43.47c.18.58-.72 1.38-2.4 2.17m29.43-1.6 3.25-1.73-4.68-6.33Zm1.5-2.12-.63.33-.28-1.57Z"/></g><g style="opacity:.2"><path d="m82.73 158.66-3.44-.83a.28.28 0 0 0-.34.2.29.29 0 0 0 .21.34l1.93.47-5.23.62 2.38-.61a.8.8 0 0 0 .53-.41.83.83 0 0 0 0-.67L74 144a.7.7 0 0 0-.26-.35l3-3.52a.27.27 0 0 0 0-.35.27.27 0 0 0-.35-.07L67 145a.28.28 0 0 0 .14.52.3.3 0 0 0 .13 0l.87-.47a.8.8 0 0 0-.08.44l.6 4.87-2.26-4.49a.86.86 0 0 0-.9-.45l-.53.09 4.26-11.92a.26.26 0 0 0-.12-.33.26.26 0 0 0-.35.06L60 143.55l-.35-13.49a.27.27 0 0 0-.23-.27.29.29 0 0 0-.31.19l-4.39 12.75-5.2-12.45a.28.28 0 0 0-.32-.16.29.29 0 0 0-.22.28l.52 13.48-9.35-9.73a.27.27 0 0 0-.35 0 .28.28 0 0 0-.1.35l5.3 12.34-12.22-5.7a.28.28 0 0 0-.35.09.27.27 0 0 0 0 .36l9.57 9.62-13.46-.9a.27.27 0 0 0-.29.21.29.29 0 0 0 .16.33l8.39 3.78c-.93.18-2 .44-3.18.8-1 .31-2 .66-3 1a.84.84 0 0 0-.48 1.07l.76 2-3.84 1.21a.28.28 0 0 0 .07.54l4.43.24h.08l2.22 5.94-3.72 3a.27.27 0 0 0-.07.35.28.28 0 0 0 .24.15h.09l4.24-1.39.6 1.61a.86.86 0 0 0 .78.55.8.8 0 0 0 .31-.06 33 33 0 0 0 3.12-1.41 31 31 0 0 0 2.8-1.62c.18-.11.34-.23.51-.34l-5.7 9.76a.28.28 0 0 0 .06.35.29.29 0 0 0 .36 0l10.45-8.54-2.14 13.36a.28.28 0 0 0 .52.19L53 171.65l2.82 13.2a.3.3 0 0 0 .28.22.29.29 0 0 0 .26-.24l2-13.35 7.39 11.28a.28.28 0 0 0 .51-.21l-3-13.16 11 7.85a.28.28 0 0 0 .39-.38l-7.53-11.19L80.14 169a.27.27 0 0 0 .32-.15.28.28 0 0 0-.09-.35l-11.07-7.69 13.4-1.6a.27.27 0 0 0 .24-.26.29.29 0 0 0-.21-.29m-54 2.2 2.16-.68.3.81Zm3 9.08 2.23-1.78.36.94Zm40.76-15.32 1.65 4.51a.81.81 0 0 0 .48.48l-2.09.25A.83.83 0 0 0 73 159Zm2.9-13.62-2.13 2.46v.05h-.16l-3.9.87Zm-9.79 5.18 4.45 8.82-1.21-9.68 4.41-1L78 158l-3.13.8-4.09-11.2 1.37 11.52-1.84.53-4.17-9.29 1.56 10.09-3 .46-2.32-14.18Zm-8.08 18.26-3.08.81-.11-.87-6.89 3L41.85 154l2.51-.93 4.37 10.84 4.91-2.18.54 1.37-1.48-12.42 2.73-1 9.48 11.6-2.91 1.37-1.78-2.44-3.15 1.79ZM43.87 161a7 7 0 0 0-1.72-.28h-1.22c.15-.18.3-.36.44-.55a5.85 5.85 0 0 0 1.15-2.43Zm-6.71-6.81L30 151l12.65.84a.27.27 0 0 0 .27-.16.26.26 0 0 0-.06-.31l-8.89-9 11.49 5.36a.29.29 0 0 0 .38-.37l-5-11.64 8.78 9.15a.28.28 0 0 0 .31.06.26.26 0 0 0 .17-.27L49.62 132l4.89 11.69a.28.28 0 0 0 .26.18.29.29 0 0 0 .26-.19l4.13-12 .33 12.67a.27.27 0 0 0 .18.26.28.28 0 0 0 .31-.08l8.18-9.69-3.75 10.46a.29.29 0 0 0 .06.28l-2.25.39a.84.84 0 0 0-.68 1l1.84 11.25-7.28-8.92a.86.86 0 0 0-.93-.26l-2.72.94a.86.86 0 0 0-.56.9l1.2 10.12-3.91 1.74-4-10a.84.84 0 0 0-1.07-.47l-2.51.94a.85.85 0 0 0-.48.45.82.82 0 0 0 0 .65l.27.67a4.2 4.2 0 0 0-2-.53 10.7 10.7 0 0 0-2 .13.27.27 0 0 0-.23-.38Zm4.63 13.74a29 29 0 0 1-2.72 1.57c-1 .49-2 1-3 1.38l-5.09-13.63c1-.39 1.94-.73 2.9-1q7.05-2.16 7.81.35c.27.86 0 1.89-1 3.09a10.7 10.7 0 0 1-2.34 2.31 11.4 11.4 0 0 1 3.76-.42c1.76.07 2.8.62 3.11 1.63q.63 2.09-3.43 4.73Zm37 .15-12.29-3.14a.29.29 0 0 0-.3.11.27.27 0 0 0 0 .32l7.08 10.52L63 168.51a.26.26 0 0 0-.31 0 .26.26 0 0 0-.12.29l2.8 12.36-6.95-10.6a.29.29 0 0 0-.29-.12.29.29 0 0 0-.22.23L56 183.22l-2.66-12.4a.27.27 0 0 0-.51-.08l-6.26 11 2-12.51a.28.28 0 0 0-.13-.29.27.27 0 0 0-.32 0l-9.82 8 5.28-9a.3.3 0 0 0 0-.29 8.2 8.2 0 0 0 2.11-2.28l1 2.32a.83.83 0 0 0 .78.52.9.9 0 0 0 .33-.07l5.9-2.6a.85.85 0 0 0 .29.36.9.9 0 0 0 .48.14.8.8 0 0 0 .21 0l3.08-.81a.85.85 0 0 0 .61-1L58 162.4l2-1.1 1.34 1.85a.85.85 0 0 0 1 .27l2.9-1.33a.8.8 0 0 0 .44-.48l2.14-.33a.82.82 0 0 0 .55-.33v-.07Zm-10.25-7.76-.61-3.95 1.62 3.63a.7.7 0 0 0 .14.21Z"/><path d="M38.24 163.62c-.29.09-.58.19-.88.31s-.62.25-1 .41l1.24 3.39q4.34-1.38 3.74-3.31c-.27-1.08-1.34-1.34-3.1-.8m-.08 3-.69-1.88.19-.08c.28-.11.56-.21.83-.29 1.85-.57 2 0 2.1.24.25.88-1.27 1.62-2.43 2.06Zm-.16-7.84c-.29-.95-1.19-1.2-2.7-.74a13 13 0 0 0-1.42.57L35 161.7c2.33-.91 3.34-1.88 3-2.92m-2.52 1.8-.48-1.51c.24-.1.45-.17.61-.22a2.67 2.67 0 0 1 1.35-.16.42.42 0 0 1 .31.33c.08.42-.57.98-1.77 1.56Zm21.12-1.15 2.33-1.23-3.35-4.54Zm1.08-1.52-.46.24L57 157Z"/></g><g style="opacity:.2"><path d="M71.05 103a.5.5 0 0 0 0-.43l-7.8-12.2a71 71 0 0 0 7.52-3.12A12.88 12.88 0 0 0 84 97.41h1.09a16 16 0 0 0 11.54-5.26 17 17 0 0 0 3.08-5.07l2.17 5.42a.51.51 0 0 0 .46.32h.06l7.66-.87a.51.51 0 0 0 .43-.4l2.61-13 6.55 9.72a.5.5 0 0 0 .47.22l8.09-.88a.49.49 0 0 0 .44-.43l2.72-20.95 2.43 8.12a.5.5 0 0 0 .48.36h.08l8.31-1.31a.5.5 0 0 0 .42-.54L140.85 50a.48.48 0 0 0-.19-.35.48.48 0 0 0-.4-.09L127.79 52a.55.55 0 0 0-.32.22.5.5 0 0 0-.07.38l.68 3.24-7.37-.56a.5.5 0 0 0-.39.13.5.5 0 0 0-.15.38l.4 14.53-9.14-10.93a.52.52 0 0 0-.47-.17.48.48 0 0 0-.38.31l-5.5 13.95-3-14.74a.5.5 0 0 0-.67-.37l-11.33 4.36a.49.49 0 0 0-.28.64l1 2.79c-.31-.07-.63-.14-.94-.18-4.44-.64-10.88 2.14-13 3.84a9.07 9.07 0 0 0-3.44-3.14c-3.3-1.57-9.75-1.57-13.53 0s-14 7-14.48 7.24a.49.49 0 0 0-.24.6L53.38 99l-10-.78 6.33-7.12a.5.5 0 1 0-.74-.67L42 98.3a.47.47 0 0 0-.09.52.51.51 0 0 0 .42.31l11.16.87a.4.4 0 0 0 .19 0l2.61 7.8a.53.53 0 0 0 .26.29.5.5 0 0 0 .22 0 .5.5 0 0 0 .16 0l13.78-4.81a.5.5 0 0 0 .34-.28m57.43-50.08 11.43-2.21L142 72.4l-7.42 1.17-3-9.85.91-7a.5.5 0 0 0-.11-.38.52.52 0 0 0-.35-.18l-3-.23ZM92 66.52l-1.13-3 10.35-4 3.17 15.82a.5.5 0 0 0 .95.09l5.82-14.75L120.72 72a.48.48 0 0 0 .56.15.51.51 0 0 0 .33-.48l-.43-15.41 7.14.55a.5.5 0 0 0 .55.27.5.5 0 0 0 .3-.21l2.31.18-.73 5.65a.5.5 0 0 0-.28.6l.14.46-3 22.78-7.4.8-7.05-10.47a.51.51 0 0 0-.91.18L109.53 91l-6.91.8-2.45-6.13a19.6 19.6 0 0 0 .87-6.93 14 14 0 0 0-9-12.16Zm-2.24.48c4.63.66 9.88 5.36 10.29 11.78a18.14 18.14 0 0 1-4.22 12.71A15 15 0 0 1 85 96.38c-11.44.6-13.19-9-13.26-9.43a.7.7 0 0 0-.06-.15c3-1.57 5.85-3.47 6.8-5.46a11.12 11.12 0 0 0 0-8.35 13.4 13.4 0 0 0-1.08-2.33c1.81-1.54 8.3-4.27 12.36-3.66m-32.65 40L46.25 74.59c1.93-1 10.76-5.65 14-7 3.5-1.44 9.68-1.45 12.72 0a8.3 8.3 0 0 1 3.22 3.06.48.48 0 0 0 .17.37h.08a13.3 13.3 0 0 1 1.06 2.28 10.2 10.2 0 0 1 0 7.58c-2.07 4.35-15.1 8.67-15.23 8.71a.49.49 0 0 0-.32.31.52.52 0 0 0 .05.44l7.76 12.15Z"/><path d="M85.89 88.41c3.65 0 6.62-3.32 6.62-7.39s-3-7.39-6.62-7.39-6.63 3.31-6.63 7.37 2.98 7.41 6.63 7.41m0-13.78c3.1 0 5.62 2.87 5.62 6.39s-2.51 6.39-5.62 6.39-5.63-2.87-5.63-6.41 2.53-6.37 5.63-6.37M140 78.44c-3.35 0-6.08 2-6.08 4.44s2.73 4.44 6.08 4.44 6.08-2 6.08-4.44-2.7-4.44-6.08-4.44m0 7.88c-2.8 0-5.08-1.55-5.08-3.44s2.28-3.44 5.08-3.44 5.08 1.54 5.08 3.44-2.25 3.44-5.08 3.44M50 70.26a.51.51 0 0 0 .41.21.5.5 0 0 0 .29-.09.49.49 0 0 0 .12-.69l-5.68-8.12 3.86-.73a.54.54 0 0 0 .36-.28.5.5 0 0 0 0-.46l-3.56-6.18 23.55 6.26a.52.52 0 0 0 .6-.3l3.74-9.35 8 3.92a.5.5 0 0 0 .67-.22l7.38-14.76 12.86 10.12a.5.5 0 0 0 .65 0l8-7.58 2.35 6.08a.53.53 0 0 0 .28.29.5.5 0 0 0 .4 0l19.2-9.18-2 8.84a.5.5 0 0 0 .38.6.5.5 0 0 0 .59-.38l2.19-9.85a.5.5 0 0 0-.7-.56l-19.64 9.4-2.3-6.33a.51.51 0 0 0-.36-.31.5.5 0 0 0-.45.13l-8.22 7.79-13-10.23a.49.49 0 0 0-.42-.09.5.5 0 0 0-.34.26l-7.48 14.87-8.09-3.94a.5.5 0 0 0-.4 0 .48.48 0 0 0-.28.28l-3.78 9.42-24.29-6.45a.48.48 0 0 0-.52.18.5.5 0 0 0 0 .55L48.14 60l-3.91.74a.52.52 0 0 0-.37.31.5.5 0 0 0 .06.47Zm103.55-12.37-10.28-1.54a.52.52 0 0 0-.57.43.5.5 0 0 0 .43.56l9.07 1.36-8 5.84a.5.5 0 0 0-.11.7.51.51 0 0 0 .4.2.55.55 0 0 0 .3-.09l9-6.57a.51.51 0 0 0 .19-.52.5.5 0 0 0-.43-.37m-11.89 31.73a.5.5 0 0 0-.69-.17.51.51 0 0 0-.17.69l3.87 6.38-18.49-1.45a.56.56 0 0 0-.39.13.5.5 0 0 0-.15.38l.4 15.51-13.75-15a.49.49 0 0 0-.44-.15.47.47 0 0 0-.38.27l-8.91 18.46-12.42-10.1a.5.5 0 0 0-.38-.1.48.48 0 0 0-.34.21L80.15 118 79 103.18a.5.5 0 0 0-.26-.4.49.49 0 0 0-.47 0l-13 6.81.18-3.5a.5.5 0 0 0-1 0l-.22 4.38a.48.48 0 0 0 .23.44.47.47 0 0 0 .5 0L78 104l1.26 15.43a.48.48 0 0 0 .36.44h.13a.51.51 0 0 0 .41-.21l9.76-14 12.49 10.16a.48.48 0 0 0 .42.1.47.47 0 0 0 .34-.27l8.87-18.37 14.16 15.43a.49.49 0 0 0 .55.12.51.51 0 0 0 .32-.47l-.43-16.29 18.92 1.49a.51.51 0 0 0 .46-.24.49.49 0 0 0 0-.52Zm-72.77-13.5a2.43 2.43 0 0 0-1.07-2.37c-2.69-1.65-9.61 2.13-10.39 2.57a.48.48 0 0 0-.24.3.46.46 0 0 0 .05.38l2.84 5a.51.51 0 0 0 .44.26c.09.02 8.13-.26 8.37-6.14m-8.09 5.15L58.36 77c2.26-1.2 7.2-3.41 8.94-2.35a1.5 1.5 0 0 1 .59 1.48c-.17 4.3-5.74 5.03-7.09 5.14"/></g><path d="m355.19 421.18-32.68 26.28 18.21-1.2-3 5.48-37.12 4.19 37.09-28.61-21.75.59 2.68-7.13Zm28.4 10.52a23.64 23.64 0 0 1-8.13 10.15 29.6 29.6 0 0 1-13.46 5.93c-5 .82-8.95.19-11.66-2s-3.49-5.46-2.05-9.69 4.62-8.18 9.38-11.53a28.23 28.23 0 0 1 14.63-5.42c4.87-.31 8.31.81 10.4 3.29s2.35 5.48.89 9.27Zm-7.1.48c.84-2.23.74-4-.32-5.44s-3.05-2.09-5.86-1.86a15.7 15.7 0 0 0-8.41 3.53 14.8 14.8 0 0 0-5.12 6.66c-.85 2.41-.6 4.29.72 5.65s3.44 1.76 6.34 1.35a15.77 15.77 0 0 0 8-3.66 14.8 14.8 0 0 0 4.65-6.23Zm35.51-3.72a25.57 25.57 0 0 1-18 14.11c-3.94.64-6.88 0-8.78-2s-2.2-4.91-.75-8.64a23.14 23.14 0 0 1 8.08-10.1 21.73 21.73 0 0 1 11.66-4.69c3.78-.23 6.37.79 7.81 3s1.43 4.93-.02 8.32Zm-5.57.34c.82-2 .88-3.6.16-4.87s-2.2-1.89-4.39-1.71a12.26 12.26 0 0 0-6.74 3 14.55 14.55 0 0 0-4.46 5.86c-.85 2.13-.81 3.81.09 5s2.5 1.64 4.77 1.31a12.4 12.4 0 0 0 6.44-3.15 14.74 14.74 0 0 0 4.15-5.44Zm28.35-2.94a22.7 22.7 0 0 1-6.34 8.1 18.85 18.85 0 0 1-9 4.47c-3.17.51-5.44-.11-6.78-1.93s-1.36-4.47.06-7.8a22.7 22.7 0 0 1 7.09-9q4.88-3.82 9.55-4.11c3-.19 5 .74 6 2.76s.82 4.45-.56 7.51Zm-4.49.25q1.2-2.69.47-4.41c-.5-1.19-1.62-1.72-3.38-1.58a10 10 0 0 0-5.56 2.69 14.25 14.25 0 0 0-3.92 5.19q-1.23 2.87-.3 4.55c.63 1.1 1.86 1.51 3.67 1.25a10.15 10.15 0 0 0 5.36-2.77 14.6 14.6 0 0 0 3.68-4.92Zm19.62 7.35-4.12.48 6.92-16.42-10.25 16.27-2.65.38 4.86-14.2-8.82 14.84-4.29.07 12.52-21.45 4.42.34-4.18 13.82 8.68-13.91 5.62.12Zm7.89-4.72-2 3.82-3.06.13 2-3.77Zm8.2-15.33-7.7 13.22-2.24.48 6.53-13.41Z" style="fill:none;stroke:#000;stroke-miterlimit:10;opacity:.2"/><path d="m379.24 48.81-8.11 2.39v.06l-8.95 1.63-.6 1.6.11-1.18-1.51.19-2.42.31-4.18.53-3.07 9.1a7.7 7.7 0 0 0-1.16-2.07c-1.32-1.68-3.86-3.42-8.46-2.17a19.1 19.1 0 0 0-9.37 6.48 29 29 0 0 0-2.79 3.94 7.9 7.9 0 0 0-1.5-2.08c-2.39-2.42-5.78-3.05-10.08-1.89a23.3 23.3 0 0 0-11.24 7.4 28.8 28.8 0 0 0-3.85 5.47 8.9 8.9 0 0 0-2.64-3.21c-3-2.39-7.21-2.88-12.4-1.47a29.74 29.74 0 0 0-13.9 8.64c-.25.27-.47.54-.71.8l4.36-5.28-42.12 8.17L232.79 98l17.53-4.1-30.56 35.47 42.72-13.92 3.2-10.42-14.53 4 19.7-23.82a23.5 23.5 0 0 0-5 11.36c-.83 6.54 2.25 9.57 5 11a12.2 12.2 0 0 0 5.56 1.25 21.6 21.6 0 0 0 7.64-1.59 31 31 0 0 0 12.5-8.88 30.3 30.3 0 0 0 3.92-5.6 7.8 7.8 0 0 0 2.53 2.74 8.9 8.9 0 0 0 5.09 1.51 15.8 15.8 0 0 0 5.54-1.14 24.87 24.87 0 0 0 10.26-7.63 28.6 28.6 0 0 0 2.84-4 7 7 0 0 0 1.44 1.77 6.92 6.92 0 0 0 4.77 1.76 11.9 11.9 0 0 0 4.2-.86 19.14 19.14 0 0 0 7.09-4.9v0l8.77-2 .08-.24 2.12-.76 1.91-.69 1.08-.38-.11.59 8.31-2.75.12-.59 5.22-1.3 2.5-8.67-.58.16Zm-39.05 26.5a8 8 0 0 1-3.61 3c-.37.14-1.26.41-1.51.12a3.47 3.47 0 0 1-.16-2.65 12 12 0 0 1 2.37-4.94 7.9 7.9 0 0 1 3.72-2.97 3 3 0 0 1 .81-.14c.33 0 .42.12.46.19a3.73 3.73 0 0 1 .1 2.7 12.1 12.1 0 0 1-2.18 4.69m-22.6 7.87a10 10 0 0 1-4.59 3.59c-.92.34-2.15.62-2.74.09s-.69-1.47-.44-2.91a12.25 12.25 0 0 1 2.7-5.55 10 10 0 0 1 4.83-3.57 5 5 0 0 1 1.37-.23 1.19 1.19 0 0 1 1 .39c.49.56.6 1.55.33 3a12.3 12.3 0 0 1-2.46 5.19m-25.53 3.95a12.6 12.6 0 0 1-2.84 5.93 13.3 13.3 0 0 1-6 4.41c-1.41.51-3.33 1-4.49.18-.34-.23-1.24-.84-.91-3.27A12.5 12.5 0 0 1 281 88a13.35 13.35 0 0 1 6.36-4.39 8 8 0 0 1 2.22-.37 2.66 2.66 0 0 1 1.82.57c.21.28 1.03.99.66 3.32" style="fill:#fff;stroke:gray;stroke-linecap:round;stroke-linejoin:round"/><path d="m273.23 76.69-26.11 31.57 17.2-4.72-1.79 5.83-34.71 11.31L257.7 86 237 90.84l1.16-7.35Zm29.25 4.49a22.9 22.9 0 0 1-5.78 11.3 28.7 28.7 0 0 1-11.7 8.32c-4.66 1.78-8.53 2-11.54.42s-4.42-4.54-3.87-8.87 2.81-8.74 6.7-12.88a27.66 27.66 0 0 1 12.95-8.07c4.59-1.25 8.11-.85 10.59 1.11s3.31 4.75 2.65 8.67m-6.7 1.82c.37-2.3-.08-4-1.38-5.14s-3.32-1.41-6-.63a15.37 15.37 0 0 0-7.35 5 14.5 14.5 0 0 0-3.6 7.39q-.5 3.7 1.81 5.25c1.52 1 3.64 1 6.33 0a15.4 15.4 0 0 0 6.9-5.06 14.45 14.45 0 0 0 3.29-6.81m33.28-10.55a22.4 22.4 0 0 1-5.05 10 22.54 22.54 0 0 1-9.41 7c-3.64 1.39-6.58 1.36-8.78-.15s-3.07-4.27-2.42-8.13A22.7 22.7 0 0 1 309.14 70a21.25 21.25 0 0 1 10.24-6.78c3.58-1 6.25-.5 8.07 1.35s2.31 4.43 1.61 7.91Zm-5.27 1.42c.4-2.06.14-3.62-.8-4.69s-2.48-1.38-4.54-.77a12 12 0 0 0-5.85 4.25 14.2 14.2 0 0 0-3.12 6.48c-.39 2.2 0 3.8 1.08 4.8s2.71 1.07 4.82.31a12.15 12.15 0 0 0 5.55-4.25 14.36 14.36 0 0 0 2.86-6.1Zm26.56-8.39a22.1 22.1 0 0 1-4.48 9 18.3 18.3 0 0 1-7.76 6c-2.93 1.11-5.23 1-6.87-.51s-2.17-4-1.48-7.49a22.34 22.34 0 0 1 5-10 16.9 16.9 0 0 1 8.34-5.82c2.86-.78 5-.28 6.31 1.46s1.66 4.2.94 7.39Zm-4.25 1.13c.41-1.87.28-3.31-.41-4.31s-1.89-1.34-3.55-.85a9.78 9.78 0 0 0-4.79 3.66 14.05 14.05 0 0 0-2.75 5.78c-.41 2-.2 3.46.61 4.41s2.07 1.08 3.76.48a10 10 0 0 0 4.58-3.7 14.3 14.3 0 0 0 2.55-5.44Zm20.23 3.17-3.85 1.28 3.4-17.06-6.62 17.6-2.46.88 1.86-14.54-5.52 15.93-4.1.92 7.77-23 4.29-.54-1.28 14 5.57-15 5.4-1Zm6.67-6.03-1.16 4-2.9.72 1.13-4Zm4.78-16.28L373 61.64l-2.06.9 3.62-14.12Z" style="fill:gray"/><path d="m318.93 327.22-22.49 11.93 24.73 6.03-25.27 3.01 20.88 14.55-24.65-6.33 14.21 21.11-20.7-14.8 5.62 24.82-13.95-21.28-3.72 25.17-5.33-24.88-12.56 22.13 4.02-25.13-19.71 16.1 12.83-21.98-24.19 7.89 19.9-15.86-25.41-1.38 24.29-7.6-23.2-10.47 25.4 1.69-17.85-18.14 23.07 10.75-10.09-23.36 17.62 18.35-.96-25.43 9.8 23.49 8.29-24.07.66 25.44 16.41-19.44-8.57 23.96 22.33-12.2-16.65 19.24z" style="fill:#fff;stroke:gray;stroke-linecap:round;stroke-linejoin:round"/><path d="M254.17 352.82c.77 2.49-1.28 5.32-6.12 8.47a54 54 0 0 1-4.87 2.82q-2.56 1.31-5.45 2.45l-9.12-24.38c1.75-.7 3.48-1.3 5.19-1.83q12.62-3.86 14 .63.71 2.31-1.7 5.53a19.5 19.5 0 0 1-4.18 4.13 20.6 20.6 0 0 1 6.71-.75c3.13.11 4.99 1.11 5.54 2.93m-12.87-7.92q-.78-2.55-4.83-1.32a25 25 0 0 0-2.55 1l2 5.52q6.23-2.41 5.38-5.2m6 10.08q-.87-2.88-5.64-1.42c-.51.16-1 .34-1.57.55s-1.11.46-1.71.73l2.24 6.07q7.77-2.46 6.71-5.91Zm23.7-.34-12.89 5.68-10-24.06 4.5-1.67 7.81 19.4 8.78-3.91Z" style="fill:#000;stroke:gray;stroke-linecap:round;stroke-linejoin:round;stroke-width:3px"/><path d="m289.4 349.47-5.2 2.36-3.2-4.37-5.64 3.12.8 4.4-5.51 1.47-3.1-26.05 4.87-1.68Zm-10.69-5.61-6-8.13 1.83 10.34Zm34.17-.28-5.61 1.42-7.36-20.12 2.44 20.6-3.28.95-7.45-16.62 2.79 18.06-5.44.83-4.14-25.37 5.81-1 8 15.78-2.16-17.31 7.89-1.78Zm1.95-27.67 3.17 17.52-3 1.18-5-17.11Zm5 20.15 1.3 5.11-4.72.86-1.28-4.95Z" style="fill:#000;stroke:gray;stroke-linecap:round;stroke-linejoin:round;stroke-width:3px"/><path d="M254.17 352.82c.77 2.49-1.28 5.32-6.12 8.47a54 54 0 0 1-4.87 2.82q-2.56 1.31-5.45 2.45l-9.12-24.38c1.75-.7 3.48-1.3 5.19-1.83q12.62-3.86 14 .63.71 2.31-1.7 5.53a19.5 19.5 0 0 1-4.18 4.13 20.6 20.6 0 0 1 6.71-.75c3.13.11 4.99 1.11 5.54 2.93m-12.87-7.92q-.78-2.55-4.83-1.32a25 25 0 0 0-2.55 1l2 5.52q6.23-2.41 5.38-5.2m6 10.08q-.87-2.88-5.64-1.42c-.51.16-1 .34-1.57.55s-1.11.46-1.71.73l2.24 6.07q7.77-2.46 6.71-5.91Zm23.7-.34-12.89 5.68-10-24.06 4.5-1.67 7.81 19.4 8.78-3.91Z" style="fill:#000;stroke:#fff;stroke-linecap:round;stroke-linejoin:round;stroke-width:.5px"/><path d="m289.4 349.47-5.2 2.36-3.2-4.37-5.64 3.12.8 4.4-5.51 1.47-3.1-26.05 4.87-1.68Zm-10.69-5.61-6-8.13 1.83 10.34Zm34.17-.28-5.61 1.42-7.36-20.12 2.44 20.6-3.28.95-7.45-16.62 2.79 18.06-5.44.83-4.14-25.37 5.81-1 8 15.78-2.16-17.31 7.89-1.78Zm1.95-27.67 3.17 17.52-3 1.18-5-17.11Zm5 20.15 1.3 5.11-4.72.86-1.28-4.95Z" style="fill:#000;stroke:#fff;stroke-linecap:round;stroke-linejoin:round;stroke-width:.5px"/><path d="M94 260.09s-7.11-5.82-9.52 2.45-2.42 18.63 3.1 23.81 10.7 11 10.7 11l.34-29a54.3 54.3 0 0 0-4.62-8.26" style="fill:#fff;stroke:#263238;stroke-linecap:round;stroke-linejoin:round"/><path d="M89.27 268.06s6.21 2.42 8.28 10.7" style="fill:none;stroke:#263238;stroke-linecap:round;stroke-linejoin:round"/><path d="M214.05 260s7.31-5.57 9.43 2.78 1.76 18.71-3.94 23.68-11.07 10.66-11.07 10.66l.67-29a54 54 0 0 1 4.91-8.12" style="fill:#fff;stroke:#263238;stroke-linecap:round;stroke-linejoin:round"/><path d="M218.46 268.12s-6.29 2.2-8.65 10.4" style="fill:none;stroke:#263238;stroke-linecap:round;stroke-linejoin:round"/><path d="M97.54 270.84s-1.79 35.38 6.27 49.27 43 34.49 54.65 35.39 39-26 44.79-34.94 7.17-53.3 7.17-53.3 5.82-21.06.89-36.28-38.07-29.12-56.88-30.91-38.08 4.48-45.24 18.81-9.41 17-9.86 25.08-1.79 26.88-1.79 26.88" style="fill:#fff;stroke:#263238;stroke-linecap:round;stroke-linejoin:round"/><path d="M143.52 288.55s-3 3.25-.7 6.94 6.67 2.09 6.67 2.09" style="fill:none;stroke:#263238;stroke-linecap:round;stroke-linejoin:round"/><path d="M148 295.92a6.33 6.33 0 0 0 5.32 2.85c3.44-.17 7.11-2.77 7.11-2.77" style="fill:none;stroke:#263238;stroke-linecap:round;stroke-linejoin:round"/><path d="M158.81 297.46s3.33.93 4.77-1.27c2.57-3.92-.68-6.87-1.78-8.2" style="fill:none;stroke:#263238;stroke-linecap:round;stroke-linejoin:round"/><circle cx="128.07" cy="279.62" r="3.62" style="fill:#263238"/><circle cx="177.58" cy="279.79" r="3.62" style="fill:#263238"/><path d="M140.83 252.6s-5.33-3.57-13.7-2.37-11.8 8-11.53 9.69 1.88 1.15 3.92-.32 1.56-2.77 6.22-4.1 13 2.61 15.74.9-.65-3.8-.65-3.8m24.74 0s5.33-3.57 13.7-2.37 11.8 8 11.53 9.69-1.88 1.15-3.92-.32-1.56-2.77-6.22-4.1-13 2.61-15.74.9.65-3.8.65-3.8" style="fill:#263238"/><path d="M117.9 271.86a6.94 6.94 0 0 0 .69 9m69.68-7.28s4.48 3.45.35 7.94m-21.74-23.46a34 34 0 0 0-5.17 16.9" style="fill:none;stroke:#263238;stroke-linecap:round;stroke-linejoin:round"/><ellipse cx="153.95" cy="320.15" rx="4.31" ry="4.48" style="fill:#263238"/><path d="M116.8 181.26s-23.29 14.33-28.66 30.45-1.8 21.06.89 21.5a29 29 0 0 1 4 .9s-4.48 8.51-3.13 14.33a69 69 0 0 0 4 11.65s1.34 14.78 4 15.23 3.14-16.13 3.14-16.13 9-21.94 12.09-26.87 11.2-19.26 12.54-14.33-8.51 8.95-2.69 12.54 16.13 1.34 30.91-2.69 8.51-.45 4.48 2.24-12.54 12.09-2.24 13 33.59-9.86 37.62-12.54 7.62-5.38 7.62-5.38-3.05 12.53-.37 18.84 4 10.75 5.38 12.1 1.34 22.84 1.34 22.84 2.24 2.24 3.58-2.69 4-21 4-21 6.72-15.23 6.72-30.46-14.78-22.84-16.12-22.84-8.51-21.05-38.52-28.22-50.58 7.53-50.58 7.53" style="fill:#263238;stroke:#263238;stroke-linecap:round;stroke-linejoin:round"/><path d="M55.46 469.52s5.32-58.82 5.52-68.3 15.32-17.51 27.6-21.39 33.8-11.73 33.8-11.73l2.07-33.1 58.65.69 4.14 29.66s17.24 6.9 35.18 9 29.21 12.56 34.5 23.46 5.52 72.44 5.52 72.44" style="fill:#000;stroke:#263238;stroke-linecap:round;stroke-linejoin:round"/><path d="M61 401.22c0 1.62-.22 4.7-.5 8.68h199.1c-.71-5.53-1.58-9.89-2.66-12.13-.57-1.18-1.23-2.35-1.94-3.51H63.78a11.83 11.83 0 0 0-2.78 6.96m201.43 67.55c0-2.56-.08-8.36-.27-15.63H56.92c-.67 7.64-1.21 13.61-1.39 15.63ZM59.41 423.7c-.4 5-.85 10.4-1.3 15.64h203.6c-.21-5.19-.48-10.54-.84-15.64Z" style="fill:#263238;stroke:#263238;stroke-linecap:round;stroke-linejoin:round"/><path d="m38.6 472.72 11.47-44.37s-1.68-8.3-4.72-12.27S38 401.79 38 401.79s2-15.29 16.8-22.14 21.93-6.86 24.63.72-3 27.42-2.7 33.91A39.1 39.1 0 0 1 75 426.91l-2.36 50.14" style="fill:#fff;stroke:#263238;stroke-linecap:round;stroke-linejoin:round"/><path d="M71.33 432.32s3.37-6.5 0-15.51" style="fill:none;stroke:#263238;stroke-linecap:round;stroke-linejoin:round"/><path d="m273.82 472.72-11.47-44.37s1.69-8.3 4.72-12.27 8.1-11.18 8.1-11.18-2.7-18.4-17.54-25.25-21.94-6.86-24.63.72 3 27.42 2.69 33.91a39.4 39.4 0 0 0 1.69 12.63l2.36 50.14" style="fill:#fff;stroke:#263238;stroke-linecap:round;stroke-linejoin:round"/><path d="M241.09 432.32s-3.37-6.5 0-15.51" style="fill:none;stroke:#263238;stroke-linecap:round;stroke-linejoin:round"/><path d="M156 314.06s-4.14-6-13.34-11-30.82-11-43.69-14.26-39.1-17.48-39.1-17.48l-.92 12.88 89.19 36.8Z" style="fill:#fff;stroke:#263238;stroke-linecap:round;stroke-linejoin:round"/><path d="M156 314.06s-32.2-16.1-49.68-21.62-50.17-20.24-50.17-20.24-3.22 45.54-3.22 60.72 6.44 74.51 6.44 74.51 42.77 20.24 61.17 28.06 34 13.79 34 13.79Z" style="fill:#fff;stroke:#263238;stroke-linecap:round;stroke-linejoin:round"/><path d="m70.35 306.67-1.32 38.22m5.63-36.19-1.31 38.22m5.63-36.19-1.32 38.22m22.11-8.8-1.31 38.22m5.63-36.19-1.32 38.22m5.63-36.19-1.32 38.22m18.6-42.52-1.78 40.06m6.7-37.93-1.78 40.06m6.71-37.94-1.78 40.06" style="fill:none;stroke:#263238;stroke-linecap:round;stroke-linejoin:round"/><path d="m137.56 394.97 12.3 3.51 4.09-82.81-94.58-35.8-2.2 58.43 7.03.88 1.78-39.45 17.87 6.62-2.08 46.88 13.34 7.41.66-26.82 18.21 6.96-1.99 37.4 8.44 2.29 2.15-46.65 16.89 5.63z" style="fill:#000"/><path d="m64.98 343.43 1-43.7 17.87 6.62-1.65 48.66 12.91 5.63.66-26.82 18.21 6.96-1.99 37.4 7.95 3.64 2.64-48 16.89 5.63-3.64 64.55" style="fill:none;stroke:#263238;stroke-linecap:round;stroke-linejoin:round"/><path d="M120.54 435.49c18.4 7.81 34 13.79 34 13.79l.63-62.21a15.46 15.46 0 0 0-7.8 5.35c-4.63 6-3.64 19.53-3.64 19.53s-10.59 3-15.23 6.29a24.4 24.4 0 0 0-6.95 7.94l-5.55 4.64-1.53 2c2.19 1 4.25 1.89 6.07 2.67" style="fill:#000;stroke:#263238;stroke-linecap:round;stroke-linejoin:round"/><path d="M156 314.06s6.44-12 18.86-16.1 25.29-7.36 34.49-10.12 39.1-16.1 39.1-16.1v6l-86.47 40.94Z" style="fill:#fff;stroke:#263238;stroke-linecap:round;stroke-linejoin:round"/><path d="M157.8 316.36s6.44-12 18.86-16.1 25.29-7.36 34.49-10.12 39.1-16.1 39.1-16.1v6L163.78 321Z" style="fill:#fff;stroke:#263238;stroke-linecap:round;stroke-linejoin:round"/><path d="M156 314.06s29-14.72 40.47-18.4S253 273.58 253 273.58l1.38 95.21-1.84 56.12A305 305 0 0 0 213.45 435c-20.7 6.89-58.87 14.25-58.87 14.25Z" style="fill:#fff;stroke:#263238;stroke-linecap:round;stroke-linejoin:round"/><path d="M241.43 373.88c-16.15-.51-61.36 9.26-63.19 9.26s-19.57 3.32-19.57 3.32a13.7 13.7 0 0 0-3.46.61l-.63 62.21s38.17-7.36 58.87-14.25a305 305 0 0 1 39.1-10.12l1.6-48.85a43.7 43.7 0 0 0-12.72-2.18" style="fill:#000;stroke:#263238;stroke-linecap:round;stroke-linejoin:round"/><path d="M189.12 371.23s-3.64-1-5.62.66a29 29 0 0 0-4.31 5.3s-8.94-1.32-10.92.66a17 17 0 0 0-3 4s-4.31.66-6 3-1.32 4.64 6.62 9.27 47 21.19 47 21.19 36.74-35.42 37.73-35.75-1.32-6.29-3.31-6.62-5.95 1-5.95 1-1.33-4.63-3.65-4.63a41 41 0 0 0-6.62 1 52 52 0 0 0-7.28-2.65c-1.91-.4-34.69 3.57-34.69 3.57" style="fill:#263238;stroke:#263238;stroke-linecap:round;stroke-linejoin:round"/><path d="M188.68 306.34a3.5 3.5 0 0 1 .39.9 5 5 0 0 1 .19 1.27 3.5 3.5 0 0 1-.42 2.05 2.2 2.2 0 0 1-1.25.95l-6 1.83.11 3.88 6.25-1.9a2.7 2.7 0 0 1 .42.87 5 5 0 0 1 .19 1.26 3.5 3.5 0 0 1-.42 2 2.2 2.2 0 0 1-1.25.95l-5 1.52.21 7.24c-.21.13-.54.3-1 .51a11 11 0 0 1-1.33.5 4.7 4.7 0 0 1-1.16.23 1.25 1.25 0 0 1-1.39-.87 4.7 4.7 0 0 1-.21-1.39l-.42-14.93a4.4 4.4 0 0 1 .65-2.56 3.4 3.4 0 0 1 1.92-1.44Zm6.24 19.18a2 2 0 0 1-2-.26 2.78 2.78 0 0 1-.77-2.12l-.5-17.75 1-.49a9.6 9.6 0 0 1 1.31-.52 5.4 5.4 0 0 1 1.16-.23 1.43 1.43 0 0 1 .85.17 1.27 1.27 0 0 1 .54.7 4.2 4.2 0 0 1 .21 1.39l.39 13.56 6.53-2a4.5 4.5 0 0 1 .61 2.17 3.6 3.6 0 0 1-.43 2.09 2.25 2.25 0 0 1-1.27 1Zm15.39-25.14a8 8 0 0 1 1.45-1.1 8.5 8.5 0 0 1 2-.91 5.8 5.8 0 0 1 2.54-.27 1.69 1.69 0 0 1 1.46 1.13c.38 1.09.78 2.36 1.23 3.82s.89 3 1.34 4.53l1.31 4.62c.42 1.52.8 2.87 1.12 4a3.5 3.5 0 0 1-1 1.08 5.1 5.1 0 0 1-1.62.79 4 4 0 0 1-1.16.21 1.43 1.43 0 0 1-.78-.17 1.46 1.46 0 0 1-.51-.58 5 5 0 0 1-.35-.93l-.58-2.21-5.21 1.61c-.13.73-.27 1.49-.4 2.27s-.26 1.53-.39 2.26a9 9 0 0 1-.84.55 5.3 5.3 0 0 1-1.06.45 3 3 0 0 1-2.18.05 1.55 1.55 0 0 1-.74-1.45 5 5 0 0 1 .08-1c.07-.35.15-.75.23-1.22.11-.65.28-1.48.49-2.46s.45-2.06.7-3.21.53-2.34.82-3.56.57-2.37.83-3.45.49-2.05.71-2.9.38-1.49.51-1.95m3.55 3.39-.81 3.48c-.3 1.28-.57 2.57-.8 3.86l3.54-1.07c-.3-1.16-.61-2.28-.92-3.38l-.84-2.94Zm8.98-2.97a4 4 0 0 1-.4-.92 4.6 4.6 0 0 1-.21-1.32 3.56 3.56 0 0 1 .45-2.08 2.34 2.34 0 0 1 1.28-1l12.44-3.78a3.5 3.5 0 0 1 .4.92 4.6 4.6 0 0 1 .2 1.38 3.55 3.55 0 0 1-.44 2.07 2.3 2.3 0 0 1-1.28 1l-3.17 1 .44 15.87a8 8 0 0 1-1 .5 10 10 0 0 1-1.32.51 5.4 5.4 0 0 1-1.16.23 1.5 1.5 0 0 1-.85-.17 1.3 1.3 0 0 1-.54-.71 4.1 4.1 0 0 1-.21-1.39l-.38-13.32Zm-40.25 34.68a3.47 3.47 0 0 0-2.05 1.62 5.77 5.77 0 0 0-.64 3 3.54 3.54 0 0 0 .88 2.59 2.11 2.11 0 0 0 2.18.34 3.6 3.6 0 0 0 1.21-.6 12 12 0 0 0 1-.82 1.46 1.46 0 0 1 .48.56 2.2 2.2 0 0 1 .2.91 2.5 2.5 0 0 1-.76 1.72 5.4 5.4 0 0 1-2.42 1.34 5.8 5.8 0 0 1-2.22.27 3.43 3.43 0 0 1-1.85-.69 4.06 4.06 0 0 1-1.28-1.74 8.1 8.1 0 0 1-.53-2.91 9.9 9.9 0 0 1 .35-3 8.8 8.8 0 0 1 1.11-2.48 7.6 7.6 0 0 1 1.72-1.84 6.8 6.8 0 0 1 2.13-1.1 3.9 3.9 0 0 1 2.52-.13 1.41 1.41 0 0 1 .93 1.36 2.3 2.3 0 0 1-.2 1 3.4 3.4 0 0 1-.51.8 3.7 3.7 0 0 0-1-.32 2.6 2.6 0 0 0-1.25.12m4.01 2.62a10 10 0 0 1 .34-3.05 9 9 0 0 1 1.12-2.48 7.5 7.5 0 0 1 1.72-1.83 7 7 0 0 1 2.18-1.11 5.15 5.15 0 0 1 2.2-.22 3.54 3.54 0 0 1 1.8.76 4.26 4.26 0 0 1 1.24 1.76 8 8 0 0 1 .52 2.79 10.7 10.7 0 0 1-.34 3 8.6 8.6 0 0 1-1.11 2.49 7.6 7.6 0 0 1-1.73 1.84 7.1 7.1 0 0 1-2.2 1.11 5 5 0 0 1-2.23.22 3.4 3.4 0 0 1-1.79-.78 4.4 4.4 0 0 1-1.22-1.78 8 8 0 0 1-.5-2.72m3.16-1a4.18 4.18 0 0 0 .73 2.67 1.56 1.56 0 0 0 1.76.43 2.9 2.9 0 0 0 1.73-1.49 6 6 0 0 0 .57-3.07 4.17 4.17 0 0 0-.72-2.66 1.57 1.57 0 0 0-1.77-.42 2.9 2.9 0 0 0-1.72 1.47 5.87 5.87 0 0 0-.58 3.11Zm17.11-1.86a2.3 2.3 0 0 1-.57.54 3 3 0 0 1-.83.4 2.5 2.5 0 0 1-1.06.12.65.65 0 0 1-.55-.49c-.36-1.14-.66-2.06-.89-2.76s-.42-1.33-.55-1.87h-.09v8.53a5 5 0 0 1-.59.36 4.5 4.5 0 0 1-.74.29 1.92 1.92 0 0 1-1.21.07c-.29-.11-.45-.42-.46-.94l.21-10.93a2.5 2.5 0 0 1 .59-.78 3.1 3.1 0 0 1 1.33-.72 2.4 2.4 0 0 1 1.47-.1 1.38 1.38 0 0 1 .8.9c.12.3.24.65.38 1.05s.27.82.4 1.24.27.86.4 1.28.25.8.35 1.14h.09q.38-1.91.75-3.69c.25-1.19.48-2.2.69-3a3.8 3.8 0 0 1 .67-.49 4.3 4.3 0 0 1 .92-.4 2.8 2.8 0 0 1 1.42-.12.82.82 0 0 1 .65.68c.06.27.12.69.19 1.26s.14 1.21.22 1.92.16 1.47.24 2.27.16 1.57.24 2.31.13 1.41.19 2 .08 1.09.11 1.42a2.8 2.8 0 0 1-.62.5 3.5 3.5 0 0 1-.83.35 2 2 0 0 1-1.13.07c-.31-.09-.49-.4-.52-.93-.12-1.51-.2-2.88-.25-4.1s-.11-2.24-.17-3.06h-.09c-.1.59-.25 1.33-.45 2.23s-.43 2.05-.71 3.45m9.81.11a7 7 0 0 1-.61.31 7 7 0 0 1-.81.31 3 3 0 0 1-.72.14.87.87 0 0 1-.54-.11.7.7 0 0 1-.33-.43 2.6 2.6 0 0 1-.13-.85l-.32-11.16.61-.3a5 5 0 0 1 .81-.32 4 4 0 0 1 .71-.15 1 1 0 0 1 .53.11.78.78 0 0 1 .33.43 2.7 2.7 0 0 1 .13.86Zm7.42-12.49a3.38 3.38 0 0 0-2 1.62 5.67 5.67 0 0 0-.64 3 3.46 3.46 0 0 0 .88 2.59 2.13 2.13 0 0 0 2.18.34 3.7 3.7 0 0 0 1.21-.61 10 10 0 0 0 .94-.82 1.44 1.44 0 0 1 .49.57 2.2 2.2 0 0 1 .19.91 2.37 2.37 0 0 1-.76 1.71 5.34 5.34 0 0 1-2.41 1.35 6.3 6.3 0 0 1-2.23.27 3.5 3.5 0 0 1-1.84-.69 4.13 4.13 0 0 1-1.28-1.74 8.3 8.3 0 0 1-.54-2.92 10.1 10.1 0 0 1 .35-3 9.1 9.1 0 0 1 1.12-2.49 7.3 7.3 0 0 1 1.71-1.84 6.7 6.7 0 0 1 2.13-1.09 3.92 3.92 0 0 1 2.52-.13 1.39 1.39 0 0 1 .94 1.36 2.2 2.2 0 0 1-.21 1 3 3 0 0 1-.5.79 5 5 0 0 0-1-.32 2.64 2.64 0 0 0-1.25.14m7.77 2.81a13 13 0 0 1-1.42-.21 2.9 2.9 0 0 1-1.11-.47 2.2 2.2 0 0 1-.75-.89 3.6 3.6 0 0 1-.29-1.5 4.8 4.8 0 0 1 1.07-3.22 6.2 6.2 0 0 1 3.19-2.06A8 8 0 0 1 234 317a3.4 3.4 0 0 1 1.12.05 1.43 1.43 0 0 1 .75.46 1.35 1.35 0 0 1 .29.88 2.4 2.4 0 0 1-.18 1 4 4 0 0 1-.49.82 3 3 0 0 0-1.05-.21 4.7 4.7 0 0 0-1.43.21 2.6 2.6 0 0 0-1.15.62 1 1 0 0 0-.35.78.47.47 0 0 0 .24.45 1.8 1.8 0 0 0 .69.16l.94.07a4.73 4.73 0 0 1 2.59.85 3 3 0 0 1 1 2.4 4.93 4.93 0 0 1-1.09 3.27 6.8 6.8 0 0 1-3.43 2.16 7.6 7.6 0 0 1-1.51.3 3.7 3.7 0 0 1-1.23-.1 1.6 1.6 0 0 1-.83-.52 1.5 1.5 0 0 1-.31-.95 2.13 2.13 0 0 1 .26-1.14 3.8 3.8 0 0 1 .64-.86 3.3 3.3 0 0 0 1.22.43 3.3 3.3 0 0 0 1.57-.13 2.4 2.4 0 0 0 1.2-.69 1.25 1.25 0 0 0 .33-.84.58.58 0 0 0-.3-.56 2.4 2.4 0 0 0-.8-.19Z" style="fill:#000"/><path d="M229.11 368.12a50.3 50.3 0 0 0 .34-10.93c-.82-9.56-8.69-20.84-18.53-21.24-26.69-1.08-27.94 39.13-18.57 54.95 3.52 5.93 7.44 13.62 14.57 15.64 6.56 1.86 11.21-5.38 13.5-10.42 3.72-8.22 7.39-18.2 8.69-28" style="fill:#fff;stroke:#263238;stroke-linecap:round;stroke-linejoin:round"/><path d="m224.11 380.69-.73 8.38a92.3 92.3 0 0 0 5.73-20.95 50.3 50.3 0 0 0 .34-10.93c-.82-9.56-8.69-20.84-18.53-21.24-26.69-1.08-27.94 39.13-18.57 54.95.32.54.65 1.09 1 1.66V381l17.54 10.26Z" style="fill:#263238;stroke:#263238;stroke-linecap:round;stroke-linejoin:round"/><path d="M203.92 394.93s7.94-1.66 10.59-1m-7.28 3.64 5.3-.66m.99-18.2 7.61-5.63s0 5-2.31 6-5.3-.37-5.3-.37m-10.59 0-7.62-5.63s0 5 2.32 6 5.3-.37 5.3-.37M36.91 366.84s-2-6.75-1-9.45 13.84-10.46 17.21-11.14 19.22 10.8 20.88 11.81 1.69 4.73 0 6.08-4 .33-4 .33-11.47-.67-13.83-.67-17.21 5.06-17.21 5.06Z" style="fill:#fff;stroke:#263238;stroke-linecap:round;stroke-linejoin:round"/><path d="M45.69 408.67s-7.09-1.68-8.78-7.08a16 16 0 0 1 .34-10.12s-2-7.43-2-10.13a14.2 14.2 0 0 1 1.68-5.73s-2.7-6.41-1.68-8.44 12.82-8.43 12.82-8.43 6.75-.68 8.1-.68 11.47 5.4 14.5 8.1 10.46 15.18 9.79 17.55-5.74 3-5.74 3L65.59 380s8.1 9.11 9.79 10.46 2 8.78-2.36 8.78-11.48-7.43-11.48-7.43l-8.09-1.68s8.09 5.06 11.13 8.43 6.07 7.09 5.4 9.79-3.37 4-5.06 2.36-9.45-9.79-9.45-9.79l-9.45 2" style="fill:#fff;stroke:#263238;stroke-linecap:round;stroke-linejoin:round"/><path d="m46.49 374.17-2.83.09M65.59 380s-8.43-6.07-10.12-6.07c-.85 0-3.84.09-6.6.17m-5.78 15.34h-2.46m12.82.68a61 61 0 0 0-6.75-.68" style="fill:none;stroke:#263238;stroke-linecap:round;stroke-linejoin:round"/><path d="M275.12 366.84s2-6.75 1-9.45-13.83-10.46-17.2-11.14-19.24 10.8-20.92 11.81-1.69 4.73 0 6.08 4.05.33 4.05.33 11.47-.67 13.83-.67 17.21 5.06 17.21 5.06Z" style="fill:#fff;stroke:#263238;stroke-linecap:round;stroke-linejoin:round"/><path d="M266.35 408.67s7.08-1.68 8.77-7.08a15.9 15.9 0 0 0-.34-10.12s2-7.43 2-10.13a14.1 14.1 0 0 0-1.69-5.73s2.7-6.41 1.69-8.44-12.78-8.43-12.78-8.43-6.75-.68-8.1-.68-11.47 5.4-14.51 8.1-10.46 15.18-9.78 17.55 5.73 3 5.73 3l9.11-6.75s-8.1 9.11-9.78 10.46-2 8.78 2.36 8.78 11.47-7.43 11.47-7.43l8.1-1.68s-8.1 5.06-11.14 8.43-6.07 7.09-5.39 9.79 3.37 4 5.06 2.36 9.44-9.79 9.44-9.79l9.45 2" style="fill:#fff;stroke:#263238;stroke-linecap:round;stroke-linejoin:round"/><path d="m265.9 374.18 2.47.08M246.44 380s8.44-6.07 10.12-6.07c.82 0 3.58.08 6.22.16m5.52 15.35h3.11m-12.82.68a60 60 0 0 1 6.75-.68" style="fill:none;stroke:#263238;stroke-linecap:round;stroke-linejoin:round"/></svg>