<svg xmlns="http://www.w3.org/2000/svg" opacity=".1" viewBox="0 0 500 500"><defs><clipPath id="a"><path d="M139.02 111.21h229.54V233.1H139.02z" style="fill:#fff;stroke:#263238;stroke-linecap:round;stroke-linejoin:round"/></clipPath></defs><path d="M244.34 234.45h18.91v20.93h-18.91z" style="fill:#263238;stroke:#263238;stroke-linecap:round;stroke-linejoin:round"/><path d="M133.25 108.15h241.07v128.02H133.25z" style="fill:#263238;stroke:#263238;stroke-linecap:round;stroke-linejoin:round"/><path d="M139.02 111.21h229.54V233.1H139.02z" style="fill:#fff"/><g style="clip-path:url(#a)"><path d="m358.57 150.82-58.03 58.02m50.37-36.05-50.37 50.38m58.03-58.03-3.46 3.46m-134.65 18.43-58.03 58.03m50.37-36.05-50.37 50.37m58.03-58.03-3.46 3.46m76.55-131.03-58.03 58.03m50.37-36.05-50.37 50.37m58.03-58.03-3.46 3.46" style="fill:none;stroke:#263238;stroke-linecap:round;stroke-linejoin:round"/><path d="m287.53 177.7-8.31 5.48v49.14h40.82v-49.7l-8.88-5.48z" style="fill:#fff;stroke:#263238;stroke-linecap:round;stroke-linejoin:round"/><path d="m295.28 187.91 3.97 6.99-5.48 28.73 6.61 7.37 7-8.32-5.48-28.16 5.1-6.8-6.43-7.75z" style="fill:#92e3a9;stroke:#263238;stroke-linecap:round;stroke-linejoin:round"/><path d="M289.8 165.42v11.34l10.4 10.39 10.96-10.77v-10.2z" style="fill:#a3a3a3;stroke:#263238;stroke-linecap:round;stroke-linejoin:round"/><path d="M289.8 170.33a21 21 0 0 0 2.27 2 16 16 0 0 0 19.09 0v-6.13l-21.36-.76Z" style="fill:#263238;stroke:#263238;stroke-linecap:round;stroke-linejoin:round"/><path d="M282.24 125.54v19.66s-4.91-3-6.42 2.46 2.27 10.2 4.34 10.39a6.4 6.4 0 0 0 3.22-.38s2.64 7.75 8.69 12.29a16 16 0 0 0 21-1.71c3.75-4 6.61-11.15 6.61-11.15s5.29 2.27 7-2.64c2.39-6.89-.37-9.26-2.08-10s-4.72.19-4.72.19 1.32-12.85 0-18.33-13.61-8.5-20.6-8.5-16.09 5.08-17.04 7.72" style="fill:#a3a3a3;stroke:#263238;stroke-linecap:round;stroke-linejoin:round"/><path d="M319.85 126.3c-1.32-5.48-13.61-8.5-20.6-8.5s-16.06 5.1-17 7.74v19.66h2.65s-.95-5.1.38-7.94 2.64-3.59 2.83-5.29-1.51-5.86-1.51-5.86h30.8s-2.08 4.35-1.13 6.43 2.08 3.78 2.08 4.72v7.18h1.51c.14-1.72 1.21-13.07-.01-18.14" style="fill:#263238;stroke:#263238;stroke-linecap:round;stroke-linejoin:round"/><path d="M298.5 146.33s-2.27 3-.57 5.86 5.86 2.84 7.94.57 0-5.29-.76-6.62" style="fill:none;stroke:#263238;stroke-linecap:round;stroke-linejoin:round"/><path d="M303.41 159.37c0 .94-.55 1.7-1.23 1.7s-1.23-.76-1.23-1.7.55-1.7 1.23-1.7 1.23.76 1.23 1.7" style="fill:#263238;stroke:#263238;stroke-linecap:round;stroke-linejoin:round"/><ellipse cx="293.11" cy="143.03" rx="1.23" ry="1.98" style="fill:#263238"/><path d="M311.44 143c0 1.09-.55 2-1.23 2s-1.23-.89-1.23-2 .55-2 1.23-2 1.23.93 1.23 2" style="fill:#263238"/><rect width="7.48" height="1.89" x="289.42" y="137.83" rx=".76" style="fill:#263238;stroke:#263238;stroke-linecap:round;stroke-linejoin:round"/><rect width="7.48" height="1.89" x="305.57" y="137.83" rx=".76" style="fill:#263238;stroke:#263238;stroke-linecap:round;stroke-linejoin:round"/><path d="m300.2 187.15-9.64 7.94-3.03-17.39 2.27-.94zm0 0 11.52 8.7 2.46-17.01-3.02-2.46z" style="fill:#fff;stroke:#263238;stroke-linecap:round;stroke-linejoin:round"/><path d="m288.67 176.95 11.71 52.16 12.67-51.78 28.15 14.17 8.13 41.39h-98.27l12.1-43.28z" style="fill:#263238;stroke:#263238;stroke-linecap:round;stroke-linejoin:round"/><path d="M264.25 150.32H136.34v-25.18h134.33z" style="fill:#92e3a9"/><path d="M157.1 134.5v.5c0 1.53-.46 2.51-1.5 3 1.25.49 1.74 1.62 1.74 3.19v1.21c0 2.3-1.21 3.53-3.55 3.53h-3.68v-14.85h3.53c2.42 0 3.46 1.13 3.46 3.42m-4.65-1.29v3.93h.91c.87 0 1.41-.38 1.41-1.57v-.83c0-1.07-.36-1.53-1.19-1.53Zm0 6v4.57h1.34c.79 0 1.21-.36 1.21-1.46v-1.3c0-1.38-.45-1.81-1.51-1.81Zm11.61 6.79a4.5 4.5 0 0 1-.22-1.83v-2.34c0-1.38-.46-1.89-1.53-1.89h-.8V146h-2.34v-14.92h3.53c2.42 0 3.46 1.13 3.46 3.42v1.17c0 1.53-.49 2.53-1.53 3 1.17.49 1.55 1.62 1.55 3.17v2.29a4.3 4.3 0 0 0 .26 1.81Zm-2.55-12.75v4.57h.91c.87 0 1.4-.39 1.4-1.58v-1.46c0-1.07-.36-1.53-1.19-1.53Zm8.97 4.1h3.21v2.13h-3.21v4.35h4V146h-6.38v-14.92h6.38v2.13h-4ZM184 146h-2.4l-.41-2.7h-2.86l-.41 2.7h-2.15l2.38-14.88h3.43Zm-5.34-4.72h2.26l-1.13-7.52Zm9.87-1.28-.72 1.36V146h-2.34v-14.92h2.34v6.48l3.06-6.48h2.34l-3.21 6.63 3.26 8.25h-2.46Zm6.17-8.92h2.3V146h-2.3Zm6.54 4.1V146h-2.1v-14.92h2.93l2.41 8.91v-8.91h2.08V146h-2.4Zm10.93 2.49h3.28v4.72c0 2.38-1.19 3.74-3.49 3.74s-3.49-1.36-3.49-3.74v-7.74c0-2.38 1.19-3.74 3.49-3.74s3.49 1.36 3.49 3.74v1.45h-2.22v-1.6c0-1.06-.46-1.46-1.21-1.46s-1.21.4-1.21 1.46v8c0 1.06.47 1.44 1.21 1.44s1.21-.38 1.21-1.44v-2.7h-1.06ZM154 161.53v17.23h-3.36V155h4.69l3.84 14.24V155h3.33v23.79h-3.84Zm15.56 3.47h5.13v3.4h-5.13v7H176v3.39h-10.2V155H176v3.4h-6.46Zm17.75 1.08L186 178.76h-5.14l-2.7-23.76h3.64l2 18.76 1.81-18.76h3.6l1.87 18.9L193 155h3.26l-2.65 23.79h-5Zm16.55-11.38c3.64 0 5.51 2.17 5.51 6v.75h-3.53v-1c0-1.7-.68-2.35-1.87-2.35s-1.87.65-1.87 2.35c0 4.9 7.3 5.81 7.3 12.61 0 3.81-1.9 6-5.57 6s-5.58-2.18-5.58-6v-1.46h3.54v1.7c0 1.7.75 2.31 1.94 2.31s1.94-.61 1.94-2.31c0-4.89-7.31-5.81-7.31-12.61 0-3.82 1.87-5.99 5.5-5.99" style="fill:#263238"/><path d="M136.34 223.91h233.09v4.44H136.34z" style="fill:#92e3a9"/></g><path d="M139.02 111.21h229.54V233.1H139.02z" style="fill:none;stroke:#263238;stroke-linecap:round;stroke-linejoin:round"/><path d="M223.17 252.18h61.24v4.56h-61.24zM90.98 236.91l-4.19 19.21h11.17z" style="fill:#263238;stroke:#263238;stroke-linecap:round;stroke-linejoin:round"/><path d="M116.45 217.01H84.68l9.81 39.45h31.77z" style="fill:#263238;stroke:#263238;stroke-linecap:round;stroke-linejoin:round"/><path d="M113.92 221.55H89.46l7.56 30.38h24.46z" style="fill:#fff;stroke:#263238;stroke-linecap:round;stroke-linejoin:round"/><path d="M413.91 239s-23.88-36.41-20.3-44.77 16.12 6 16.12 6-18.5-48.95-6-59.7 16.72 44.18 16.72 44.18S431.82 153 440.77 165 427 202 427 202s15.53.6 11.35 10.74-15.52 20.9-15.52 20.9Z" style="fill:#92e3a9"/><path d="M409.07 231.09s-14.84-13.94-15.29-20.24 9.44 1.35 13.49 4.05-10.34-17.54-9.89-32.38 8.54-9 11.24-2.69 4.05 12.14 5.4 13.49 3.59-10.35 9.44-7.2c9.34 5-5.85 22-2.7 25.18s10.34-13.49 13.94-4.49S423 232 423 232m-4.49-1.81-11.24-33.73m5.4 16.64 4.49-10.34" style="fill:none;stroke:#263238;stroke-linecap:round;stroke-linejoin:round"/><path d="m403.67 219.85 12.59 3.15 6.3-4.5" style="fill:none;stroke:#263238;stroke-linecap:round;stroke-linejoin:round"/><path d="M431.82 228.25h-31.64l3.16 28.06h25.32z" style="fill:#263238;stroke:#263238;stroke-linecap:round;stroke-linejoin:round"/><path d="M74.52 256.73H446v150.88H74.52z" style="fill:#fff;stroke:#263238;stroke-linecap:round;stroke-linejoin:round"/><path d="M85.01 277.42H256.1v52.93H85.01zm180.17 0h171.09v52.93H265.18zm-180.17 65H256.1v52.93H85.01zm180.17 0h171.09v52.93H265.18z" style="fill:#fff;stroke:#263238;stroke-linecap:round;stroke-linejoin:round"/><path d="M74.52 259.58H446v10.77H74.52z" style="fill:#263238;stroke:#263238;stroke-linecap:round;stroke-linejoin:round"/><path d="M74.52 256.73H446v10.77H74.52z" style="fill:#5e5e5e;stroke:#263238;stroke-linecap:round;stroke-linejoin:round"/><path d="M332.85 266.54s-3.85 6.63-3.85 10.22 1.93 6.63.55 9.39-1.66 5-.28 11.6 3.87 14.64 7.74 14.92 10.77.27 10.77.27a14.6 14.6 0 0 1 .27 9.39c-1.65 4.7-9.94 10.22-18 14.64s-23.2 9.12-26.51 14.36-6.08 14.09-6.08 14.09h120.73a107 107 0 0 0-8-16c-4.69-7.46-13.53-10.22-24.3-17.95s-13.26-19.89-13.26-27.9-1.1-27.62-12.15-37-24.31-4.45-27.63-.03" style="fill:#fff;stroke:#263238;stroke-linecap:round;stroke-linejoin:round"/><path d="M410.18 349.4c-4.69-7.46-13.53-10.22-24.3-17.95a30.5 30.5 0 0 1-4.56-4.05c-4.74 4.44-12.66 9.67-23.33 9-9-.55-15-2.86-18.75-5.05a104 104 0 0 1-9.15 5.6c-8 4.42-23.2 9.12-26.51 14.36s-6.08 14.09-6.08 14.09h120.69a107 107 0 0 0-8.01-16" style="fill:#92e3a9;stroke:#263238;stroke-linecap:round;stroke-linejoin:round"/><path d="M352.74 243.62s-1.66-5.8-10.22-5.25-9.39 9.95-11.6 11.6-8.84.56-9.67 8.56 3 11.33 9.39 11.33 4.7 1.38 6.36 8.84 4.14 8.56 8 9.11 6.36.28 5.25 5-.83 9.39 2.21 13.26 12.15 6.9 21 2.76 14.64-11.88 16-30.1-3.87-24.86-9.67-27.07-7.18-2.76-8.83-5 .27-6.35-6.91-6.35a19.14 19.14 0 0 0-11.31 3.31" style="fill:#5c5c5c;stroke:#263238;stroke-linecap:round;stroke-linejoin:round"/><path d="M346.45 282.76a11.2 11.2 0 0 0 5.34.69M330.3 256.8s-5.14 6.59-1.29 8.17 9.45-3.87 11.6 4.72c1 4 1.5 7.42 2.68 9.84" style="fill:none;stroke:#263238;stroke-linecap:round;stroke-linejoin:round"/><path d="M385.33 276.49s-2.49-12.43-12.71-14.64-12.15 9.11-11.6 21-2.48 12.7-5.8 22.09 8 9.39 5.53 15.47-8 8-4.7 14.09 10.5 2.76 9.39 11 7.74 17.68 18.78 14.09 17.4-10.5 17.13-22.92-10.22-18.51-7.74-25.69 6.36-8.56 3.59-15.74-11.32-7.71-11.87-18.75" style="fill:#5c5c5c;stroke:#263238;stroke-linecap:round;stroke-linejoin:round"/><path d="M366.42 282.77a15.8 15.8 0 0 0 1.7 4.55c4.73 8.16-9 15.9-6.45 20.2s14.62 8.59 7.31 16.33-2.58 12.46 1.72 15.47-4.73 7.31 0 12 12.46 8.16 19.77.43m-22.78-85.92a42 42 0 0 0-1.26 5.52" style="fill:none;stroke:#263238;stroke-linecap:round;stroke-linejoin:round"/><path d="M139.58 325.1s-29 13-35.91 15.74S87.93 345 85.72 350s-3.86 16.3-3.86 16.3h155.49s-7.18-18.51-13.26-22.93-25.68-9.11-34.52-12.42-10.5-5-15.19-5.53-34.8-.32-34.8-.32" style="fill:#92e3a9;stroke:#263238;stroke-linecap:round;stroke-linejoin:round"/><path d="M178 260.19s5 7.46 4.42 10.77-1.94 5.25-1.11 7.46 3.59 3 4.15 7.73 1.65 16-.83 19.06-13 5.8-13 5.8v10.77l-28.17-1.1v-18.23s-3.87-5-3.87-17.68 17.12-24.3 23.48-27.34 14.93 2.76 14.93 2.76" style="fill:#fff;stroke:#263238;stroke-linecap:round;stroke-linejoin:round"/><path d="M176.31 263.51s3.32 6.62.83 9.11-5 2.76-4.69 5.8.55 5-1.66 6.35-4.14.83-4.42 2.49 1.1 14.08-4.14 19.05-17.13 5.53-21.82.56-15.47-20.44-19.34-31.76 10.5-20.17 13.26-21.27 6.63-.55 7.46-4.7 2.76-7.73 9.94-9.66 12.71 7.73 16 6.63 7.18-7.18 14.09-3.59 5.52 14.91 2.21 18a12.62 12.62 0 0 1-7.72 2.99" style="fill:#263238;stroke:#263238;stroke-linecap:round;stroke-linejoin:round"/><path d="m188.46 273.17-23.47 11.6" style="fill:#fff;stroke:#263238;stroke-linecap:round;stroke-linejoin:round"/><path d="M182.11 272.62s8-.28 7.74 1.38 0 8-1.66 9.12a2.88 2.88 0 0 1-2.76.55" style="fill:none;stroke:#263238;stroke-linecap:round;stroke-linejoin:round"/><path d="m139.58 317.36-3.32 9.39 45.3 1.11s-4.14-8.84-8-10.22-28.73-1.93-33.98-.28" style="fill:#92e3a9;stroke:#263238;stroke-linecap:round;stroke-linejoin:round"/><path d="M173 287.26s-5.53-9.12-9.67-5.25-.83 11.6 2.49 15.19 5.8 1.66 7.45-.55" style="fill:#fff;stroke:#263238;stroke-linecap:round;stroke-linejoin:round"/><path d="M45.53 358h417.58a16.08 16.08 0 0 1 16.08 16.08v66.47H29.45V374.1A16.08 16.08 0 0 1 45.53 358" style="fill:#707070"/><path d="M45.53 390.43h417.58a16.08 16.08 0 0 1 16.08 16.08v54.32H29.45v-54.31a16.08 16.08 0 0 1 16.08-16.09" style="fill:#3d3d3d"/></svg>