<svg xmlns="http://www.w3.org/2000/svg" opacity=".1" viewBox="0 0 750 500"><path d="M630.08 65.49C580.37 35.83 524 23.54 467.58 15.83a414.13 414.13 0 0 0-231.22 35.8C215.93 61.28 196.2 78.54 173.94 83l22.36-31.63c4.3-6.08 8.53-14.8 3.56-20.33-2-2.26-5.11-3.2-8.09-3.64-11.51-1.72-23.06 2.51-33.5 7.71-48.1 24-87.38 68.63-117.24 112.83-49.29 72.93-43.81 192.64 12.51 251.3s176.8 87.21 226.86 80.87c38-4.82-2.94-27.71-11.35-41.59a7.24 7.24 0 0 1-1.36-4c.1-2.43 2.29-4.17 4.36-5.39 17.36-10.23 39.56-7.22 58.78-8.75a788 788 0 0 1 92-2.3c4.16.16 52.21 1.32 48.4 11.25-3 7.89-15 14.27-21.23 19.1-4.82 3.7-36 25.19-27 32.53 2.49 2 5.86 2.44 9 2.76 52.63 5.17 106.8 3.58 158.63-7.54 45.14-9.69 95-25.44 121.89-66.36 27.47-41.72 29.15-97.45 18.67-145a232.5 232.5 0 0 0-9.92-33.3c-3.85-10-10-18.5-15.07-27.87-2.06-3.78-3.48-8.34-2-12.39 6.54-17.85 25.54 17.76 30.72-1.37 2.51-9.28-2.34-23.06-5.41-31.82-5.55-15.8-14.94-30-26.18-42.23-21.4-23.33-46.87-34.6-73.25-50.35" style="fill:#92e3a9"/><path d="M630.08 65.49C580.37 35.83 524 23.54 467.58 15.83a414.13 414.13 0 0 0-231.22 35.8C215.93 61.28 196.2 78.54 173.94 83l22.36-31.63c4.3-6.08 8.53-14.8 3.56-20.33-2-2.26-5.11-3.2-8.09-3.64-11.51-1.72-23.06 2.51-33.5 7.71-48.1 24-87.38 68.63-117.24 112.83-49.29 72.93-43.81 192.64 12.51 251.3s176.8 87.21 226.86 80.87c38-4.82-2.94-27.71-11.35-41.59a7.24 7.24 0 0 1-1.36-4c.1-2.43 2.29-4.17 4.36-5.39 17.36-10.23 39.56-7.22 58.78-8.75a788 788 0 0 1 92-2.3c4.16.16 52.21 1.32 48.4 11.25-3 7.89-15 14.27-21.23 19.1-4.82 3.7-36 25.19-27 32.53 2.49 2 5.86 2.44 9 2.76 52.63 5.17 106.8 3.58 158.63-7.54 45.14-9.69 95-25.44 121.89-66.36 27.47-41.72 29.15-97.45 18.67-145a232.5 232.5 0 0 0-9.92-33.3c-3.85-10-10-18.5-15.07-27.87-2.06-3.78-3.48-8.34-2-12.39 6.54-17.85 25.54 17.76 30.72-1.37 2.51-9.28-2.34-23.06-5.41-31.82-5.55-15.8-14.94-30-26.18-42.23-21.4-23.33-46.87-34.6-73.25-50.35" style="fill:#fff;opacity:.8"/><path d="M6.28 377.04h731.77m-708.15.59L3.62 395.74m56.6-18.11L9.39 415.99m47.12-9.97L8.86 445.76m81.68-68.13-27.81 23.19m58.13-23.19L10.45 480.55m140.73-102.92L40.53 494.53m140.97-116.9L81.45 499.59m65.81-28.95-20.1 28.95m84.66-121.96-59.39 85.55m89.71-85.55-69.27 121.96m99.59-121.96-53.88 121.96m52.69-22.11-6.97 22.11m38.47-121.96-29.52 93.57m59.84-93.57-23.08 121.96m46.14-6.76-.43 6.76m7.69-121.96-6.94 110.09m37.26-110.09 7.7 121.96m38.36-38.84 7.35 38.84m-23.09-121.96 14.85 78.4m15.47-78.4 38.48 121.96m-8.16-121.96 53.87 121.96m-23.55-121.96 69.27 121.96m34.84-15.65 10.87 15.65m-84.66-121.96L615.9 479.3m-40.25-101.67L675.7 499.59m-69.73-121.96L720.09 498.2m-83.8-120.57 100.41 93.6m-70.09-93.6 75.34 62.84m-45.02-62.84 44.85 33.85m-14.53-33.85 20.78 14.32M274.24 202.67l-24.05 43.18 33.63 36.22-48.5-9.53-24.06 43.18-5.92-49.08-48.5-9.53 44.85-20.79-5.93-49.07 33.64 36.22zm207.1-13.2-76.63 25.14.24 80.65-47.6-65.1-76.63 25.14 47.22-65.39-47.6-65.1 76.78 24.69 47.21-65.38.24 80.65zm85.79 2.52-24.6 33.15 23.93 33.63-39.13-13.14-24.59 33.16.41-41.28-39.13-13.14L503.4 212l.41-41.28 23.93 33.63zM460.17 337.22l-13.5 8.37 3.78 15.43-12.13-10.25-13.51 8.37 6.01-14.71-12.14-10.26 15.85 1.17 6.01-14.71 3.78 15.43zM239.52 110.98 229 122.56l7.76 13.58-14.26-6.43-10.52 11.58 1.71-15.55-14.27-6.43 15.32-3.18 1.7-15.55 7.76 13.58zm103.69-92.13s-82.43 61.58-135.64 75.47S94.37 78 69.89 30.07" style="fill:none;stroke:#263238;stroke-linecap:round;stroke-linejoin:round"/><path d="M298.19 27.8c-15.43 9.79-46.73 27.89-84.5 40C159.64 85.14 129 61.68 129 61.68m179.54-40.79s-1.89 1.37-5.4 3.7" style="fill:none;stroke:#263238;stroke-linecap:round;stroke-linejoin:round"/><path d="M245.58 32.18c-22.87 13.3-55.68 30.7-73.7 32.56-29.58 3.06-59.15-35.69-59.15-35.69M270.8 16.81s-6.56 4.25-16.51 10.19" style="fill:none;stroke:#263238;stroke-linecap:round;stroke-linejoin:round"/><path d="M176.29 51.44a23.6 23.6 0 0 1-5.43 1.06c-17.34 1-20.4-7.14-20.4-7.14M229 18.85s-25.66 20.52-44.92 29.53M61.31 20.89l23.06 333.88a40.2 40.2 0 0 1-11.93 6.36l-7.15 2.39s-1.59 4-11.13 8.74-15.11 6.36-21.47 4l-6.36-2.39m33.74-88.12L44.62 55.08m20.67 308.44-4.3-64.13m-38.63 45.85 3.18-303.68m10.33 55.28v11.5m0-87.45v64.88m17.55-22.11.74 12.09m-3.18-52.47 1.74 28.73M408.4 18.85S490.83 80.43 544 94.32 657.24 78 681.72 30.07" style="fill:none;stroke:#263238;stroke-linecap:round;stroke-linejoin:round"/><path d="M481 43.68a363 363 0 0 0 57 24.12c54.05 17.34 84.65-6.12 84.65-6.12M443.07 20.89a323 323 0 0 0 30.17 18.64" style="fill:none;stroke:#263238;stroke-linecap:round;stroke-linejoin:round"/><path d="M572.48 63.39a52 52 0 0 0 7.25 1.35c29.58 3.06 59.15-35.69 59.15-35.69M480.81 16.81s51.76 33.49 84.91 44.58" style="fill:none;stroke:#263238;stroke-linecap:round;stroke-linejoin:round"/><path d="M522.62 18.85s40.8 32.63 58.13 33.65 20.4-7.14 20.4-7.14m89.15-24.47-23 333.88a40.2 40.2 0 0 0 11.92 6.36l7.15 2.39s1.59 4 11.13 8.74 15.11 6.36 21.47 4l6.36-2.39m-21.8-267.13 3.46-51.66m-20.67 308.44 16.31-243.35m26.62 225.07-3.18-303.68m-10.33 56.51v10.27m0-87.45v67.95m-15.91-52.23-2.38 39.14m3.18-52.47-.46 7.63M289.46 56.67s84.27 38.15 172.51 0m-48.7-7.55A195 195 0 0 0 438.12 44m-120.83 0s39.93 10.84 86.71 6.23m-62.07-19.8s38.16 11.13 67.57 0" style="fill:none;stroke:#263238;stroke-linecap:round;stroke-linejoin:round"/><path d="M566.32 262.12s-1.54 42.66-1.23 45.75-4.33 68.63-4.33 68.63l-1.24 20.09-3.71 3.4s-.92 6.8-.92 8-4 5.87-5.57 8-11.75 7.11-8.35 10.51 13 4 16.7 3.09 9.58-5.57 9.58-5.57 7.11-.3 8.66-3.7 1.54-11.75 1.54-11.75 9.28-44.13 9.55-47.57 19.17-85 19.17-85l13.29 127.36s-2.46 5.64-1.82 7.14 1.85 11.13 1.85 11.13-.62 1.86 6.49 3.71 9.28 4 15.77 5.57 15.77-.62 13-5-12.36-9-14.22-10.82-1.85-8.35-1.85-9.27a44 44 0 0 0-1.55-5.57l9-159.51-3.13-8.29-67.08-.31Z" style="fill:#263238;stroke:#263238;stroke-linecap:round;stroke-linejoin:round"/><path d="m598.6 133.05-9.28 7.29s7.29 12.14 11.93 37.32a231.6 231.6 0 0 1 3.56 47.45l-5.11 23.22s16.57 4.2 25.62 2.65a38.5 38.5 0 0 0 15.24-6.18l3.76-6.19s-8-55.21-13.48-68.24-7.5-32.68-7.5-33.35-20.76-6.18-24.74-3.97" style="fill:#fff;stroke:#263238;stroke-linecap:round;stroke-linejoin:round"/><path d="m607.31 143.38 3.81 6.3s0 44.75-1.49 50.89S607 218.3 607 218.3l5.47 11.6 6.63-9.44s-1-10.78-.67-32.16a152.2 152.2 0 0 0-4.8-39.45l1.32-7.29-5.63-6Z" style="fill:#263238;stroke:#263238;stroke-linecap:round;stroke-linejoin:round"/><path d="m660.22 138.06 5.67 19.07L645.3 136l-27.5-2.35 6.5 16.17 5.25 29.18s6.22 36.62 10.22 48.92 12.16 31.23 14.1 34 11.47 9.26 11.47 9.26l2.9-21.42s-9.54-31.5-13.68-44.77a185.6 185.6 0 0 1-5.94-25.7s27.49 4.7 31.36 4.15a9.41 9.41 0 0 0 7.33-6.5c.55-2.49.55-9.95-.83-13.82s-4-16-6.64-21.41a62 62 0 0 0-5.94-9.71Z" style="fill:#92e3a9;stroke:#263238;stroke-linecap:round;stroke-linejoin:round"/><path d="M665.89 157.13s-4.39 9.15-2.41 11.13 3.62 4 3.62 4m-7.57-2.68s5.6 5.27 8.56 6.26M626.9 136.3s5 21.09 4.62 29.65m17.1 13.29-6.16-30.01m4.51 19.95v-17.05" style="fill:none;stroke:#263238;stroke-linecap:round;stroke-linejoin:round"/><path d="M609.9 139.74 604.05 153s-11.57-16.29-11.57-17.19 1.69-3.82 3.26-4.49a28 28 0 0 1 3.26-1.12s18.42-2.25 19.32-1.69a8.15 8.15 0 0 1 2.92 3.26c.34 1.12 3.93 19.54 3.93 19.54Z" style="fill:#fff;stroke:#263238;stroke-linecap:round;stroke-linejoin:round"/><path d="m595.74 122 1 11.79s11.57 7.75 13.71 7.53 8.2-9.66 8.2-9.66l-1.57-9.89Z" style="fill:#fff;stroke:#263238;stroke-linecap:round;stroke-linejoin:round"/><path d="m605.2 126.53-8.45 7.26-1.01-11.79z" style="fill:#263238;stroke:#263238;stroke-linecap:round;stroke-linejoin:round"/><path d="M599.73 84.18s-9.25 3.39-10.16 10.61.91 23 3.84 26.18 6.1 8.13 15.13 6.55 12.19-7.22 12.64-11.06.9-19.41-2.49-26.41-16.25-7.9-18.96-5.87" style="fill:#fff;stroke:#263238;stroke-linecap:round;stroke-linejoin:round"/><path d="M589.56 107.5s-2.47-1.23-2.69 1.35 4.27 7.42 4.27 7.42Z" style="fill:none;stroke:#263238;stroke-linecap:round;stroke-linejoin:round"/><path d="M621.69 104.92s2.14-1.24 2.81 1.8-3 7.86-3 7.86Z" style="fill:#fff;stroke:#263238;stroke-linecap:round;stroke-linejoin:round"/><path d="M602.59 112.11s2.48 1.68 4.27 1a5.84 5.84 0 0 0 2.36-1.35m-7.97 5.97s4.83 1.79 8.87-1.13M595.07 106s2.47 1.58 6.18-.67m8.53-.86a5.38 5.38 0 0 0 5.85-.34M593.94 103s3.82-2.81 8.09-2m5.73-.8s5.62-1.23 8.54 1.57" style="fill:none;stroke:#263238;stroke-linecap:round;stroke-linejoin:round"/><path d="m589.56 107.5 2.59.68a5 5 0 0 1-.45-4.83 16 16 0 0 1 3.14-4.83l-1.79-2.81 3.82.56-2.81-4.94s1.79 1.68 8 2.81a101 101 0 0 0 12.7 1.34l-1.24-4.15 3.37 3.14.11-1.79s1.35 3.25 1.8 4.94a35 35 0 0 1 1.35 5.5c0 1.13.22 2.7.22 3s1.46-2.14 1.8-2.81-.79-6.07-.79-6.07l2.14-1.68-2.14-3a6.63 6.63 0 0 0-2.8-6.18 26.7 26.7 0 0 0-7.64-3.93l1.79-.9a11 11 0 0 0-7-.67c-4.38.79-8.65 2.25-11.12 4a21.8 21.8 0 0 0-3.6 3.15 5.73 5.73 0 0 0-3.25 6.29c.57 4.87.79 11.5 1.8 13.18" style="fill:#263238;stroke:#263238;stroke-linecap:round;stroke-linejoin:round"/><path d="M592.48 135.81s8.6 14.27 12.33 26.57 6.64 43.11 6.5 46.71-3.18 32.88-6.08 44.49-11.88 25.29-14 25.42-30-14.37-30-14.37l10.78-32-1.52-1.11 5.94-14 4.7-24.18s-16.72-37.44-15.89-39.51 24.45-15.48 24.45-15.48Z" style="fill:#92e3a9;stroke:#263238;stroke-linecap:round;stroke-linejoin:round"/><path d="M589.32 140.34s8.92 33.52 11.88 46.37a175 175 0 0 0 7.58 24.06m-36.71 21.81 18.1 7.16" style="fill:none;stroke:#263238;stroke-linecap:round;stroke-linejoin:round"/><path d="M721.59 339.78c-.66-20.33.66-26.14-2-27.11s-6.91 1.29-12.82-3.87-10.49-16.8-11.15-26.47 0-12.26 3.62-13.88 5.58.65 6.57-1.93 3-27.12-2-42.29-14.14-21.94-18.74-24.52-14.14-4.2-16.77-7.43-3.94-7.42-5.58-6.45h0l-16.35-4-.71 9.77 9.06 2.18c-5.57 5.46-13.19 12.73-19.94 18.48-12.49 10.65-17.42 35.83-17.09 51s3.28 21.95 4.93 22.27 4.27-3.23 6.24 1 3 23.24 1.32 32.6-11.51 7.42-12.82 10-9.54 41 1 64.23 34.52 35.82 53.26 33.24 31.23-15.81 38.46-26.46 12.17-40.03 11.51-60.36" style="fill:#263238;stroke:#263238;stroke-linecap:round;stroke-linejoin:round"/><path d="M646.39 181.86s-15.45 16.14-27.95 26.95-17.42 36.5-17.09 51.95 3.29 22.35 4.93 22.68 4.27-3.29 6.25 1 3 23.67 1.31 33.2-11.5 7.56-12.82 10.19-9.53 41.75 1 65.42 34.52 36.49 53.25 33.86 31.24-16.1 38.47-27 12.16-40.77 11.5-61.48.66-26.63-2-27.61-6.9 1.31-12.82-3.95-10.52-17.09-11.18-27 0-12.49 3.62-14.13 5.59.65 6.57-2 3-27.61-2-43.06-14.13-22.36-18.74-25-14.13-4.27-16.76-7.56-3.93-7.45-5.54-6.46" style="fill:#bdbdbd;stroke:#263238;stroke-linecap:round;stroke-linejoin:round"/><path d="M651.45 42.24a7.65 7.65 0 0 0-5.07 7.35c0 5.78 3 10.15 5.25 11.55s5.77.7 5.77.7a8 8 0 0 1-1 3.85c-1.05 1.57-9.1 6.3-11.72 12.25s-2.1 14.52-2.1 14.52 17.71 3.82 18.12 1.54c1.21-6.67 6.32-32 6.32-35a14.18 14.18 0 0 0-6.64-12.42c-5.95-3.81-8.93-4.34-8.93-4.34" style="fill:#263238;stroke:#263238;stroke-linecap:round;stroke-linejoin:round"/><path d="M659.44 60.42s-10.86-3.79-9.85-14.9c.72-7.86 14.9-2.27 18.18 5.56s4.9 14.6-1 24C662.3 82.14 660.7 94 660.7 94l-12.2-1.64s.08-9.72 3.36-16.54 7.83-11.82 7.58-15.4" style="fill:#bdbdbd;stroke:#263238;stroke-linecap:round;stroke-linejoin:round"/><path d="M659.44 60.42s4.29-.76 5.55-3.79" style="fill:#fff;stroke:#263238;stroke-linecap:round;stroke-linejoin:round"/><path d="m642.53 92.46-22.4 174.21 14.01-.29 14.69-172.89z" style="fill:#263238;stroke:#263238;stroke-linecap:round;stroke-linejoin:round"/><path d="M658.47 287.45s1.57.14 1.43 1.57-1.43 2.85-2.85 2.14-1.72-3.28-.15-6 6.71-4.28 10.27.28c1.88 2.41 2.86 10.84 2.86 17.69s1 15.12 2.71 18.26 4.13 2.57 5.42 1.85a5.7 5.7 0 0 0 2-2s-2.42-2.71-1.42-4.43 4.28-2.14 4.56.72-2.56 6.27-4.56 7.27a6.92 6.92 0 0 1-8.56-2.57 23.7 23.7 0 0 1-3.71-10.84c-1-8.13.43-17-.14-20.11s-1-4.85-2.85-6-3.87-.28-5.01 2.17m-29.39 8.98s-1.12.15-1 1.64 1 3 2 2.25 1.22-3.44.1-6.29-4.76-4.48-7.3.3c-1.34 2.53-2 11.38-2 18.56s-.71 15.86-1.92 19.15-2.94 2.7-3.86 1.95a5.8 5.8 0 0 1-1.42-2.1s1.73-2.84 1-4.64-3-2.24-3.25.75a10.47 10.47 0 0 0 3.25 7.63c1.42 1.05 4.46 1.05 6.08-2.69a33.2 33.2 0 0 0 2.64-11.37c.7-8.53-.31-17.81.1-21.1s.71-5.09 2-6.29 2.76-.3 3.58 2.25" style="fill:#263238"/><path d="m640.47 307.11 12.71 1.43-.28-3.68-12.76-1.69zm-27.29 2.96 17.66 2.44 2.96-.91-.91-2.05-3.87-1.14zm27.45 34.56L624 348.5s3.64 15.26 7.74 23 9.11 25.74 11.39 35.76 3.42 13 5.92 13.44 3.87-1.37 3.87-6.15-5.92-27.34-7.06-38.95-3.4-26.87-5.23-30.97" style="fill:#263238;stroke:#263238;stroke-linecap:round;stroke-linejoin:round"/><path d="m623.79 266.49-4.7 38.21" style="fill:none;stroke:#263238;stroke-linecap:round;stroke-linejoin:round"/><path d="m645.1 93.07-21.31 173.42" style="fill:none;stroke:#fff;stroke-linecap:round;stroke-linejoin:round"/><path d="m629.77 265.81-3.9 38.65" style="fill:none;stroke:#263238;stroke-linecap:round;stroke-linejoin:round"/><path d="m647.16 93.11-17.39 172.7" style="fill:none;stroke:#fff;stroke-linecap:round;stroke-linejoin:round"/><path d="m618.67 266.46-5.49 39.99" style="fill:none;stroke:#263238;stroke-linecap:round;stroke-linejoin:round"/><path d="m642.53 92.46-23.86 174" style="fill:none;stroke:#fff;stroke-linecap:round;stroke-linejoin:round"/><path d="m613.18 310.07 10.83 38.43m-5-39.04 10.95 37.5m-4.21-37.92 9.9 37.29" style="fill:none;stroke:#263238;stroke-linecap:round;stroke-linejoin:round"/><path d="m634.33 266.39 14.5-172.9" style="fill:none;stroke:#fff;stroke-linecap:round;stroke-linejoin:round"/><path d="m639.23 344.22-8.43-35.81 3.53-42.02" style="fill:none;stroke:#263238;stroke-linecap:round;stroke-linejoin:round"/><path d="m613.18 306.45 26.96-3.28.33 3.94-27.29 2.96z" style="fill:none;stroke:#263238;stroke-linecap:round;stroke-linejoin:round"/><path d="m667.11 461.62.41-6.7a2.46 2.46 0 0 1 2.22-2.15h0a2.34 2.34 0 0 1 2.67 1.67l1.48 6.68s-.74.83-3.39 1.3-3.39-.8-3.39-.8" style="fill:#263238;stroke:#263238;stroke-linecap:round;stroke-linejoin:round"/><path d="m668.68 435.47 1.39 19.88" style="fill:none;stroke:#263238;stroke-linecap:round;stroke-linejoin:round;stroke-width:2px"/><path d="m664.56 426.11 1.56 7.4a2.49 2.49 0 0 0 2.56 2h0a2.48 2.48 0 0 0 2.35-2.38l.29-7.74s-.87-.79-3.55-.79-3.21 1.51-3.21 1.51" style="fill:#263238;stroke:#263238;stroke-linecap:round;stroke-linejoin:round"/><path d="M666.12 433.51s3.39-1.88 4.91-.42v.48a2.43 2.43 0 0 1-2.07 2.6h0a2.43 2.43 0 0 1-2.73-1.95Z" style="fill:#fff;stroke:#263238;stroke-linecap:round;stroke-linejoin:round"/><path d="M568.75 150.91s-5.8 1.52-6.08 6.64-1 17.55-.33 24.18 4.75 26 10 32.47 19.07 24.73 23.08 25.56 10.64-5.94 11.33-10.64-2.21-7.05-2.63-7.74-17.27-22.66-17.27-22.66.42-2.35-.28-3.45-1.38-2.49-1.38-2.49.69-12.85-3.59-23.21-9.81-14-9.81-14" style="fill:#92e3a9;stroke:#263238;stroke-linecap:round;stroke-linejoin:round"/><path d="M604.81 225.11s-7.32.56-8.7 4.43-1.8 7.18.41 8.84 4.29 1.11 6.64.14 7.18-7.6 6.21-9.67a6 6 0 0 0-4.56-3.74" style="fill:#fff;stroke:#263238;stroke-linecap:round;stroke-linejoin:round"/><path d="M604.54 227.88s-4.42 1.66-5 4.42-1 2.63.28 4.56 4.28 5.25 4.7 6.63 1.1 6.77 1.52 8 .14 3.59 1.38 3.87 2.35.41 2.07-1.11-.55-3.59-.55-3.59 2.9 2.21 4.28 1a4.76 4.76 0 0 0 1.38-4.14c-.13-1.11-.13-3.18-.13-3.18l4.28 3.32s.55 8.7 1.93 10.08 4.84 1.94 4.43-1-2.08-6.5-2.08-8.29a21 21 0 0 0-1.1-5 43 43 0 0 1 4.7 3.59c1.38 1.39 2.07 6.5 3.86 6.64s1.8-2.77.7-5.67-1.52-4.83-3.46-6.49-9.81-6.36-11.61-7.46-6.08-5.53-7.73-5.95a15.4 15.4 0 0 0-3.85-.23" style="fill:#fff;stroke:#263238;stroke-linecap:round;stroke-linejoin:round"/><path d="M614.62 247.5a37 37 0 0 0-1-6.91m8.33 2.9-3.73-4.97M609 250.68s1.52-1.38 1.38-2.77-1.24-7-1.24-7" style="fill:none;stroke:#263238;stroke-linecap:round;stroke-linejoin:round"/><path d="M668.1 127.29s-8.71 5.52-8.43 7.18-.28 5.8 3.87 8 7.74.7 8.43-1.1 3.59-6.63 1.93-9.4-4.42-6.07-5.8-4.68" style="fill:#fff;stroke:#263238;stroke-linecap:round;stroke-linejoin:round"/><path d="M655.11 111.81c-1.38-1.11-10-7-10.92-7s-10.22.42-10.08 1.52 4.14 1.8 4.14 1.8-.83 4.56-.83 5-3.31 3.18-2.76 4.42 5.25-1.1 5.25-1.1H645l1.39 1.52-3 2.62s-4.7 1.94-6 2.22-4.28 1.24-2.9 2.76 10-.69 10-.69 3.46-1 4.15-.55 5.8 6.08 8.15 7a8.7 8.7 0 0 0 3.45.83c.69.14 2.9 2.35 4 2.35a3.91 3.91 0 0 0 3.18-2.76 24.5 24.5 0 0 0 .83-3.6s-11.76-15.24-13.14-16.34m-11.05.69h-3.32l3.59-2.35s3.6.83 3.73 1.8l.14 1s-3.31-.45-4.14-.45" style="fill:#fff;stroke:#263238;stroke-linecap:round;stroke-linejoin:round"/><path d="m637.42 113.05 3.32-.55m-2.49-4.42 5.94-3.32m4.01 8.15 5.11 2.08m-5.66 4.56a6 6 0 0 1 2.9-1.11 8.6 8.6 0 0 1 2.76.55" style="fill:none;stroke:#263238;stroke-linecap:round;stroke-linejoin:round"/><path d="M478.56 319s.77 37 2.7 54.69 5.2 55.08 5 57.77-4.82 8.09-4.82 11.56 3.08 3.66 6.93 4 9.83-6 10.6-7.89a23.7 23.7 0 0 0 1.15-4.24s1.54 1.35 2.12-1.54 2.32-14.35 1.76-17.64-2.5-3.46-4-6.54-2.12-8.48-2.12-12.33 3.08-15.6 3.66-24.84-2.89-23.88-2.89-23.88l1.54-20.22Z" style="fill:#fff;stroke:#263238;stroke-linecap:round;stroke-linejoin:round"/><path d="M482 445.09c3.22.72 8.49.3 9.48-.68 1.15-1.16-.39-1.16-3.66-2.12a9.1 9.1 0 0 0-6.36.77l.42-2.09a20 20 0 0 1 1.24-2.73h7.2a27.5 27.5 0 0 1 6.16 1.35 18.3 18.3 0 0 0 3.85-6 31.52 31.52 0 0 0-.19-20.41 71 71 0 0 1-9.24 3.47 17 17 0 0 1-5.61.12q-.11-1.26-.21-2.58c1.75.33 5.19.84 7.55.14a42 42 0 0 0 7.95-4.11c1.39 2.1 2.91 2.62 3.41 5.46.58 3.28-1.15 14.83-1.73 17.72s-2.12 1.54-2.12 1.54a23.7 23.7 0 0 1-1.15 4.24c-.77 1.92-6.74 8.28-10.6 7.89-2.9-.26-5.39-.44-6.39-1.98" style="fill:#263238;stroke:#263238;stroke-linecap:round;stroke-linejoin:round"/><path d="M504 327.71s-4.05 10.8-3.86 13.5 9.84 11.58 11.39 23.35 6.36 35.51 7.71 41.88 6.18 8.1 6.37 13.89-3.08 25.86-3.08 25.86-3.09 1.15-2.51 0 1.54-12.74 1.35-13.51-3.67 10.23-3.86 13.51-7.72 7.14-10.42 7.71-12.74-.77-13.12-3.08 4.44-6.37 5.4-9.84 6-22.19 5.6-27.6-12.19-34.54-16.24-45.38-16-26.05-16.79-32.81 4.24-15.19 4.24-15.19Z" style="fill:#fff;stroke:#263238;stroke-linecap:round;stroke-linejoin:round"/><path d="M493.94 450.82a1.9 1.9 0 0 1 0-.7 14.5 14.5 0 0 0 4.81 1.22c3.66.19 6.36.58 8.09-.38s1-1.93-2.89-3.66a32.6 32.6 0 0 0-7-2.13 14.4 14.4 0 0 0 2.36-4.19 58 58 0 0 0 7.34.73c4.43.19 9.44 2.89 9.44 2.89s2.69-11 4.43-14.25 1.54-3.27 1.34-5.39a9.64 9.64 0 0 0-1.54-4l-16.11-.72c.19-1.1.35-2.14.48-3.09l15.44 1.12 1.38-6.46c1.82 2.74 3.92 4.79 4 8.57.2 5.79-3.08 25.86-3.08 25.86s-3.09 1.15-2.51 0 1.54-12.74 1.35-13.51-3.67 10.23-3.86 13.51-7.72 7.14-10.42 7.71-12.67-.82-13.05-3.13" style="fill:#263238;stroke:#263238;stroke-linecap:round;stroke-linejoin:round"/><path d="M512.41 332.05a12 12 0 0 0-.26 7.42c1.12 4.38 1.8 5.27 1.8 5.27M510 332.17s-.79 8.53 1 11.68m-2.89-12.02s-1.12 10 .79 13.59m-3.15-13.25s-.78 9.09.79 13m-3.26-13.34s.12 10.44 1.46 15.05m-4.94-15.16s.23 10.44 1.69 14.37m-3.37-14.82s-1.24 10.67-.34 14.82m-1.46-14.93s-1.79 10.44-1.12 13.92m-1.12-14.82s-2 9.32-1.69 14.48m-.56-15.04c-.34 0-2.92 9.66-2.58 14.37m0-15.16s-2.92 11-2.92 14.15m.79-15.16s-3 10-3 13.81m.38-15.57s-2.21 8.72-2.44 14.11m.68-14.82s-2.81 10.78-3 12.58a14.4 14.4 0 0 0-.12 2.92m1.32-16.51s-3.26 9.1-3.37 13.48m1.43-14.6s-3.48 9.09-3.59 13.47m1.59-13.92s-2.69 7.41-3.25 11.68m.9-12.24s-2.62 9.16-2.71 12.94m.92-14.06s-2.47 7.41-2.47 12 .11 5.61.11 5.61m-.11-17.72a44.2 44.2 0 0 0-2 10.1c-.23 4.72-.23 6.62-.23 6.62m.43-17.17s-3.59 11.45-3.37 14.59a15.7 15.7 0 0 1 0 4m2.2-18.31s-3.21 7.69-4.56 11.28a16.4 16.4 0 0 1-2.69 5.05" style="fill:none;stroke:#263238;stroke-linecap:round;stroke-linejoin:round"/><path d="m467.78 203.75 2.64-8.4a69.2 69.2 0 0 1-1.68-20.64c1-10.33 4.09-27.13-1.2-24s-8.64 16.08-8.64 30.49a32.15 32.15 0 0 0 8.88 22.55" style="fill:#fff;stroke:#263238;stroke-linecap:round;stroke-linejoin:round"/><path d="M472.5 134s-7 .41-9.08 5.3-4.89 17.47-4.89 17.47l10.71 3.75Z" style="fill:#92e3a9;stroke:#263238;stroke-linecap:round;stroke-linejoin:round"/><path d="M524.33 187.26s-5.61 18.42-5.45 19.38 10.47 17.7 12.71 31 3.1 18-3.31 45.43a315 315 0 0 1-15.87 49s-16.09 1.32-27.91-5.91-17.08-5.25-17.08-5.25 3-17.74 0-25.29-4.92-42.69-4.92-56.16 8.5-27.27 9.19-33.46-4.27-13.14-5.58-18.39-2.3-17.08-.33-24.31 3.56-19.1 11.48-22.86 30.89-6.54 34.65-6.14 16 5.54 17.83 14.26-5.41 38.7-5.41 38.7" style="fill:#92e3a9;stroke:#263238;stroke-linecap:round;stroke-linejoin:round"/><path d="M514.61 238.23a2.28 2.28 0 1 0 2.28-2.28 2.28 2.28 0 0 0-2.28 2.28" style="fill:#fff"/><circle cx="517.82" cy="257.94" r="2.28" style="fill:#fff"/><circle cx="515.72" cy="233.63" r="1.14" style="fill:#fff"/><path d="M509.75 249.12a1.14 1.14 0 1 0 1.13-1.13 1.14 1.14 0 0 0-1.13 1.13" style="fill:#fff"/><circle cx="512.06" cy="253.05" r="1.14" style="fill:#fff"/><path d="M514.37 272.93a1.14 1.14 0 1 0 1.14-1.14 1.14 1.14 0 0 0-1.14 1.14" style="fill:#fff"/><circle cx="509.96" cy="267.83" r="1.14" style="fill:#fff"/><circle cx="518.51" cy="266.92" r="1.14" style="fill:#fff"/><circle cx="509.96" cy="274.31" r="1.14" style="fill:#fff"/><circle cx="521.07" cy="254.21" r="1.14" style="fill:#fff"/><circle cx="511.58" cy="263.45" r="1.14" style="fill:#fff"/><circle cx="515.97" cy="255.12" r="1.14" style="fill:#fff"/><circle cx="521.98" cy="231.31" r="1.14" style="fill:#fff"/><circle cx="515.37" cy="247.72" r="2.28" style="fill:#fff"/><circle cx="510.19" cy="258.6" r="2.28" style="fill:#fff"/><circle cx="514.81" cy="265.53" r="2.28" style="fill:#fff"/><circle cx="520.82" cy="244.73" r="2.28" style="fill:#fff"/><path d="M508.81 279a2.28 2.28 0 1 0 2.69-1.77 2.29 2.29 0 0 0-2.69 1.77m-3.09 19.51a2.28 2.28 0 1 0 2.69-1.77 2.26 2.26 0 0 0-2.69 1.77m3.99-24a1.14 1.14 0 0 0 .89 1.34 1.14 1.14 0 1 0-.89-1.34m-7.88 14.19a1.15 1.15 0 0 0 .89 1.35 1.14 1.14 0 1 0-.89-1.35m.35 4.09a1.14 1.14 0 0 0 .89 1.34 1.14 1.14 0 1 0-.89-1.34m-.65 20.21a1.14 1.14 0 1 0 1.34-.89 1.14 1.14 0 0 0-1.34.89m-4.4-6.17a1.14 1.14 0 1 0 1.35-.89 1.14 1.14 0 0 0-1.35.89m8.56.84a1.14 1.14 0 1 0 1.35-.88 1.14 1.14 0 0 0-1.35.88m-9.87 5.51a1.14 1.14 0 0 0 2.23.46 1.14 1.14 0 1 0-2.23-.46m14.95-17.43a1.14 1.14 0 1 0 1.35-.89 1.14 1.14 0 0 0-1.35.89m-11.17 7.12a1.15 1.15 0 0 0 .89 1.35 1.14 1.14 0 1 0-.89-1.35" style="fill:#fff"/><path d="M505.6 295.6a1.13 1.13 0 0 0 .88 1.35 1.14 1.14 0 1 0 .46-2.23 1.12 1.12 0 0 0-1.34.88m10.71-22.09a1.14 1.14 0 1 0 1.34-.88 1.14 1.14 0 0 0-1.34.88M505.4 288a2.28 2.28 0 1 0 2.69-1.77 2.27 2.27 0 0 0-2.69 1.77m-7.28 9.61a2.28 2.28 0 1 0 2.69-1.77 2.27 2.27 0 0 0-2.69 1.77m3.12 7.72a2.28 2.28 0 1 0 2.69-1.76 2.28 2.28 0 0 0-2.69 1.76m10.1-19.14a2.28 2.28 0 1 0 2.69-1.77 2.28 2.28 0 0 0-2.69 1.77M475 219.11c-.2 1.25.1 2.33.69 2.43s1.22-.84 1.42-2.08-.1-2.32-.68-2.42-1.21.83-1.43 2.07m-2.76 19.52c-.2 1.24.1 2.33.69 2.42s1.22-.83 1.42-2.07-.1-2.33-.68-2.42-1.23.83-1.43 2.07m3.5-24.06c-.1.62.06 1.16.35 1.21s.61-.42.71-1-.05-1.16-.34-1.21-.61.43-.72 1M471 229.49c-.1.62.06 1.16.35 1.21s.61-.41.71-1-.05-1.17-.34-1.21-.63.38-.72 1m-.11 3.97c-.1.62.05 1.16.34 1.21s.61-.42.72-1-.06-1.16-.35-1.21-.6.38-.71 1m-1.63 19.87c-.1.62.05 1.16.35 1.21s.61-.41.71-1-.05-1.16-.34-1.21-.61.38-.72 1m-1.74-5.46c-.1.62.05 1.17.34 1.22s.61-.42.72-1-.06-1.16-.35-1.21-.61.37-.71.99m4.11-.24c-.1.62.05 1.16.35 1.21s.61-.41.71-1-.05-1.17-.34-1.22-.62.38-.72 1.01m-5.16 6.65c-.11.62 0 1.16.34 1.21s.61-.42.71-1 0-1.16-.34-1.21-.61.37-.71 1m8.41-18.99c-.1.62.05 1.16.35 1.21s.61-.42.71-1-.05-1.16-.34-1.21-.6.38-.72 1m-5.88 8.39c-.1.62 0 1.16.34 1.21s.61-.41.72-1-.06-1.17-.35-1.21-.63.38-.71 1" style="fill:#fff"/><path d="M472.37 235.79c-.1.62.05 1.16.34 1.21s.61-.41.72-1-.06-1.17-.35-1.21-.61.38-.71 1m6.63-23.03c-.1.63.05 1.17.35 1.22s.61-.42.71-1-.05-1.16-.35-1.21-.59.37-.71.99m-6.23 15.6c-.21 1.24.1 2.33.68 2.42s1.22-.83 1.43-2.07-.1-2.32-.69-2.42-1.19.83-1.42 2.07m-4.17 10.34c-.21 1.24.1 2.33.68 2.42s1.22-.83 1.43-2.07-.1-2.33-.69-2.42-1.22.83-1.42 2.07m1.01 7.19c-.2 1.25.11 2.33.69 2.43s1.22-.84 1.43-2.08-.11-2.32-.69-2.42-1.22.83-1.43 2.07m6.17-20.06c-.21 1.24.1 2.33.69 2.42s1.22-.83 1.42-2.07-.1-2.33-.69-2.42-1.2.83-1.42 2.07" style="fill:#fff"/><path d="M473.51 291.54a69 69 0 0 0-1.62 7.45m21.4-63.1s-12.43 30.58-18.45 50.92" style="fill:none;stroke:#263238;stroke-linecap:round;stroke-linejoin:round"/><path d="M501.42 116.45s-1.23 8.63 0 13.41 4 6.62 4 6.62l7.09.93s-14.34 9.56-24.66 9.71-11.56-4.16-12-4.78 4.32-3.08 4.78-5.86-1.69-9.55-1.69-9.55Z" style="fill:#fff;stroke:#263238;stroke-linecap:round;stroke-linejoin:round"/><path d="M483.54 128.47s1.54 10.17 1.39 11.1 0 3.54-6.63 3.39-8.32-4.47-7.25-6.32 2.62-2.78 2.32-4.16-2.32 2.46-1.85-4.32 4.79-8.47 4.79-8.47 7.38 4.46 7.23 8.78" style="fill:#263238;stroke:#263238;stroke-linecap:round;stroke-linejoin:round"/><path d="M475.22 87.63a90 90 0 0 0-4.09 10.15c-.31 1 .84 3.36.49 4.87-1.41 6.15-.08 10.17 1.63 15.28 2.27 6.82 3.33 10 5.76 11.06a8.82 8.82 0 0 0 6.53 0 38.3 38.3 0 0 0 10.74-5.8c3.48-2.88 6.66-5.91 6.66-5.91a148 148 0 0 1-.6-16.21c0-11.51-7.58-17.12-13-18.48s-14.12 5.04-14.12 5.04" style="fill:#fff;stroke:#263238;stroke-linecap:round;stroke-linejoin:round"/><path d="M476.28 100.2s.45.91-.61 3.19-1.66 2.27-1.51 3.18 2.57 2 3.33 2" style="fill:none;stroke:#263238;stroke-linecap:round;stroke-linejoin:round"/><path d="M477.63 112s.61-1.76 2.19-1.23 4.31 4.13 4.31 4.13-.79 4.22-3.69 5.54-4 .09-4.13-.79a10.4 10.4 0 0 1 0-2.46s-1.94-3.34-1.67-4.13 1.14-2.51 2.99-1.06" style="fill:#92e3a9;stroke:#263238;stroke-linecap:round;stroke-linejoin:round;stroke-width:.75px"/><path d="M475.52 115.12a3.52 3.52 0 0 1 2.72-1.94c1.85-.08 4.93 1.94 5.1 2.29s-1.34 2.73-3.34 3.34-2.55 0-3-.7-1.48-2.99-1.48-2.99" style="fill:#263238;stroke:#263238;stroke-linecap:round;stroke-linejoin:round"/><path d="M482.81 97.18s3.7-1.32 6-.62a5.5 5.5 0 0 1 3.08 2m-16.02-.68s-2.82-1.32-4.49.88" style="fill:none;stroke:#263238;stroke-linecap:round;stroke-linejoin:round"/><path d="M489.23 101a7.28 7.28 0 0 1-6.15-.18m-7.48 1.02a3.8 3.8 0 0 1-3.6.7" style="fill:none;stroke:#263238;stroke-linecap:round;stroke-linejoin:round;stroke-width:2px"/><path d="M475.22 87.63s-1.06-2.12 2.27-5 9.54-5.3 18.63-3 17 12.73 17 16.36-2.27 8.79-2.27 8.79 2.42.61 3.33 4.24a7.5 7.5 0 0 1-.91 6.06s10 2.88 9.85 7.73-.91 4.84-.91 4.84 4.39 0 2.88 3.34-9.39 5.15-12.12 7.57-4.39 4.7-8.33 4.24-6.52-4.24-7-8.33 1.36-7.72 2-9.09-.61-.45-.91-2.88.91-3.78.91-5.15-4.85-2.12-5.3-5.75 2.57-6.67 2.72-8-.75-2.73-.75-3.94 1.06-2.27.75-5-7-6.36-8.48-8.64-3.79.16-7.88 1.06-5.48.55-5.48.55" style="fill:#263238;stroke:#263238;stroke-linecap:round;stroke-linejoin:round"/><path d="M510.82 104.75S492 88.84 472.34 94.14l2.12-4.39s9.85-4.09 22.72 2.73 15 8.18 15 8.18Z" style="fill:#92e3a9;stroke:#263238;stroke-linecap:round;stroke-linejoin:round"/><path d="M446.42 130.05s1.53.71 1.06 2.12-1.18 3.42-.59 4.48 4.83 3.77 5.66 4.36 4.36 8.37 4.71 12.85 2.24 17.91 4.6 26 6.24 16.74 6.24 21.1-2.59 9.31-6.12 10-5.78-1.29-7.31-3.89-4-12-4.6-18.62.36-20.15-.12-24.16-.11-5.06-.47-6.24-5.77-7.43-6.36-9.9-1.18-6.72-.59-9.55 3.06-8.2 3.89-8.55" style="fill:#fff;stroke:#263238;stroke-linecap:round;stroke-linejoin:round"/><path d="M443.64 148.27s.43-2.84 1.2-3.09a1 1 0 0 1 1.4 1.06c0 .92-.1 1.45-.05 2.46a3.63 3.63 0 0 0 1.54 2.26c.48.39 4.72 2.75 5.44 4.15a5.07 5.07 0 0 1 .63 2.55" style="fill:#fff;stroke:#263238;stroke-linecap:round;stroke-linejoin:round"/><path d="M442.55 143.45s1.68-3.64 2.76-4 1.75 1.21 1.34 2.22-1.21 1.61-1.34 2.15-.47 1.4-.47 1.4" style="fill:#fff;stroke:#263238;stroke-linecap:round;stroke-linejoin:round"/><path d="M443 138.13s1.85-2.83 2.9-2.15-.07 1.68-.41 2.28a18 18 0 0 0-.74 1.69" style="fill:#fff;stroke:#263238;stroke-linecap:round;stroke-linejoin:round"/><rect width="14.53" height="22.96" x="450.44" y="127.17" rx="4.26" style="fill:#fff;stroke:#263238;stroke-linecap:round;stroke-linejoin:round" transform="rotate(164.79 457.707 138.66)"/><path d="m462.32 129.71-13.16 4.16m11.31-.88-4.94 1.59m5.38-.06-4.94 1.6m5.38-.06-4.94 1.59m5.38-.06-4.94 1.6m5.38-.06-4.94 1.6m5.37-.07-4.94 1.6m5.38-.06-4.94 1.6m5.38-.07-4.94 1.6" style="fill:none;stroke:#263238;stroke-linecap:round;stroke-linejoin:round"/><path d="M458.93 161.24h4.62v8.75h-4.62z" style="fill:#263238;stroke:#263238;stroke-linecap:round;stroke-linejoin:round" transform="rotate(180 461.245 165.61)"/><path d="m461.24 165.61 8.48 284.22" style="fill:none;stroke:#263238;stroke-linecap:round;stroke-linejoin:round;stroke-width:4px"/><ellipse cx="471.16" cy="459.68" rx="24.21" ry="13" style="fill:#263238;stroke:#263238;stroke-linecap:round;stroke-linejoin:round"/><path d="M451.23 462.43c4.22 3.59 11.57 6 19.93 6 9.71 0 18-3.2 21.72-7.78M448.36 459a10 10 0 0 0 1.21 1.8" style="fill:none;stroke:#8c8c8c;stroke-linecap:round;stroke-linejoin:round"/><path d="M534.25 162.84s-8.94 27.9-11.87 34.22-6.32 11.41-9.86 11.25-44.86-42.54-44.86-42.54-12.12-5.88-14-6.88-9.6-7.23-9.1-8 1.75-.12 2.37.25 6.23 3 6.73 3.12-8.85-10.85-8.85-11.72.37-2.25 1.37-1.62 9.73 7.6 9.73 7.6l2.24 1.75s-9.6-10.73-10.22-11.72-1.12-2.75-.25-2.87 13.09 10.6 13.09 10.6-10.6-10.6-10.22-11.35 3.11-.5 3.74 0 14.83 9.23 14.83 9.23.63-4.37.75-6.49 1.75-4.73 2.62-3.74.75 5.74.87 7 2.25 4.24 2.5 6.36.37 7.1.37 9 1.25 3.74 3.62 6 29.05 20.2 29.05 20.2l3.86-21.57Z" style="fill:#fff;stroke:#263238;stroke-linecap:round;stroke-linejoin:round"/><path d="M508.91 182.46s7.23 4.49 7.23 7.35m-47.01-45.63 4.24 3.61m63.81 16.75.28 17.29m-2.37-17.08.13 16.58m-2.62-16.95.62 16.58m-2.49-16.71s-.25 14.84-.25 15.21M528.73 164l-.74 15.84m-1.5-16.21-1.12 15.71m-1-15.34L523 179.84m-1.37-16.09-1.37 15.22m-1.13-15.71-1.49 14.08m-.88-14.21-1.87 15.21m-.25-15.46-1.99 14.46m-.75-14.33-1.12 13.46m-.5-13.71s-2.12 13.71-2.12 14.09" style="fill:none;stroke:#263238;stroke-linecap:round;stroke-linejoin:round"/><path d="M511.75 150.82a52.4 52.4 0 0 0-2.31 11.71l27.74 2a52 52 0 0 1-.31-5.24c-.15-4.47-2.34-15.08-5.73-20S520.81 135 520.81 135s-5.24.77-7.7 2.62-2.78 2.62-2.78 2.62" style="fill:#92e3a9;stroke:#263238;stroke-linecap:round;stroke-linejoin:round"/><path d="M523.09 145.59a1.89 1.89 0 1 0 1.6-2.14 1.89 1.89 0 0 0-1.6 2.14m-.58-3.78a.95.95 0 1 0 .8-1.08.95.95 0 0 0-.8 1.08m-2.12 13.33a.94.94 0 1 0 .8-1.07.93.93 0 0 0-.8 1.07m1.43 3.09a.95.95 0 1 0 .8-1.07 1 1 0 0 0-.8 1.07m7.56-.13a.94.94 0 1 0 .8-1.07.94.94 0 0 0-.8 1.07m-4.09 1.36a.94.94 0 0 0 1.07.8.94.94 0 1 0-1.07-.8m2.09-20.3a1 1 0 0 0 1.07.8.95.95 0 1 0-1.07-.8M523 153.59a1.89 1.89 0 1 0 1.6-2.15 1.89 1.89 0 0 0-1.6 2.15m4.1-3.12a1.89 1.89 0 1 0 1.6-2.14 1.88 1.88 0 0 0-1.6 2.14" style="fill:#fff"/><path d="M302.12 297.89H348v101.64a21.23 21.23 0 0 1-21.23 21.23h-3.37a21.23 21.23 0 0 1-21.23-21.23V297.89z" style="fill:#263238;stroke:#263238;stroke-linecap:round;stroke-linejoin:round"/><path d="M282.78 270.64s-16.13 27.9-16.57 33.57 3.05 98.07 3.05 99.6-.43 15.26-1.74 16.56-4.79 2-4.36 5.45 11.12 4.58 15.69 2.62 7.41-5.45 9.38-7.41a8.18 8.18 0 0 0 1.74-7.41c-.65-1.75-1.74-4.36-1.74-4.36l5.66-67.35s1.31-13.29 1.53-14 1.74-18.74 1.74-18.74 4.8-4.36 9.37-5.67 22-.87 24.85.44 27 21.36 27.68 23.54.22 14 .22 14l4.79 57.1s-1.07 7.85-.87 10.42-.87 5.67.87 7.19 5.23 1.09 6.54 1.53 2.62 2.61 4.8 4.14 11.55 4.79 15.25 3.71 3.71-5.45 2.4-8.07-10.68-13.29-12-16.13-3.06-11.51-3.06-11.51l4.36-.22 1.53-43.59s.43-30.73-3.71-35.52-11.75-11.53-17.63-18.31a245 245 0 0 0-17.88-17.65c-1.52-1.31-4.35-3.71-4.35-3.71Z" style="fill:#263238;stroke:#263238;stroke-linecap:round;stroke-linejoin:round"/><path d="M297.16 270.64s33.62.8 38.06 1.06 5.1-.84 5.1-.84-4.8-22.45-6.32-31 0-22.88.21-25.28-1.3-27.25-2.61-29-20.05-3-23.32-2.4-10 3.27-10 3.93 7.19 44.46 4.8 55.36-5.92 28.17-5.92 28.17" style="fill:#fff;stroke:#263238;stroke-linecap:round;stroke-linejoin:round"/><path d="m310.83 193.53 5.01 8.89-4.36 63.78 5.01 4.53 4.84-4.2-1.94-64.76 4.04-8.88-7.27-5.01z" style="fill:#263238;stroke:#263238;stroke-linecap:round;stroke-linejoin:round"/><path d="M304.21 178.68s-1.77.48-2.1 1.93-.64 3.23-.64 3.23l2.91 13.57 13.24-6.3 11.95 7.11s.64-15-.32-16.64-1.62-2.58-1.62-2.58Z" style="fill:#fff;stroke:#263238;stroke-linecap:round;stroke-linejoin:round"/><path d="M304.05 170.44s-.81 9.53-.16 11.14 12.6 13.25 13.89 12.44 9.85-14.54 9.85-15 .32-5.65.32-5.65Z" style="fill:#fff;stroke:#263238;stroke-linecap:round;stroke-linejoin:round"/><path d="m313.17 177.83-9.28 3.75.16-11.14z" style="fill:#263238;stroke:#263238;stroke-linecap:round;stroke-linejoin:round"/><path d="M306.31 135.23s-6.78 2.1-7.91 7.11.32 15.18.32 15.18-1.77-1.61-2.1 1 .33 6.94 2.1 8.24a4.3 4.3 0 0 0 3.23 1s2.75 5.82 5.66 8.24 10.65 4.52 14.21 3.23 7.43-5.65 7.91-9 .81-6.3.81-6.3 1.61-.32 1.61-1.78 1.29-5.49.32-6.3a11.5 11.5 0 0 0-1.93-1.29s-1-10.17-4.52-14.53-11.63-6.78-11.63-6.78 2.26-2.43 0-1.62a15 15 0 0 0-3.39 1.62s3.23-3.23-.33-1.62-4.36 3.6-4.36 3.6" style="fill:#fff;stroke:#263238;stroke-linecap:round;stroke-linejoin:round"/><path d="M329.08 151.06a7.24 7.24 0 0 0 1.46 3.39s-1-10.17-4.52-14.53-11.63-6.78-11.63-6.78 2.26-2.43 0-1.62a15 15 0 0 0-3.39 1.62s3.23-3.23-.33-1.62-4.36 3.71-4.36 3.71-6.78 2.1-7.91 7.11.32 15.18.32 15.18l1.78 2.58s1 .49.32-1.93a8.8 8.8 0 0 1 .49-6.46c1-1.94-1-7.43 1.93-9.05s8.73-.16 11 0 4.84-1.45 6.13-2.1 4.36.17 6 1.78 2.39 6.66 2.71 8.72" style="fill:#263238;stroke:#263238;stroke-linecap:round;stroke-linejoin:round"/><path d="M313.9 161.88s4 1.62 5.33 1.13 2.26-1.61 2.26-2.1m-8.07 6.46s5 2.1 9.37-.48" style="fill:none;stroke:#263238;stroke-linecap:round;stroke-linejoin:round"/><path d="M312 155.18c0 1-.55 1.86-1.22 1.86s-1.21-.84-1.21-1.86.55-1.86 1.21-1.86 1.22.83 1.22 1.86" style="fill:#263238"/><ellipse cx="322.46" cy="153.89" rx="1.21" ry="1.86" style="fill:#263238"/><path d="M306.31 152.19a6.73 6.73 0 0 1 6.14-1.29m7.55-.65a4.94 4.94 0 0 1 6-.16" style="fill:none;stroke:#263238;stroke-linecap:round;stroke-linejoin:round"/><path d="M304.38 197.41s4.52 27.78 4.52 32.3-7.43 31.17-7.43 31.17-3.55 8.88-4.36 11.95-2.91 9.85-5 10.82-20.66 4.86-20.66 4.86 13.56-27.47 13.23-31-1.61-36.17-3.39-42.31-8.23-20-8.23-20 20-8.56 21.15-9.21 6.95-4.2 6.95-4.2Z" style="fill:#92e3a9;stroke:#263238;stroke-linecap:round;stroke-linejoin:round"/><path d="M296.33 187.73s2.22 21 3.23 26.06 6.09 20.21 6.09 20.21" style="fill:none;stroke:#263238;stroke-linecap:round;stroke-linejoin:round"/><path d="M329.25 181.58s-.33 13.57-1 24.87-1.46 23.26-1.3 25.2 4.85 30.68 8.24 40 7.9 15.24 9.67 15.72 14.42 1.63 14.42 1.63-6.13-24.41-7.28-32a242 242 0 0 1-1.94-24.71c0-3.87 6.3-36.82 5.65-38.11s-26.46-12.6-26.46-12.6" style="fill:#92e3a9;stroke:#263238;stroke-linecap:round;stroke-linejoin:round"/><path d="M334.75 185.45a139.6 139.6 0 0 1-.57 26.25 129.6 129.6 0 0 1-5.18 22.44" style="fill:none;stroke:#263238;stroke-linecap:round;stroke-linejoin:round"/><path d="M273.05 195.15s-1.62 0-2.1 2.91-8.72 58-7.92 62 8.89 6.46 10.82 6.62 9.21-4.36 9.21-4.36 7.59-6.3 8.56-8.08a12.37 12.37 0 0 0 1.61-9.52c-1-5.17-6.62-7.43-8.07-7.11l-1.46.32s-.16-17.6-1.61-21.64-9.04-21.14-9.04-21.14" style="fill:#92e3a9;stroke:#263238;stroke-linecap:round;stroke-linejoin:round"/><path d="M283.7 237.94s-9.05 2.66-11.14 3.61-5.33 4.19-5.52 6.85m.57-8.56s-.19-1 4.57-.57" style="fill:none;stroke:#263238;stroke-linecap:round;stroke-linejoin:round"/><path d="M288.94 235.17a9.05 9.05 0 0 0-3.5 6.4c-.43 4.37 1.9 7.86 3.93 8.88s3.93.29 5.39-1.89 2.91-6.41 1.74-10-5.82-4.26-7.56-3.39" style="fill:#fff;stroke:#263238;stroke-linecap:round;stroke-linejoin:round"/><path d="m295.92 214.5-14.7-31.28 7.72-1.75z" style="fill:#263238"/><path d="m301.6 232.69-9.61-29.68" style="fill:none;stroke:#263238;stroke-linecap:round;stroke-linejoin:round;stroke-width:2px"/><path d="M292.57 222.36s-3.2 8.44-3.63 11.06-1 7.57.29 9.17 4.22 2.77 5.67 1.89 1.75-4.36 1.75-4.36 5.53-.73 6.4-1.46-.14-3.35-.14-3.35.29-6 .14-7.27.87-4.8-.87-5.39-7.57-1.89-9.61-.29" style="fill:#fff;stroke:#263238;stroke-linecap:round;stroke-linejoin:round"/><path d="M298.39 221.49s.73-2.91 2.19-2.62 1.6 3.78 1.6 3.78Z" style="fill:#fff;stroke:#263238;stroke-linecap:round;stroke-linejoin:round"/><path d="m293.74 226.44 9.02.14m-8.73 5.1h8.44m-6.11 3.92 6.55-.29" style="fill:none;stroke:#263238;stroke-linecap:round;stroke-linejoin:round"/><path d="M296.65 240.12s-4.08 3.93-5.68 2.18" style="fill:#fff;stroke:#263238;stroke-linecap:round;stroke-linejoin:round"/><path d="M355.73 194.18s4.08 14.5 6.26 27.45 3.49 30.27 3.35 35.8-.3 12.08-4.22 16-7.72 1.46-8.3.44-3.2-26-4.22-33.47 2.18-16.59 2.18-16.59Z" style="fill:#92e3a9;stroke:#263238;stroke-linecap:round;stroke-linejoin:round"/><path d="M354.57 259.47s2-4.66 3.34-5.38 3.93-1.6 5.1-3.2 3.78-1 2.76 1.3a13.5 13.5 0 0 1-3 4.23c-.44.43-.44 2.91-.44 2.91s2.62 3.92 1.89 4.94-3.05 5.39-5.38 6.7-5 1.31-6-.44-1.31-.87-1-3.06 2.73-8 2.73-8" style="fill:#fff;stroke:#263238;stroke-linecap:round;stroke-linejoin:round"/><path d="m349.04 272.57-15.57 14.11 8.73 2.19 7.86-15.28z" style="fill:#263238"/><path d="m365.92 255.4-18.19 19.64" style="fill:none;stroke:#263238;stroke-linecap:round;stroke-linejoin:round;stroke-width:2px"/><path d="M362.43 261.8s-8.88-3.64-9.9-2.91-1.46 2.33-.73 2.76a5.7 5.7 0 0 1 1.31 1.17s-2.18-.15-2.47 1.74a3.08 3.08 0 0 0 1.16 2.91s-2.18 1.31-1.6 2.19a8 8 0 0 0 6.7 2.18c2.91-.58 4.94-3.78 6.11-5.67" style="fill:#fff;stroke:#263238;stroke-linecap:round;stroke-linejoin:round"/><path d="M353.11 262.82s5.68 2.62 8.15 2.62m-9.46 2.03a18.2 18.2 0 0 0 7.13 1.75" style="fill:none;stroke:#263238;stroke-linecap:round;stroke-linejoin:round"/><rect width="8.26" height="7.42" x="384.17" y="264.27" rx="1.08" style="fill:#263238;stroke:#263238;stroke-linecap:round;stroke-linejoin:round" transform="rotate(.64 390.048 269.087)"/><path d="m433.69 437.07 3.71 5.66" style="fill:none;stroke:#263238;stroke-linecap:round;stroke-linejoin:round;stroke-width:5px"/><path d="m366.84 437.01 21.76-68.68 45.09 68.74" style="fill:none;stroke:#263238;stroke-linecap:round;stroke-linejoin:round;stroke-width:3px"/><path d="m364.68 443.84 2.16-6.83m67.75-9.15c2.11 2.79 3.36 4.51 3.36 4.64" style="fill:none;stroke:#263238;stroke-linecap:round;stroke-linejoin:round;stroke-width:5px"/><path d="m359.08 425.87 29.52-57.54s34.88 44.77 46 59.53" style="fill:none;stroke:#263238;stroke-linecap:round;stroke-linejoin:round;stroke-width:3px"/><path d="m356.11 431.67 2.97-5.8" style="fill:none;stroke:#263238;stroke-linecap:round;stroke-linejoin:round;stroke-width:5px"/><path d="M388.52 270.53v149.82m-.22-164.66v-9.96" style="fill:none;stroke:#263238;stroke-linecap:round;stroke-linejoin:round;stroke-width:3px"/><path d="M426.8 260.7c.06 2.29-16.23 4.54-36.39 5s-36.53-1-36.59-3.26c0-1.88 11-3.75 26.22-4.62 3.23-.19 4.73-2.08 8.26-2.17 2.25-.05 6.35 1.67 8.48 1.66 17.03-.02 29.97 1.35 30.02 3.39" style="fill:#bdbdbd;stroke:#263238;stroke-linecap:round;stroke-linejoin:round"/><path d="m302.12 294.61 1.5 29.21c.28 2.58 14 3.88 30.53 2.9s29.79-3.88 29.5-6.47L362.16 291Z" style="fill:#fff;stroke:#263238;stroke-linecap:round;stroke-linejoin:round"/><path d="m302.12 294.61 1.5 29.21c.28 2.58 14 3.88 30.53 2.9s29.79-3.88 29.5-6.47L362.16 291Z" style="fill:#92e3a9;stroke:#263238;stroke-linecap:round;stroke-linejoin:round"/><path d="M351.72 291.66a152 152 0 0 0-20.1 0 149 149 0 0 0-19.83 2.34l-9.67.58v3.52c.29 2.59 14 3.89 30.54 2.9s29.78-3.88 29.5-6.47V291Zm-17.57 32.42c-16.57 1-30.25-.32-30.53-2.91v2.65c.28 2.58 14 3.88 30.53 2.9s29.79-3.88 29.5-6.47l-.11-2.14c-1.3 2.45-13.87 5.05-29.39 5.97" style="fill:#fff;stroke:#263238;stroke-linecap:round;stroke-linejoin:round"/><path d="M355.38 291.61v-.16l-1.88.11v.14l1.5 32.44c.67-.15 1.31-.29 1.92-.44Zm-41.53 35.09 1.94.14-1.71-32.94-1.94.11Zm20.48.01 1.94-.13-1.77-33.9-1.93.12Z" style="fill:#fff;stroke:#263238;stroke-linecap:round;stroke-linejoin:round"/><ellipse cx="332.14" cy="292.82" rx="30.07" ry="4.71" style="fill:#fff;stroke:#263238;stroke-linecap:round;stroke-linejoin:round" transform="rotate(-3.33 332.018 292.676)"/><path d="M315.59 397.7a41 41 0 0 0 .63-7.14c0-24.35-21.36-44.09-47.71-44.09-18.26 0-34.12 9.48-42.14 23.41l-9.51 15.4 4.11 1.65c-.11 1.19-.17 2.4-.17 3.63 0 24.34 21.36 44.08 47.71 44.08a49.4 49.4 0 0 0 35.35-14.47l5.43 2.17 4.85-18.86a41 41 0 0 0 1.36-5.29Z" style="fill:#92e3a9;stroke:#263238;stroke-linecap:round;stroke-linejoin:round"/><ellipse cx="260.5" cy="409.78" rx="50.81" ry="46.95" style="fill:#fff;stroke:#263238;stroke-linecap:round;stroke-linejoin:round"/><ellipse cx="261.08" cy="408.62" rx="48.14" ry="44.47" style="fill:#e3e3e3;stroke:#263238;stroke-linecap:round;stroke-linejoin:round"/><path d="M270.79 349.36h-14l-2.91 7.46c0 .6 4.37 1.09 9.75 1.09s9.75-.49 9.75-1.09Z" style="fill:#fff;stroke:#263238;stroke-linecap:round;stroke-linejoin:round"/><ellipse cx="263.79" cy="349.36" rx="7" ry="1.01" style="fill:#fff;stroke:#263238;stroke-linecap:round;stroke-linejoin:round"/><path d="M262.7 349.63a1.94 1.94 0 0 1-1.94-1.91l-.52-38a5.78 5.78 0 0 1 5.45-5.78l10.59-.58a1.94 1.94 0 0 1 .21 3.87l-10.59.58a1.89 1.89 0 0 0-1.79 1.89l.52 37.95a1.94 1.94 0 0 1-1.91 2Z" style="fill:#fff;stroke:#263238;stroke-linecap:round;stroke-linejoin:round"/><path d="M331.86 278.53c0-4.5-13.77-8.15-30.76-8.15s-30.75 3.65-30.75 8.15l.25 36.94h61.51Z" style="fill:#fff;stroke:#263238;stroke-linecap:round;stroke-linejoin:round"/><path d="M331.86 278.53c0-4.5-13.77-8.15-30.76-8.15s-30.75 3.65-30.75 8.15l.25 36.94h61.51Z" style="fill:#92e3a9;stroke:#263238;stroke-linecap:round;stroke-linejoin:round"/><path d="M270.49 282.74c0-4.5 13.77-8.15 30.75-8.15 16.12 0 29.33 3.28 30.64 7.46v-3.52c0-4.5-13.77-8.15-30.76-8.15s-30.75 3.65-30.75 8.15l.25 36.94h.11Z" style="fill:#fff;stroke:#263238;stroke-linecap:round;stroke-linejoin:round"/><path d="M270.6 315.47h61.51v-3c-.42-3.23-14-5.82-30.74-5.82-17 0-30.75 2.67-30.75 6v.3Z" style="fill:#fff;stroke:#263238;stroke-linecap:round;stroke-linejoin:round"/><path d="M332.11 315.47c0 3.3-13.77 6-30.76 6s-30.75-2.67-30.75-6 13.77-6 30.75-6 30.76 2.71 30.76 6" style="fill:#bdbdbd;stroke:#263238;stroke-linecap:round;stroke-linejoin:round"/><path d="M298.36 269.77h1.82v15.14h-1.82z" style="fill:#fff;stroke:#263238;stroke-linecap:round;stroke-linejoin:round"/><path d="M300.57 287.15h-2.61l-.86-7.99h4.34zm27.94 2.48-1.83-.46v-15.15l1.83.46z" style="fill:#fff;stroke:#263238;stroke-linecap:round;stroke-linejoin:round"/><path d="m328.9 291.97-2.61-.66-.87-8.21 4.35 1.1zm-.39 5.6-1.83-.72v15.14l1.83.73z" style="fill:#fff;stroke:#263238;stroke-linecap:round;stroke-linejoin:round"/><path d="m328.9 295.49-2.61-1.05-.87 7.65 4.35 1.74zm-56.23-5.47 2.13-.45-.04-14.76-2.13.45z" style="fill:#fff;stroke:#263238;stroke-linecap:round;stroke-linejoin:round"/><path d="m272.22 292.31 3.05-.65.99-8.01-5.08 1.08zm.47 5.46 2.13-.72.04 14.77-2.13.71z" style="fill:#fff;stroke:#263238;stroke-linecap:round;stroke-linejoin:round"/><path d="m272.23 295.74 3.05-1.03 1.03 7.45-5.08 1.71zm26.27-1.43h1.82v15.14h-1.82z" style="fill:#fff;stroke:#263238;stroke-linecap:round;stroke-linejoin:round"/><path d="M300.71 292.06h-2.61l-.86 8h4.34z" style="fill:#fff;stroke:#263238;stroke-linecap:round;stroke-linejoin:round"/><path d="m356.5 227.99-.66-8.55" style="fill:none;stroke:#263238;stroke-linecap:round;stroke-linejoin:round;stroke-width:3px"/><path d="M295.16 246.09s33.19-14.83 61.34-18.1 56.86-1.54 56.86-1.54Z" style="fill:#bdbdbd;stroke:#263238;stroke-linecap:round;stroke-linejoin:round"/><ellipse cx="355.17" cy="238.8" rx="65.19" ry="6.67" style="fill:#737373;stroke:#263238;stroke-linecap:round;stroke-linejoin:round" transform="matrix(.99 -.16 .16 .99 -34.3 61.36)"/><path d="m356.73 234.25 2.45 209.74" style="fill:none;stroke:#263238;stroke-linecap:round;stroke-linejoin:round;stroke-width:3px"/><rect width="8.26" height="7.42" x="352.07" y="234.08" rx="1.08" style="fill:#263238;stroke:#263238;stroke-linecap:round;stroke-linejoin:round" transform="rotate(-5.4 356.027 237.705)"/><path d="m404.02 451.69 3.71 5.67" style="fill:none;stroke:#263238;stroke-linecap:round;stroke-linejoin:round;stroke-width:5px"/><path d="m337.18 451.63 21.75-68.67 45.09 68.73" style="fill:none;stroke:#263238;stroke-linecap:round;stroke-linejoin:round;stroke-width:3px"/><path d="m335.01 458.46 2.17-6.83m67.75-9.15a57 57 0 0 1 3.35 4.65" style="fill:none;stroke:#263238;stroke-linecap:round;stroke-linejoin:round;stroke-width:5px"/><path d="m329.42 440.5 29.51-57.5s34.88 44.76 46 59.52" style="fill:none;stroke:#263238;stroke-linecap:round;stroke-linejoin:round;stroke-width:3px"/><path d="m326.44 446.3 2.98-5.8" style="fill:none;stroke:#263238;stroke-linecap:round;stroke-linejoin:round;stroke-width:5px"/><path d="m175 148.17 6 5.22 2.72 40.79s2 3.85 2 4.53 7.7-2.94 9.06-2.49 7.18 1.55 7.6 3.45 1.17 14.43.34 14.68c-2.05.62-24.25 11.56-26.52 10.65s-7.93-8.84-8.84-12.92-3.17-16.77-3.17-16.77l10.42-45.55" style="fill:#92e3a9;stroke:#263238;stroke-linecap:round;stroke-linejoin:round"/><path d="M191.63 200.17a8.49 8.49 0 0 0 1.68 7.05c2.68 3.52 9.4 7.13 9.4 7.13a55 55 0 0 0 .67-7.8A16.5 16.5 0 0 0 202 201Z" style="fill:#263238;stroke:#263238;stroke-linecap:round;stroke-linejoin:round"/><path d="M191.83 197.35a24.4 24.4 0 0 0-.7 5.17c.08 2.4 3.61 7.33 5.2 6.88s6.34-4.49 6.6-7.06.46-4.08.23-5-6.57-5.2-11.33.01" style="fill:#fff;stroke:#263238;stroke-linecap:round;stroke-linejoin:round"/><path d="M185.71 198.71s-6.35-.9-7.93-.22-4.78 8.61-3.86 9.51" style="fill:none;stroke:#263238;stroke-linecap:round;stroke-linejoin:round"/><path d="m89.88 264.62 5.54 57.81-9.92 93.44-4.09 2.63-.29 12s-2.05 9.93.58 12a45 45 0 0 0 4.09 2.92s2 5.55 5.25 7 19.86 7.59 22.49 5.84 2.63-4.38.58-8.18-9.93-16.64-9.93-16.64 1.76-8.18 2.63-11.39 3.8-12 3.8-12l9.39-70.97s7.3-50.22 7-51.1 6.71 45.84 6.71 45.84l-3.21 63.36s-4.67 4.68-4.67 6.72 1.75 8.47 1.46 9.34 1.17 11.1 1.17 12.27 5 1.16 6.71 1.46 6.43-1.17 6.43-1.17 5.55 3.5 8.47 5.25 20.44 4.38 23.36 3.22 1.75-2.63-1.46-5.55S157.91 417 155 415s-5-7-5-7 3.79-4.38 2.92-7.3-.88-12-.88-12l9.64-75.92s2.62-49.35 2.62-52.85-2.62-24.53-2.62-24.53l-68.33-2.33Z" style="fill:#263238;stroke:#263238;stroke-linecap:round;stroke-linejoin:round"/><path d="M133.4 123s-5.38 2.79-6.24 4.3S125 234.74 125 234.74l31.22 1.07s1.52-89.15 1.78-92.81-.21-8.4-1.93-10.55-17.28-9.04-22.67-9.45" style="fill:#fff;stroke:#263238;stroke-linecap:round;stroke-linejoin:round"/><path d="m137.86 147.53 4.1 10.36-9.28 68.65 6.9 11.66 8-12.31-3-67.78 4.1-8.85s-3.45-6.26-4.1-7.34-6.72 5.61-6.72 5.61" style="fill:#263238;stroke:#263238;stroke-linecap:round;stroke-linejoin:round"/><path d="M134.83 121s-3.45 1.94-4.31 4.53 1.94 29.58 1.94 29.58l10.79-9.11 8.64 9.71s4.32-11.65 4.53-17-.86-6.48-2.37-9.72-15.76-10.6-19.22-7.99" style="fill:#fff;stroke:#263238;stroke-linecap:round;stroke-linejoin:round"/><path d="M143.47 78.76s-6.41 2.43-7.29 8.61a89 89 0 0 0-.88 11.27s-2.65-2.43-3.1 1.55-1.32 6 .23 7.07l1.54 1.1s1.33 6.41.22 10.16-1.76 5.53-1.32 7.07 5.3 9.18 7.07 12 3.75 12.41 3.75 12.41 5.08-8.4 7.07-10.38a30 30 0 0 1 3.76-3.21l2.87-12.82s6.63-5.08 8-9.94 4.86-15 1.11-25.62-6.9-10.16-10.88-11.03-9.28-.67-12.15 1.76" style="fill:#fff;stroke:#263238;stroke-linecap:round;stroke-linejoin:round"/><path d="M135.3 98.64s2.21 2 2.43.88-1.77-2.65 1.32-5.08 4.64-3.09 4.86-5.52a18 18 0 0 1 .67-3.76l4-.66-1.77 2.43s5.53 2.43 9.73 1.33a25.2 25.2 0 0 0 7.46-3.54L162.25 88h4.2a5 5 0 0 0 .44-6c-2-3.53-7.51-6.63-12.59-7.07s-11.27 1.77-15 4.42-4.67 16.42-4 19.29" style="fill:#263238;stroke:#263238;stroke-linecap:round;stroke-linejoin:round"/><path d="M167.55 85.61s3.54 4 2.87 6.84a8.1 8.1 0 0 1-2.21 4.2L166.45 88Z" style="fill:#263238;stroke:#263238;stroke-linecap:round;stroke-linejoin:round"/><path d="M151 105.93s6.41 2 6.85 1.33.66-8.62.88-9.28m1.75-1.77s4.86-1.33 6.19 3.09m-14.14-4.19s-2.65-2.43-7.07-.23m2.21 13.04s3.53 5.3 11.49 2.87m-1.77 12.81a8.3 8.3 0 0 1-3.32 1.33c-1.76.22-7.29.66-9.72-1.55" style="fill:none;stroke:#263238;stroke-linecap:round;stroke-linejoin:round"/><path d="M154.81 96.76s-10.23-3-11.34-.55-1.1 4.42.44 5.3 7.07 1.55 8.4 1.33 2.5-6.08 2.5-6.08m4.02 5.79a5.6 5.6 0 0 0 3.86 2.73 4.57 4.57 0 0 0 4.67-1.45 4.21 4.21 0 0 0 .8-3.54c-.32-.8-6.11-1.93-8-2.73s-1.33 4.18-1.33 4.99" style="fill:#263238;stroke:#263238;stroke-linecap:round;stroke-linejoin:round"/><path d="M154.81 96.76a7 7 0 0 1 5.31.8" style="fill:none;stroke:#263238;stroke-linecap:round;stroke-linejoin:round"/><path d="m143.47 96.21-7.79 1.03 7.07.8z" style="fill:#263238;stroke:#263238;stroke-linecap:round;stroke-linejoin:round"/><path d="M131.68 123.19s1.29 43.71.43 51.9-1.07 67.4-3.87 78.16-14.65 18.95-22 21.75-18.73 3.23-18.73 3.23 5.6-61.58 5.6-63.52-1.94-51-1.94-51 1.54-36.21 5.83-37.5 29.07-.22 29.07-.22Z" style="fill:#92e3a9;stroke:#263238;stroke-linecap:round;stroke-linejoin:round"/><path d="M126.08 126a224 224 0 0 0-2.08 32.61c.37 16 1.49 19.38 1.49 19.38" style="fill:none;stroke:#263238;stroke-linecap:round;stroke-linejoin:round"/><path d="M156 132.45a111 111 0 0 1 .43 15.72c-.43 7.75-5 31.87-5.17 35.32s-1.18 66.14-1.18 70.88 13.61 24.77 14.91 23.47.05-17-1-30-1.72-37.68-1.72-37.68l12.71-62-15.09-13.56s-2.58-3.66-3.89-2.15" style="fill:#92e3a9;stroke:#263238;stroke-linecap:round;stroke-linejoin:round"/><path d="M161.28 138.49s1.49 16.4.37 24.6a36.3 36.3 0 0 1-4.1 13" style="fill:none;stroke:#263238;stroke-linecap:round;stroke-linejoin:round"/><path d="M199.7 177.19a60 60 0 0 0-3.93-4.81c-.88-.73-2.77-.15-2.48 2.47a26.5 26.5 0 0 0 .88 4.52Z" style="fill:#fff;stroke:#263238;stroke-linecap:round;stroke-linejoin:round"/><path d="M160.94 193.42c.85-1.61-1.66-7.07-2.28-8.51-5.33-12.41-23.19-14.08-31.86-4.28-3.15 3.56-5.06 8.31-9 10.93-8.48 5.58-19.29-2.88-27.75-4.51-18.47-3.56-32.64 13.37-33.48 30.47a44.65 44.65 0 0 0 22 40c.7.4 1.41.78 2.13 1.13 16.36 8 33.15 1.14 43.59-12.69 3.14-4.15 5.91-8.56 9.08-12.69a13.63 13.63 0 0 1 6.35-5c5.19-1.64 11.51.41 17-.69 3.82-.77 9.48-2.25 11.55-6 2.29-4.12-.2-4.45-3.81-4.51S157 213.35 157.1 207s3.84-13.58 3.84-13.58" style="fill:#bdbdbd;stroke:#263238;stroke-linecap:round;stroke-linejoin:round"/><path d="M121.89 233a3.19 3.19 0 0 0 5.11 1.2l30.22-26.08a11 11 0 0 1-.07-1.16 21.7 21.7 0 0 1 .58-4.44l-14-4.7-2.46-6.41-11.65 4.91 4.5 9.87-20.35 6.09Z" style="fill:#fff;stroke:#263238;stroke-linecap:round;stroke-linejoin:round"/><path d="m143.7 197.82 3.99 10.07L234 171.72l-2.92-7.83z" style="fill:#263238;stroke:#263238;stroke-miterlimit:10"/><path d="m231.08 163.89 3.22-9.11s7.73 2.35 17.87-5.52a30.4 30.4 0 0 1 6.91 17.62s-13.64 2-16.81 8.59l-8.27-3.75Z" style="fill:#bdbdbd;stroke:#263238;stroke-linecap:round;stroke-linejoin:round"/><path d="M240.24 160.59a1.39 1.39 0 1 0-1.33 1.44 1.38 1.38 0 0 0 1.33-1.44Zm4.66-1.83a1.39 1.39 0 1 0-1.34 1.44 1.39 1.39 0 0 0 1.34-1.44Zm4.66-1.83a1.39 1.39 0 1 0-1.34 1.44 1.39 1.39 0 0 0 1.34-1.44Zm-6.34 11.43a1.39 1.39 0 1 0-1.34 1.44 1.39 1.39 0 0 0 1.34-1.44Zm4.66-1.83a1.39 1.39 0 1 0-1.34 1.43 1.39 1.39 0 0 0 1.34-1.43Zm4.66-1.83a1.39 1.39 0 1 0-1.34 1.43 1.39 1.39 0 0 0 1.34-1.43Z" style="fill:#fff;stroke:#263238;stroke-miterlimit:10"/><path d="m106 229.22-7.8-20.45a1.23 1.23 0 0 1 .7-1.59 1.23 1.23 0 0 1 1.58.7l7.8 20.45a1.23 1.23 0 0 1-.7 1.59 1.22 1.22 0 0 1-1.58-.7" style="fill:#363560"/><path d="M90.7 244a2.45 2.45 0 1 0-2.42 2.48A2.46 2.46 0 0 0 90.7 244Zm18.06 4a2.45 2.45 0 1 0-2.42 2.47 2.45 2.45 0 0 0 2.42-2.47Zm-7.7-11.51a2.45 2.45 0 1 0-2.42 2.51 2.44 2.44 0 0 0 2.42-2.51Zm80.03-53.41-1.1.43 3.57 9.32 1.09-.46zm7.45-2.94-1.1.44 3.5 9.15 1.1-.46zm-17.1 6.75-1.11.43 3.65 9.53 1.1-.46zm24.55-9.68-1.11.43 3.45 8.99 1.09-.46zm-33.66 13.27-1.1.43 3.73 9.73 1.09-.46zm-7.49 14.41 1.09-.46-3.81-9.93-1.1.44zm48.6-30.62-1.11.44 3.38 8.82 1.1-.47zm19.85-7.31-1.11.44 3.07 7.99 1.09-.46zm-5.8 2.31-1.1.43 3.12 8.16 1.1-.46zm-6.61 2.06-1.1.44 3.32 8.65 1.09-.46z" style="fill:#fff;stroke:#263238;stroke-miterlimit:10"/><path d="m233.67 165.88-130.82 50.09m.38 2.58 129.9-50.45m.77 1.55-128.35 51.14m.77 2.13L234 171.72m-2.92-7.83-128.43 49.38" style="fill:none;stroke:#263238;stroke-linecap:round;stroke-linejoin:round"/><path d="M123.48 195.3a45 45 0 0 0 5.7 1.88c1.86.35 4.66-.23 4 1.52s-3.38 1.4-4 1.28-5.7-4.68-5.7-4.68" style="fill:#fff;stroke:#263238;stroke-linecap:round;stroke-linejoin:round"/><path d="M103.56 190.82s7.38 1.35 9.4 1.57 9.4 2 10.52 2.91 8.28 5.15 8.28 6.49-.45 4-1.34 4.93-5.38 3.13-6.27 3.58-4.48 1.56-6.72 1.12-7.38-2.24-7.38-2.24a70 70 0 0 1-6.72-3.13 29.3 29.3 0 0 1-4-3.36Z" style="fill:#fff;stroke:#263238;stroke-linecap:round;stroke-linejoin:round"/><path d="M123.47 200.1s5.47 3.14 5.82 3.61a20.4 20.4 0 0 1 1.13 3m-9.42-3s4.2 2.21 4.55 2.91l.93 1.86m-10.35-1.63a49 49 0 0 0 6.76 3.15" style="fill:none;stroke:#263238;stroke-linecap:round;stroke-linejoin:round"/><path d="M97 126.21s-47.4 50.29-47.62 52.3.44 9.18 2.24 10.3 45.43 23.95 46.11 23.73S106 189.7 106 189.7l-24.4-10.07 9.85-8.95s1.57-32.23 2.91-36.49 2.64-7.98 2.64-7.98" style="fill:#92e3a9;stroke:#263238;stroke-linecap:round;stroke-linejoin:round"/><path d="M81.62 179.63s-10.74-8.73-11.86-9.4-13.43-2.91-11 2m16.37-5.13s-6.49-.67-9.63.22" style="fill:none;stroke:#263238;stroke-linecap:round;stroke-linejoin:round"/><path d="M209 185.64s-5.39-6-9.33-8.45-6.12-1.46-7 .29a5.15 5.15 0 0 0-.44 3.35 18 18 0 0 1-1.6 3.64c-.87 1.31.29 4.37.73 5.68s-.58 3.79 0 5.39 1.89 6 3.64 6.41 7.58-.87 8.16-2.18 1.89-3.94 1.89-3.94 5.39-7.86 4.66-9Z" style="fill:#fff;stroke:#263238;stroke-linecap:round;stroke-linejoin:round"/><path d="M192.71 177.48s7.14 3.2 8.45 4.8 3.2 4.08 3.2 4.08m-11.8-4.51s4.37 3.06 5.39 4.51a14 14 0 0 1 1.61 3.35m-8.16-6.26s3.64 6.26 4.22 7.14" style="fill:none;stroke:#263238;stroke-linecap:round;stroke-linejoin:round"/></svg>