<svg xmlns="http://www.w3.org/2000/svg" opacity=".08" viewBox="0 0 500 500"><g style="opacity:.30000000000000004"><path d="M41.07 35.7h129.7v187.6H41.07z" style="fill:none;stroke:#263238;stroke-linecap:round;stroke-linejoin:round"/><path d="M124.51 161.16h-12.95v-12.95H89.98v12.95H77.03v21.58h12.95v12.95h21.58v-12.95h12.95z" style="fill:none;stroke:#263238;stroke-linecap:round;stroke-linejoin:round"/><path d="M117.2 164.48h-8.96v-8.97H93.3v8.97h-8.97v14.94h8.97v8.96h14.94v-8.96h8.96zM63.13 94a9.74 9.74 0 0 1-5.83-1.55 8.4 8.4 0 0 1-3.08-4.39 21.7 21.7 0 0 1-.92-6.63V69.26a21.7 21.7 0 0 1 .94-6.74 8.07 8.07 0 0 1 3.3-4.35 11.7 11.7 0 0 1 6.4-1.53 12.47 12.47 0 0 1 6.17 1.3 7.42 7.42 0 0 1 3.26 3.69 14.6 14.6 0 0 1 1 5.65v2.11h-7.24v-2.56A16 16 0 0 0 67 64.3a3 3 0 0 0-.83-1.73 2.94 2.94 0 0 0-2.17-.63 2.72 2.72 0 0 0-2.15.76 3.7 3.7 0 0 0-.86 2 17 17 0 0 0-.18 2.53v16.08a12.7 12.7 0 0 0 .27 2.74 3.5 3.5 0 0 0 1 1.88 3.1 3.1 0 0 0 2.14.68 3 3 0 0 0 2.15-.72 3.85 3.85 0 0 0 1.06-2 12.6 12.6 0 0 0 .29-2.81v-3.81h-3.51v-4.49h10.24v18.67H69.6l-.45-3.27A6.7 6.7 0 0 1 67 92.92 6.3 6.3 0 0 1 63.13 94m14.59-.55 7-36.36H93l7 36.36h-6.88l-1.3-8h-5.75l-1.39 8Zm9-12.52h4.38l-2.2-14.68Zm16.82 12.52.62-36.36H112L116.51 80l4.8-22.94h7.59l.63 36.36h-5.39l-.58-24.64-4.63 24.64h-4.62l-4.85-24.82-.46 24.85Zm30.93 0V57.09h15.84v5.12h-8.43v9.65h6.5V77h-6.5v11.43h8.52v5Zm-45.7 46.37a12 12 0 0 1-6.33-1.44 8 8 0 0 1-3.35-4.1 18.2 18.2 0 0 1-1-6.4v-13.56a18 18 0 0 1 1-6.37 7.75 7.75 0 0 1 3.35-4 12.27 12.27 0 0 1 6.33-1.4 12.3 12.3 0 0 1 6.39 1.42 7.8 7.8 0 0 1 3.37 4 17.8 17.8 0 0 1 1 6.35v13.56a18.2 18.2 0 0 1-1 6.4 7.86 7.86 0 0 1-3.37 4.1 12.2 12.2 0 0 1-6.39 1.44m0-5.34a3 3 0 0 0 2.11-.65 3.3 3.3 0 0 0 .89-1.75 12 12 0 0 0 .23-2.36v-17.2a11.4 11.4 0 0 0-.23-2.33 3.26 3.26 0 0 0-.89-1.73 3 3 0 0 0-2.11-.65 2.82 2.82 0 0 0-2 .65 3.27 3.27 0 0 0-.9 1.73 11.4 11.4 0 0 0-.23 2.33v17.2a12.6 12.6 0 0 0 .21 2.36 3.14 3.14 0 0 0 .87 1.75 2.9 2.9 0 0 0 2.05.65m15.71 4.85V103h5.16l8.08 19v-19h6.11v36.37h-4.94l-8.08-20.12v20.12Z" style="fill:none;stroke:#263238;stroke-linecap:round;stroke-linejoin:round"/><circle cx="58.93" cy="131.15" r="12.36" style="fill:none;stroke:#263238;stroke-linecap:round;stroke-linejoin:round" transform="rotate(-45 58.925 131.152)"/><circle cx="155.19" cy="51.06" r="12.62" style="fill:none;stroke:#263238;stroke-linecap:round;stroke-linejoin:round"/><circle cx="150.07" cy="113.25" r="6.26" style="fill:none;stroke:#263238;stroke-linecap:round;stroke-linejoin:round"/><path d="M85.38 48a3.13 3.13 0 1 0-3.13 3.13A3.13 3.13 0 0 0 85.38 48m9.39 0a3.13 3.13 0 1 0-3.13 3.13A3.13 3.13 0 0 0 94.77 48m9.39 0a3.13 3.13 0 1 0-3.16 3.16 3.13 3.13 0 0 0 3.16-3.16M78.33 214H57.46a3.91 3.91 0 0 1-3.91-4h0a3.91 3.91 0 0 1 3.91-3.92h20.87a3.92 3.92 0 0 1 3.92 3.92h0a3.92 3.92 0 0 1-3.92 4M160 130h-20.88a3.92 3.92 0 0 1-3.92-4h0a3.92 3.92 0 0 1 3.92-3.91H160a3.91 3.91 0 0 1 3.9 3.91h0a3.91 3.91 0 0 1-3.9 4" style="fill:none;stroke:#263238;stroke-linecap:round;stroke-linejoin:round"/></g><path d="M49.41 440.39h416.35" style="fill:none;stroke:#263238;stroke-linecap:round;stroke-linejoin:round"/><path d="M87.27 311.54a.1.1 0 0 0 0-.13.1.1 0 0 0-.13.06 130 130 0 0 0-6.82 21.36A202 202 0 0 0 76.51 355l-.53 5.6c-.08.93-.18 1.86-.25 2.8l-.15 2.81c-.09 1.87-.2 3.74-.25 5.62v5.63l.06 2.81c0 .94.11 1.87.17 2.81.14 1.87.26 3.74.43 5.6.36 3.73.92 7.44 1.5 11.14a.08.08 0 0 0 .09.08.09.09 0 0 0 .1-.1c0-1.88-.09-3.74-.13-5.61s-.22-3.72-.19-5.59 0-3.72-.06-5.58v-11.16l.15-5.57.06-2.79c0-.93.11-1.85.16-2.78l.34-5.57A199 199 0 0 1 81.23 333a130 130 0 0 1 6.04-21.46m.8 29.15a.1.1 0 0 0-.06-.12.1.1 0 0 0-.13.06 135 135 0 0 0-4 14.16 132 132 0 0 0-2.34 14.55c-.5 4.88-1 9.77-1.11 14.68a123 123 0 0 0 .57 14.71.1.1 0 0 0 .2 0c.57-4.89.91-9.76 1.25-14.63s.39-9.75.71-14.62A129 129 0 0 1 84.88 355a133 133 0 0 1 3.19-14.31M104.23 351a.09.09 0 0 0-.13 0 49.3 49.3 0 0 0-10.81 9.42 44 44 0 0 0-4.23 5.88l-.87 1.64-.68 1.7a17 17 0 0 0-.59 1.73c-.17.58-.37 1.15-.53 1.74a70 70 0 0 0-2.23 14.26 82 82 0 0 0 .53 14.36.11.11 0 0 0 .1.08.09.09 0 0 0 .1-.09l1.23-14.21a126 126 0 0 1 1.8-14c.13-.57.3-1.13.44-1.7a16 16 0 0 1 .5-1.67l.58-1.65.74-1.55a42 42 0 0 1 3.87-5.94 48.7 48.7 0 0 1 10.15-9.87.09.09 0 0 0 .03-.13" style="fill:#263238"/><path d="M96.41 369.21a15.8 15.8 0 0 0-4.92 5.91 34.8 34.8 0 0 0-2.75 7.24c-.19.62-.35 1.24-.48 1.88l-.45 1.89a33 33 0 0 0-.47 3.83c0 1.29-.06 2.58 0 3.87a33 33 0 0 0 .51 3.84.11.11 0 0 0 .07.08.1.1 0 0 0 .12-.08 34 34 0 0 0 .68-3.78c.2-1.25.4-2.5.55-3.74s.34-2.48.44-3.73.27-2.49.53-3.7a34.4 34.4 0 0 1 2.11-7.18 15.9 15.9 0 0 1 4.13-6.16.09.09 0 0 0 0-.13.1.1 0 0 0-.07-.04m-22.67 14.24c-.53-6.31-1.57-12.56-2.56-18.8S69.11 352.18 68 346s-2.42-12.4-3.76-18.57a.1.1 0 0 0-.12-.08.09.09 0 0 0-.07.11c1.08 6.22 2 12.46 3 18.71s1.83 12.48 2.62 18.74 1.38 12.54 2.16 18.79l2.31 18.78a.09.09 0 0 0 .09.09.11.11 0 0 0 .11-.09c.07-1.59.07-3.17.11-4.76s-.07-3.16-.09-4.75c-.11-3.21-.36-6.36-.62-9.52m-3.74-.09c-.34-2.5-.8-5-1.28-7.46l-.88-3.69c-.29-1.22-.57-2.46-.93-3.67a105 105 0 0 0-4.82-14.35l-.76-1.73-.84-1.7c-.53-1.15-1.18-2.24-1.79-3.34a28 28 0 0 0-4.56-6 .1.1 0 0 0-.13 0 .11.11 0 0 0 0 .14 28 28 0 0 1 4.17 6.18c.55 1.12 1.13 2.22 1.6 3.38l.74 1.72.66 1.75a103.6 103.6 0 0 1 4.2 14.36c.57 2.42 1 4.9 1.43 7.35l.59 3.7c.21 1.23.47 2.45.65 3.68.39 2.47.84 4.93 1.28 7.4s.83 4.95 1.35 7.42a.1.1 0 0 0 .1.08.1.1 0 0 0 .1-.1q0-3.78-.18-7.56c-.18-2.55-.48-5.05-.7-7.56m-5.27.32a110 110 0 0 0-4-9.73 88 88 0 0 0-5-9.21.1.1 0 0 0-.13 0 .1.1 0 0 0 0 .13 86 86 0 0 1 4.29 9.5c1.28 3.23 2.44 6.51 3.41 9.83s1.69 6.71 2.57 10.05 1.69 6.71 2.71 10.09a.1.1 0 0 0 .2 0 50.8 50.8 0 0 0-1-10.5 65 65 0 0 0-3.05-10.16m-.21 11.03a22.7 22.7 0 0 0-2.78-5.82 24.5 24.5 0 0 0-4-5 18 18 0 0 0-2.58-1.94 10.3 10.3 0 0 0-2.91-1.32.1.1 0 0 0-.12.06.1.1 0 0 0 0 .13 14.6 14.6 0 0 1 4.87 3.73 23 23 0 0 1 3.37 5.11c1 1.81 1.46 3.81 2.29 5.68.37 1 .73 1.92 1.16 2.88a24.5 24.5 0 0 0 1.27 2.91.09.09 0 0 0 .08.05.1.1 0 0 0 .11-.1 25 25 0 0 0-.12-3.22c-.16-1.05-.39-2.1-.64-3.15" style="fill:#263238"/><path d="M64.91 336.42a18 18 0 0 1-12.73-13.52c-2.39-11.14 5.3-6.37-1.59-23.87s-5.3-21.47-2.92-26.51 3.72-3.45 5.84 3.18 9.81 17 12.72 36.33-1.32 24.39-1.32 24.39m20.41-18.83s-6.89-2.38-7.16-15.37 5-10.34 5.84-26.52 1.85-27.57 4.77-27.84 10.61 8 13.26 26-3.45 30-8.75 35.26-7.96 8.47-7.96 8.47M61.2 352.06s-1.6-9.54-4.78-14.05-10.07-8.48-14.58-17.23-9.54-13-9.28-.53 5.83 18.82 12.73 23.06 15.91 8.75 15.91 8.75m-2.92 16.44s-6.36-12.19-15.64-21.21-16.71-13.52-14.06-9 5.84 4.24 10.34 12.19 3.19 13.79 9.55 18.3 9.81-.28 9.81-.28m-.8 15.64c-.26-.79-.53-6.62-9.54-11.4s-17.5-2.91-16.44-.53 6.63 6.37 12.2 8.75 13.78 3.18 13.78 3.18m27.31-31.55s-4-5-1.85-15.64 6.89-7.95 12.19-13.52 4.25-6.37 9.55-12.2 10.07-9 12.19-6.63-1.06 9.81-4.24 14.06-8.22 6.34-10.63 11.66-1.33 13.79-7.43 17.77-9.78 4.5-9.78 4.5m13.26 2.92s9.54-10.87 16.44-18.83 9.54-14.05 9.81-8.74 2.38 9.54-3.18 16.43-23.07 11.14-23.07 11.14M93 373s-.26-4.24 14.85-14.05 21.48-11.67 19.89-7.69-8.22 8-15.38 15.11S93 373 93 373" style="fill:#92e3a9"/><path d="M65.54 335.29s-3.55-19-7.26-32.54-6.1-21.75-6.1-21.75m32.53 36.79s6.45-20.61 8.57-33.07S93 263 92 257.41m-31.64 94.25a100.3 100.3 0 0 0-9.77-13.91c-5.83-6.9-10.34-10.61-13-17.24m47.2 32.08s2.12-12.72 7.16-19.35 15.11-17 19.09-23.6m-54.18 74.22s-8.92-5.81-15.29-9" style="fill:none;stroke:#263238;stroke-linecap:round;stroke-linejoin:round"/><path d="M86.18 440.09H67.76s-16.67-37-9.22-46.14c5.85-7.12 31-7.12 36.86 0 7.46 9.1-9.22 46.14-9.22 46.14m97.94-191.59 30.48-20.28 39-112.19-12.89-50.51c-.45-1.8 4.85-3.35 6.56-2.63l50.86 22.65v354.79h-91.45v-160.9Z" style="fill:#263238;stroke:#263238;stroke-linecap:round;stroke-linejoin:round"/><path d="m187.63 248.5 30.48-20.28 39-112.19-12.9-50.51a2.24 2.24 0 0 1 3-2.63l54.37 22.65v354.79h-91.39v-160.9Z" style="fill:#92e3a9;stroke:#263238;stroke-linecap:round;stroke-linejoin:round"/><path d="m261.21 113.33 16.25 3.38h96.23l.89-3.38z" style="fill:#9c9c9c;stroke:#263238;stroke-linecap:round;stroke-linejoin:round"/><path d="m222.15 228.85 55.31-112.14h101.39l-44.18 111.51z" style="fill:#263238;stroke:#263238;stroke-linecap:round;stroke-linejoin:round"/><path d="m242.07 210.37 40.06-81.24h73.44l-32 80.77z" style="fill:#787878"/><path d="m255.67 182.79-13.6 27.58 81.5-.47 10.74-27.11z" style="fill:#595959"/><path d="m347.24 150.17 8.33-21.04h-73.44l-10.37 21.04z" style="fill:#969696"/><rect width="27.44" height="3.66" x="291.4" y="165.72" rx="1.58" style="fill:#263238"/><path d="m286.83 143.6-10.8 22a1.9 1.9 0 0 1-2.45.94 1.78 1.78 0 0 1-.78-2.44l10.8-22a1.9 1.9 0 0 1 2.45-.94 1.79 1.79 0 0 1 .78 2.44m39.63-13.41-18.9 36.42a1.88 1.88 0 0 1-2.44.94 1.79 1.79 0 0 1-.78-2.44l18.89-36.42a1.9 1.9 0 0 1 2.45-.94 1.78 1.78 0 0 1 .78 2.44m7.09 35.75-9 22.74a1.89 1.89 0 0 1-2.36 1.13 1.79 1.79 0 0 1-1-2.37l9-22.74a1.89 1.89 0 0 1 2.36-1.13 1.79 1.79 0 0 1 1 2.37" style="fill:#263238"/><rect width="27.44" height="3.66" x="276.16" y="157.79" rx="1.58" style="fill:#263238"/><rect width="27.44" height="3.66" x="301.46" y="175.17" rx="1.58" style="fill:#263238"/><path d="M302.45 159.89a2.1 2.1 0 1 0-2.09 2.09 2.1 2.1 0 0 0 2.09-2.09m-16.6 54.58a2.1 2.1 0 1 0-2.1 2.1 2.1 2.1 0 0 0 2.1-2.1m12.76 0a2.1 2.1 0 1 0-2.1 2.1 2.1 2.1 0 0 0 2.1-2.1m12.76 0a2.1 2.1 0 1 0-2.09 2.1 2.1 2.1 0 0 0 2.09-2.1" style="fill:#92e3a9"/><path d="M331.3 171.51a2.1 2.1 0 1 0-2.1 2.1 2.1 2.1 0 0 0 2.1-2.1" style="fill:#fff"/><path d="M265.2 198.1c-.63-.87-2.05-.87-3.18 0l-.74.58-.41-.58a1.66 1.66 0 0 0-1.39-.65 3 3 0 0 0-1.79.65c-1.13.88-1.55 2.31-.93 3.19l.41.57 2.25 3.18 4.11-3.18.74-.57a3.2 3.2 0 0 0 1.12-1.59 1.85 1.85 0 0 0-.19-1.6m10.67 0c-.63-.87-2.05-.87-3.18 0l-.74.58-.41-.58a1.66 1.66 0 0 0-1.39-.65 3 3 0 0 0-1.79.65c-1.13.88-1.55 2.31-.93 3.19l.41.57 2.25 3.18 4.11-3.18.74-.57a3.2 3.2 0 0 0 1.12-1.59 1.85 1.85 0 0 0-.19-1.6" style="fill:#92e3a9"/><path d="M333.99 123.88h10.26m-55.19.35h9.2" style="fill:none;stroke:#fff;stroke-miterlimit:10"/><path d="m222.15 228.85 112.52-.63-30.49 20.28-112.88.64z" style="fill:#92e3a9;stroke:#263238;stroke-linecap:round;stroke-linejoin:round"/><path d="M300.26 236.38c0 1.32-2.15 2.39-4.79 2.39s-4.79-1.07-4.79-2.39 2.14-2.4 4.79-2.4 4.79 1.08 4.79 2.4m-17.21 2.71c0 1.32-2.14 2.39-4.79 2.39s-4.79-1.07-4.79-2.39 2.15-2.4 4.79-2.4 4.79 1.07 4.79 2.4" style="fill:#92e3a9;stroke:#263238;stroke-linecap:round;stroke-linejoin:round"/><path d="M315.16 234c0 1.33-2.15 2.4-4.79 2.4s-4.79-1.07-4.79-2.4 2.14-2.39 4.79-2.39 4.79 1.05 4.79 2.39m-105.34 45.43h113.42v160.96H209.82z" style="fill:#263238;stroke:#263238;stroke-linecap:round;stroke-linejoin:round"/><path d="M245.9 304.4h41.24v58.53H245.9z" style="fill:#595959"/><path d="M300.67 248.5H187.26l22.55 30.93h113.42z" style="fill:#263238;stroke:#263238;stroke-linecap:round;stroke-linejoin:round"/><path d="M248.47 67.47h111.46l14.65 45.86H261.21z" style="fill:#92e3a9;stroke:#263238;stroke-linecap:round;stroke-linejoin:round"/><path d="M278.68 80h-4.56l-3.93 20.2h3.87l.78-4.44H278l.72 4.44h3.82Zm-3.47 13.24 1.2-8.16 1.22 8.16Zm18.56-2.88a3.6 3.6 0 0 0 1.5-1.14 4.2 4.2 0 0 0 .76-1.66 10.5 10.5 0 0 0 .21-2.22v-.66a6.7 6.7 0 0 0-.26-1.51 3.7 3.7 0 0 0-.5-1.07 4 4 0 0 0-2.24-1.63 11.6 11.6 0 0 0-3.54-.47h-5.23v20.2h4.11v-9.15H290l2.31 9.16h4.22Zm-1.61-3.06a1.82 1.82 0 0 1-.81 1 3.16 3.16 0 0 1-1.58.32h-1.19V82.8H290a2.12 2.12 0 0 1 1.9.74 3.6 3.6 0 0 1 .52 2.13 4.8 4.8 0 0 1-.26 1.63m17.97-.01v-1.7a8.6 8.6 0 0 0-.51-3.07 3.85 3.85 0 0 0-1.75-2 6.63 6.63 0 0 0-3.4-.73 6.77 6.77 0 0 0-3.56.82 4.46 4.46 0 0 0-1.83 2.34 8.3 8.3 0 0 0-.34 1.41 12.4 12.4 0 0 0-.18 2.19v7.26a10.9 10.9 0 0 0 .52 3.51 4.48 4.48 0 0 0 1.83 2.35 4 4 0 0 0 .73.37 7.2 7.2 0 0 0 2.83.49 6.37 6.37 0 0 0 3.44-.79 4.2 4.2 0 0 0 1.72-2.15 8.9 8.9 0 0 0 .5-3.13v-1.7h-4v2a12 12 0 0 1-.09 1.37 1.9 1.9 0 0 1-.43 1 1.44 1.44 0 0 1-1.14.38 1.7 1.7 0 0 1-1.11-.33 1.75 1.75 0 0 1-.52-1 7.3 7.3 0 0 1-.14-1.49v-9.15a10 10 0 0 1 .1-1.41 1.84 1.84 0 0 1 .48-1 1.54 1.54 0 0 1 1.19-.4 1.45 1.45 0 0 1 1.16.39 1.76 1.76 0 0 1 .42 1c0 .41.08.85.08 1.31v1.9ZM320.14 80h-4.57l-3.91 20.2h3.86l.77-4.44h3.2l.72 4.44H324Zm-3.47 13.24 1.2-8.16 1.22 8.16Zm20.23-10.5a3.88 3.88 0 0 0-2-2.07 9.9 9.9 0 0 0-4-.66h-4.93v20.2h5a9.3 9.3 0 0 0 3.93-.68 4 4 0 0 0 2-2.14 9.7 9.7 0 0 0 .6-3.69v-7.36a9.3 9.3 0 0 0-.6-3.6m-3.62 11.4a9.7 9.7 0 0 1-.12 1.76 1.67 1.67 0 0 1-.61 1.08 2.8 2.8 0 0 1-1.63.36H330V82.9h.85a3 3 0 0 1 1.58.3 1.5 1.5 0 0 1 .65.93 7 7 0 0 1 .16 1.69Zm11.06 3.28v-6.34H348v-2.86h-3.61v-5.38H349V80h-8.81v20.2h8.86v-2.78Z" style="fill:#fff"/><path d="m300.67 248.5 30.49-20.28 39-112.19-12.89-50.51c-.46-1.8 4.84-3.35 6.55-2.63l46 20.64a7.86 7.86 0 0 1 4.84 7.26v349.54h-91.43v-160.9Z" style="fill:#263238;stroke:#263238;stroke-linecap:round;stroke-linejoin:round"/><path d="M418.2 90.79v349.54h-91.46v-160.9l-22.56-30.92 30.49-20.29.3-.86 2.36-6.8 36.13-103.86.23-.67-.69-2.7-6.31-24.71v-.06l-5.9-23a2.25 2.25 0 0 1 2-2.8 1.6 1.6 0 0 1 .48 0 .9.9 0 0 1 .26.06 1.2 1.2 0 0 1 .25.08l49.53 20.64a7.86 7.86 0 0 1 4.89 7.25" style="fill:#92e3a9"/><path d="M376.94 251.54a3.49 3.49 0 0 1-3.69-.06l-33.74-21.92a3.47 3.47 0 0 1 3.78-5.83L377 245.65a3.47 3.47 0 0 1 1 4.81 3.6 3.6 0 0 1-1.06 1.08m41.38-63.29-.54-5.93a3.47 3.47 0 0 0-6.91.63l3.75 41.26a3.46 3.46 0 0 0 3.7 3.14Z" style="fill:#263238"/><path d="M418.32 213.35a49 49 0 1 0 0 97.63Z" style="fill:#fff"/><path d="m418.32 233.08-39.4 23.78a8 8 0 0 0-2.71 11l9.61 15.94a8 8 0 0 0 11 2.71l21.52-13Z" style="fill:#263238"/><path d="M418.32 176.36a7.45 7.45 0 1 0-.14 12.66l.14-.1Zm-68.75 51.45a7.46 7.46 0 0 1-3.4 4.67 8 8 0 0 1-1.24.6 7.46 7.46 0 0 1-9-3.14 7.2 7.2 0 0 1-1-2.58l2.36-6.8a7 7 0 0 1 1.14-.84 7.45 7.45 0 0 1 11.1 8.09Zm50.9 35.93a6.39 6.39 0 1 1-8.77-2.16 6.38 6.38 0 0 1 8.77 2.16" style="fill:#fff"/><path d="m418.32 284.06-9.79 5.94a2.4 2.4 0 0 0 2.48 4.1l7.31-4.41Zm-59.95 60.26a1.92 1.92 0 0 1-2.06 0l-18.85-12.24a1.94 1.94 0 0 1 2.11-3.26L358.42 341a2 2 0 0 1 .57 2.69 1.9 1.9 0 0 1-.62.63m23.98-13.78a1.8 1.8 0 0 1-.83.27 1.93 1.93 0 0 1-2.1-1.75l-2.1-23.06a1.94 1.94 0 1 1 3.86-.35l2.1 23a1.93 1.93 0 0 1-.93 1.89" style="fill:#263238"/><circle cx="379.31" cy="350.25" r="27.36" style="fill:#fff" transform="rotate(-79.15 379.288 350.253)"/><rect width="38.36" height="19.33" x="357.88" y="338.3" rx="6.9" style="fill:#263238" transform="rotate(-31.11 377.084 347.976)"/><path d="M382.81 303.68a4.17 4.17 0 1 0-1.41 5.72 4.16 4.16 0 0 0 1.41-5.72M342.59 328a4.16 4.16 0 1 0-1.42 5.72 4.16 4.16 0 0 0 1.42-5.72m46.49 12.54a3.57 3.57 0 1 1-4.9-1.21 3.57 3.57 0 0 1 4.9 1.21m-17.57 10.6a3.57 3.57 0 1 1-4.9-1.21 3.57 3.57 0 0 1 4.9 1.21" style="fill:#fff"/><rect width="24.38" height="2.68" x="373.8" y="359.99" rx="1.16" style="fill:#263238" transform="rotate(-31.2 383.359 359.158)"/><path d="m304.18 248.5 30.49-20.28 39-112.19-12.89-50.51a2.24 2.24 0 0 1 3-2.63l49.54 20.64a7.86 7.86 0 0 1 4.84 7.26v349.54h-91.42v-160.9Z" style="fill:none;stroke:#263238;stroke-linecap:round;stroke-linejoin:round"/><path d="M418.2 107.45v32.85l-3.51 4.28-32.48 39.59a.2.2 0 0 0-.06.07l-7.34 8.94A10.43 10.43 0 0 1 358.69 180l7.31-9 .08-.09 48.58-59.2Z" style="fill:#263238"/><path d="M366.74 197a10.41 10.41 0 0 1-8.05-17l7.34-9a10.42 10.42 0 0 1 16.12 13.22l-7.35 9a10.4 10.4 0 0 1-8.06 3.78" style="fill:#fff"/><path d="M418.2 374.72v29.47l-3.51 3.51-9.43 9.42a2 2 0 0 1-.18.2l-11.85 11.84a10.42 10.42 0 0 1-14.73-14.75l11.83-11.83c.13-.13.26-.26.39-.37l24-24Z" style="fill:#263238"/><path d="M385.87 432.21a10.43 10.43 0 0 1-7.37-17.8l11.83-11.83a10.42 10.42 0 0 1 14.74 14.74l-11.83 11.83a10.4 10.4 0 0 1-7.37 3.06" style="fill:#fff"/><path d="M251.19 339.96h10.04v14.67h-10.04zm16.98 0h10.04v14.67h-10.04z" style="fill:#c7c7c7"/><path d="M251.19 314.87h10.04v14.67h-10.04zm16.98 0h10.04v14.67h-10.04z" style="fill:#919191"/><path d="m278.21 314.87-4 14.68h-9.33l3.29-14.68zm-17.65 0-4 14.68h-9.32l3.29-14.68z" style="fill:#92e3a9"/><path d="M203.76 425.78s10.48 7.05 15.82 7.48 8.77 1.71 8.12 4.06-5.13 5.13-13.68 6-13-.64-19.23-.86-11.55 2.57-15.18-.64-3.21-5.56-3-7.69 4.7-1.93 12-4.28 15.15-4.07 15.15-4.07" style="fill:#fff;stroke:#263238;stroke-linecap:round;stroke-linejoin:round"/><path d="M227.7 437.32a1.81 1.81 0 0 0-.41-1.77c-3.09 2.67-10.61 6.23-15.62 6.05-6-.22-11.54-1.71-22.87-1.5l-10.66.21a13 13 0 0 0 1.47 1.5c3.63 3.21 9 .43 15.17.64s10.69 1.71 19.24.86 13.04-3.64 13.68-5.99" style="fill:#fff;stroke:#263238;stroke-linecap:round;stroke-linejoin:round"/><path d="M197.68 315.51s16.37 39.84 15.44 46.32-11.73 33.66-12.66 38.29.62 13.28.62 13.28a4.85 4.85 0 0 1 3.09 4c.31 3.09 1.54 9.26 1.54 9.26a44.7 44.7 0 0 1-13 6.49 81.3 81.3 0 0 1-15.71 2.49c-1.23 0-2.47-4.94-3.08-8.34s5.24-10.81 7.41-15.13 7.67-24.4 11.41-31.17 9-26.87 8.34-34.59-6.48-23.16-6.48-28.1 3.08-5.89 3.08-2.8" style="fill:#9c9c9c;stroke:#263238;stroke-linecap:round;stroke-linejoin:round"/><path d="M176.19 424.07s3.85 1.92 11.11.43 10.48-4.92 6.63-4.71a39.4 39.4 0 0 0-8.76 1.93" style="fill:none;stroke:#263238;stroke-linecap:round;stroke-linejoin:round"/><path d="M179.18 430.81s11.33 7.06 14.54 7.27 5.34 2.78 4.27 6.2-9.19 5.13-21.37 5.34-25.44-.85-28.86-1.49-6.63-.64-6.84-2.78a47 47 0 0 1 0-5.77s5.34-1.5 10-3.42 18.17-4.49 20.53-5.13 7.73-.22 7.73-.22" style="fill:#fff;stroke:#263238;stroke-linecap:round;stroke-linejoin:round"/><path d="M175.55 447.7c-12.31.18-29.43-3.06-34.71-3.77 0 .51 0 1 .08 1.42.21 2.14 3.42 2.14 6.84 2.78s16.67 1.71 28.86 1.49 20.3-1.92 21.37-5.34a4.83 4.83 0 0 0-.27-3.89 25 25 0 0 1-1.87 2.82c-2.56 3.42-5.55 4.28-20.3 4.49" style="fill:#fff;stroke:#263238;stroke-linecap:round;stroke-linejoin:round"/><path d="M147.66 308.22s9.57 23.47 9.88 30.57 2.47 17.29 4.63 19.15l2.16 1.85s-6.17 4.32-5.87 9.88-6.17 21.93-9.88 29.34-8.64 28.41-9.26 32.11.31 11.12.31 11.12 7.41.93 11.42 1.55 9 .92 9 .92l2.47-4.94 2.78 5.25s7.1-2.16 10.5-5.25a62 62 0 0 0 5.87-6.18l-4.95-7.1S202 369.67 203.55 362s.31-16.37.31-22.54-7.72-35.51-7.72-35.51Z" style="fill:#9c9c9c;stroke:#263238;stroke-linecap:round;stroke-linejoin:round"/><path d="M192.43 326.44s-7.1 1.54-13 3.4a76.3 76.3 0 0 1-14.2 2.47l1.54 6.79s8.65.62 14.83-.62 14.82-3.39 14.82-3.39l-1.85-6.8m-26.22 13.28s3.39 11.12 3.7 12.35-2.47 5.87-.92 7.41 13 2.17 18.52 1.55 10.5-3.09 10.81-6.18-3.39-16.06-3.39-16.06m-21.62-26.55 2.47 12.04m3.08 39.22-15.13 45.08s-11.43 9.58-12 11.74 7.37 10.83 7.37 10.83" style="fill:none;stroke:#263238;stroke-linecap:round;stroke-linejoin:round"/><path d="M146.73 416.61s29.34-6.79 35.82-17" style="fill:none;stroke:#263238;stroke-linecap:round;stroke-linejoin:round"/><path d="M199.32 144s-3.67 2.56-2.93 5.86 6.59 7 4.39 8.43-4 2.2-4 3.3-4 15-7.32 15.39-11.36-2.2-11.36-2.2a21.26 21.26 0 0 0-5.87 11l-25.65-7a14.14 14.14 0 0 0 .37-12.09 68.7 68.7 0 0 0-5.87-10.26s10.27-23.45 29.69-28.22S199.32 144 199.32 144" style="fill:#fff;stroke:#263238;stroke-linecap:round;stroke-linejoin:round"/><path d="M193.94 165s-6.84-1-7.25-5.44m1.62-.79-4.43 2.42" style="fill:none;stroke:#263238;stroke-linecap:round;stroke-linejoin:round"/><path d="M167.77 165.42s5.89 7.75 10.3 9.31c0 0-3.66 4.18-4.26 5.59 0 0-5.44-8.66-6.04-14.9" style="fill:#263238;stroke:#263238;stroke-linecap:round;stroke-linejoin:round"/><path d="M138.83 300.5s-.33 8.43 2.36 9.78 6.41 4.38 28.67 2.36 31-7.42 32.38-9.78.68-8.77.68-8.77-19.9 5.73-36.77 5.73-27.32.68-27.32.68m109.06-73.81 2.93 7.74a13.1 13.1 0 0 1-3 3c-2.45 2-6.36 3.75-9.65 2a9.5 9.5 0 0 1-4.36-4.85s4.92-7 7-8.07 7.08.18 7.08.18" style="fill:#fff;stroke:#263238;stroke-linecap:round;stroke-linejoin:round"/><path d="m245.85 230.22 6.76 13.2" style="fill:#fff;stroke:#263238;stroke-linecap:round;stroke-linejoin:round;stroke-width:2px"/><path d="M250.37 226.69s4.57 2.62 3.86 4.46-4 4.47-6.67 4.93-3.45-2.13-2.13-2.36 4.68-4.59 4.94-7.03" style="fill:#fff;stroke:#263238;stroke-linecap:round;stroke-linejoin:round"/><path d="M253.79 232.33s1.78 2.15 1 3.69-5.8 4-7.48 3.42.25-3.36.25-3.36 4.99-2.83 6.23-3.75" style="fill:#fff;stroke:#263238;stroke-linecap:round;stroke-linejoin:round"/><path d="M253.74 237.08a3.37 3.37 0 0 1-.85 3.13c-1.36 1.29-5.75 2.24-6.82 1.2s1.24-2 1.24-2a39 39 0 0 0 6.43-2.33m-3.37-10.39a6.07 6.07 0 1 0-4.94 7 6.07 6.07 0 0 0 4.94-7" style="fill:#fff;stroke:#263238;stroke-linecap:round;stroke-linejoin:round"/><path d="M229.73 230.05s6.52-7.74 6.89-9.51 4.36-2.48 5.3-3 6.67-4.93 7-2.94.15 4.77-1.95 6.51-6.13 2.1-6.13 2.1 1.81 4.48.83 6.7-7.16 6.05-7.16 6.05Zm-10.14 11.2s-11.73 4.17-16.39 4.63-17.48-2.55-17.48-2.55l.91-10.87v-5.09a91 91 0 0 0 13.73 6.2c7.64 2.69 19.23 7.68 19.23 7.68" style="fill:#fff;stroke:#263238;stroke-linecap:round;stroke-linejoin:round"/><path d="M128 212.47s7.76 29.68 8.77 38.11-4.39 47.22-1 50.26 17.54 7.42 36.76 4.72 30-7.08 30.36-11.47-5.06-24.62-7.76-35.08-3.37-29.68-4.72-42.5-1-18.88-5.06-23.27-7.08-5.39-11.13-5.73-14.84 1-22.94 7.42-13.49 14.16-16.86 15.85a15.85 15.85 0 0 1-6.42 1.69" style="fill:#92e3a9;stroke:#263238;stroke-linecap:round;stroke-linejoin:round"/><path d="M180 186.5s-4.72-2-7.76-3.38-23.94-6.07-27.32-6.74-11.46-1.35-13.49 1.35-2.7 8.43-2.7 8.43-9.78 11.8-5.39 21.25 7.75 14.84 12.48 13.15 10.79-8.09 20.91-19.56 21.59-11.47 21.59-11.47 5.03 0 1.68-3.03" style="fill:#fff;stroke:#263238;stroke-linecap:round;stroke-linejoin:round"/><path d="M172.69 190.3s9.15-2.68 15.6 4.23 20.25 19.91 22.15 21.34 7.88 5 7.88 5 6.87 2.76 12.65 5 26.44 13.23 28.54 13.61 2.91 1.28 7.44-.39 10.68-3.92 11.77-3.4 8.07 3.95 9.12 4.14 8.68 1.14 8.16 2.23a4.84 4.84 0 0 1-3.43 2.2c-1.34.19-6.16-.13-9.45.68s-5.48 4.54-12.15 5.5-18.42-2.44-18.42-2.44-23.85-2.36-35.06-4.5-41.81-18.17-44.29-18.84-9.16-2.09-9.16-2.09" style="fill:#92e3a9;stroke:#263238;stroke-linecap:round;stroke-linejoin:round"/><path d="M160 232.34c8.53.13 21.17-4.41 21.17-4.41s-4.43 7.11-11 10.79" style="fill:none;stroke:#263238;stroke-linecap:round;stroke-linejoin:round"/><path d="M296 242.06c.52-1.09-7.11-2-8.16-2.23s-8-3.62-9.12-4.14-7.24 1.73-11.77 3.4-5.35.77-7.44.39c-1.78-.32-16.79-8.21-24.9-12 .84 2.92 1.38 6.48.33 9.41a19.86 19.86 0 0 1-6.27 8.34c11.21 1.5 23.88 2.76 23.88 2.76s11.74 3.42 18.42 2.46 8.86-4.69 12.15-5.5 8.11-.49 9.45-.68a4.84 4.84 0 0 0 3.43-2.21" style="fill:#fff;stroke:#263238;stroke-linecap:round;stroke-linejoin:round"/><path d="m161.52 158.27 3.89 12.93s-6 .7-20.19-4.19-18.56-22-15.73-33.23 15.38-28.63 34.5-30 31.88 15.38 35.77 22.72 3.9 16.08 2.48 18.17a45 45 0 0 1-5.31 5.6l-4.25-6.3s-1.42 6.64-3.19 7.34a22.5 22.5 0 0 1-4.25 1.05l-5-7.34.36 7.69a52 52 0 0 0-6.38 3.15c-1.41 1-7.43 4.54-7.43 4.54a5.49 5.49 0 0 1-5.27-2.13" style="fill:#263238;stroke:#263238;stroke-linecap:round;stroke-linejoin:round"/></svg>