<svg xmlns="http://www.w3.org/2000/svg" color="#00CFFF" opacity=".08" viewBox="0 0 500 500"><path d="M148.4 47.1a6.4 6.4 0 0 0-2.24 4.32 12.6 12.6 0 0 0-.08 3.39q.19 1.53.54 3.24l-17.75 1.46a47 47 0 0 1-.67-5.64 28.6 28.6 0 0 1 .29-5.63Q130 38 137.09 33.09t18.78-3.16q11.79 1.72 17.26 8.85t3.79 18.57a38.6 38.6 0 0 1-4.29 13c-.31.57-.64 1.14-1 1.7m-2 2.93a45.3 45.3 0 0 1-5.63 6.29 63 63 0 0 1-12.46 8.91l-1.67 11.45-17.29-2.52L134.83 84a62.5 62.5 0 0 0 10.8-7.72 44.2 44.2 0 0 0 8.22-9.72A29.5 29.5 0 0 0 158 55.19c.42-2.88.2-5-.66-6.48A5.71 5.71 0 0 0 153 46.1m-24.6 77.78 2.65-18.1 18.58 2.71L147 126.6ZM449 247.19a26 26 0 0 0 2.21-7.89q.47-3.86-.75-5.75a5 5 0 0 0-3.92-2.2 5.16 5.16 0 0 0-4.08 1 5.6 5.6 0 0 0-1.89 3.9 11.3 11.3 0 0 0 0 3c.14.9.33 1.85.57 2.87l-15.77 1.74a41 41 0 0 1-.73-5 26 26 0 0 1 .11-5q1.08-9.18 7.28-13.69t16.63-3.28q7.91.93 12.71 4.65m3.32 3.37q4.53 6.1 3.38 15.85a34 34 0 0 1-3.49 11.65 38.1 38.1 0 0 1-7.36 9.93 56.8 56.8 0 0 1-10.86 8.25l-1.2 10.23-15.41-1.82 1.58-13.47a55 55 0 0 0 9.41-7.14 39.2 39.2 0 0 0 7.08-8.86m-21.21 51.64 1.9-16.18 16.6 1.95-1.9 16.18ZM21.2 274.56a31.6 31.6 0 0 1 9.31-2.66q10.86-1.51 17.51 3.36t8.12 15.41a35.4 35.4 0 0 1-.44 12.55 38 38 0 0 1-1.7 5.71m-1.72 3.79c-.4.79-.84 1.56-1.29 2.33a58 58 0 0 1-8.7 11.08l1.47 10.53-15.9 2.22L25.88 325a57.2 57.2 0 0 0 7.54-9.6 40.5 40.5 0 0 0 4.75-10.68 27.2 27.2 0 0 0 .75-11.12c-.37-2.65-1.13-4.49-2.26-5.54a5.2 5.2 0 0 0-4.49-1.18 5.4 5.4 0 0 0-3.82 2.12 5.82 5.82 0 0 0-.86 4.39 11.4 11.4 0 0 0 .8 3c.38.86.81 1.77 1.31 2.72L14.32 305a41 41 0 0 1-2-4.81 26 26 0 0 1-1.2-5q-1.32-9.45 3.68-15.57a18 18 0 0 1 4.16-3.69m11.56 86-2.32-16.66 17.08-2.38 2.32 16.65Zm243.75 52.89c.41-.52.8-1.05 1.18-1.58a27 27 0 0 0 3.55-6.94 18.2 18.2 0 0 0 .93-7.37 6.17 6.17 0 0 0-1.29-3.78 3.49 3.49 0 0 0-3-1 3.58 3.58 0 0 0-2.62 1.23 3.9 3.9 0 0 0-.74 2.89 7.5 7.5 0 0 0 .42 2c.21.59.47 1.21.77 1.86l-10.41 3.31a26.5 26.5 0 0 1-1.17-3.28 17 17 0 0 1-.61-3.4q-.51-6.34 3-10.23t10.79-4.47q7.28-.6 11.53 2.91m1.89 2a16.1 16.1 0 0 1 2.92 8.6 23.4 23.4 0 0 1-.77 8.34 26.5 26.5 0 0 1-3.62 7.7 38.5 38.5 0 0 1-6.22 7l.58 7.07-10.68.87-.76-9.3a39 39 0 0 0 2.93-3M271.71 444l-.91-11.18 11.47-.94.91 11.18Z" style="fill:none;stroke:#263238;stroke-linecap:round;stroke-linejoin:round"/><path d="M393.88 251.24a29.46 29.46 0 0 0-6.94-19A29.58 29.58 0 0 0 363 191.09a29.56 29.56 0 0 0-34.61-26.87c-4.32-12.75-19.48-22.16-37.53-22.16a48.6 48.6 0 0 0-17.23 3.08c-6.92-8.11-18.89-13.48-32.52-13.48a46.26 46.26 0 0 0-25.11 7.08 29.4 29.4 0 0 0-44.86 18.35 23.74 23.74 0 0 0-39 8.74 22.85 22.85 0 0 0-30.43 27.38 24 24 0 0 0-24.47 40.09 26.46 26.46 0 0 0 24.11 45.7 26.45 26.45 0 0 0 36.47 38 32.42 32.42 0 0 0 58 7.09 32.42 32.42 0 0 0 56.69-5 32.4 32.4 0 0 0 47.4 1.91 32.41 32.41 0 0 0 44.44-8.52 23.74 23.74 0 0 0 28.29-32.84 29.59 29.59 0 0 0 21.24-28.4" style="fill:#92e3a9;stroke:#263238;stroke-linecap:round;stroke-linejoin:round"/><path d="M343.33 202.47c1.36 7-.74 6.43-5 7.26s-9.09 2.76-10.45-4.27 2.94-4.17 7.21-5 6.91-5.02 8.24 2.01" style="fill:#263238"/><path d="M331.17 214.89s7.21 5.69 18.22 1.51" style="fill:none;stroke:#263238;stroke-linecap:round;stroke-linejoin:round"/><path d="M321.9 249s9.18-13.52 18.35-8.21" style="fill:none;stroke:#263238;stroke-linecap:round;stroke-linejoin:round;stroke-width:2px"/><path d="M293.15 210.15c1.36 7-1 13.39-5.26 14.22s-8.83-4.2-10.19-11.23 1-13.39 5.26-14.22 8.83 4.2 10.19 11.23" style="fill:#263238"/><ellipse cx="282.66" cy="207.84" rx="2.77" ry="3.8" style="fill:#fff"/><path d="M216 138.74s4.32 1.44 8 7.64c0 0 20.85-7.28 32.87 3.1 8.75 7.56 6.82 15.5 6.82 15.5a28.62 28.62 0 0 1 22.31-.58c12.13 4.77 11.69 21.66 11.69 21.66M299.91 321a21.74 21.74 0 0 0 6-9.67s14.26-2.48 18.6-16.74c3.12-10.24-1.86-14.26-1.86-14.26s9.92-3.72 7.44-19.23m-231.6-51.66s-.43-16.45 14.72-19.92m11.7-13.42s4.76-12.56 17.75-9.53M94.59 268.34a19.77 19.77 0 0 0 18.62 14.73m43.94 28.63a63.6 63.6 0 0 0-3.66-10.88c-6.06-13.42-21.22-15.59-25.12-9.53m9.45 25.71a21.88 21.88 0 0 0-19-10.12m88.37 13.43c-15.59 3.47-25.55-2.6-25.55-2.6s-3.9 6.07-14.73 4.77c-5.53-.67-7.33-2.8-8.58-6.52m-40.79-88.33c3.47 6.5 4.33 13.43-2.59 18.19m-23.82-37.68s-2.6 6.5 3.89 11.7c4.72 3.77 12.65 2.75 18 4.4m-35.78 9.06s8.69 9.06 21.25 8.62m76.06-77.28c8.64.57 20.14.6 26.14-2.4 10.4-5.2 5.63-11.69-3.89-7.8s-12.13 5.2-12.13 5.2m-21.22 3.9s2.66.38 6.62.75m183.07 22.63s9.09 2.17 12.12 13.86m-94.08 108.87q2.26-1.29 4.49-2.86m-36.56 10.38a60.3 60.3 0 0 0 26.14-4.61M137.7 269.14a33.9 33.9 0 0 1-11.44 1.08c-11.29-.9-19.42-4.51-24.38-13.09m104.69-23.78c2.49-1.32 5.1-2.61 7.82-3.8M180 252.09A130.4 130.4 0 0 1 200.19 237m18.59-27.48c-12.72 0-29.63 10.69-36.43 15.38a7.69 7.69 0 0 1-8.89 0c-3.07-2.27-4.34-6.87 5.87-16m-33.21 56.81a28 28 0 0 1-3.78 1.86" style="fill:none;stroke:#263238;stroke-linecap:round;stroke-linejoin:round"/><path d="M226.47 173.17s-11.74-8.58-1.81-14.45 36.57.45 47 13.54" style="fill:none;stroke:#263238;stroke-linecap:round;stroke-linejoin:round"/><path d="M149.53 435.8s-5.21-11.23.4-19.25 9.63-13.25 16-11.64 8 6.82 4.82 12.44a115 115 0 0 1-6.75 10.43s11.18 7.93 10.78 11.54-7.63 8-11.24 7.63-13.21-9.14-14.01-11.15" style="fill:#c9c9c9;stroke:#263238;stroke-linecap:round;stroke-linejoin:round"/><path d="M138.6 436.14s-5.21-11.24.41-19.26 9.63-13.24 16-11.64 8 6.82 4.82 12.44a113 113 0 0 1-6.82 10.43s11.18 7.93 10.78 11.54-7.63 8-11.24 7.63-13.14-9.14-13.95-11.14" style="fill:#c9c9c9;stroke:#263238;stroke-linecap:round;stroke-linejoin:round"/><path d="M127.65 441s-3.82-19.2 8.36-30.47c6.13-5.66 10.9-7.24 14.51-2s-3.61 13.64-5.61 19.26 1.2 11.24 2.4 11.64 14.05 2 14.05 2 4.81 24.08-3.61 24.08-29.69-16.15-30.1-24.51" style="fill:#c9c9c9;stroke:#263238;stroke-linecap:round;stroke-linejoin:round"/><path d="M191.17 329.75a32.3 32.3 0 0 1-14.94 8.32v60.59l-3.46 3.74a133 133 0 0 0-8.94 16.39c-4.47 9.68-6 27.55-6 27.55l-22.35-7.44s-3.72-14.16-4.46-20.11-11.18-12.67-16.39-3 2.23 26.81 14.15 39.47 26.07 18.62 41 19.37S209.23 465.88 213 451s-21.53-52.46-21.53-52.46Z" style="fill:#c9c9c9;stroke:#263238;stroke-linecap:round;stroke-linejoin:round"/><path d="M176.23 338.07v11.28a59 59 0 0 0 15-4.86l-.06-14.74a32.3 32.3 0 0 1-14.94 8.32" style="fill:#263238;stroke:#263238;stroke-linecap:round;stroke-linejoin:round"/><path d="M374.81 287.92c.05.59.08 1.19.08 1.8a23.75 23.75 0 0 1-13.84 21.58c16.1 8.75 40.81 23 42.17 28.81 2 8.63-16.25-2-16.25-2l8.63 24.38s39.11 13.2 46.73-13.72c6.01-21.26-45.5-49.77-67.52-60.85" style="fill:#c9c9c9;stroke:#263238;stroke-linecap:round;stroke-linejoin:round"/><path d="M374.89 289.72a23.74 23.74 0 0 1-13.84 21.58c4.49 2.44 9.64 5.3 14.78 8.3-.1-1.77 0-6.73 2.77-14.17a36 36 0 0 1 7.17-11.78c-4.09-2.22-7.82-4.15-11-5.73.09.59.12 1.19.12 1.8" style="fill:#263238;stroke:#263238;stroke-linecap:round;stroke-linejoin:round"/><path d="M375.06 314.86s-35.25 6.07-44.72 4.93-15.16-2.65-15.54 4.55 5.3 9.85 10.61 11.75 17.43 3.79 20.46 3.41 33.36-.76 35.63-9.86-1.5-15.91-6.44-14.78" style="fill:#c9c9c9;stroke:#263238;stroke-linecap:round;stroke-linejoin:round"/><path d="M411.11 360.51s-11.46 13.75-21.2 8.6-9.17-12-9.17-12L369.29 364s7.44 4.58 6.3 10.31-12.61 4.59-18.91 1.15-7.45-8-7.45-8a14 14 0 0 1-6.87-4c-3.44-3.44-2.87-10.32-2.87-10.32s-5.15-5.72-5.73-9.74-.57-16.61 4-20.62 34.38-9.17 34.38-9.17-14.32-6.3-18.91-6.3-18.9 6.87-24.06 7.45-9.17-5.76-5.72-13.83 31.55-17.19 40.27-12.23S383 302.07 383 302.07l28.64 35.53a31 31 0 0 0 18.5-2.6" style="fill:#c9c9c9;stroke:#263238;stroke-linecap:round;stroke-linejoin:round"/><path d="M339.49 353.06S343.8 334 346.34 332s31-8.12 31-8.12m-28.11 43.51s3.2-19.15 6.76-21.69 24.88-7.62 24.88-7.62" style="fill:none;stroke:#263238;stroke-linecap:round;stroke-linejoin:round"/><path d="M142.54 231.51s12.25-18.67 15.28-22.56 11.22-6.47 19-8.2 21.6-3 21.6-3 23.31.43 26.34 1.72a38.6 38.6 0 0 1 6.47 3.89s6.48-9.93 16.41-9.93 48.8.86 49.66 4.75 5.18 28.93 5.18 28.93 0-28.93 2.16-29.36 6.05-3 8.21 1.29 5.61 18.14 5.61 18.14 3-23.32 12.95-24.62 30.74-7.95 30.74-7.95l-.94-3.7-39 12.32s-8.51-2.39-15-2.39-13 .43-13 .43-41.46-6.05-51.39-4.75a67.7 67.7 0 0 0-18.13 5.18s-55.71 4.75-58.3 5.18-15.54 3.46-18.13 7.78-5.72 26.85-5.72 26.85" style="fill:#263238;stroke:#263238;stroke-linecap:round;stroke-linejoin:round"/><path d="M234.21 183.49s-70.28 11.35-78.57 11.35-22.26 26.63-24 31.86 6.55 5.68 10.91 4.81 11.79-27.94 17.47-29.69 68.15-4.25 68.15-4.25Z" style="fill:#fff;stroke:#263238;stroke-linecap:round;stroke-linejoin:round"/><path d="M364.34 175.57a132.7 132.7 0 0 0-32.48 6.43s-7.58 1.9-12.45 4.65c-6.42 1.61-14.77 1.61-17.36 1.56-6.19-2.48-16.07-3.64-16.07-3.64s-22.6-4.68-44-3.75-20.82 8.1-20 9.25c1.17 1.56 6.15 7.5 6.15 7.5s1.61 37.16 13.39 43.2 55.14-.93 64.24-3.72c8.2-2.51 3.87-30.52 1.69-41.94a15.5 15.5 0 0 1 7.88-1.15c-.1 10.84.51 37.07 7.78 38.58 8.08 1.69 45.64 3.86 54.64-2.89s4.72-41.31 4.72-41.31l3.43-4.34c3.45-4.35-3.4-9.68-21.56-8.43m-65 54.52c-5.35 2.32-47.11 6.5-53.53.92s-10.71-34.37-9.1-38.08 4.82-1.4 14.45-1.86 48.18 4.18 48.18 4.18 5.38 32.51.02 34.84ZM372.7 221c-4.56 5.8-40.35 6-45.21 4.42s-5.28-32.25-5.28-32.25 31.75-8.1 39.93-8.62 10.53-3 12.45.3 2.67 30.4-1.89 36.15" style="fill:#fff;stroke:#263238;stroke-linecap:round;stroke-linejoin:round"/><path d="M236.2 171.59s12.6-18 41.06-21.47a30 30 0 0 1 16.59 2.75l9.95 4.76-9.55 16.16s-.74-6.61-20.58-7.34-30.86 12.49-34.53 11-7.35-2.19-2.94-5.86m83.58-4.59s22.8 7.35 33.1-5.89 11-19.12 14-14.71 0 24.28-14 33.84-32.36 3.68-32.36 3.68Z" style="fill:#263238"/><rect width="83.83" height="96.28" x="360.12" y="33.29" rx="7.03" style="fill:#263238;stroke:#263238;stroke-linecap:round;stroke-linejoin:round" transform="rotate(180 402.035 81.435)"/><rect width="15.77" height="21.58" x="341.72" y="107.6" rx="2.64" style="fill:#263238;stroke:#263238;stroke-linecap:round;stroke-linejoin:round" transform="rotate(180 349.61 118.395)"/><rect width="10.73" height="14.68" x="328.63" y="121.25" rx="2.64" style="fill:#263238;stroke:#263238;stroke-linecap:round;stroke-linejoin:round" transform="rotate(180 333.995 128.59)"/><path d="M389.6 95.63V78.26a71.3 71.3 0 0 0 10.9-10.5 50 50 0 0 0 7.67-12.32A33.6 33.6 0 0 0 411 41.91c0-3.31-.6-5.72-1.82-7.2a6.46 6.46 0 0 0-5.31-2.22 6.67 6.67 0 0 0-5.05 1.89 7.24 7.24 0 0 0-1.82 5.25 14.4 14.4 0 0 0 .47 3.83c.32 1.13.7 2.31 1.15 3.57l-19.79 4.58a53 53 0 0 1-1.69-6.26 33 33 0 0 1-.6-6.4q0-11.84 7.2-18.51t20.67-6.66q13.59 0 20.93 7.13t7.34 20.33A43.7 43.7 0 0 1 430 56.59a49.3 49.3 0 0 1-7.87 13.73 72 72 0 0 1-12.59 12.12v13.19Zm-.68 28.67v-20.86h21.41v20.86Z" style="fill:#92e3a9;stroke:#263238;stroke-linecap:round;stroke-linejoin:round"/></svg>