<svg xmlns="http://www.w3.org/2000/svg" opacity=".1" viewBox="0 0 500 500"><path d="M420.9 59.54s4.49-14.13-12.21-21.19-43.69 3.21-42.38 10.27 14.13 14.13 5.14 14.77-14.77-12.84-33.4-6.39 3.21 14.77-1.28 14.77-16.7-3.21-27.62 0 0 9 41.1 12.2 31.47-5.13 46.88-6.42 13.49 5.78 46.24 0 21.2-25.72-22.47-18.01M231.78 29.25s2.53-8-6.88-11.94-24.61 1.81-23.9 5.79 8 8 2.89 8.32-8.32-7.23-18.82-3.61 1.81 8.32-.72 8.32-9.41-1.81-15.56 0 0 5.06 23.16 6.87 17.73-2.89 26.42-3.61 7.6 3.25 26.05 0 11.96-14.48-12.64-10.14M95 118.49s2.54-8-6.87-11.95-24.61 1.81-23.89 5.79 8 8 2.9 8.33-8.32-7.24-18.82-3.62 1.81 8.32-.72 8.32-9.41-1.81-15.56 0 0 5.07 23.16 6.88 17.73-2.9 26.41-3.62 7.6 3.26 26.06 0 11.89-14.48-12.67-10.13" style="opacity:.15"/><path d="m106.43 146.47-.47 130h137.71l1.14-19.5h15v4.5h1.87v15h7V262H271v-3.5h14.49v18h142.59v-130ZM283.62 240h-37.87l-1.87-62.5h39.74Zm16.37-125.47h33.2v9.9h-33.2zm-143.87-.58h37.72v8.68h-37.72z" style="fill:#263238;stroke:#263238;stroke-linecap:round;stroke-linejoin:round"/><path d="m89.28 120.22 9.94 13.54v-8.35H436v5.22l8.12-10.41L325 120.2v2.43l-4.18-.35-2.82.72a4.4 4.4 0 0 1-2.09.7 10.2 10.2 0 0 0-2.78.69H310l-4.14-1.39-1.4-2.44H188.62l-3.82 2.09h-6.61l-2.09-.35h-9.39l-5.22-2.08Z" style="fill:#263238;stroke:#263238;stroke-linecap:round;stroke-linejoin:round"/><path d="M98.52 120.2h9.04v2.44h-9.04zm10.79 0h9.04v2.44h-9.04zm10.78 0h9.04v2.44h-9.04zm10.79 0h9.04v2.44h-9.04zm10.78 0h9.04v2.44h-9.04zm10.78 0h9.04v2.44h-9.04zm32.36 0h9.04v2.44h-9.04zm10.78 0h9.04v2.44h-9.04zm10.78 0h9.04v2.44h-9.04zm10.79 0h9.04v2.44h-9.04zm10.78 0h9.04v2.44h-9.04zm10.79 0h9.04v2.44h-9.04zm10.78 0h9.04v2.44h-9.04zm10.78 0h9.04v2.44h-9.04zm10.79 0h9.04v2.44h-9.04zm10.78 0h9.04v2.44h-9.04zm10.79 0h9.04v2.44h-9.04zm10.78 0h9.04v2.44h-9.04zm21.57 0h9.04v2.44h-9.04zm10.78 0h9.04v2.44h-9.04zm10.79 0h9.04v2.44h-9.04zm10.78 0h9.04v2.44h-9.04zm10.78 0h9.04v2.44h-9.04zm10.79 0h9.04v2.44h-9.04zm10.78 0h9.04v2.44h-9.04zm10.79 0h9.04v2.44h-9.04zm10.78 0h9.04v2.44h-9.04zm17.05 0h9.04v2.44h-9.04z" style="fill:#d8cab8;stroke:#263238;stroke-linecap:round;stroke-linejoin:round"/><path d="M323.6 115.04h120.48v5.18H323.6zm-134.98 0h123.84v5.18H188.62zm-99.34 0h74.99v5.18H89.28zM87 109.76s1 5.34 2.24 5.28 28.38-6.67 28.38-6.67l-2.44-3.13-11.13 2.43L101 107l-3.83 1-5.56-.69Z" style="fill:#d8cab8;stroke:#263238;stroke-linecap:round;stroke-linejoin:round"/><path d="m117.66 108.37 9.04-2.44 1.05 2.44 10.43-2.44.7 4.18-28.18 4.87-21.42.06z" style="fill:#d8cab8;stroke:#263238;stroke-linecap:round;stroke-linejoin:round"/><path d="m138.88 110.11 5.56 2.09 6.26-3.48 2.79.34 2.43 1.4 1.39-2.79 15.31-3.13 9.39-2.43a13 13 0 0 1 2.79-.35 4.9 4.9 0 0 0 3.13-1 10.4 10.4 0 0 1 2.78-1.4 16.3 16.3 0 0 1 3.48-.34l3.48 1.74 1-2.09L264.46 83l1.74 3.83a37 37 0 0 1 .35 4.18c0 1.73.34 1.73 0 3.13s0 2.43 0 4.52 2.78 12.52 2.78 12.52l2.78-13.91 1.74-.35 4.52.35v-5.6l20.18 2.09.35 3.48h13.22v-3.13H317s3.13 2.43 4.87 2.78 7.65.69 7.65.69h3.13l22.27 4.53 26.43 7s5.22.7 6.27.7 0-.35 3.13.7 3.13 1.39 4.87 1.74 1 .34 4.52 1.39S405 115 405 115H110.35Zm269.6-2.78-3.48 7.65 39.08.06.92-3.19 1.05-2.09-26.79-5.22-3.13 3.48z" style="fill:#d8cab8;stroke:#263238;stroke-linecap:round;stroke-linejoin:round"/><path d="m407.43 109.41 12.88 5.92H405z" style="fill:#263238;stroke:#263238;stroke-linecap:round;stroke-linejoin:round"/><path d="m416.13 108.02 27.95 7.02" style="fill:#fff;stroke:#263238;stroke-linecap:round;stroke-linejoin:round"/><path d="m138.88 110.11-8 4.87h-20.53z" style="fill:#263238;stroke:#263238;stroke-linecap:round;stroke-linejoin:round"/><path d="M165.66 98.28a10.2 10.2 0 0 1 1.05 3.13l25-5.91-.34-2.79Z" style="fill:#d8cab8;stroke:#263238;stroke-linecap:round;stroke-linejoin:round"/><path d="m166.71 101.41 1.74 4.18 16.35-3.83 1.74.69 4.17-3.13 2.09.35-1.05-4.17zm190.63-5.57-2.43 6.27 10.43 3.13 3.83-3.48z" style="fill:#263238;stroke:#263238;stroke-linecap:round;stroke-linejoin:round"/><path d="m357.34 95.84.35 3.48 11.48 2.44v-3.48z" style="fill:#d8cab8;stroke:#263238;stroke-linecap:round;stroke-linejoin:round"/><path d="M328.12 98.28v4.87h-3.13v11.83m-40.35-10.79h15.65m6.96-.34h12.17m-20.52 5.21h13.91" style="fill:none;stroke:#263238;stroke-linecap:round;stroke-linejoin:round"/><path d="M306.2 109.41v5.22" style="fill:#fff;stroke:#263238;stroke-linecap:round;stroke-linejoin:round"/><path d="M282.9 97.58h13.56m-15.3 6.61v4.53m15.3 6.26-1.39-3.48-3.13-1.04h-6.96l-10.09-2.79-1.04-4.17-.35-3.13" style="fill:none;stroke:#263238;stroke-linecap:round;stroke-linejoin:round"/><path d="m436.31 153.24-2.93 4.02L303 158.81l-143.74-.93h-34.45l-6.21-1.55-1.56-4.04 312.93-3.1z" style="fill:#263238;stroke:#263238;stroke-linecap:round;stroke-linejoin:round"/><path d="M99.22 125.41v22.27l1.74.69s1 2.44-.35 2.79-1.74 2.08-1.74 2.08h172.2l6.26-1.74 1.64-1 .1-.06 1.39 2.78h143l2.78-1.74 2.09 1.74h8v-27.81Z" style="fill:#d8cab8;stroke:#263238;stroke-linecap:round;stroke-linejoin:round"/><path d="M102.33 127.5v11.83m3.1-11.83v11.83m3.1-11.83v11.83m-8.61 2.09h8.95l1.72-1.39h9.99m3.44-12.53v11.83m3.1-11.83v11.83m3.1-11.83v11.83m-8.61 2.09h8.96l1.72-1.39h9.99m3.44-12.53v11.83m3.1-11.83v11.83m3.1-11.83v11.83m-8.61 2.09h8.96l1.72-1.39h9.99m3.44-12.53v11.83m3.1-11.83v11.83m3.1-11.83v11.83m-8.61 2.09h8.95l1.73-1.39h9.98m3.45-12.53v11.83m3.1-11.83v11.83m3.1-11.83v11.83m-8.61 2.09h8.95l1.72-1.39h9.99m3.45-12.53v11.83m3.1-11.83v11.83m3.1-11.83v11.83m-8.61 2.09h8.95l1.72-1.39h9.99m3.44-12.53v11.83m3.1-11.83v11.83m3.1-11.83v11.83m-8.61 2.09h8.96l1.72-1.39h9.99m3.44-12.53v11.83m3.1-11.83v11.83m3.1-11.83v11.83m-8.61 2.09h8.96l1.72-1.39h9.99m3.44-12.53v11.83m3.1-11.83v11.83m3.1-11.83v11.83m-8.61 2.09h8.95l1.73-1.39h9.98m3.45-12.53v11.83m3.1-11.83v11.83m3.1-11.83v11.83m-8.61 2.09h8.95l1.72-1.39h9.99m3.45-12.53v11.83m3.1-11.83v11.83m3.1-11.83v11.83m-8.62 2.09h8.96l1.72-1.39h9.99M341 127.5v11.83m3.1-11.83v11.83m3.1-11.83v11.83m-8.61 2.09h8.96l1.72-1.39h9.99m3.44-12.53v11.83m3.1-11.83v11.83m3.1-11.83v11.83m-8.61 2.09h8.96l1.72-1.39h9.99m3.44-12.53v11.83m3.1-11.83v11.83m3.1-11.83v11.83m-8.61 2.09h8.95l1.73-1.39h9.98m3.45-12.53v11.83m3.1-11.83v11.83m3.1-11.83v11.83m-8.61 2.09h8.95l1.72-1.39h9.99m3.45-12.53v11.83m3.1-11.83v11.83m3.1-11.83v11.83m-8.62 2.09h8.96l.92-.75" style="fill:none;stroke:#263238;stroke-linecap:round;stroke-linejoin:round"/><path d="m98.87 153.24-1 3.48h4.52c1.39 0 18.44.7 18.44.7v-4.18Zm38.62.35s-.87 2.61 0 3.48 8.34.35 8.34.35l3.83 1.39s2.09-2.09 2.09-3.13v-2.44Z" style="fill:#d8cab8;stroke:#263238;stroke-linecap:round;stroke-linejoin:round"/><path d="M151.05 157.42h9.74v-3.83h-9.04zm34.79-4.18h17.05v3.48h-17.05zm47.31.35h22.96v3.48h-22.96zm46.96 0h22.96v3.48h-22.96zm48.36 0h22.96v3.48h-22.96zm46.61 0h22.96v3.48h-22.96zm-277.25 3.13 4.52 6.27h16l2.44-5.57zm4.52 6.27-1.74 106.79h19.48l-1.74-106.79z" style="fill:#d8cab8;stroke:#263238;stroke-linecap:round;stroke-linejoin:round"/><path d="m104.09 164.03-.7 64.35m.92 17.02-.22 8.03m2.43-90.45-2.05 76.4m4.16.38-.02 4.63m.35-80.71-.31 71.19m3.09-27.5v3.62m0-47.66v41.03m-5.56 65.07v-22.96" style="fill:none;stroke:#263238;stroke-linecap:round;stroke-linejoin:round"/><path d="m142.4 162.99-1.74 106.79h19.48l-1.74-106.79z" style="fill:#d8cab8;stroke:#263238;stroke-linecap:round;stroke-linejoin:round"/><path d="m144.14 164.03-.7 64.35m.91 17.02-.21 8.03m2.43-90.45-2.05 76.4m4.16.38-.02 4.63m.35-80.71-.31 71.19m3.09-27.5v3.62m0-47.66v41.03m-5.57 65.07v-22.96" style="fill:none;stroke:#263238;stroke-linecap:round;stroke-linejoin:round"/><path d="m189.27 162.99-1.74 106.79h19.48l-1.73-106.79z" style="fill:#d8cab8;stroke:#263238;stroke-linecap:round;stroke-linejoin:round"/><path d="m191.01 164.03-.69 64.35m.91 17.02-.22 8.03m2.44-90.45-2.06 76.4m4.17.38-.02 4.63m.34-80.71-.3 71.19m3.09-27.5v3.62m0-47.66v41.03m-5.57 65.07v-22.96" style="fill:none;stroke:#263238;stroke-linecap:round;stroke-linejoin:round"/><path d="m236.15 162.99-1.74 106.79h19.48l-1.74-106.79z" style="fill:#d8cab8;stroke:#263238;stroke-linecap:round;stroke-linejoin:round"/><path d="m237.89 164.03-.7 64.35m.92 17.02-.22 8.03m2.44-90.45-2.06 76.4m4.16.38-.02 4.63m.35-80.71-.31 71.19m3.09-27.5v3.62m0-47.66v41.03m-5.56 65.07v-22.96" style="fill:none;stroke:#263238;stroke-linecap:round;stroke-linejoin:round"/><path d="m283.4 162.99-1.82 106.79h20.43l-1.82-106.79z" style="fill:#d8cab8;stroke:#263238;stroke-linecap:round;stroke-linejoin:round"/><path d="m285.23 164.03-.73 64.35m.95 17.02-.22 8.03m2.55-90.45-2.16 76.4m4.37.38-.02 4.63m.36-80.71-.32 71.19m3.24-27.5v3.62m0-47.66v41.03m-5.83 65.07v-22.96" style="fill:none;stroke:#263238;stroke-linecap:round;stroke-linejoin:round"/><path d="m330.83 162.99-1.73 106.79h19.48l-1.74-106.79z" style="fill:#d8cab8;stroke:#263238;stroke-linecap:round;stroke-linejoin:round"/><path d="m332.57 164.03-.69 64.35m.91 17.02-.22 8.03m2.44-90.45-2.06 76.4m4.17.38-.02 4.63m.34-80.71-.3 71.19m3.09-27.5v3.62m0-47.66v41.03m-5.57 65.07v-22.96" style="fill:none;stroke:#263238;stroke-linecap:round;stroke-linejoin:round"/><path d="m376.78 162.99-1.74 106.79h19.48l-1.74-106.79z" style="fill:#d8cab8;stroke:#263238;stroke-linecap:round;stroke-linejoin:round"/><path d="m378.52 164.03-.7 64.35m.92 17.02-.22 8.03m2.43-90.45-2.05 76.4m4.16.38-.02 4.63m.35-80.71-.31 71.19m3.09-27.5v3.62m0-47.66v41.03m-5.56 65.07v-22.96" style="fill:none;stroke:#263238;stroke-linecap:round;stroke-linejoin:round"/><path d="m418.69 162.99-1.74 106.79h19.48l-1.74-106.79z" style="fill:#d8cab8;stroke:#263238;stroke-linecap:round;stroke-linejoin:round"/><path d="m420.43 164.03-.7 64.35m.92 17.02-.22 8.03m2.43-90.45-2.05 76.4m4.16.38-.02 4.63m.35-80.71-.31 71.19m3.09-27.5v3.62m0-47.66v41.03m-5.56 65.07v-22.96" style="fill:none;stroke:#263238;stroke-linecap:round;stroke-linejoin:round"/><path d="m142.4 162.99-4.91-5.92 13.56.35h9.74l-2.39 5.57zm46.87.01-3.43-6.26h17l.46-1.32s3.72-.31 5 1.24a5.4 5.4 0 0 1 1.25 3.1l-4.27 3.24Zm46.88-.01h-2.69l-.31-5.92h22.96l-3.96 5.92zm43.96-5.92.85 4.23 2.44 1.69h16.79l2.81-4.18.07-1.74zm48.36 0 2.36 5.92h16.01l4.59-5.92zm48.31 5.92-1.7-5.92h22.96l-5.26 5.92zm41.91.01-4.86-6.34s3.41-1.55 4.65-1.55h15.84l1.86-.31a2.41 2.41 0 0 1 0 2.17 10.1 10.1 0 0 0-.93 3.11l-.56 2.92ZM97.49 269.02h343.19v5.12H97.49z" style="fill:#d8cab8;stroke:#263238;stroke-linecap:round;stroke-linejoin:round"/><path d="M86.21 273.39h366.12v5.12H86.21z" style="fill:#d8cab8;stroke:#263238;stroke-linecap:round;stroke-linejoin:round"/><path d="M77.84 278.48h385.22v5.12H77.84z" style="fill:#d8cab8;stroke:#263238;stroke-linecap:round;stroke-linejoin:round"/><path d="M73.74 283.14h396.28v5.12H73.74zm-2.33 13.82 2.33-8.7h396.28l3.72 8.7z" style="fill:#d8cab8;stroke:#263238;stroke-linecap:round;stroke-linejoin:round"/><path d="M242.31 293.7h14.9v6.05h-14.9zm-17.7 0h14.9v6.05h-14.9zm-20.02 0h9.31v6.05h-9.31zm-137.84 0h9.31v6.05h-9.31zm295.7 7.45v8.38h8.85v-6.98z" style="fill:#fff;stroke:#263238;stroke-linecap:round;stroke-linejoin:round"/><path d="M371.3 302.55h10.71v6.98h-12.58zm10.71 0h15.83V310l-15.83-.47zm-235.99-2.13h15.83v7.45l-15.83-.46zm257.87 1.66h24.68v4.19h-24.68zm1.4 4.19h14.9v4.66h-14.9zm18.63.93h12.11v3.26h-12.11z" style="fill:#fff;stroke:#263238;stroke-linecap:round;stroke-linejoin:round"/><path d="M436.02 302.55h22.82v4.66h-22.82zm29.8-4.19H477v3.26h-11.18zm-132.71 3.26h22.82v6.05h-22.82zm-30.27-7.92H321v13.5h-18.16zm20.49 7.92h7.45v5.59h-7.45zm-40.51-1.4h11.64v3.73h-11.64zm127.59 12.57h26.54v3.26h-26.54zm29.34.93h23.75v6.98h-23.75zm-26.55 4.19h10.71v2.79H413.2zm-193.71-14.9h33.53v10.24h-33.53zm-49.83 0h17.7v10.24h-17.7zm-97.08-2.12h17.7v10.24h-17.7z" style="fill:#fff;stroke:#263238;stroke-linecap:round;stroke-linejoin:round"/><path d="M244.17 303.01h8.85v10.24h-8.85zm-143.42 0h33.53v10.24h-33.53z" style="fill:#fff;stroke:#263238;stroke-linecap:round;stroke-linejoin:round"/><path d="M125.43 303.01h8.85v10.24h-8.85zm59.34 14.09v8.38h-7.48v-6.98z" style="fill:#fff;stroke:#263238;stroke-linecap:round;stroke-linejoin:round"/><path d="M177.29 318.5h-9.05v6.98h10.63z" style="fill:#fff;stroke:#263238;stroke-linecap:round;stroke-linejoin:round"/><path d="M168.24 318.5h-13.38v7.44l13.38-.46zm199.41-2.13h-13.37v7.45l13.37-.47z" style="fill:#fff;stroke:#263238;stroke-linecap:round;stroke-linejoin:round"/><path d="M128.89 318.03h20.86v4.19h-20.86z" style="fill:#fff;stroke:#263238;stroke-linecap:round;stroke-linejoin:round" transform="rotate(180 139.32 320.125)"/><path d="M135.97 322.22h12.59v4.66h-12.59z" style="fill:#fff;stroke:#263238;stroke-linecap:round;stroke-linejoin:round" transform="rotate(180 142.27 324.55)"/><path d="M122.59 323.15h10.23v3.26h-10.23z" style="fill:#fff;stroke:#263238;stroke-linecap:round;stroke-linejoin:round" transform="rotate(180 127.71 324.78)"/><path d="M103.31 318.49h19.28v4.66h-19.28z" style="fill:#fff;stroke:#263238;stroke-linecap:round;stroke-linejoin:round" transform="rotate(180 112.955 320.825)"/><path d="M87.97 314.3h9.44v3.26h-9.44z" style="fill:#fff;stroke:#263238;stroke-linecap:round;stroke-linejoin:round" transform="rotate(180 92.69 315.935)"/><path d="M190.28 317.56h19.28v6.05h-19.28z" style="fill:#fff;stroke:#263238;stroke-linecap:round;stroke-linejoin:round" transform="rotate(180 199.915 320.59)"/><path d="M219.79 309.65h15.35v13.5h-15.35z" style="fill:#fff;stroke:#263238;stroke-linecap:round;stroke-linejoin:round" transform="rotate(180 227.46 316.4)"/><path d="M211.53 317.56h6.3v5.59h-6.3z" style="fill:#fff;stroke:#263238;stroke-linecap:round;stroke-linejoin:round" transform="rotate(180 214.675 320.36)"/><path d="M242.22 316.17h9.84v3.73h-9.84z" style="fill:#fff;stroke:#263238;stroke-linecap:round;stroke-linejoin:round" transform="rotate(180 247.135 318.03)"/><path d="M121.81 328.74h22.43V332h-22.43z" style="fill:#fff;stroke:#263238;stroke-linecap:round;stroke-linejoin:round" transform="rotate(180 133.02 330.37)"/><path d="M99.38 329.67h20.07v6.98H99.38z" style="fill:#fff;stroke:#263238;stroke-linecap:round;stroke-linejoin:round" transform="rotate(180 109.41 333.165)"/><path d="M132.83 333.86h9.05v2.79h-9.05z" style="fill:#fff;stroke:#263238;stroke-linecap:round;stroke-linejoin:round" transform="rotate(180 137.35 335.26)"/><path d="M277.24 318.96h28.33v10.24h-28.33z" style="fill:#fff;stroke:#263238;stroke-linecap:round;stroke-linejoin:round" transform="rotate(180 291.405 324.085)"/><path d="M332.72 318.96h14.95v10.24h-14.95z" style="fill:#fff;stroke:#263238;stroke-linecap:round;stroke-linejoin:round" transform="rotate(180 340.2 324.085)"/><path d="M414.76 316.83h14.95v10.24h-14.95z" style="fill:#fff;stroke:#263238;stroke-linecap:round;stroke-linejoin:round" transform="rotate(180 422.24 321.955)"/><path d="M277.24 318.96h7.48v10.24h-7.48z" style="fill:#fff;stroke:#263238;stroke-linecap:round;stroke-linejoin:round" transform="rotate(180 280.98 324.085)"/><path d="M377.58 318.96h28.33v10.24h-28.33z" style="fill:#fff;stroke:#263238;stroke-linecap:round;stroke-linejoin:round" transform="rotate(180 391.75 324.085)"/><path d="M377.58 318.96h7.48v10.24h-7.48z" style="fill:#fff;stroke:#263238;stroke-linecap:round;stroke-linejoin:round" transform="rotate(180 381.32 324.085)"/><path d="M360.13 323.93v18.56h9.4v-15.47z" style="fill:#fff;stroke:#263238;stroke-linecap:round;stroke-linejoin:round"/><path d="M369.53 327.02h11.39v15.47h-13.37zm11.39 0h16.83v16.5l-16.83-1.03zm-250.9-.29h16.83v14.99h-16.83zm274.17-.74h26.24v9.28h-26.24zm1.49 9.28h15.84v10.31h-15.84zm19.8 2.06h12.87v7.22h-12.87zm12.87-10.31h24.26v10.31h-24.26zm31.69-9.28h11.88v7.22h-11.88zm-141.1 7.22h24.26v13.4h-24.26zM269 337.6h24.26V351H269zm27.76-30.17h19.31v29.9h-19.31zm21.78 17.53h7.92v12.37h-7.92zm-60.2 0h7.92v12.37h-7.92zm17.13-3.09h12.38v8.25h-12.38zm135.65 27.84h28.22v7.22h-28.22zm31.19 2.06h25.25v15.47h-25.25zm-28.22 9.28h11.39v6.19h-11.39zm-205.96-33h35.65v22.68h-35.65zm-52.97 0h18.81v22.68h-18.81zm-103.22-4.7h18.81v22.68H51.94z" style="fill:#fff;stroke:#263238;stroke-linecap:round;stroke-linejoin:round"/><path d="M234.37 328.05h9.41v22.68h-9.41zm-152.48 0h35.65v22.68H81.89z" style="fill:#fff;stroke:#263238;stroke-linecap:round;stroke-linejoin:round"/><path d="M108.13 328.05h9.41v22.68h-9.41z" style="fill:#fff;stroke:#263238;stroke-linecap:round;stroke-linejoin:round"/><rect width="63.69" height="30.72" x="47.31" y="428.47" rx="2.03" style="fill:#737373;stroke:#263238;stroke-linecap:round;stroke-linejoin:round"/><rect width="63.69" height="30.72" x="111.91" y="428.47" rx="2.03" style="fill:#cfcfcf;stroke:#263238;stroke-linecap:round;stroke-linejoin:round"/><rect width="63.69" height="30.72" x="175.6" y="428.47" rx="2.03" style="fill:#737373;stroke:#263238;stroke-linecap:round;stroke-linejoin:round"/><rect width="22.59" height="16.83" x="155.73" y="434.23" rx="2.03" style="fill:#737373;stroke:#263238;stroke-linecap:round;stroke-linejoin:round"/><rect width="40.2" height="18.07" x="115.97" y="434.34" rx="2.03" style="fill:#cfcfcf;stroke:#263238;stroke-linecap:round;stroke-linejoin:round"/><rect width="40.2" height="18.07" x="178.09" y="434.34" rx="2.03" style="fill:#cfcfcf;stroke:#263238;stroke-linecap:round;stroke-linejoin:round"/><rect width="91.93" height="18.75" x="24.05" y="433.21" rx="2.03" style="fill:#ababab;stroke:#263238;stroke-linecap:round;stroke-linejoin:round"/><rect width="63.69" height="30.72" x="261.88" y="428.47" rx="2.03" style="fill:#cfcfcf;stroke:#263238;stroke-linecap:round;stroke-linejoin:round"/><rect width="63.69" height="30.72" x="326.48" y="428.47" rx="2.03" style="fill:#cfcfcf;stroke:#263238;stroke-linecap:round;stroke-linejoin:round"/><rect width="63.69" height="30.72" x="236.59" y="428.47" rx="2.03" style="fill:#cfcfcf;stroke:#263238;stroke-linecap:round;stroke-linejoin:round"/><rect width="63.69" height="30.72" x="390.18" y="428.47" rx="2.03" style="fill:#cfcfcf;stroke:#263238;stroke-linecap:round;stroke-linejoin:round"/><rect width="22.59" height="16.83" x="370.3" y="434.23" rx="2.03" style="fill:#ababab;stroke:#263238;stroke-linecap:round;stroke-linejoin:round"/><rect width="40.2" height="18.07" x="330.55" y="434.34" rx="2.03" style="fill:#cfcfcf;stroke:#263238;stroke-linecap:round;stroke-linejoin:round"/><rect width="40.2" height="18.07" x="392.66" y="434.34" rx="2.03" style="fill:#cfcfcf;stroke:#263238;stroke-linecap:round;stroke-linejoin:round"/><rect width="91.93" height="18.75" x="238.62" y="433.21" rx="2.03" style="fill:#ababab;stroke:#263238;stroke-linecap:round;stroke-linejoin:round"/><rect width="53.76" height="30.72" x="130.66" y="403.17" rx="2.03" style="fill:#cfcfcf;stroke:#263238;stroke-linecap:round;stroke-linejoin:round"/><rect width="42.91" height="30.72" x="183.51" y="403.17" rx="2.03" style="fill:#737373;stroke:#263238;stroke-linecap:round;stroke-linejoin:round"/><rect width="63.69" height="30.72" x="225.52" y="403.17" rx="2.03" style="fill:#cfcfcf;stroke:#263238;stroke-linecap:round;stroke-linejoin:round"/><rect width="63.69" height="30.72" x="289.67" y="403.17" rx="2.03" style="fill:#cfcfcf;stroke:#263238;stroke-linecap:round;stroke-linejoin:round"/><rect width="63.69" height="30.72" x="354.26" y="403.17" rx="2.03" style="fill:#737373;stroke:#263238;stroke-linecap:round;stroke-linejoin:round"/><rect width="63.69" height="30.72" x="417.96" y="403.17" rx="2.03" style="fill:#cfcfcf;stroke:#263238;stroke-linecap:round;stroke-linejoin:round"/><rect width="34.56" height="13.1" x="117.89" y="405.66" rx="2.03" style="fill:#737373;stroke:#263238;stroke-linecap:round;stroke-linejoin:round"/><rect width="34.56" height="25.07" x="22.58" y="408.37" rx="2.03" style="fill:#cfcfcf;stroke:#263238;stroke-linecap:round;stroke-linejoin:round"/><rect width="34.56" height="13.1" x="83.56" y="405.66" rx="2.03" style="fill:#cfcfcf;stroke:#263238;stroke-linecap:round;stroke-linejoin:round"/><rect width="26.77" height="13.1" x="57.02" y="405.66" rx="2.03" style="fill:#cfcfcf;stroke:#263238;stroke-linecap:round;stroke-linejoin:round"/><rect width="39.75" height="15.58" x="57.47" y="418.31" rx="2.03" style="fill:#737373;stroke:#263238;stroke-linecap:round;stroke-linejoin:round"/><rect width="39.75" height="15.58" x="97.68" y="418.31" rx="2.03" style="fill:#cfcfcf;stroke:#263238;stroke-linecap:round;stroke-linejoin:round"/><rect width="22.59" height="10.16" x="136.98" y="418.31" rx="2.03" style="fill:#cfcfcf;stroke:#263238;stroke-linecap:round;stroke-linejoin:round"/><rect width="22.59" height="16.83" x="398.08" y="408.93" rx="2.03" style="fill:#cfcfcf;stroke:#263238;stroke-linecap:round;stroke-linejoin:round"/><rect width="32.98" height="14.91" x="183.96" y="413.56" rx="2.03" style="fill:#cfcfcf;stroke:#263238;stroke-linecap:round;stroke-linejoin:round"/><rect width="40.2" height="18.07" x="358.33" y="409.05" rx="2.03" style="fill:#cfcfcf;stroke:#263238;stroke-linecap:round;stroke-linejoin:round"/><rect width="40.2" height="18.07" x="420.44" y="409.05" rx="2.03" style="fill:#ababab;stroke:#263238;stroke-linecap:round;stroke-linejoin:round"/><rect width="91.93" height="18.75" x="222.58" y="394.37" rx="2.03" style="fill:#fff;stroke:#263238;stroke-linecap:round;stroke-linejoin:round"/><rect width="91.93" height="30.27" x="266.4" y="396.4" rx="2.03" style="fill:#737373;stroke:#263238;stroke-linecap:round;stroke-linejoin:round"/><rect width="44.5" height="18.75" x="226.2" y="408.37" rx="2.03" style="fill:#cfcfcf;stroke:#263238;stroke-linecap:round;stroke-linejoin:round"/><rect width="24.85" height="8.13" x="33.08" y="400.46" rx="2.03" style="fill:#737373;stroke:#263238;stroke-linecap:round;stroke-linejoin:round"/><rect width="24.85" height="8.13" x="59.28" y="400.46" rx="2.03" style="fill:#737373;stroke:#263238;stroke-linecap:round;stroke-linejoin:round"/><rect width="24.85" height="8.13" x="248.11" y="400.46" rx="2.03" style="fill:#737373;stroke:#263238;stroke-linecap:round;stroke-linejoin:round"/><rect width="24.85" height="8.13" x="275.21" y="400.46" rx="2.03" style="fill:#737373;stroke:#263238;stroke-linecap:round;stroke-linejoin:round"/><rect width="32.92" height="8.58" x="410.78" y="400.46" rx="2.03" style="fill:#737373;stroke:#263238;stroke-linecap:round;stroke-linejoin:round"/><rect width="24.85" height="8.58" x="443.25" y="400.46" rx="2.03" style="fill:#737373;stroke:#263238;stroke-linecap:round;stroke-linejoin:round"/><rect width="71" height="32" x="343.55" y="379.43" rx="3.77" style="fill:#263238;stroke:#263238;stroke-linecap:round;stroke-linejoin:round"/><rect width="38" height="32" x="305.12" y="379.43" rx="3.77" style="fill:#263238;stroke:#263238;stroke-linecap:round;stroke-linejoin:round"/><rect width="38" height="32" x="148.74" y="379.43" rx="3.77" style="fill:#263238;stroke:#263238;stroke-linecap:round;stroke-linejoin:round"/><rect width="58.45" height="24.07" x="246.26" y="379.43" rx="3.77" style="fill:#263238;stroke:#263238;stroke-linecap:round;stroke-linejoin:round"/><rect width="58.45" height="24.07" x="414.3" y="379.43" rx="3.77" style="fill:#263238;stroke:#263238;stroke-linecap:round;stroke-linejoin:round"/><rect width="58.45" height="24.07" x="31.68" y="379.43" rx="3.77" style="fill:#263238;stroke:#263238;stroke-linecap:round;stroke-linejoin:round"/><rect width="58.45" height="28.88" x="187.12" y="379.43" rx="3.77" style="fill:#263238;stroke:#263238;stroke-linecap:round;stroke-linejoin:round"/><rect width="58.45" height="28.88" x="90.45" y="379.43" rx="3.77" style="fill:#263238;stroke:#263238;stroke-linecap:round;stroke-linejoin:round"/><rect width="71" height="32" x="343.55" y="376.97" rx="3.77" style="fill:#ababab;stroke:#263238;stroke-linecap:round;stroke-linejoin:round"/><rect width="38" height="32" x="305.12" y="376.97" rx="3.77" style="fill:#cfcfcf;stroke:#263238;stroke-linecap:round;stroke-linejoin:round"/><rect width="38" height="32" x="148.74" y="376.97" rx="3.77" style="fill:#ababab;stroke:#263238;stroke-linecap:round;stroke-linejoin:round"/><rect width="58.45" height="24.07" x="246.26" y="376.97" rx="3.77" style="fill:#cfcfcf;stroke:#263238;stroke-linecap:round;stroke-linejoin:round"/><rect width="58.45" height="24.07" x="414.3" y="376.97" rx="3.77" style="fill:#cfcfcf;stroke:#263238;stroke-linecap:round;stroke-linejoin:round"/><rect width="58.45" height="24.07" x="31.68" y="376.97" rx="3.77" style="fill:#ababab;stroke:#263238;stroke-linecap:round;stroke-linejoin:round"/><rect width="58.45" height="28.88" x="187.12" y="376.97" rx="3.77" style="fill:#ababab;stroke:#263238;stroke-linecap:round;stroke-linejoin:round"/><rect width="58.45" height="28.88" x="90.45" y="376.97" rx="3.77" style="fill:#cfcfcf;stroke:#263238;stroke-linecap:round;stroke-linejoin:round"/><path d="m55.16 333.42-.51 26.77-5.15 5.67 5.66-.52 6.18 1.03 5.15-1.03h2.06l-5.15-6.69v-24.72z" style="fill:#263238;stroke:#263238;stroke-linecap:round;stroke-linejoin:round"/><path d="M105.49 297.07v-.24c.67-3 4.1-18.42 2.89-20.23-1-1.54-3.82 1.85-5.07 3.51-.2-1.2-.42-2.42-.64-3.65-.11-8.12-.55-24.5-2.31-25.26-1.46-.62-2.4 1-2.9 2.25l-.36-1.36c.18-7.59.49-28-1.41-26.62s-3.72 6-4.4 7.89c-.45-1.27-.92-2.54-1.39-3.79-2.14-8.72-6.81-26.68-8.59-25.16a6.9 6.9 0 0 0-2 2.73q-1.45-2.37-3-4.43c-2.32-5.14-5.53-11.61-6.75-11a7.6 7.6 0 0 0-2.42 2.29 15 15 0 0 0-1.64-.79c-1.23-3.39-3.65-9.32-5.13-7.64-1.59-1.81-4.27 5.17-5.39 8.35-.34.18-.69.38-1 .6a8.1 8.1 0 0 0-2.81-2.78c-1.8-.9-7.92 13.58-9.14 16.52l-.23.38a6.33 6.33 0 0 0-2.33-4.2c-2.34-2-9.69 29.75-9.69 29.75s-2.34-7-4.68-8.69-1.34 29.41-1.34 29.41-1-4.68-3.34-3.68S18.05 281 18.05 281s-4.34-6.35-5.68-4.35 3 20.72 3 20.72-1.67-3.67-1.67 3c0 3.29 1.78 8.86 3.59 13.65 4.49 19.2 22.34 23.2 43.69 23.2 23.54 0 42.83-4.86 44.63-29.6a28.2 28.2 0 0 0 1.41-7.25c-.02-5.57-1.14-4.01-1.53-3.3" style="fill:#263238;stroke:#263238;stroke-linecap:round;stroke-linejoin:round"/></svg>