<svg xmlns="http://www.w3.org/2000/svg" opacity=".08" viewBox="0 0 500 500"><path d="m131.86 92.21-5.51-3.1-38.46 22.2.79 276.03 5.51 3.1 38.46-22.2z" style="fill:#ba68c8"/><path d="m131.86 92.21-5.51-3.1-38.46 22.2.79 276.03 5.51 3.1 38.46-22.2z" style="opacity:.2"/><path d="m112.71 115.64 4.67 8.12 10.38-4.25-7.49 12.74 1.81 10.86-9.3-.25-9.27 10.97 1.74-12.9-7.53-4.08 10.38-7.73zm.54 192.72 4.67 8.13 10.39-4.26-7.49 12.75 1.81 10.85-9.3-.25-9.27 10.97 1.74-12.9-7.53-4.07 10.37-7.73zm-.13-48.18 4.67 8.13 10.38-4.26-7.49 12.75 1.81 10.85-9.3-.25-9.27 10.97 1.74-12.9-7.53-4.07 10.38-7.74zm-.14-48.18 4.67 8.13 10.38-4.26-7.48 12.75 1.8 10.85-9.29-.25-9.27 10.97 1.74-12.9-7.54-4.08 10.38-7.73zm-.14-48.18 4.67 8.13 10.38-4.26-7.48 12.74 1.81 10.86-9.3-.25-9.27 10.97 1.74-12.91-7.53-4.07 10.37-7.72z" style="fill:#fff"/><path d="m87.89 111.31.79 276.03 5.51 3.1-.78-276.03z" style="opacity:.2"/><path d="m131.86 92.21-5.51-3.1-38.46 22.2 5.52 3.1z" style="fill:#fff;opacity:.1"/><path d="m276.81 28.68-5.51-3.09-38.45 22.2.78 276.03 5.51 3.1 38.46-22.2z" style="fill:#ba68c8"/><path d="m276.81 28.68-5.51-3.09-38.45 22.2.78 276.03 5.51 3.1 38.46-22.2z" style="opacity:.2"/><path d="m257.66 52.11 4.67 8.13 10.38-4.26-7.48 12.75 1.8 10.85-9.29-.25-9.28 10.98 1.74-12.91-7.53-4.07 10.38-7.74zm.54 192.73 4.68 8.13 10.38-4.26-7.49 12.74 1.81 10.86-9.3-.25-9.27 10.97 1.74-12.9-7.53-4.08 10.37-7.72zm-.13-48.18 4.67 8.12 10.38-4.25-7.48 12.74 1.8 10.86-9.3-.25-9.27 10.97 1.74-12.9-7.53-4.08 10.38-7.73zm-.14-48.19 4.67 8.13 10.38-4.26-7.48 12.75 1.81 10.85-9.3-.24-9.27 10.96 1.74-12.89-7.54-4.08 10.38-7.73zm-.13-48.18 4.67 8.13 10.38-4.26-7.49 12.75 1.81 10.85-9.3-.25-9.27 10.97 1.74-12.9-7.53-4.07 10.38-7.73z" style="fill:#fff"/><path d="m232.85 47.79.78 276.03 5.51 3.1-.78-276.04z" style="opacity:.2"/><path d="m276.81 28.68-5.51-3.09-38.45 22.2 5.51 3.09z" style="fill:#fff;opacity:.1"/><path d="M199.57 454.09a12 12 0 0 1-10.89 0 3.86 3.86 0 0 1-2.27-3.15v5.2a3.86 3.86 0 0 0 2.27 3.15 12 12 0 0 0 10.89 0 3.82 3.82 0 0 0 2.24-3.15v-5.2a3.82 3.82 0 0 1-2.24 3.15" style="fill:#ba68c8"/><path d="M188.68 454.09a12 12 0 0 0 10.89 0 3.82 3.82 0 0 0 2.24-3.15 3.88 3.88 0 0 0-2.28-3.15 12 12 0 0 0-10.88 0 3.8 3.8 0 0 0-2.24 3.15 3.86 3.86 0 0 0 2.27 3.15" style="fill:#ba68c8"/><path d="M199.57 454.09a12 12 0 0 1-10.89 0 3.86 3.86 0 0 1-2.27-3.15v5.2a3.86 3.86 0 0 0 2.27 3.15 12 12 0 0 0 10.89 0 3.82 3.82 0 0 0 2.24-3.15v-5.2a3.82 3.82 0 0 1-2.24 3.15" style="opacity:.4"/><path d="M188.68 454.09a12 12 0 0 0 10.89 0 3.82 3.82 0 0 0 2.24-3.15 3.88 3.88 0 0 0-2.28-3.15 12 12 0 0 0-10.88 0 3.8 3.8 0 0 0-2.24 3.15 3.86 3.86 0 0 0 2.27 3.15" style="opacity:.30000000000000004"/><path d="M194.11 451.18a.24.24 0 0 1-.24-.23l-1.81-47.41a.24.24 0 0 1 .23-.25.23.23 0 0 1 .23.23l1.82 47.41a.25.25 0 0 1-.23.25" style="fill:#e0e0e0"/><ellipse cx="188.74" cy="388.37" rx="21.44" ry="24.76" style="fill:#ba68c8" transform="rotate(-7.62 188.824 388.586)"/><ellipse cx="188.74" cy="388.37" rx="21.44" ry="24.76" style="opacity:.1" transform="rotate(-7.62 188.824 388.586)"/><path d="m184 380 .73-.7a4.25 4.25 0 0 0-.06-6.41 11 11 0 0 0-1.1-.77 4.31 4.31 0 0 0-5.77 1.29c-.29.42-.57.85-.83 1.29a4.29 4.29 0 0 0 1.41 5.82l.45.26A4.4 4.4 0 0 0 184 380m-6.07 12.79a18.1 18.1 0 0 1 1.59-6.29 3.21 3.21 0 0 0-1-3.87l-.23-.16a3.23 3.23 0 0 0-5 2.25c0 .23-.07.45-.09.68A27.25 27.25 0 0 0 176 401c2.09 4.1 5.5 7.8 10 9-4.82-3.94-8.46-11.08-8.07-17.21" style="fill:#fff;opacity:.1"/><path d="M194.11 451.18a.25.25 0 0 1-.22-.15l-26-59.89a.23.23 0 0 1 .12-.31.23.23 0 0 1 .31.12l26 59.9a.24.24 0 0 1-.13.31Z" style="fill:#e0e0e0"/><path d="M194.11 451.18a.23.23 0 0 1-.16-.06l-23.82-21.71a.24.24 0 0 1 0-.34.24.24 0 0 1 .33 0l23.82 21.7a.24.24 0 0 1 0 .34.23.23 0 0 1-.17.07" style="fill:#e0e0e0"/><ellipse cx="158.01" cy="374.32" rx="23.3" ry="26.91" style="fill:#ba68c8" transform="rotate(-22.07 158.054 374.386)"/><ellipse cx="158.01" cy="374.32" rx="23.3" ry="26.91" style="fill:#fff;opacity:.30000000000000004" transform="rotate(-22.07 158.054 374.386)"/><path d="M150.73 366.83c.18-.32.38-.62.58-.93a4.63 4.63 0 0 0-1.8-6.74 11 11 0 0 0-1.37-.51 4.69 4.69 0 0 0-5.73 2.92c-.18.52-.36 1.05-.52 1.58a4.66 4.66 0 0 0 3.06 5.74l.55.15a4.77 4.77 0 0 0 5.23-2.21m-2.91 15.08a20.4 20.4 0 0 1 0-7.05 3.47 3.47 0 0 0-2.12-3.79l-.28-.11a3.5 3.5 0 0 0-4.62 3.72c0 .24 0 .49.08.73a29.64 29.64 0 0 0 7.12 15.67c3.31 3.74 7.9 6.72 12.9 6.73-6.05-2.81-11.82-9.34-13.08-15.9" style="fill:#fff;opacity:.30000000000000004"/><ellipse cx="153.64" cy="416.16" rx="22.95" ry="26.51" style="fill:#ba68c8" transform="rotate(-48.29 153.651 416.167)"/><ellipse cx="153.64" cy="416.16" rx="22.95" ry="26.51" style="fill:#fff;opacity:.1" transform="rotate(-48.29 153.651 416.167)"/><path d="M144 412.7c0-.36.06-.71.11-1.07a4.56 4.56 0 0 0-4.52-5.17h-.06a10 10 0 0 0-1.44.14 4.63 4.63 0 0 0-3.78 5.08c.06.54.13 1.08.23 1.62a4.57 4.57 0 0 0 5.19 3.74l.55-.1a4.69 4.69 0 0 0 3.72-4.24m4 14.6a19.8 19.8 0 0 1-3.1-6.22 3.43 3.43 0 0 0-3.53-2.43h-.29a3.46 3.46 0 0 0-2.47 5.29l.39.62a29.3 29.3 0 0 0 13.14 10.74c4.56 1.86 9.91 2.49 14.34.33-6.63.17-14.57-3.08-18.48-8.33" style="fill:#fff;opacity:.1"/><path d="M418.77 329.53a12 12 0 0 1-10.89 0 3.84 3.84 0 0 1-2.27-3.15v5.2a3.84 3.84 0 0 0 2.27 3.15 12 12 0 0 0 10.89 0 3.79 3.79 0 0 0 2.23-3.15v-5.2a3.81 3.81 0 0 1-2.23 3.15" style="fill:#ba68c8"/><path d="M407.88 329.53a12 12 0 0 0 10.89 0 3.33 3.33 0 0 0 0-6.3 12 12 0 0 0-10.89 0 3.33 3.33 0 0 0 0 6.3" style="fill:#ba68c8"/><path d="M418.77 329.53a12 12 0 0 1-10.89 0 3.84 3.84 0 0 1-2.27-3.15v5.2a3.84 3.84 0 0 0 2.27 3.15 12 12 0 0 0 10.89 0 3.79 3.79 0 0 0 2.23-3.15v-5.2a3.81 3.81 0 0 1-2.23 3.15" style="opacity:.4"/><path d="M407.88 329.53a12 12 0 0 0 10.89 0 3.33 3.33 0 0 0 0-6.3 12 12 0 0 0-10.89 0 3.33 3.33 0 0 0 0 6.3" style="opacity:.30000000000000004"/><path d="M413.3 326.62a.23.23 0 0 1-.23-.23L411.26 279a.24.24 0 0 1 .22-.25.23.23 0 0 1 .24.23l1.81 47.41a.24.24 0 0 1-.23.25Z" style="fill:#e0e0e0"/><ellipse cx="407.94" cy="263.81" rx="21.44" ry="24.76" style="fill:#ba68c8" transform="rotate(-7.62 408.204 263.983)"/><ellipse cx="407.94" cy="263.81" rx="21.44" ry="24.76" style="opacity:.1" transform="rotate(-7.62 408.204 263.983)"/><path d="m403.17 255.46.73-.7a4.25 4.25 0 0 0 0-6.41 13 13 0 0 0-1.11-.77 4.32 4.32 0 0 0-5.77 1.29c-.28.42-.56.85-.82 1.29a4.28 4.28 0 0 0 1.4 5.81l.45.27a4.39 4.39 0 0 0 5.12-.78m-6.05 12.77a18.7 18.7 0 0 1 1.59-6.3 3.18 3.18 0 0 0-1-3.86l-.22-.16a3.24 3.24 0 0 0-5 2.25l-.09.68a27.25 27.25 0 0 0 2.77 15.6c2.1 4.1 5.5 7.8 10 9-4.79-3.94-8.44-11.08-8.05-17.21" style="fill:#fff;opacity:.1"/><path d="M413.3 326.62a.24.24 0 0 1-.21-.15l-26-59.89a.24.24 0 0 1 .13-.31.23.23 0 0 1 .31.12l26 59.89a.25.25 0 0 1-.12.32Z" style="fill:#e0e0e0"/><path d="M413.3 326.62a.23.23 0 0 1-.16-.07l-23.81-21.7a.24.24 0 0 1 0-.34.25.25 0 0 1 .34 0l23.81 21.7a.24.24 0 0 1 0 .34.25.25 0 0 1-.18.07" style="fill:#e0e0e0"/><ellipse cx="377.2" cy="249.76" rx="23.3" ry="26.91" style="fill:#ba68c8" transform="rotate(-22.07 377.3 249.792)"/><ellipse cx="377.2" cy="249.76" rx="23.3" ry="26.91" style="fill:#fff;opacity:.30000000000000004" transform="rotate(-22.07 377.3 249.792)"/><path d="M369.92 242.27c.19-.32.38-.63.59-.93a4.63 4.63 0 0 0-1.8-6.74h-.06a11 11 0 0 0-1.37-.52 4.69 4.69 0 0 0-5.72 2.93c-.19.52-.36 1-.52 1.58a4.66 4.66 0 0 0 3.06 5.74l.54.15a4.76 4.76 0 0 0 5.28-2.21M367 257.35a19.9 19.9 0 0 1 0-7.05 3.48 3.48 0 0 0-2.12-3.79l-.28-.11a3.51 3.51 0 0 0-4.63 3.71l.09.74a29.63 29.63 0 0 0 7.14 15.67c3.32 3.74 7.91 6.72 12.91 6.73-6.06-2.81-11.84-9.34-13.11-15.9" style="fill:#fff;opacity:.30000000000000004"/><ellipse cx="372.84" cy="291.6" rx="22.95" ry="26.51" style="fill:#ba68c8" transform="rotate(-48.29 372.857 291.61)"/><ellipse cx="372.84" cy="291.6" rx="22.95" ry="26.51" style="fill:#fff;opacity:.1" transform="rotate(-48.29 372.857 291.61)"/><path d="M363.14 288.14c0-.36.07-.71.11-1.07a4.55 4.55 0 0 0-4.52-5.17h-.05a10 10 0 0 0-1.44.14 4.63 4.63 0 0 0-3.79 5.07c.06.55.14 1.09.23 1.63a4.59 4.59 0 0 0 5.2 3.74l.55-.1a4.67 4.67 0 0 0 3.71-4.24m4 14.6a20 20 0 0 1-3.1-6.23 3.42 3.42 0 0 0-3.52-2.42h-.3a3.46 3.46 0 0 0-2.47 5.29l.4.62a29.26 29.26 0 0 0 13.14 10.74c4.56 1.86 9.91 2.49 14.33.33-6.57.17-14.52-3.07-18.48-8.33" style="fill:#fff;opacity:.1"/><path d="M296.47 193.13c7.36 1.05 10.21 7.46 8.31 11.8-10.45 4.34-11.1-8.81-8.31-11.8" style="fill:#455a64"/><path d="M296.47 193.13c7.36 1.05 10.21 7.46 8.31 11.8-10.45 4.34-11.1-8.81-8.31-11.8" style="opacity:.30000000000000004"/><path d="m295.61 196.84 4.41-3.26a8.8 8.8 0 0 0 3-4l1-2.87a10.8 10.8 0 0 1 3.69-4.93 37 37 0 0 0 6.76-6.5 4.06 4.06 0 0 1 .29 5.14 28 28 0 0 1-2.7 3.09l2.43.17a8.5 8.5 0 0 0 5-1.22l6.16-3.78a1.18 1.18 0 0 1 1.79 1 27 27 0 0 1-1.78 8.91 10.06 10.06 0 0 1-5.89 5.95c-3.27 1.26-6.45 2.34-8.27 3a10 10 0 0 0-2.89 1.51l-6.47 4.81Z" style="fill:#ffa8a7"/><path d="M307.4 192a6 6 0 0 0 4.46-7.27 4.71 4.71 0 0 1 .68 4.42 4.6 4.6 0 0 1-3.39 2.81 10 10 0 0 1-1.75.04" style="fill:#f28f8f"/><path d="m300.4 192.59-5.56 3.59a10.85 10.85 0 0 0 7.16 9.29l5.1-4.82s-4.92-.76-6.7-8.06" style="fill:#f5f5f5"/><path d="m296.47 193.13-19 14.27-10.26-28.73a10.85 10.85 0 0 0-8.82-7.1l-5-.65 4.61 33.64 8 16a10.67 10.67 0 0 0 16.32 3.49l22.44-19.15c-8.37-2.19-8.29-8.22-8.29-11.77" style="fill:#455a64"/><path d="m277.44 207.4-6.6 4.95 4.77-10.07zm-12.12 11.79c1.11-14 2-25.32-10.78-39.69l3.46 25.06Z" style="opacity:.1"/><path d="M275.56 389.75a10.83 10.83 0 0 1-8.14 3 24.5 24.5 0 0 1-8.61-2.17c-2.75-1.13-6.21-4.3-9.18-4.24a72 72 0 0 1-8.71-.59 45.5 45.5 0 0 1 1.24-11.75l13.9-.37c3.75 5.14 11 9.41 16.56 11a4.9 4.9 0 0 1 3.43 3.66.3.3 0 0 0 0 .09 6 6 0 0 1-.49 1.37" style="fill:#455a64"/><path d="M249.63 386.33c3-.06 6.43 3.11 9.18 4.24a24.5 24.5 0 0 0 8.61 2.17 10.83 10.83 0 0 0 8.14-3 6 6 0 0 0 .48-1.41.3.3 0 0 1 0-.09 4.4 4.4 0 0 1 0 1.85 6 6 0 0 1-.48 1.41 10.87 10.87 0 0 1-8.14 3 24.5 24.5 0 0 1-8.61-2.18c-2.75-1.13-6.21-4.29-9.18-4.24a63 63 0 0 1-8.57-.49c-.07-.62-.11-1.24-.14-1.86a72 72 0 0 0 8.71.6m-39.22 4.72a20.6 20.6 0 0 0 .41 4.22 9.74 9.74 0 0 0 3.86 6.14 12.3 12.3 0 0 0 6.12 1.59 13.4 13.4 0 0 0 5.6-.58 6.37 6.37 0 0 0 3.28-2.67s0 0 0 .07a5.87 5.87 0 0 1-3.77 3.93 13.55 13.55 0 0 1-5.6.57 12.3 12.3 0 0 1-6.12-1.63 9.72 9.72 0 0 1-3.85-6.14 20 20 0 0 1-.42-4.21 7.16 7.16 0 0 0-2.26-5.16 14 14 0 0 1-1-1 2.52 2.52 0 0 1-.6-1.84c0-.26 0-.52.08-.77.51.6 1.71 2 2 2.3a7.13 7.13 0 0 1 2.27 5.18" style="fill:#263238"/><path d="M221 376.37a15.4 15.4 0 0 0 1.09 8.54 32 32 0 0 0 4.52 7.44 21.7 21.7 0 0 1 2.39 3.45 6.2 6.2 0 0 1 .68 4 6.37 6.37 0 0 1-3.28 2.67 13.4 13.4 0 0 1-5.6.58 12.3 12.3 0 0 1-6.12-1.63 9.74 9.74 0 0 1-3.86-6.14 20.6 20.6 0 0 1-.41-4.22 7.13 7.13 0 0 0-2.26-5.15c-.31-.28-1.51-1.7-2-2.3a15.6 15.6 0 0 1 2.08-6Z" style="fill:#455a64"/><path d="m262.07 239.15-1.15 79.24-3.74 55.47c-9.47 6-19.92.09-19.92.09 0-29.34-1-37.06-.32-52.7l-.81-43.52-4.58 45.48-9.06 54.42c-9.71 6.29-19-1.26-19-1.26 0-20.14-.2-43.44 3.72-60.41 1.85-17.35-1.58-37.89-.36-50.44 1.77-18.19 5.45-25.56 5.45-25.56Z" style="fill:#37474f"/><path d="m236.73 270.6-.6 7.13.43 23.09 2.91-26.58a19.07 19.07 0 0 0 10.91-10.39c-5.51 4.04-13.65 6.75-13.65 6.75" style="opacity:.30000000000000004"/><path d="m244.08 169.94 9.26 1c7.59 6.7 11.51 20.73 9.88 36.24a274 274 0 0 0-1.15 32c-20.56 15-46.51 4.08-49.78.81l1.53-19a13.2 13.2 0 0 0-1-6.26c-1.94-4.51-5.41-13.38-5.87-20.26a35.9 35.9 0 0 1 3.75-17.71l13.47-5.88Z" style="fill:#f5f5f5"/><path d="M212.78 214.69c-1.71-4-4.6-11.32-5.58-17.72 1.91 1.15 3.93 2.29 4.72 4.19a33.64 33.64 0 0 1 1.91 19.4 13.3 13.3 0 0 0-1.05-5.87" style="opacity:.1"/><path d="M246.65 183.45c7.75 17.83 7.63 36.19 7.63 36.19l-3.81 8.21-6-7.84a311 311 0 0 0-.72-36Z" style="fill:#ba68c8"/><path d="M247 176.72a28 28 0 0 1-.33 6.73 5.4 5.4 0 0 1-2.88.53 23.5 23.5 0 0 1-4.63-5.59l4.63-1.67Z" style="fill:#ba68c8"/><path d="M243.77 176.72c-4 1.47-7.54 8.57-7.54 8.57-10.47-8.9-12.1-14.45-12.1-14.45 2.69-3.83 5.63-4.44 5.63-4.44Zm0 0c3 .08 5.74 4.32 5.74 4.32.49-7.42-5.74-13.14-5.74-13.14Z" style="fill:#e0e0e0"/><path d="m229.51 158.08 14.26 5.09v5.28a23.4 23.4 0 0 1-9-3.28 13.84 13.84 0 0 1-5.26-7.09" style="fill:#f28f8f"/><path d="M229.51 158.08a13.84 13.84 0 0 0 5.22 7.09 23.4 23.4 0 0 0 9 3.28v8.27s-15.07-6.78-15.07-10v-9Z" style="fill:#ffa8a7"/><path d="M257 137.17a8.62 8.62 0 0 0 7.82-4.41 1.19 1.19 0 0 0-1.29-1.7 9.4 9.4 0 0 1-3.3 0 15.62 15.62 0 0 0 3.07-11.66 1.47 1.47 0 0 0-2.1-1.1 28.94 28.94 0 0 1-14.64 3c-2.7-.19-5.35-.76-8-1a14.9 14.9 0 0 0-7.9 1.2 7.55 7.55 0 0 0-4.32 6.37 3.67 3.67 0 0 0-2.67-1.55 4.08 4.08 0 0 0-3.11.92l4.63 2.58c-1.59-.57-3.6.67-4.4 2.17a10.75 10.75 0 0 0-.85 5 39 39 0 0 0 .3 6.74 13 13 0 0 0 2.56 6.16 9.7 9.7 0 0 0 4.63 3.14 12.63 12.63 0 0 0 7.52-.24 30.5 30.5 0 0 0 6.83-3.4A107.6 107.6 0 0 0 257 137.17" style="fill:#263238"/><path d="M257.32 132.69a51.74 51.74 0 0 1-3 27.66c-.81 2-1.86 4.12-3.76 5.21s-4.45.9-6.71.55a34 34 0 0 1-10.6-3 14.5 14.5 0 0 1-7.33-7.9 6.34 6.34 0 0 1-6.42-2.52 12.07 12.07 0 0 1-2.09-7c0-1.59.3-3.47 1.72-4.16s2.92.07 4.07 1a12.1 12.1 0 0 1 4 6c1.05-3.87 2.68-7.6 3.73-11.47.41-1.52.92-3.18 2.25-4 1.62-1 3.74-.44 5.61 0a36.85 36.85 0 0 0 18.53-.37" style="fill:#ffa8a7"/><path d="m246.05 144.42 4.52 7.61-5.39 1.02zM240 155.67l4.1 2a2.69 2.69 0 0 1-3.11.89 2.42 2.42 0 0 1-.99-2.89" style="fill:#f28f8f"/><path d="m240 155.67 4.1 2a2.69 2.69 0 0 1-3.11.89 2.42 2.42 0 0 1-.99-2.89" style="opacity:.30000000000000004"/><path d="M242.39 158.68a2.43 2.43 0 0 1-1.42-.13 2.17 2.17 0 0 1-1.09-2.16 2.48 2.48 0 0 1 2.51 2.29" style="fill:#f28f8f"/><path d="M238.24 144.73a1.55 1.55 0 1 0 1.7-1.39 1.53 1.53 0 0 0-1.7 1.39m12.98.8a1.55 1.55 0 1 0 1.7-1.38 1.56 1.56 0 0 0-1.7 1.38m2.12-5.98 3.18 2.71a2.21 2.21 0 0 0-.43-2.49 2.61 2.61 0 0 0-2.75-.22M240.17 138l-3.66 2a2.22 2.22 0 0 1 .92-2.35 2.62 2.62 0 0 1 2.74.35" style="fill:#263238"/><path d="M256.09 265.52c-.48 34.67 1.06 49 1.06 49L253.71 365l4.51-50.52Zm-27.6 3.75c-2.7 34.57-2.34 48.91-2.34 48.91l-6.41 50.26 7.74-50.13Z" style="opacity:.30000000000000004"/><path d="M264.45 248.4s-.76-9.38-.87-14.36c-1.27-30.25 6.84-50.59-10.24-63.12l-4.76-.5a10.56 10.56 0 0 0-4.26-2c.54.55 1.27 1.49 1.27 1.49 5 5.9 6.18 20.19 4.26 35.9 0 0-20.34-19.85-22.5-38.27l-.76.56a9.2 9.2 0 0 0-2.46 2.71l-13.47 5.88s-3.91 8.18-3.46 15.58 4.31 15.56 4.72 26.89-4.7 17.76-5.47 36.46c10.68 6.75 28.46 5.64 41.6 1.86q1.44-5.17 2.89-10.33c.32 3 .72 6 1.07 9.06 6.38-2.21 11.12-5.11 12.44-7.81" style="fill:#455a64"/><path d="M249 208.8s-14.76-5.1-24-12.49a1.9 1.9 0 0 1-.14-2.83l5.54-5.48-6.09.69a1.9 1.9 0 0 1-2.09-2.14l1.91-14.85-2.83 15.82a1.9 1.9 0 0 0 2.24 2.2l5.16-1-5.4 5.12a1.9 1.9 0 0 0 0 2.77c9.03 8.24 25.7 12.19 25.7 12.19m3.33-2.65s5.12-8.05 6.53-16.2a2.19 2.19 0 0 0-1.15-2.14l-5.12-2.47 3.31-1.26c.67-.25.73-1.32.12-2.18l-7.35-10.44 8.23 10.89c.68.91.6 2.09-.17 2.28l-3 .72 4.89 2.24a2.2 2.2 0 0 1 1.19 2c-.9 8.8-7.48 16.56-7.48 16.56m-42.17-18.28-2.62-1a24.3 24.3 0 0 0-.34 5.46c.44 7.41 4.31 15.56 4.72 26.89.05 1.17 0 2.28 0 3.36a44 44 0 0 0-1.76-34.71" style="opacity:.2"/><path d="M179.91 208.34c-5.5 2.61-7.6 11.16-4 15.84 10.09-1.18 7.94-11.96 4-15.84" style="fill:#455a64"/><path d="M179.91 208.34c-5.5 2.61-7.6 11.16-4 15.84 10.09-1.18 7.94-11.96 4-15.84" style="opacity:.30000000000000004"/><path d="m179.16 210.18-4.92-2.43a8.75 8.75 0 0 1-3.66-3.42l-1.58-2.64a10.8 10.8 0 0 0-4.51-4.19 37 37 0 0 1-7.81-5.2 4.06 4.06 0 0 0 .63 5.11 29 29 0 0 0 3.2 2.57l-2.36.6a8.4 8.4 0 0 1-5.13-.32l-6.74-2.62a1.17 1.17 0 0 0-1.58 1.29 26.7 26.7 0 0 0 3.34 8.46 10.08 10.08 0 0 0 6.85 4.81c3.44.65 6.77 1.15 8.66 1.42a10 10 0 0 1 3.12 1l7.23 3.59Z" style="fill:#ffa8a7"/><path d="M183.84 217.75a12.2 12.2 0 0 0 .87-6.41l9.22 4.39a191 191 0 0 0 3.92-20.44c1.1-9.3.85-15.55 12.81-18.57l1.26 24.44s-1.46 29.87-10 33.17c-7.1 2.74-12.1-4-22.92-11a12.23 12.23 0 0 0 4.84-5.58" style="fill:#f5f5f5"/><path d="M200.13 221.85c-.32-1.39-2.61-4.57-6.2-6.12 0 0 .27-1.08.68-2.84 1.86.91 6.44 3.73 5.52 8.96" style="opacity:.1"/><path d="m176.21 208.34 8.5 3a12.08 12.08 0 0 1-5.74 12 63 63 0 0 1-7.05-5.61s3.68-1.32 4.29-9.39" style="fill:#f5f5f5"/><path d="M165.37 208.28a6 6 0 0 1-4.46-7.27 4.71 4.71 0 0 0-.68 4.42 4.6 4.6 0 0 0 3.39 2.81 9.3 9.3 0 0 0 1.75.04" style="fill:#f28f8f"/><path d="m210.66 176.72-3.56 1.13a14.55 14.55 0 0 0-10.1 13.34 51.6 51.6 0 0 1-.79 8.16c-1.15 5.12-2.8 15.18-2.8 15.18l-13.51-6.19c2.85 7.49-1 13.86-4 15.84l19.43 10.67a7.64 7.64 0 0 0 10.7-3.71 84.2 84.2 0 0 0 6.21-29.14 251 251 0 0 0-1.58-25.28" style="fill:#455a64"/><path d="M199.55 220.56c2.09-7.4-3-9.09-5.55-9.48-.35 2-.58 3.45-.58 3.45a8.53 8.53 0 0 1 6.13 6.03" style="opacity:.2"/><path d="M251.8 213.89c.93-.54 1.69-.11 1.69 1a3.65 3.65 0 0 1-1.67 2.9c-.93.54-1.69.11-1.69-1a3.65 3.65 0 0 1 1.67-2.9" style="fill:#ba68c8"/><path d="M251.8 213.89c.93-.54 1.69-.11 1.69 1a3.65 3.65 0 0 1-1.67 2.9c-.93.54-1.69.11-1.69-1a3.65 3.65 0 0 1 1.67-2.9" style="opacity:.2"/><path d="M251.8 224.57c.93-.54 1.69-.11 1.69 1a3.68 3.68 0 0 1-1.67 2.91c-.93.53-1.69.11-1.69-1a3.68 3.68 0 0 1 1.67-2.91" style="fill:#ba68c8"/><path d="M251.8 224.57c.93-.54 1.69-.11 1.69 1a3.68 3.68 0 0 1-1.67 2.91c-.93.53-1.69.11-1.69-1a3.68 3.68 0 0 1 1.67-2.91" style="opacity:.2"/><path d="M251.8 235.25c.93-.53 1.69-.1 1.69 1a3.66 3.66 0 0 1-1.67 2.9c-.93.54-1.69.11-1.69-1a3.68 3.68 0 0 1 1.67-2.9" style="fill:#ba68c8"/><path d="M251.8 235.25c.93-.53 1.69-.1 1.69 1a3.66 3.66 0 0 1-1.67 2.9c-.93.54-1.69.11-1.69-1a3.68 3.68 0 0 1 1.67-2.9" style="opacity:.2"/><path d="m229.66 208.27 4.65 12.58-1.28.09-4.33-11.73z" style="fill:#ba68c8"/><path d="m228.7 209.21 4.33 11.73-1.71.12-.87 2.41-4.34-11.73z" style="fill:#ba68c8"/><path d="m226.11 211.74 4.34 11.73-.65 1.79-4.65-12.58z" style="fill:#ba68c8"/><g style="opacity:.2"><path d="m229.66 208.27 4.65 12.58-1.28.09-4.33-11.73z" style="fill:#fff"/></g><path d="m228.7 209.21 4.33 11.73-1.71.12-.87 2.41-4.34-11.73z" style="opacity:.30000000000000004"/><g style="opacity:.2"><path d="m226.11 211.74 4.34 11.73-.65 1.79-4.65-12.58z" style="fill:#fff"/></g><path d="m228.3 207.58.97-.17-4.57 17.91-.65-1.05zm-3.55.64.96-.18-4.25 16.69-1.28 1.39z" style="fill:#ba68c8"/><path d="m225.71 208.04 2.59-.46-4.25 16.69-.88-1.39-1.71 1.85z" style="fill:#ba68c8"/><path d="m228.3 207.58.97-.17-4.57 17.91-.65-1.05zm-3.55.64.96-.18-4.25 16.69-1.28 1.39z" style="fill:#fff;opacity:.2"/><path d="m225.71 208.04 2.59-.46-4.25 16.69-.88-1.39-1.71 1.85z" style="opacity:.30000000000000004"/><path d="m233.71 202.81.8-1.64-.8-.72.44-1.66-6.92 6.58-4.3-4.3-.35 1.65-1.26 1.14.06 1.46-1.08 1.46.45 1.15-.8 1.65.8.71-.44 1.67 1.08.21-.04 1.52 1.26-.31.36 1.23 1.3-.8.73.82 1.22-1.22 1.03.33 1.03-1.52 1.22-.19.72-1.66 1.31-.7.35-1.65 1.25-1.13-.05-1.47 1.08-1.46z" style="fill:#ba68c8"/><path d="m233.06 198.58.04-1.52-1.25.3-.36-1.23-1.3.81-.73-.82-1.23 1.21-1.03-.33-1.02 1.52-1.22.2-.73 1.65-1.3.7 4.3 4.3 6.92-6.58z" style="fill:#ba68c8"/><path d="m227.23 205.37-2.23 9.26-.73-.82-1.3.8zm0 0 5.9 1.52-1.25 1.13-.35 1.65zm0 0 2.27 6.66-1.22.19-1.03 1.52zm7.28-4.2-.8 1.64.45 1.15-6.93 1.41z" style="opacity:.2"/><path d="m233.06 198.58 1.09.21-6.92 6.58 5.87-8.31zm-5.83 6.79-5.88 8.32.04-1.52-1.08-.21zm2.96-8.43 1.3-.81-4.26 9.24 2.23-9.25z" style="opacity:.2"/><path d="m220.3 206.78 6.93-1.41-7.28 4.21.8-1.65zm5.88-8.26 1.02-1.52.03 8.37-2.27-6.65zm-3.25 2.55 4.3 4.3-5.91-1.51 1.26-1.14z" style="opacity:.2"/><path d="M227.22 201.27c2-1.14 3.57-.22 3.58 2a7.86 7.86 0 0 1-3.56 6.16c-2 1.14-3.57.23-3.58-2a7.84 7.84 0 0 1 3.56-6.16" style="fill:#ba68c8"/><path d="M227.21 199.54c2.8-1.62 5.09-.32 5.1 2.9a11.16 11.16 0 0 1-5.07 8.77c-2.8 1.61-5.08.32-5.09-2.9a11.16 11.16 0 0 1 5.06-8.77m0 9.93a7.86 7.86 0 0 0 3.56-6.16c0-2.26-1.61-3.18-3.58-2a7.84 7.84 0 0 0-3.56 6.16c0 2.27 1.61 3.18 3.58 2" style="fill:#ba68c8"/><g style="opacity:.1"><path d="M227.22 201.27c2-1.14 3.57-.22 3.58 2a7.86 7.86 0 0 1-3.56 6.16c-2 1.14-3.57.23-3.58-2a7.84 7.84 0 0 1 3.56-6.16" style="fill:#fff"/></g><g style="opacity:.30000000000000004"><path d="M227.21 199.54c2.8-1.62 5.09-.32 5.1 2.9a11.16 11.16 0 0 1-5.07 8.77c-2.8 1.61-5.08.32-5.09-2.9a11.16 11.16 0 0 1 5.06-8.77m0 9.93a7.86 7.86 0 0 0 3.56-6.16c0-2.26-1.61-3.18-3.58-2a7.84 7.84 0 0 0-3.56 6.16c0 2.27 1.61 3.18 3.58 2" style="fill:#fff"/></g><path d="m366.19 269.05-46.08-27.08-79.65 45.47 46.07 27.08z" style="fill:#ba68c8"/><path d="m240.46 287.44-.4 135.37 46.08 27.08.39-135.37z" style="fill:#ba68c8"/><path d="m366.19 269.05-79.66 45.47-.39 135.37 79.65-45.47z" style="fill:#ba68c8"/><path d="m240.46 287.44-.4 135.37 46.08 27.08.39-135.37z" style="opacity:.30000000000000004"/><path d="m366.19 269.05-79.66 45.47-.39 135.37 79.65-45.47z" style="opacity:.2"/><g style="opacity:.2"><path d="m347.26 301 .21 73.3c0 11.77-8.28 26.17-18.52 32.08s-18.61 1.15-18.64-10.62l-.21-73.3Z" style="fill:#fff;opacity:.30000000000000004"/><path d="M307.76 321.11 349.57 297l.22 76c0 13.25-9.31 29.44-20.83 36.1s-20.94 1.29-21-12Zm39.71 53.17-.21-73.3-37.16 21.46.21 73.3c0 11.77 8.39 16.54 18.64 10.62s18.55-20.31 18.52-32.08"/></g><path d="m400.16 261.77-70.98-41.72-122.73 70.07 70.98 41.71z" style="fill:#ba68c8"/><path d="m400.16 261.77-70.98-41.72-122.73 70.07 70.98 41.71z" style="fill:#fff;opacity:.1"/><path d="m206.45 290.12-.02 8.7 70.99 41.71.01-8.7z" style="fill:#ba68c8"/><path d="m206.45 290.12-.02 8.7 70.99 41.71.01-8.7z" style="opacity:.2"/><path d="m400.16 261.77-122.73 70.06-.01 8.7 122.73-70.06z" style="fill:#ba68c8"/><path d="m400.16 261.77-122.73 70.06-.01 8.7 122.73-70.06z" style="opacity:.1"/><path d="M320.66 266.79c0 1.54-1 3.07-3 4.23A16.12 16.12 0 0 1 303 271c-2-1.18-3-2.72-3-4.26v3.81c0 1.54 1 3.08 3 4.26a16.15 16.15 0 0 0 14.66.08c2-1.17 3-2.7 3-4.24v-3.81Z" style="fill:#263238"/><path d="M303 271a16.12 16.12 0 0 0 14.66.07c2-1.16 3-2.69 3-4.23s-1-3.07-3-4.26a16.19 16.19 0 0 0-14.66-.07c-1.93 1.11-2.94 2.55-3 4v.22c-.06 1.5.94 3.04 3 4.27" style="fill:#455a64"/><path d="M295.26 210.42a.4.4 0 0 0-.05-.08 5 5 0 0 0-.41-.51 3.49 3.49 0 0 0-5 4.92 31.3 31.3 0 0 0 5.13 3.54l2.38-1.91a15.8 15.8 0 0 0-2.05-5.96" style="fill:#263238"/><path d="M311.85 246.66a34.48 34.48 0 0 0-7.6-21.71l-6.9-8.57a1.67 1.67 0 0 0-1.7.49 1.73 1.73 0 0 0-.68 1.42l6.91 8.57a31.5 31.5 0 0 1 6.92 19.79l-.1 20a.75.75 0 0 0 .44.63 2.37 2.37 0 0 0 2.17 0 .75.75 0 0 0 .45-.62Z" style="fill:#37474f"/><path d="M347.56 299.92v1.28c0 5.56-3.9 12.34-8.73 15.13s-8.79.55-8.8-5v-1.27Z" style="fill:#fff"/><path d="M330 310.05v1.27c0 5.56-3.9 12.34-8.74 15.14s-8.78.55-8.8-5v-1.27Z" style="fill:#ba68c8"/><path d="M312.49 320.17v1.27c0 5.57-3.89 12.34-8.73 15.14s-8.78.55-8.8-5v-1.28Z" style="fill:#fff"/><path d="M295 330.3v1.27c0 5.56-3.9 12.34-8.74 15.13s-8.77.55-8.79-5v-1.27Zm70.09-40.5v1.27c0 5.57-3.89 12.34-8.73 15.14s-8.78.55-8.8-5v-1.28Zm35.07-20.24v1.27c0 5.56-3.89 12.34-8.73 15.13s-8.79.56-8.8-5v-1.27Z" style="fill:#ba68c8"/><path d="M382.63 279.68V281c0 5.57-3.9 12.34-8.74 15.14s-8.78.55-8.8-5v-1.34Z" style="fill:#fff"/><g style="opacity:.30000000000000004"><path d="M330 310.05v1.27c0 5.56-3.9 12.34-8.74 15.14s-8.78.55-8.8-5v-1.27Z" style="fill:#fff"/></g><g style="opacity:.30000000000000004"><path d="M295 330.3v1.27c0 5.56-3.9 12.34-8.74 15.13s-8.77.55-8.79-5v-1.27Z" style="fill:#fff"/></g><g style="opacity:.30000000000000004"><path d="M365.09 289.8v1.27c0 5.57-3.89 12.34-8.73 15.14s-8.78.55-8.8-5v-1.28Z" style="fill:#fff"/></g><g style="opacity:.30000000000000004"><path d="M400.16 269.56v1.27c0 5.56-3.89 12.34-8.73 15.13s-8.79.56-8.8-5v-1.27Z" style="fill:#fff"/></g><path d="m347.26 301 .21 73.3c0 11.77-8.28 26.17-18.52 32.08s-18.61 1.15-18.64-10.62l-.21-73.3Z" style="fill:#ba68c8"/><path d="M307.76 321.11 349.57 297l.22 76c0 13.25-9.31 29.44-20.83 36.1s-20.94 1.29-21-12Zm39.71 53.17-.21-73.3-37.16 21.46.21 73.3c0 11.77 8.39 16.54 18.64 10.62s18.55-20.31 18.52-32.08" style="fill:#fff"/><path d="m330.86 270.65-20.64 11.87-20.67-12.07 20.65-11.86z" style="fill:#455a64"/><path d="m330.86 270.65-.01 2.49L310.2 285l.02-2.48z" style="fill:#37474f"/><path d="m310.22 282.52-.02 2.48-20.67-12.06.02-2.49z" style="fill:#263238"/><path d="m295.24 99.84 39.38-22.59c3.45-2 11.61.7 11.61 6.25a2.56 2.56 0 0 0-3.83-2.23l-39.4 22.6a7.6 7.6 0 0 0-3 3.22l-7.65-4.35a7.7 7.7 0 0 1 2.89-2.9" style="fill:#ba68c8"/><path d="M300 107.09a7.5 7.5 0 0 0-.87 3.44v22.63a2.57 2.57 0 0 0 3.84 2.23 7.6 7.6 0 0 1-11.61-6.26v-22.62a7.8 7.8 0 0 1 1-3.77Z" style="fill:#ba68c8"/><path d="m295.24 99.84 39.38-22.59c3.45-2 11.61.7 11.61 6.25a2.56 2.56 0 0 0-3.83-2.23l-39.4 22.6a7.6 7.6 0 0 0-3 3.22l-7.65-4.35a7.7 7.7 0 0 1 2.89-2.9" style="fill:#fff;opacity:.4"/><path d="M300 107.09a7.5 7.5 0 0 0-.87 3.44v22.63a2.57 2.57 0 0 0 3.84 2.23 7.6 7.6 0 0 1-11.61-6.26v-22.62a7.8 7.8 0 0 1 1-3.77Z" style="fill:#fff;opacity:.2"/><path d="m342.4 81.27-39.4 22.6a7.7 7.7 0 0 0-3.86 6.66v22.63a2.57 2.57 0 0 0 3.84 2.23l39.37-22.5a7.7 7.7 0 0 0 3.87-6.68V83.5a2.56 2.56 0 0 0-3.82-2.23" style="fill:#ba68c8"/><path d="m289.67 125.46 9.47 1.77v-12.14l-9.79 9.25a.65.65 0 0 0 .32 1.12" style="fill:#ba68c8"/><path d="m299.14 115.09-7.76-4.46-9.79 9.37a.65.65 0 0 0 .13 1l7.74 4.34Z" style="fill:#ba68c8"/><path d="m299.14 115.09-7.76-4.46-9.79 9.37a.65.65 0 0 0 .13 1l7.74 4.34Z" style="fill:#fff;opacity:.2"/><path d="M318.05 107.34c2.37-1.37 4.11-.54 4.12 2a8.36 8.36 0 0 1-4.1 6.75c-2.36 1.36-4.1.53-4.11-2a8.34 8.34 0 0 1 4.09-6.75m0 6.46a3.61 3.61 0 0 0 1.63-3c0-1.3-.74-1.67-1.64-1.14a3.59 3.59 0 0 0-1.63 3c0 1.31.74 1.68 1.64 1.16m-3.95-4.01-3.05 10.14-2.41 1.39-3.11-6.59 2.65-1.52 1.74 3.88 1.77-5.91zm15.02-8.67v2.18l-2.13 1.23.02 6.18-2.46 1.42-.01-6.18-2.13 1.23-.01-2.18zm6.55-3.78v2.12l-3.5 2.02.01.98 3.07-1.78v2.04l-3.07 1.77v1.1l3.64-2.09v2.12l-6.04 3.49-.02-8.36zm2.14 4.41c.81-.47 1.37-.19 1.37.61a2.82 2.82 0 0 1-1.37 2.23c-.81.47-1.37.15-1.37-.64a2.71 2.71 0 0 1 1.37-2.2m.93-1.02-1.87 1.08-.48-4.89 2.8-1.62z" style="fill:#fff"/><path d="M157.7 96.07h4.23v8.23h-4.23z" style="fill:#ba68c8" transform="rotate(-50.13 159.824 100.194)"/><path d="m193.56 98.47-.55 4.25a10.16 10.16 0 0 1-8-6.24l4-1.58a5.9 5.9 0 0 0 4.55 3.57" style="fill:#ba68c8"/><path d="M173.22 137.53h8.35v4.29h-8.35z" style="fill:#ba68c8" transform="rotate(-66.85 177.381 139.672)"/><path d="m183.25 176.63-1.07 6.37a17.49 17.49 0 0 1-12.22-8.6l5.62-3.16a11.1 11.1 0 0 0 7.67 5.39" style="fill:#ba68c8"/><path d="M349.47 165.13h7.02v13.68h-7.02z" style="fill:#ba68c8" transform="rotate(-16.29 352.928 171.974)"/><path d="m352.76 196.92 4.14 5.13a12.11 12.11 0 0 1-16.22-1.32l4.92-4.39a5.53 5.53 0 0 0 7.16.58m25.84-41.32-6 2.9a10.86 10.86 0 0 0-7.55-5.77l1.23-6.52a17.41 17.41 0 0 1 12.32 9.39m-61.4-14.76 4.24 6.16a16 16 0 0 1-18-.17l4.35-6.08a8.55 8.55 0 0 0 9.42.09Z" style="fill:#ba68c8"/><path d="M294.31 56.46h6.41v12.5h-6.41z" style="fill:#ba68c8" transform="rotate(-61.59 297.537 62.696)"/><path d="m154.85 261.23-1.2 6.94a17.88 17.88 0 0 1-13.06-10.09l6.42-2.91a10.85 10.85 0 0 0 7.84 6.06m-70.66-50.75-7.06 3.59a14.5 14.5 0 0 0-9.13-7.34l2-7.67a22.36 22.36 0 0 1 14.19 11.42M97 166.63l1 6.1a18.65 18.65 0 0 1-13.73-3.19l3.58-5a12.48 12.48 0 0 0 9.15 2.09" style="fill:#ba68c8"/><path d="M66.41 142.48h7.57v3.88h-7.57z" style="fill:#ba68c8" transform="rotate(-21.27 70.19 144.423)"/><path d="M86.37 114.83h3.88v7.57h-3.88z" style="fill:#ba68c8" transform="rotate(-68.14 88.314 118.61)"/><path d="m114.54 71.62-1.4 4.68a13.9 13.9 0 0 1-8.5-7.34l4.42-2.07a9 9 0 0 0 5.48 4.73m37.84 2.29-3.22-2.09a4.25 4.25 0 0 0-.27-4.76l3-2.43a8 8 0 0 1 .49 9.28m1.06 72.73.62 6.11a11.77 11.77 0 0 1-12.32-8.69l6-1.46a5.63 5.63 0 0 0 5.73 4Z" style="fill:#ba68c8"/><path d="M287.1 169.07h3.23v6.29h-3.23z" style="fill:#ba68c8" transform="rotate(-26.52 288.687 172.193)"/><path d="M373.72 197.66h3.47v6.76h-3.47z" style="fill:#ba68c8" transform="rotate(-61.84 375.441 201.033)"/><path d="m391.8 211.4.48 2.13a6.12 6.12 0 0 1-4.92-1l1.28-1.76a3.94 3.94 0 0 0 3.16.63" style="fill:#ba68c8"/><path d="M391.25 230.31h5.81v2.98h-5.81z" style="fill:#ba68c8" transform="rotate(-87.08 394.139 231.801)"/><path d="m353.38 222.09-.05 2.91a6.31 6.31 0 0 1-5.71-4l2.73-1a3.43 3.43 0 0 0 3.03 2.09" style="fill:#ba68c8"/><path d="M312.78 217.01h2.38v4.64h-2.38z" style="fill:#ba68c8" transform="rotate(-53 315.525 219.55)"/><path d="m332.42 234 .41 2.51a6.77 6.77 0 0 1-5.64-1.72l1.73-1.85a4.23 4.23 0 0 0 3.5 1.06m-51 38.2-4.77-.5a9.06 9.06 0 0 0-2.19-6.83l3.6-3.18a13.82 13.82 0 0 1 3.36 10.51m-45.32 2.27-.26 2.49a6.8 6.8 0 0 1-5-3l2.12-1.36a4.3 4.3 0 0 0 3.14 1.87M223.75 262l2.48 2.21a9.3 9.3 0 0 1-7 3.06l.06-3.32a5.94 5.94 0 0 0 4.46-1.95" style="fill:#ba68c8"/><path d="M223.87 256.32h2.02v3.93h-2.02z" style="fill:#ba68c8" transform="rotate(-77.64 224.885 258.284)"/><path d="m212.94 236.36.24 2.81a6.49 6.49 0 0 1-6-3l2.42-1.48a3.7 3.7 0 0 0 3.34 1.67m79.9-38.04-1.49 2.9a8 8 0 0 1-4.24-6.38l3.24-.25a4.71 4.71 0 0 0 2.49 3.73" style="fill:#ba68c8"/><path d="M322 171.42h2.49v4.85H322z" style="fill:#ba68c8" transform="rotate(-67.99 323.239 173.839)"/><path d="m219.09 112.49-.47 4a7.75 7.75 0 0 0-5.81 1.76l-2.62-3.1a11.82 11.82 0 0 1 8.9-2.66M206.37 155l.9 3.66a9.35 9.35 0 0 1-8.58-2.29l2.61-2.73a5.6 5.6 0 0 0 5.07 1.36m31.03-93.76.33 4.47a11.11 11.11 0 0 1-9.59-4.34l3.57-2.7a6.68 6.68 0 0 0 5.69 2.57m55.73 26.97-4.13-.49a8.63 8.63 0 0 0-1.68-6.15l3.32-2.52a12.74 12.74 0 0 1 2.49 9.16m-35.37-57.86-.93 4.32a12.66 12.66 0 0 1-8.21-6l3.83-2.2a8.3 8.3 0 0 0 5.31 3.88" style="fill:#ba68c8"/><path d="M183.13 251.5h7.38v14.39h-7.38z" style="fill:#ba68c8" transform="rotate(-27.49 186.816 258.676)"/><path d="m73.06 281.22-2-3.4a3.72 3.72 0 0 0 1.54-1.92 3.67 3.67 0 0 0 .08-2.46l3.75-1.26a7.84 7.84 0 0 1-3.35 9Z" style="fill:#ba68c8"/><path d="M65.47 309.02h5.41v10.54h-5.41z" style="fill:#ba68c8" transform="rotate(-.43 69.43 317.389)"/><path d="m97.4 254.8.69 3.14a9.32 9.32 0 0 1-7.25-1.43l1.84-2.65a6.1 6.1 0 0 0 4.72.94m63.81-24.44-.87 3.74a10.3 10.3 0 0 1-6.93-5.63l3.49-1.62a6.48 6.48 0 0 0 4.31 3.51m2.79 11.91 3.07 2.34a9.92 9.92 0 0 1-8.16 3.84l.15-3.85a6.08 6.08 0 0 0 4.94-2.33m9.17 51.98-3.55 3.36a10.43 10.43 0 0 0-6.81-3.19l.31-4.88a15.3 15.3 0 0 1 10.05 4.71m2.65 14.41 4.1 2.41a8.54 8.54 0 0 1-11.39 2.93l2.41-4.09a3.6 3.6 0 0 0 2.68.29 3.54 3.54 0 0 0 2.2-1.54" style="fill:#ba68c8"/><path d="M139.9 319.31h3.88v7.55h-3.88z" style="fill:#ba68c8" transform="rotate(-28.47 141.808 323.075)"/><path d="m85 344.36.37 4.06a9.51 9.51 0 0 1-8.71-4.24l3.47-2.18a5.47 5.47 0 0 0 4.87 2.36m12.06 14.23-3.54 1.66a4.93 4.93 0 0 0-4.34-2.74v-3.91a8.78 8.78 0 0 1 7.88 4.99" style="fill:#ba68c8"/><path d="M128.37 347.56h6.42v3.29h-6.42z" style="fill:#ba68c8" transform="rotate(-19.24 131.596 349.23)"/><path d="M186.16 335.29h6.9v13.44h-6.9z" style="fill:#ba68c8" transform="rotate(-47.56 189.627 342.017)"/><path d="m366 111.06 4.63 3A15.7 15.7 0 0 1 360 121l-.86-5.45a10.22 10.22 0 0 0 6.86-4.49m12.12-18.56v5.46a22.47 22.47 0 0 1-11.56-3.15l2.79-4.69a17.23 17.23 0 0 0 8.77 2.38m-8.88-22.19L371 75a16.82 16.82 0 0 1-11.18.15l1.61-4.71a11.85 11.85 0 0 0 7.81-.13M333 41.89l2.44 5.11a13.77 13.77 0 0 1-13.34-1l3.17-4.71a8.12 8.12 0 0 0 7.73.6m75.8 146.47-4 .06a5.41 5.41 0 0 0-2.86-4.58l1.82-3.59a9.39 9.39 0 0 1 5.04 8.11m7.77 19.24-.08 3.33a8.7 8.7 0 0 1-6.84-3.69l2.74-1.89a5.36 5.36 0 0 0 4.18 2.25m-3.88-53.92-.77 2.49a5.07 5.07 0 0 1-3.47-5.36l2.59.32a2.51 2.51 0 0 0 1.65 2.55" style="fill:#ba68c8"/><path d="M399.56 119.9h3.94v7.67h-3.94z" style="fill:#ba68c8" transform="rotate(-15 399.739 123.183)"/><path d="m387.73 132.23.71 3.4a6.54 6.54 0 0 1-4.47-.73 6.44 6.44 0 0 1-3-3.42l3.26-1.18a3.1 3.1 0 0 0 1.39 1.57 3 3 0 0 0 2.11.36m1.11-80.15-3.14 5.36a12.47 12.47 0 0 1-5.51-14.1l5.95 1.81a6 6 0 0 0 .22 3.91 6.08 6.08 0 0 0 2.48 3.02M202.3 66.19l-5.4-.73a8.05 8.05 0 0 0-2.72-7.06l3.5-4.17a13.45 13.45 0 0 1 4.62 11.96" style="fill:#ba68c8"/><path d="M280.19 306.35h5.13v10h-5.13z" style="fill:#ba68c8" transform="rotate(-17.93 282.785 311.393)"/><path d="M315.54 307.52h3.27v6.38h-3.27z" style="fill:#ba68c8" transform="rotate(-51.73 317.217 310.728)"/><path d="M260.21 363.85h3.64v7.1h-3.64z" style="fill:#ba68c8" transform="rotate(-21.76 261.987 367.361)"/><path d="m259.94 384.44 1.69 3.93a9 9 0 0 1-10.08-2.2l3.16-2.87a4.81 4.81 0 0 0 5.23 1.14" style="fill:#ba68c8"/><path d="M268.65 388.91h2.44v4.75h-2.44z" style="fill:#ba68c8" transform="rotate(-32.91 269.901 391.32)"/><path d="m256.11 406.43-1.19 3.41a11.84 11.84 0 0 1-6.3-5.18l3.12-1.82a8.32 8.32 0 0 0 4.37 3.59M225.72 351l-.58 3.73a8 8 0 0 1-6.55-6.3l3.71-.72a4.28 4.28 0 0 0 3.42 3.29" style="fill:#ba68c8"/><path d="M200.73 306.31h3.41v6.65h-3.41z" style="fill:#ba68c8" transform="rotate(-33.85 202.445 309.638)"/><path d="M221.2 387.28h6.15v3.16h-6.15z" style="fill:#ba68c8" transform="rotate(-80.12 224.272 388.868)"/><path d="m232.87 420.71-.12 5.09a11.26 11.26 0 0 1-10-7l4.73-1.89a6.23 6.23 0 0 0 5.39 3.8" style="fill:#ba68c8"/><path d="M242.6 440.48h3.96v7.72h-3.96z" style="fill:#ba68c8" transform="rotate(-82.83 244.577 444.335)"/><path d="m267.94 432.1-2.25 2.31a7.15 7.15 0 0 1-1.67-7.52l3 1.14a3.93 3.93 0 0 0 .92 4.07" style="fill:#ba68c8"/><path d="M259.79 453.06h4.67v2.4h-4.67z" style="fill:#ba68c8" transform="rotate(-72.23 262.1 454.25)"/><path d="m330.7 355.8-.19 4.2a10.62 10.62 0 0 1-8.5-5l3.6-2.19a6.47 6.47 0 0 0 5.09 2.99" style="fill:#ba68c8"/><path d="M346.23 355.27h4.31v8.39h-4.31z" style="fill:#ba68c8" transform="rotate(-43.95 348.35 359.447)"/><path d="M348.66 388.26h6.72v3.45h-6.72z" style="fill:#ba68c8" transform="rotate(-64.99 352.029 389.987)"/><path d="m300.87 389.42 3 2.24a6.87 6.87 0 0 1-9.2 1.52l2.16-3.09a3 3 0 0 0 2.13.41 2.86 2.86 0 0 0 1.91-1.08" style="fill:#ba68c8"/><path d="M324.82 416.88h3.55v6.92h-3.55z" style="fill:#ba68c8" transform="rotate(-72.98 326.61 420.34)"/><path d="m387.28 351.68 2.86 2.58a7.63 7.63 0 0 1-9.3 1.45l1.94-3.33a3.83 3.83 0 0 0 4.5-.7" style="fill:#ba68c8"/><path d="M397.95 343.93h3.17v6.17h-3.17z" style="fill:#ba68c8" transform="rotate(-51.79 399.485 347)"/><path d="m398.83 363.66 4.83 1.07a8.91 8.91 0 0 1-10.32 6.59l1.06-4.83a4 4 0 0 0 4.43-2.83" style="fill:#ba68c8"/><path d="M374.53 326.01h6.15v3.16h-6.15z" style="fill:#ba68c8" transform="rotate(-11.33 377.614 327.594)"/><path d="M421.18 293.86h9.94v5.1h-9.94z" style="fill:#ba68c8" transform="rotate(-60.56 426.113 296.409)"/><path d="m417.94 283-3-2.8a6.58 6.58 0 0 0 1.56-5.66l4-.85a10.7 10.7 0 0 1-2.56 9.31" style="fill:#ba68c8"/><path d="M406.64 299.9h3.77v7.34h-3.77z" style="fill:#ba68c8" transform="rotate(-69.85 408.553 303.565)"/><path d="M428.98 224.4h4.28v8.33h-4.28z" style="fill:#ba68c8" transform="rotate(-34.47 431.064 228.553)"/><path d="M64.85 372.59h8.01v4.11h-8.01z" style="fill:#ba68c8" transform="rotate(-51.55 68.834 374.629)"/><path d="M102.15 411 96 414.46a20.3 20.3 0 0 1-1.63-16.22l6.74 2.22a13.22 13.22 0 0 0 1.04 10.54" style="fill:#ba68c8"/><path d="M114.13 389.4h4.03v7.86h-4.03z" style="fill:#ba68c8" transform="rotate(-9.91 116.16 393.334)"/><g style="opacity:.7000000000000001"><path d="M157.7 96.07h4.23v8.23h-4.23z" style="fill:#fff" transform="rotate(-50.13 159.824 100.194)"/><path d="m193.56 98.47-.55 4.25a10.16 10.16 0 0 1-8-6.24l4-1.58a5.9 5.9 0 0 0 4.55 3.57" style="fill:#fff"/><path d="M173.22 137.53h8.35v4.29h-8.35z" style="fill:#fff" transform="rotate(-66.85 177.381 139.672)"/><path d="m183.25 176.63-1.07 6.37a17.49 17.49 0 0 1-12.22-8.6l5.62-3.16a11.1 11.1 0 0 0 7.67 5.39" style="fill:#fff"/><path d="M349.47 165.13h7.02v13.68h-7.02z" style="fill:#fff" transform="rotate(-16.29 352.928 171.974)"/><path d="m352.76 196.92 4.14 5.13a12.11 12.11 0 0 1-16.22-1.32l4.92-4.39a5.53 5.53 0 0 0 7.16.58m25.84-41.32-6 2.9a10.86 10.86 0 0 0-7.55-5.77l1.23-6.52a17.41 17.41 0 0 1 12.32 9.39m-61.4-14.76 4.24 6.16a16 16 0 0 1-18-.17l4.35-6.08a8.55 8.55 0 0 0 9.42.09Z" style="fill:#fff"/><path d="M294.31 56.46h6.41v12.5h-6.41z" style="fill:#fff" transform="rotate(-61.59 297.537 62.696)"/><path d="m154.85 261.23-1.2 6.94a17.88 17.88 0 0 1-13.06-10.09l6.42-2.91a10.85 10.85 0 0 0 7.84 6.06m-70.66-50.75-7.06 3.59a14.5 14.5 0 0 0-9.13-7.34l2-7.67a22.36 22.36 0 0 1 14.19 11.42M97 166.63l1 6.1a18.65 18.65 0 0 1-13.73-3.19l3.58-5a12.48 12.48 0 0 0 9.15 2.09" style="fill:#fff"/><path d="M66.41 142.48h7.57v3.88h-7.57z" style="fill:#fff" transform="rotate(-21.27 70.19 144.423)"/><path d="M86.37 114.83h3.88v7.57h-3.88z" style="fill:#fff" transform="rotate(-68.14 88.314 118.61)"/><path d="m114.54 71.62-1.4 4.68a13.9 13.9 0 0 1-8.5-7.34l4.42-2.07a9 9 0 0 0 5.48 4.73m37.84 2.29-3.22-2.09a4.25 4.25 0 0 0-.27-4.76l3-2.43a8 8 0 0 1 .49 9.28m1.06 72.73.62 6.11a11.77 11.77 0 0 1-12.32-8.69l6-1.46a5.63 5.63 0 0 0 5.73 4Z" style="fill:#fff"/><path d="M287.1 169.07h3.23v6.29h-3.23z" style="fill:#fff" transform="rotate(-26.52 288.687 172.193)"/><path d="M373.72 197.66h3.47v6.76h-3.47z" style="fill:#fff" transform="rotate(-61.84 375.441 201.033)"/><path d="m391.8 211.4.48 2.13a6.12 6.12 0 0 1-4.92-1l1.28-1.76a3.94 3.94 0 0 0 3.16.63" style="fill:#fff"/><path d="M391.25 230.31h5.81v2.98h-5.81z" style="fill:#fff" transform="rotate(-87.08 394.139 231.801)"/><path d="m353.38 222.09-.05 2.91a6.31 6.31 0 0 1-5.71-4l2.73-1a3.43 3.43 0 0 0 3.03 2.09" style="fill:#fff"/><path d="M312.78 217.01h2.38v4.64h-2.38z" style="fill:#fff" transform="rotate(-53 315.525 219.55)"/><path d="m332.42 234 .41 2.51a6.77 6.77 0 0 1-5.64-1.72l1.73-1.85a4.23 4.23 0 0 0 3.5 1.06m-51 38.2-4.77-.5a9.06 9.06 0 0 0-2.19-6.83l3.6-3.18a13.82 13.82 0 0 1 3.36 10.51m-45.32 2.27-.26 2.49a6.8 6.8 0 0 1-5-3l2.12-1.36a4.3 4.3 0 0 0 3.14 1.87M223.75 262l2.48 2.21a9.3 9.3 0 0 1-7 3.06l.06-3.32a5.94 5.94 0 0 0 4.46-1.95" style="fill:#fff"/><path d="M223.87 256.32h2.02v3.93h-2.02z" style="fill:#fff" transform="rotate(-77.64 224.885 258.284)"/><path d="m212.94 236.36.24 2.81a6.49 6.49 0 0 1-6-3l2.42-1.48a3.7 3.7 0 0 0 3.34 1.67m79.9-38.04-1.49 2.9a8 8 0 0 1-4.24-6.38l3.24-.25a4.71 4.71 0 0 0 2.49 3.73" style="fill:#fff"/><path d="M322 171.42h2.49v4.85H322z" style="fill:#fff" transform="rotate(-67.99 323.239 173.839)"/><path d="m219.09 112.49-.47 4a7.75 7.75 0 0 0-5.81 1.76l-2.62-3.1a11.82 11.82 0 0 1 8.9-2.66M206.37 155l.9 3.66a9.35 9.35 0 0 1-8.58-2.29l2.61-2.73a5.6 5.6 0 0 0 5.07 1.36m31.03-93.76.33 4.47a11.11 11.11 0 0 1-9.59-4.34l3.57-2.7a6.68 6.68 0 0 0 5.69 2.57m55.73 26.97-4.13-.49a8.63 8.63 0 0 0-1.68-6.15l3.32-2.52a12.74 12.74 0 0 1 2.49 9.16m-35.37-57.86-.93 4.32a12.66 12.66 0 0 1-8.21-6l3.83-2.2a8.3 8.3 0 0 0 5.31 3.88" style="fill:#fff"/><path d="M183.13 251.5h7.38v14.39h-7.38z" style="fill:#fff" transform="rotate(-27.49 186.816 258.676)"/><path d="m73.06 281.22-2-3.4a3.72 3.72 0 0 0 1.54-1.92 3.67 3.67 0 0 0 .08-2.46l3.75-1.26a7.84 7.84 0 0 1-3.35 9Z" style="fill:#fff"/><path d="M65.47 309.02h5.41v10.54h-5.41z" style="fill:#fff" transform="rotate(-.43 69.43 317.389)"/><path d="m97.4 254.8.69 3.14a9.32 9.32 0 0 1-7.25-1.43l1.84-2.65a6.1 6.1 0 0 0 4.72.94m63.81-24.44-.87 3.74a10.3 10.3 0 0 1-6.93-5.63l3.49-1.62a6.48 6.48 0 0 0 4.31 3.51m2.79 11.91 3.07 2.34a9.92 9.92 0 0 1-8.16 3.84l.15-3.85a6.08 6.08 0 0 0 4.94-2.33m9.17 51.98-3.55 3.36a10.43 10.43 0 0 0-6.81-3.19l.31-4.88a15.3 15.3 0 0 1 10.05 4.71m2.65 14.41 4.1 2.41a8.54 8.54 0 0 1-11.39 2.93l2.41-4.09a3.6 3.6 0 0 0 2.68.29 3.54 3.54 0 0 0 2.2-1.54" style="fill:#fff"/><path d="M139.9 319.31h3.88v7.55h-3.88z" style="fill:#fff" transform="rotate(-28.47 141.808 323.075)"/><path d="m85 344.36.37 4.06a9.51 9.51 0 0 1-8.71-4.24l3.47-2.18a5.47 5.47 0 0 0 4.87 2.36m12.06 14.23-3.54 1.66a4.93 4.93 0 0 0-4.34-2.74v-3.91a8.78 8.78 0 0 1 7.88 4.99" style="fill:#fff"/><path d="M128.37 347.56h6.42v3.29h-6.42z" style="fill:#fff" transform="rotate(-19.24 131.596 349.23)"/><path d="M186.16 335.29h6.9v13.44h-6.9z" style="fill:#fff" transform="rotate(-47.56 189.627 342.017)"/><path d="m366 111.06 4.63 3A15.7 15.7 0 0 1 360 121l-.86-5.45a10.22 10.22 0 0 0 6.86-4.49m12.12-18.56v5.46a22.47 22.47 0 0 1-11.56-3.15l2.79-4.69a17.23 17.23 0 0 0 8.77 2.38m-8.88-22.19L371 75a16.82 16.82 0 0 1-11.18.15l1.61-4.71a11.85 11.85 0 0 0 7.81-.13M333 41.89l2.44 5.11a13.77 13.77 0 0 1-13.34-1l3.17-4.71a8.12 8.12 0 0 0 7.73.6m75.8 146.47-4 .06a5.41 5.41 0 0 0-2.86-4.58l1.82-3.59a9.39 9.39 0 0 1 5.04 8.11m7.77 19.24-.08 3.33a8.7 8.7 0 0 1-6.84-3.69l2.74-1.89a5.36 5.36 0 0 0 4.18 2.25m-3.88-53.92-.77 2.49a5.07 5.07 0 0 1-3.47-5.36l2.59.32a2.51 2.51 0 0 0 1.65 2.55" style="fill:#fff"/><path d="M399.56 119.9h3.94v7.67h-3.94z" style="fill:#fff" transform="rotate(-15 399.739 123.183)"/><path d="m387.73 132.23.71 3.4a6.54 6.54 0 0 1-4.47-.73 6.44 6.44 0 0 1-3-3.42l3.26-1.18a3.1 3.1 0 0 0 1.39 1.57 3 3 0 0 0 2.11.36m1.11-80.15-3.14 5.36a12.47 12.47 0 0 1-5.51-14.1l5.95 1.81a6 6 0 0 0 .22 3.91 6.08 6.08 0 0 0 2.48 3.02M202.3 66.19l-5.4-.73a8.05 8.05 0 0 0-2.72-7.06l3.5-4.17a13.45 13.45 0 0 1 4.62 11.96" style="fill:#fff"/><path d="M280.19 306.35h5.13v10h-5.13z" style="fill:#fff" transform="rotate(-17.93 282.785 311.393)"/><path d="M315.54 307.52h3.27v6.38h-3.27z" style="fill:#fff" transform="rotate(-51.73 317.217 310.728)"/><path d="M260.21 363.85h3.64v7.1h-3.64z" style="fill:#fff" transform="rotate(-21.76 261.987 367.361)"/><path d="m259.94 384.44 1.69 3.93a9 9 0 0 1-10.08-2.2l3.16-2.87a4.81 4.81 0 0 0 5.23 1.14" style="fill:#fff"/><path d="M268.65 388.91h2.44v4.75h-2.44z" style="fill:#fff" transform="rotate(-32.91 269.901 391.32)"/><path d="m256.11 406.43-1.19 3.41a11.84 11.84 0 0 1-6.3-5.18l3.12-1.82a8.32 8.32 0 0 0 4.37 3.59M225.72 351l-.58 3.73a8 8 0 0 1-6.55-6.3l3.71-.72a4.28 4.28 0 0 0 3.42 3.29" style="fill:#fff"/><path d="M200.73 306.31h3.41v6.65h-3.41z" style="fill:#fff" transform="rotate(-33.85 202.445 309.638)"/><path d="M221.2 387.28h6.15v3.16h-6.15z" style="fill:#fff" transform="rotate(-80.12 224.272 388.868)"/><path d="m232.87 420.71-.12 5.09a11.26 11.26 0 0 1-10-7l4.73-1.89a6.23 6.23 0 0 0 5.39 3.8" style="fill:#fff"/><path d="M242.6 440.48h3.96v7.72h-3.96z" style="fill:#fff" transform="rotate(-82.83 244.577 444.335)"/><path d="m267.94 432.1-2.25 2.31a7.15 7.15 0 0 1-1.67-7.52l3 1.14a3.93 3.93 0 0 0 .92 4.07" style="fill:#fff"/><path d="M259.79 453.06h4.67v2.4h-4.67z" style="fill:#fff" transform="rotate(-72.23 262.1 454.25)"/><path d="m330.7 355.8-.19 4.2a10.62 10.62 0 0 1-8.5-5l3.6-2.19a6.47 6.47 0 0 0 5.09 2.99" style="fill:#fff"/><path d="M346.23 355.27h4.31v8.39h-4.31z" style="fill:#fff" transform="rotate(-43.95 348.35 359.447)"/><path d="M348.66 388.26h6.72v3.45h-6.72z" style="fill:#fff" transform="rotate(-64.99 352.029 389.987)"/><path d="m300.87 389.42 3 2.24a6.87 6.87 0 0 1-9.2 1.52l2.16-3.09a3 3 0 0 0 2.13.41 2.86 2.86 0 0 0 1.91-1.08" style="fill:#fff"/><path d="M324.82 416.88h3.55v6.92h-3.55z" style="fill:#fff" transform="rotate(-72.98 326.61 420.34)"/><path d="m387.28 351.68 2.86 2.58a7.63 7.63 0 0 1-9.3 1.45l1.94-3.33a3.83 3.83 0 0 0 4.5-.7" style="fill:#fff"/><path d="M397.95 343.93h3.17v6.17h-3.17z" style="fill:#fff" transform="rotate(-51.79 399.485 347)"/><path d="m398.83 363.66 4.83 1.07a8.91 8.91 0 0 1-10.32 6.59l1.06-4.83a4 4 0 0 0 4.43-2.83" style="fill:#fff"/><path d="M374.53 326.01h6.15v3.16h-6.15z" style="fill:#fff" transform="rotate(-11.33 377.614 327.594)"/><path d="M421.18 293.86h9.94v5.1h-9.94z" style="fill:#fff" transform="rotate(-60.56 426.113 296.409)"/><path d="m417.94 283-3-2.8a6.58 6.58 0 0 0 1.56-5.66l4-.85a10.7 10.7 0 0 1-2.56 9.31" style="fill:#fff"/><path d="M406.64 299.9h3.77v7.34h-3.77z" style="fill:#fff" transform="rotate(-69.85 408.553 303.565)"/><path d="M428.98 224.4h4.28v8.33h-4.28z" style="fill:#fff" transform="rotate(-34.47 431.064 228.553)"/><path d="M64.85 372.59h8.01v4.11h-8.01z" style="fill:#fff" transform="rotate(-51.55 68.834 374.629)"/><path d="M102.15 411 96 414.46a20.3 20.3 0 0 1-1.63-16.22l6.74 2.22a13.22 13.22 0 0 0 1.04 10.54" style="fill:#fff"/><path d="M114.13 389.4h4.03v7.86h-4.03z" style="fill:#fff" transform="rotate(-9.91 116.16 393.334)"/></g></svg>