<svg xmlns="http://www.w3.org/2000/svg" opacity=".1" viewBox="0 0 750 500"><path d="m226.03 61.56 9.49 9.49m0-9.49-9.49 9.49m472.78 165.8 9.49 9.49m0-9.49-9.49 9.49M150.97 389.42l9.49 9.49m0-9.49-9.49 9.49M434.92 26.74l9.49 9.49m0-9.49-9.49 9.49m6.12 425.15 9.49 9.49m0-9.49-9.49 9.49m101.1-44.31 7.49 7.5m0-7.5-7.49 7.5m125.2-384.33 7.49 7.49m0-7.49-7.49 7.49M349.9 74.31a6 6 0 1 0-6 6 6 6 0 0 0 6-6M62.84 53.83a6 6 0 1 0-6 6 6 6 0 0 0 6-6m591.02 363.52a6 6 0 1 0-6 6 6 6 0 0 0 6-6m-492.54 56.31a6 6 0 1 0-6 6 6 6 0 0 0 6-6M63.18 244.29a6 6 0 1 0-6 6 6 6 0 0 0 6-6M353.83 364.1a6 6 0 1 0-6 6 6 6 0 0 0 6-6m370.18-3.73 11.04 1.88" style="fill:none;stroke:#263238;stroke-linecap:round;stroke-linejoin:round"/><path d="m167.62 375.48 337.14-52.49 212.21 36.18M20.83 398.34l132.13-20.58" style="fill:none;stroke:#263238;stroke-linecap:round;stroke-linejoin:round"/><path d="m591.71 80.61-203.9 24.54.4 254.44 205.49 32.76 89.8-18.61.4-281.93z" style="fill:#dbdbdb;stroke:#263238;stroke-linecap:round;stroke-linejoin:round"/><path d="M674.23 365.87 608.89 356" style="fill:none;stroke:#263238;stroke-linecap:round;stroke-linejoin:round"/><ellipse cx="634.87" cy="161.58" rx="29.44" ry="40.42" style="fill:#fff"/><ellipse cx="634.87" cy="161.58" rx="26.66" ry="36.61" style="fill:#00cfff"/><ellipse cx="634.87" cy="161.58" rx="9.78" ry="13.43" style="fill:#263238;stroke:#263238;stroke-linecap:round;stroke-linejoin:round"/><path d="M572.28 157.61 447.82 161v111.18l127.29 13.86V160.16z" style="fill:#263238;stroke:#263238;stroke-linecap:round;stroke-linejoin:round"/><ellipse cx="437.99" cy="207.36" rx="29.44" ry="40.42" style="fill:#fff"/><ellipse cx="437.99" cy="207.36" rx="26.66" ry="36.61" style="fill:#00cfff"/><ellipse cx="437.99" cy="207.36" rx="9.78" ry="13.43" style="fill:#263238;stroke:#263238;stroke-linecap:round;stroke-linejoin:round"/><ellipse cx="634.87" cy="243.74" rx="29.44" ry="40.42" style="fill:#fff"/><ellipse cx="634.87" cy="243.74" rx="26.66" ry="36.61" style="fill:#00cfff"/><ellipse cx="634.87" cy="243.74" rx="9.78" ry="13.43" style="fill:#263238;stroke:#263238;stroke-linecap:round;stroke-linejoin:round"/><ellipse cx="634.87" cy="325.91" rx="29.44" ry="40.42" style="fill:#fff"/><ellipse cx="634.87" cy="325.91" rx="26.66" ry="36.61" style="fill:#00cfff"/><ellipse cx="634.87" cy="325.91" rx="9.78" ry="13.43" style="fill:#263238;stroke:#263238;stroke-linecap:round;stroke-linejoin:round"/><path d="M528.43 201.31a3.5 3.5 0 0 1-1.57-.37c-4.82-2.41-12-9.77-17-17.5-4.84-7.42-9.85-18.3-6.22-27.92 1.77-4.69 8.87-12.6 49.93-27.23 22-7.83 43.58-13.91 43.79-14a3.54 3.54 0 1 1 1.91 6.81c-34.87 9.78-85.55 27.69-89 36.88-2.73 7.22 2.29 16.62 5.52 21.57 5.22 8 11.59 13.71 14.25 15a3.53 3.53 0 0 1-1.59 6.69Z" style="fill:#fff;stroke:#263238;stroke-linecap:round;stroke-linejoin:round"/><path d="M525.89 222.25a3.5 3.5 0 0 1-2-.61c-10-6.78-13.8-20.95-11.15-42.12 1.21-9.73 5.78-18.53 14-26.89 11-11.23 28.82-21.79 53-31.4 54-21.42 79.33-14.28 80.39-14a3.53 3.53 0 0 1-2 6.77c-.34-.09-24.57-6.56-75.77 13.76-39.65 15.73-60.12 32.94-62.58 52.6-2.29 18.31.43 30.22 8.09 35.38a3.54 3.54 0 0 1-2 6.47Z" style="fill:#fff;stroke:#263238;stroke-linecap:round;stroke-linejoin:round"/><path d="M521.91 252.17v6.13h22.23l3.07-3.83h9.58v-80.1l-9.58-1.92-4.6-4.21h-17.63l-3.07 9.2z" style="fill:#fff;stroke:#263238;stroke-linecap:round;stroke-linejoin:round"/><path d="M521.91 177.43h15.71v74.73h-15.71z" style="fill:#00cfff;stroke:#fff;stroke-linecap:round;stroke-linejoin:round"/><path d="m584 214.61-36.41-2.68v34.1l34.87 4.99z" style="fill:#fff;stroke:#263238;stroke-linecap:round;stroke-linejoin:round"/><path d="m548 216.08 35.56 3.03m-35.94 2.83 35.75 3.98m-35.56 1.7 35.19 4.16m-35.38 1.51 35.38 4.54m-35.76.38 35.19 4.92m-35-.38 34.81 5.49" style="fill:none;stroke:#263238;stroke-linecap:round;stroke-linejoin:round"/><path d="M547.59 211.93V191.3l2.3 1.32v19.3zm-139.96 49.5v84.01l5.81.61v-83.7z" style="fill:#263238;stroke:#263238;stroke-linecap:round;stroke-linejoin:round"/><path d="m413.44 262.35 68.57-3.54v9.79l102.55 11.33v36.12l-18.36 5.21-85.11-11.02v21.42l99.8 14.7v27.85l-167.45-28.16z" style="fill:#ababab;stroke:#263238;stroke-linecap:round;stroke-linejoin:round"/><path d="m482.01 268.6-68.88 4.77 135 9.93 36.43-3.37z" style="fill:#ababab;stroke:#263238;stroke-linecap:round;stroke-linejoin:round"/><path d="M548.13 283.3v35.2l18.07 2.76 18.36-5.21v-36.12zm-135-9.93v30.59l67.96 6.28 67.04 8.26v-35.2z" style="fill:#263238;stroke:#263238;stroke-linecap:round;stroke-linejoin:round"/><path d="m441.69 305.51 7.65-14.33 54.94 5.49 3.82 4.06" style="fill:none;stroke:#fff;stroke-linecap:round;stroke-linejoin:round"/><path d="M515.07 287s-7 3.67-5.51 17.76 15.31 32.14 25.72 38.57 34.89 10.1 38.57 9.79 5.81-.61 5.81-.61V338.4a39.6 39.6 0 0 1-18.36 0c-9.49-2.45-27.86-28.47-30-34s2.75-11.33 2.75-11.33v-4.57Z" style="fill:#fff;stroke:#263238;stroke-linecap:round;stroke-linejoin:round"/><path d="M524.26 288.2s-6.13 3.06-3.37 16.53 14.39 29.69 27.55 38.26 25.1 6.74 25.1 6.74" style="fill:none;stroke:#263238;stroke-linecap:round;stroke-linejoin:round"/><path d="M534.05 288.5a17.72 17.72 0 0 0-5.83 14.06c.49 8.93 14.39 23.57 20.47 30" style="fill:none;stroke:#263238;stroke-linecap:round;stroke-linejoin:round"/><path d="M526.48 290.77s-3 5.46-1.24 15 17.49 28.29 27.92 35" style="fill:none;stroke:#263238;stroke-linecap:round;stroke-linejoin:round"/><path d="M518.91 287.17s-3.6 1.86-3.23 12.28 8.69 27.43 19.61 38.35m-23.08-36.36S511 312 522.76 328.37m35.24 13.4a153 153 0 0 0 20.59 3" style="fill:none;stroke:#263238;stroke-linecap:round;stroke-linejoin:round"/><path d="m407.63 261.43 47.35-3.36 27.03.74-68.57 3.54z" style="fill:#fff;stroke:#263238;stroke-linecap:round;stroke-linejoin:round"/><path d="m413.86 323.03 52.05-6.95v13.31l-52.25 10.72-.22 5.94 67.65-14.39v-21.42l-19.55-1.71-48.08 3.18z" style="fill:#263238;stroke:#263238;stroke-linecap:round;stroke-linejoin:round"/><path d="M417.33 350.9v12.42c0 3.16 19.84 5.73 44.31 5.73s44.36-2.57 44.36-5.73V350.9Z" style="fill:#fff"/><ellipse cx="461.64" cy="350.9" rx="44.31" ry="5.73" style="fill:#00cfff"/><path d="M469.64 349.82c0 1-5.24 1.79-11.7 1.79s-11.71-.8-11.71-1.79 5.24-1.79 11.71-1.79 11.7.8 11.7 1.79" style="fill:#263238;stroke:#263238;stroke-linecap:round;stroke-linejoin:round"/><path d="m512.12 358.22-.36 12.42c-.09 3.17 19.67 10.13 44.13 10.83s44.37-1.29 44.46-4.46l.35-16.24Z" style="fill:#fff"/><path d="M600.7 360.77c-.09 3.17-20 5.16-44.45 4.46s-44.22-3.84-44.13-7 20-5.16 44.46-4.45 44.21 3.83 44.12 6.99" style="fill:#00cfff"/><path d="M564.44 358.65c0 1-5.29 1.64-11.75 1.46S541 359 541 358s5.29-1.64 11.75-1.45 11.72 1.11 11.69 2.1" style="fill:#263238;stroke:#263238;stroke-linecap:round;stroke-linejoin:round"/><path d="M412.76 103.42v13.81l52.69 6.43 164.49-14.14v-21.2l-38.23-7.71z" style="fill:#263238"/><path d="m412.76 117.23 160.96-17.35 56.22 9.64-164.49 14.14z" style="fill:#fff"/><rect width="27.72" height="35.64" x="490.82" y="197.5" rx="7.11" style="fill:#fff;stroke:#263238;stroke-linecap:round;stroke-linejoin:round"/><rect width="18.42" height="23.68" x="495.47" y="203.47" rx="5.04" style="fill:#00cfff"/><path d="m592.08 73.6 1.21 324.4 93-20.22.81-289.62Zm88.59 296.1-76.45 15L605 87l75.65 12.54Z" style="fill:#263238;stroke:#263238;stroke-linecap:round;stroke-linejoin:round"/><path d="m592.08 73.6-209.53 27.51v262.12L593.29 398ZM393.07 356l-1.62-247.56 186.47-20.27 1.22 298.92Z" style="fill:#707070;stroke:#263238;stroke-linecap:round;stroke-linejoin:round"/><path d="M466.94 128.03v26.79" style="fill:none;stroke:#263238;stroke-linecap:round;stroke-linejoin:round"/><path d="M259.83 437s53.17 13.93 58.05 13.6 221.83-46.37 223.45-47.35 4.22-6.16 4.22-6.16l-7.79-2.92s-71.35-13.94-74.91-13.29-234.48 36.32-236.75 38.59-5.51 4.54-4.54 5.51S259.83 437 259.83 437" style="fill:#263238;stroke:#263238;stroke-linecap:round;stroke-linejoin:round"/><path d="m235.18 423.04 76.15 17.82 225.72-45.77m-221.59 47.7 3.31 2.2 223.57-46.59" style="fill:none;stroke:#b8b8b8;stroke-linecap:round;stroke-linejoin:round"/><path d="m248.91 423.21 2.81-2.55 56.59 13.77.26 4.08" style="fill:none;stroke:#b8b8b8;stroke-linecap:round;stroke-linejoin:round"/><path d="m308.31 434.43 10.16-1.51 3.16 3.88m.97-.61.97-3.4 8.61-2.06 2.91 3.28 1.21-3.64 20.62-4.12 3.04 3.63m3.15-1.45 1.58-3.28 7.52-1.94 3.15 3.4m1.21-.49.97-3.76 5.95-1.21 3.15 2.3 1.82-3.27 6.67-1.09 2.31 1.94m-145.72-.37 9.14-1.33 2.79.97 1.09-2.3 2.43-.25h4.24l3.16-.72 2.54-1.58h6.43l5.22-.12 1.09-1.34 7.64-1.09 5.09.85 2.55-3.15 7.64-.37 2.67.13 1.82-1.34 19.77-3.03 4 .48 2.07-2.3 17.95-2.18 7.15 1.09 1.46 1.82m-14.07 3.39 12.25-2.54m2.91-.12 16.61 4.27-11.51 2.76-16.5-3.4m16.49 3.4v5.94m19.29.49-10.55-2.43-6.55.73-.85 1.94m6.31 1.82-11.77-2.55-4.12 1.7-.61.97m10.55 1.09-6.55-1.45m17.47-.73-7.88-1.46m-15.89 6.43-10.07-3.39 8.25-1.22 8.37 1.82m-17.47-5.7 7.88 2.43 8.13-1.82-7.52-2.43zm0 0-2.79 3.03 3.4 1.22m15.4-3.64 1.94 1.33m-14.8 7.64-50.7-11.64m-40.02 6.43 50.09 11.52m-48.52-13.34 54.22 12.74m-46.33-13.83L330.24 430" style="fill:none;stroke:#b8b8b8;stroke-linecap:round;stroke-linejoin:round"/><path d="m288.52 416.18 43.54 9.7 9.94-1.94m37.03-6.56 2.07-4.44 25.58-5.1 7.74 1.89 101.55-18.3 9.65 1.66 3.44 3.22" style="fill:none;stroke:#b8b8b8;stroke-linecap:round;stroke-linejoin:round"/><path d="m525.62 393.09-100.2 20.31 1.11 3.22" style="fill:none;stroke:#b8b8b8;stroke-linecap:round;stroke-linejoin:round"/><path d="m430.63 406.96 9.32 3 2.55 2.66m1.67-8.32 10.65 3.22 2 2.33m41.39-14.98 8.99 2.11 2.11 1.77m.55-5.88 7.44 2.22 1.44 1.89m-127.17 20.3 2.22-2.44 9.54 2.78 18.2-3.44-9.21-3m9.21 3 1.44 3.1m2.45-3.88-7.66-2.55m-23.97 3.99 16.09-3.1m-27.96 1.77 5.88 1.78m-100.72 4.98 1.41-1.88 4.71-1.06m5.43 5.89 1.17-1.89 4.25-1.29m7.77 5.18 1.18-1.18 5.42-.94m-23.68 7.54 4.71-1.41m-13.91-.94 3.19-1.18m-26.28-4.72 5.53-.47m3.07 2.6 5.77-.71m39.84-6.84 2.71-2.35 6.36 1.65v1.41m.94-1.3 6.84-1.53 2.47 1.77 1.53-3.06 7.19-1.54 2.83 2.71 1.65-3.06 7.31-1.18 2.83 2.59m-37.48.71 27.11-5.18 5.06 1.06m-20.5 5.18-5.07-2m9.07.71-4.71-1.3m16.38-.59-6.24-1.3m-27.5-.01 10.05 2.61m-7.42-3.66 11.43 3.07m-2.47-4.25 9.78 2.95" style="fill:none;stroke:#b8b8b8;stroke-linecap:round;stroke-linejoin:round"/><path d="m330.68 407.31 9.43 3.42 4.59 1.29m-2.59-5.06 4.48 1.29m-3.49-4.08 9.85 2.08.71 2.47m10.02-7.66 107.71-17.56m-98.25 20.8 109.76-18.55m-101.35 21.53L494.8 387.5m-85.25 19.43 96.98-17.33m-50.97-3.67 44.18 8.07m-33.31-9.59 39.74 8.07m-22.91 4.91-34.13-9.7m23.03 11.8-30.97-9.7m13.79 12.97-29.81-10.98m20.34 12.74-28.99-11.11m18.24 13.09-28.17-11.57m16.25 13.44-26.77-11.92m11.34 12.04-22.21-10.28m11.81 11.57-21.86-10.06m-82.86 11.81 2.57-2.92m9-1.52 5.02 1.87m5.73-3.39 5.38 1.75m7.48-4.21 6.77 2.34m5.85-4.44 7.36 1.75m2.92-3.5 7.48 2.33m3.74-4.2 5.85 1.75m19.87-5.73 4.9 1.52m5.38-3.27 5.61 1.4m3.51-3.04 5.61 1.06m7.13-2.81 5.96 1.75m5.49-3.5 6.78 1.4m1.75-3.04 6.78 1.64m2.81-3.04 5.72 1.52" style="fill:none;stroke:#b8b8b8;stroke-linecap:round;stroke-linejoin:round"/><path d="M266 442.17s-11.69-15.24-30.82-19.17-29.51 2.92-38.92 8.11-18.48 9.4-17.51 13.29a14.1 14.1 0 0 0 7.13 8.76c2.92 1.3 31.14 11.35 44.44 12.65s29.18-2.27 34.05-7.14 1.63-16.5 1.63-16.5" style="fill:#a3a3a3;stroke:#263238;stroke-linecap:round;stroke-linejoin:round"/><path d="M263.05 438.88c-4.59-4.71-14.37-13.1-27.87-15.84-19.13-3.89-29.51 2.92-38.92 8.11-1.79 1-3.56 1.93-5.26 2.85 2-.47 15.84-3.54 22.45.06 7.14 3.9 20.11 9.41 34.05 9.41 7.93 0 12.81-2.3 15.55-4.59" style="fill:#707070;stroke:#263238;stroke-linecap:round;stroke-linejoin:round"/><path d="M266.91 452.64a37.1 37.1 0 0 1-21 5.42c-18.48-.65-25.94-12.65-37.62-19.13s-29.51 5.51-29.51 5.51a14.1 14.1 0 0 0 7.13 8.76c2.92 1.3 31.14 11.35 44.44 12.65s29.18-2.27 34.05-7.14a10.16 10.16 0 0 0 2.51-6.07" style="fill:#263238;stroke:#263238;stroke-linecap:round;stroke-linejoin:round"/><path d="m74.71 87.63-4.91 2.96L96.89 350.8l4.5-1.89zM229.47 335l-21.2 61.54 49.06-10.45s-8.71-6.09-7.54-15.38 13.06-37.74 13.06-37.74Z" style="fill:#a3a3a3;stroke:#263238;stroke-linecap:round;stroke-linejoin:round"/><path d="M249.79 370.67c1.16-9.29 13.06-37.74 13.06-37.74l-23.49 1.43c-1.88 5.42-12.57 35-13.09 43.28a15.59 15.59 0 0 0 6.14 13.72l24.92-5.31s-8.71-6.05-7.54-15.38" style="fill:#263238;stroke:#263238;stroke-linecap:round;stroke-linejoin:round"/><path d="m74.71 87.63 26.68 261.28 303.07-28.19-26.68-197.85z" style="fill:#263238;stroke:#263238;stroke-linecap:round;stroke-linejoin:round"/><path d="m85.28 98.2 25.68 239.13 283.94-24.66-22.65-180.24z" style="fill:#00cfff;stroke:#263238;stroke-linecap:round;stroke-linejoin:round"/><ellipse cx="254.31" cy="188.55" rx="23.98" ry="28.48" style="fill:#fff;stroke:#263238;stroke-linecap:round;stroke-linejoin:round" transform="rotate(-31.03 254.284 188.538)"/><ellipse cx="253.73" cy="176.86" rx="7.82" ry="9.92" style="fill:#fff;stroke:#263238;stroke-linecap:round;stroke-linejoin:round" transform="rotate(-36.12 253.757 176.862)"/><path d="M278.87 198.84c-7.35-8.36-17.63-13.39-27-12.22s-15.09 8-16.14 17.27c6.81 9 17.67 13.85 27.61 11.38 8.11-2.01 13.66-8.37 15.53-16.43m25.35 44.23h-85.57l-2.35-14.9h85.56zM96.89 350.8l306.16-28.48 1.41-1.6-303.07 28.19z" style="fill:#fff;stroke:#263238;stroke-linecap:round;stroke-linejoin:round"/><path d="M191.32 421.6s6.44-6.13 12.72-9 32.77-12.86 63-15.26 101.74-3.74 106.53-3.89 10.33-.6 10.92-2.24.87-9 .87-9l-21.19 7.84-2.12-2s-23.34-2.25-66.13 1.19-68.83 10-86.33 15.56-18.27 16.8-18.27 16.8" style="fill:#263238;stroke:#263238;stroke-linecap:round;stroke-linejoin:round"/><path d="m165.89 409.86 27 9.29s10.16-14.81 59.51-22.65 111.76-6.38 111.76-6.38l21.19-7.84s-81-4.64-133.53 2.32-79.25 17.13-85.93 25.26" style="fill:#707070;stroke:#263238;stroke-linecap:round;stroke-linejoin:round"/><path d="M165.89 409.86s-8.71 10.74-6.38 11.61 28.73 1.16 30.77.29a4.8 4.8 0 0 0 2.61-2.61Z" style="fill:#263238;stroke:#263238;stroke-linecap:round;stroke-linejoin:round"/><path d="m65 422 5.31 44.7c0 8.25 13.85 14.94 30.93 14.94s30.93-6.69 30.93-14.94l5.31-44.7Z" style="fill:#fff;stroke:#263238;stroke-linecap:round;stroke-linejoin:round"/><ellipse cx="101.28" cy="422.01" rx="36.24" ry="10.26" style="fill:#fff;stroke:#263238;stroke-linecap:round;stroke-linejoin:round"/><ellipse cx="101.28" cy="422.01" rx="28.24" ry="8" style="fill:#263238"/><path d="M39 321.75c3.35.92 11-.37 11-.37s-2.39-4.82-2.58-5.1c-2.21-3.3-8.41-8.37-12.68-7.15a5.27 5.27 0 0 0-3.24 7.13c1.24 2.91 4.66 4.74 7.5 5.49m78.35-9.63c.07 0 .66-5.33.65-5.67 0-4-2.39-11.62-6.63-13a5.26 5.26 0 0 0-6.63 4.16c-.64 3.07 1.23 6.46 3.18 8.69 2.29 2.7 9.42 5.82 9.43 5.82" style="fill:#263238"/><path d="M136.33 280.81c-4.44.16-8.77 6.91-9.85 10.73-.09.33-1 5.66-.87 5.65h.09c-.69 1.06-1.42 2.2-2.19 3.47-1.4 2.35-3 5-4.48 8a92 92 0 0 0-4.41 10 69 69 0 0 0-3.3 11.74v.15c-.16-1.29-.74-4.89-.82-5.16-1.07-3.82-5.38-10.58-9.82-10.75a5.26 5.26 0 0 0-5.3 5.76c.2 3.14 2.89 5.91 5.36 7.54 2.79 1.85 10 3 10.52 3.08a92 92 0 0 0-1.16 12.37c-.08 2.41-.09 4.84-.06 7.28-.18-1.11-.35-2.1-.38-2.24-1.07-3.82-5.39-10.57-9.83-10.75a5.26 5.26 0 0 0-5.29 5.77c.2 3.13 2.89 5.9 5.36 7.54s8.59 2.76 10.2 3c0 .94 0 1.88.06 2.81.11 4.49.24 9 .24 13.37 0 1.55-.06 3.08-.12 4.6-.16-1-.3-1.81-.33-1.94-1.07-3.82-5.38-10.58-9.83-10.75a5.27 5.27 0 0 0-5.29 5.77c.2 3.13 2.89 5.9 5.36 7.54s8 2.64 9.92 3c-.11 1.56-.2 3.13-.37 4.64-.14 1-.2 2-.4 3.05s-.34 2-.51 3c-.4 1.91-.8 3.89-1.23 5.74-.3 1.29-.6 2.52-.9 3.76v-4.82a20.4 20.4 0 0 0-4.13-9.44 7.5 7.5 0 0 0-.24-1.14 5.26 5.26 0 0 0-7-3.49c-4.08 1.75-5.7 9.6-5.33 13.55 0 .23.54 2.73.89 4.31-.34-.9-.67-1.77-1-2.68-.72-1.82-1.49-3.61-2.31-5.54l-1.3-2.78c-.42-.93-1-1.87-1.46-2.82-1.17-2.18-2.47-4.33-3.82-6.46 1.59-.63 7.19-3 9.27-5.1s4.11-5.4 3.64-8.5a5.25 5.25 0 0 0-6.39-4.51c-4.31 1.11-7.09 8.62-7.33 12.58 0 .25.14 3.11.25 4.68-.82-1.28-1.64-2.55-2.51-3.82-2.53-3.65-5.2-7.27-7.84-10.89-.82-1.11-1.61-2.22-2.41-3.34.57-.22 7.29-2.84 9.62-5.23 2.07-2.12 4.11-5.4 3.64-8.5a5.28 5.28 0 0 0-6.4-4.52c-4.3 1.11-7.08 8.63-7.32 12.59 0 .3.2 4.42.31 5.46-1.76-2.45-3.49-4.91-5.1-7.4a92 92 0 0 1-5.9-10.47c.26-.1 7.29-2.81 9.68-5.25 2.06-2.13 4.11-5.4 3.64-8.51a5.27 5.27 0 0 0-6.4-4.51c-4.3 1.11-7.08 8.62-7.32 12.59 0 .26.15 3.39.26 4.88l-.24.07a67.3 67.3 0 0 1-3.94-11.42c-.56-2.15-1-4.24-1.34-6.28 1.36-.37 7.56-2.12 10-4.09s4.68-4.92 4.55-8a5.26 5.26 0 0 0-5.86-5.19c-4.4.63-8 7.79-8.66 11.71 0 .21-.17 2.41-.24 4-.15-.92-.32-1.87-.44-2.76-.48-3.33-.71-6.4-.89-9.13-.09-1.55-.15-2.95-.18-4.27 1.15-1.06 5.71-5.38 6.9-8.18s1.89-6.52.33-9.24a5.26 5.26 0 0 0-7.59-1.91c-3.61 2.59-3.5 10.6-2.29 14.38.1.33 2.32 5.25 2.38 5.2l.07-.07c0 1.27 0 2.62.09 4.11.12 2.73.29 5.82.69 9.17a96 96 0 0 0 1.82 10.75 68.5 68.5 0 0 0 3.73 11.61l.06.13c-.85-1-3.31-3.67-3.53-3.85-3-2.6-10.32-5.85-14.12-3.55a5.26 5.26 0 0 0-1.24 7.73c1.9 2.51 5.67 3.33 8.63 3.33 3.35 0 9.95-3 10.47-3.23a93 93 0 0 0 5.86 10.95c1.26 2.06 2.6 4.09 4 6.11-.76-.83-1.45-1.56-1.56-1.65-3-2.6-10.32-5.86-14.12-3.55a5.26 5.26 0 0 0-1.24 7.73c1.89 2.5 5.67 3.33 8.63 3.33s8.69-2.44 10.18-3.11c.54.77 1.06 1.55 1.6 2.32 2.57 3.68 5.15 7.34 7.57 11 .85 1.3 1.65 2.6 2.45 3.91-.68-.74-1.26-1.35-1.35-1.44-3-2.6-10.33-5.85-14.13-3.55a5.27 5.27 0 0 0-1.44 7.71c1.89 2.51 5.66 3.33 8.63 3.34s8.13-2.21 9.91-3c.77 1.36 1.56 2.72 2.25 4.07.45.93 1 1.8 1.35 2.76l1.24 2.81c.73 1.82 1.48 3.68 2.15 5.47.46 1.24.89 2.43 1.32 3.63-.84-1.3-2.52-3.81-2.69-4-2.57-3-9.32-7.35-13.42-5.65a5.26 5.26 0 0 0-2.39 7.46c1.49 2.76 5.09 4.15 8 4.6 3.23.49 9.94-1.36 10.78-1.6.7 2 1.37 3.92 2 5.76 2.08 6.3 3.58 11.64 4.58 15.41l3-.44a2 2 0 0 1-.07-.25c-1.1-3.79-2.74-9.19-5-15.57-.7-2-1.5-4.16-2.34-6.35a57 57 0 0 0 5.6-3.7c2.61 2.11 8.79 4.13 9.59 4.38-.51 2.05-1 4-1.53 5.89-1.74 6.41-3.44 11.68-4.68 15.38l3.27-.48c1.12-3.65 2.53-8.5 4-14.23.52-2.07 1-4.3 1.54-6.59.86.05 7.82.45 10.88-.72 2.76-1.07 6-3.19 6.86-6.2a5.26 5.26 0 0 0-3.91-6.78c-4.37-.79-10.05 4.86-11.92 8.36-.11.21-1.06 2.58-1.64 4.09.21-.94.41-1.85.61-2.81.4-1.91.75-3.83 1.13-5.89.14-1 .29-2 .44-3s.23-2.1.35-3.16c.22-2.46.32-5 .37-7.5 1.68.35 7.64 1.5 10.55.87s6.41-2.24 7.72-5.09a5.26 5.26 0 0 0-2.84-7.29c-4.2-1.45-10.67 3.29-13 6.46-.15.2-1.6 2.67-2.37 4v-4.57c-.09-4.44-.32-8.93-.53-13.42-.07-1.37-.12-2.74-.17-4.11.59.13 7.65 1.66 10.91.95 2.89-.63 6.41-2.24 7.72-5.09a5.25 5.25 0 0 0-2.84-7.29c-4.2-1.45-10.67 3.28-13 6.46-.18.24-2.27 3.79-2.75 4.72-.12-3-.21-6-.17-9a92 92 0 0 1 .85-12c.27.06 7.63 1.68 11 1 2.89-.63 6.41-2.24 7.73-5.09a5.26 5.26 0 0 0-2.85-7.29c-4.2-1.45-10.67 3.28-13.05 6.46-.16.21-1.75 2.91-2.47 4.22l-.24-.08a68 68 0 0 1 3-11.7c.72-2.1 1.52-4.07 2.34-6 1.34.44 7.48 2.4 10.56 2.07s6.62-1.51 8.24-4.2a5.25 5.25 0 0 0-2-7.56c-4-1.9-11 2.09-13.68 5-.14.16-1.47 1.93-2.42 3.23.39-.85.77-1.74 1.16-2.55 1.43-3 2.94-5.73 4.29-8.1.78-1.35 1.51-2.55 2.21-3.66 1.54-.25 7.73-1.34 10.27-3s5.17-4.39 5.37-7.52a5.26 5.26 0 0 0-5.47-5.79" style="fill:#263238"/></svg>