<svg xmlns="http://www.w3.org/2000/svg" opacity=".08" viewBox="0 0 750 500"><path d="M29.11 359.28h690.93M29.11 471.62h690.93M29.11 408.71h690.93" style="fill:none;stroke:#263238;stroke-miterlimit:10"/><g style="opacity:.23"><path d="M56.06 327.5V155.74h107.67v174.31M59.88 155.54v-6.43h99.8v6.42m-97.27 7.38v166.15m7.81-166.15v166.15m7.81-166.15v166.15m7.81-166.15v166.15m7.81-166.15v166.15m7.81-166.15v166.15m7.81-166.15v166.15m7.81-166.15v166.15m7.81-166.15v166.15m7.81-166.15v166.15m7.81-166.15v166.15m7.81-166.15v166.15m7.81-166.15v166.15M62.41 169.93h94.95m-94.95 11.86h94.95m-94.95 11.86h94.95M62.41 205.5h94.95m-94.95 11.86h94.95m-94.95 11.86h94.95m-94.95 11.85h94.95m-94.95 11.86h94.95m-94.95 11.86h94.95m-94.95 11.85h94.95M62.41 288.5h94.95m-94.95 11.86h94.95m-94.95 11.85h94.95" style="fill:none;stroke:#000;stroke-linecap:round;stroke-linejoin:round"/><path d="M63.99 149.04v-7.57h45.96v7.85m46.43-1.53V85.76h53.55v245.12" style="fill:none;stroke:#000;stroke-linecap:round;stroke-linejoin:round"/><path d="M161.75 85.77v-7.35h42.9v6.92m-28.03-7.36V63.27h13.17v14.28M163.67 92.6h2.9v5.91h-2.9zm8.71 0h2.9v5.91h-2.9zm8.71 0h2.9v5.91h-2.9zm8.7 0h2.9v5.91h-2.9zm8.71 0h2.9v5.91h-2.9zm-34.83 14.79h2.9v5.91h-2.9zm8.71 0h2.9v5.91h-2.9zm8.71 0h2.9v5.91h-2.9zm8.7 0h2.9v5.91h-2.9zm8.71 0h2.9v5.91h-2.9zm-34.83 14.79h2.9v5.91h-2.9zm8.71 0h2.9v5.91h-2.9zm8.71 0h2.9v5.91h-2.9zm8.7 0h2.9v5.91h-2.9zm8.71 0h2.9v5.91h-2.9zm-34.83 14.78h2.9v5.91h-2.9zm8.71 0h2.9v5.91h-2.9zm8.71 0h2.9v5.91h-2.9zm8.7 0h2.9v5.91h-2.9zm8.71 0h2.9v5.91h-2.9zm-26.12 14.79h2.9v5.91h-2.9zm8.71 0h2.9v5.91h-2.9zm8.7 0h2.9v5.91h-2.9zm8.71 0h2.9v5.91h-2.9zm-26.12 14.79h2.9v5.91h-2.9zm8.71 0h2.9v5.91h-2.9zm8.7 0h2.9v5.91h-2.9zm8.71 0h2.9v5.91h-2.9zm-26.12 14.78h2.9v5.91h-2.9zm8.71 0h2.9v5.91h-2.9zm8.7 0h2.9v5.91h-2.9zm8.71 0h2.9v5.91h-2.9zm-26.12 14.79h2.9v5.91h-2.9zm8.71 0h2.9v5.91h-2.9zm8.7 0h2.9v5.91h-2.9zm8.71 0h2.9v5.91h-2.9zm-26.12 14.79h2.9v5.91h-2.9zm8.71 0h2.9v5.91h-2.9zm8.7 0h2.9v5.91h-2.9zm8.71 0h2.9v5.91h-2.9zm-26.12 14.78h2.9v5.91h-2.9zm8.71 0h2.9v5.91h-2.9zm8.7 0h2.9v5.91h-2.9zm8.71 0h2.9v5.91h-2.9zm-26.12 14.79h2.9v5.91h-2.9zm8.71 0h2.9v5.91h-2.9zm8.7 0h2.9v5.91h-2.9zm8.71 0h2.9v5.91h-2.9zm-26.12 14.79h2.9v5.91h-2.9zm8.71 0h2.9v5.91h-2.9zm8.7 0h2.9v5.91h-2.9zm8.71 0h2.9v5.91h-2.9zm-26.12 14.78h2.9v5.91h-2.9zm8.71 0h2.9v5.91h-2.9zm8.7 0h2.9v5.91h-2.9zm8.71 0h2.9v5.91h-2.9zm-26.12 14.79h2.9v5.91h-2.9zm8.71 0h2.9v5.91h-2.9zm8.7 0h2.9v5.91h-2.9zm8.71 0h2.9v5.91h-2.9zm-26.12 14.78h2.9v5.91h-2.9zm8.71 0h2.9v5.91h-2.9zm8.7 0h2.9v5.91h-2.9zm8.71 0h2.9v5.91h-2.9zm-26.12 14.79h2.9v5.91h-2.9zm8.71 0h2.9v5.91h-2.9zm8.7 0h2.9v5.91h-2.9zm8.71 0h2.9v5.91h-2.9zm13.29-210.53h118.08v225.88" style="fill:none;stroke:#000;stroke-linecap:round;stroke-linejoin:round"/><path d="M214.44 108.82h21.44v12.38h-21.44zm25.73 0h21.44v12.38h-21.44zm25.73 0h21.44v12.38H265.9zm-53.25 28.88h97.25m-97.25 8.14h97.25m-97.25 8.13h97.25m-97.25 8.13h97.25m-97.25 8.13h97.25m-97.25 8.14h97.25m-97.25 8.13h97.25m-97.25 8.13h97.25m-97.25 8.13h97.25m-97.25 8.14h97.25m-97.25 8.13h97.25m-97.25 8.13h97.25m-97.25 8.13h97.25m-97.25 8.14h97.25m-97.25 8.13h97.25m-97.25 8.13h97.25m-97.25 8.13h97.25m-97.25 8.14h97.25m-97.25 8.13h97.25m-97.25 8.13h97.25m-97.25 8.13h97.25m-97.25 8.14h97.25m-97.25 8.13h97.25m-97.25 8.13h97.25m6.53-187.05h7.98m-7.98 8.14h7.98m-7.98 8.13h7.98m-7.98 8.13h7.98m-7.98 8.13h7.98m-7.98 8.14h7.98m-7.98 8.13h7.98m-7.98 8.13h7.98m-7.98 8.13h7.98m-7.98 8.14h7.98m-7.98 8.13h7.98m-7.98 8.13h7.98m-7.98 8.13h7.98m-7.98 8.14h7.98m-7.98 8.13h7.98m-7.98 8.13h7.98m-7.98 8.13h7.98m-7.98 8.14h7.98m-7.98 8.13h7.98m-7.98 8.13h7.98m-7.98 8.13h7.98m-7.98 8.14h7.98m-7.98 8.13h7.98m-7.98 8.13h7.98M223.02 104v-4.21h24.55v-2.37h15.76v4.74h22.48v1.58m44.06.13V20.5h53.56v81.35h59.24v230.03" style="fill:none;stroke:#000;stroke-linecap:round;stroke-linejoin:round"/><path d="M384.29 45.87h42.07v55.98M348.23 27.5v302.64m-13.3-299.2h7.99m-7.99 8.13h7.99m-7.99 8.13h7.99m-7.99 8.13h7.99m-7.99 8.14h7.99m-7.99 8.13h7.99m-7.99 8.13h7.99m-7.99 8.13h7.99M334.93 96h7.99m-7.99 8.13h7.99m-7.99 8.13h7.99m-7.99 8.13h7.99m-7.99 8.14h7.99m-7.99 8.13h7.99m-7.99 8.13h7.99m-7.99 8.13h7.99m-7.99 8.14h7.99m-7.99 8.13h7.99m-7.99 8.13h7.99m-7.99 8.13h7.99m-7.99 8.14h7.99m-7.99 8.13h7.99m-7.99 8.13h7.99m-7.99 8.13h7.99m-7.99 7.24h7.99m-7.99 8.14h7.99m-7.99 8.13h7.99m-7.99 8.13h7.99m-7.99 8.14h7.99m-7.99 8.13h7.99m-7.99 8.13h7.99m-7.99 8.13h7.99m-7.99 8.14h7.99m-7.99 7.03h7.99m-7.99 8.13h7.99m-7.99 8.14h7.99m-7.99 8.13h7.99m-7.99 8.13h7.99m10.35-298.91h7.98m-7.98 8.13h7.98m-7.98 8.13h7.98m-7.98 8.13h7.98m-7.98 8.14h7.98m-7.98 8.13h7.98m-7.98 8.13h7.98m-7.98 8.13h7.98M353.27 96h7.98m-7.98 8.13h7.98m-7.98 8.13h7.98m-7.98 8.13h7.98m-7.98 8.14h7.98m-7.98 8.13h7.98m-7.98 8.13h7.98m-7.98 8.13h7.98m-7.98 8.14h7.98m-7.98 8.13h7.98m-7.98 8.13h7.98m-7.98 8.13h7.98m-7.98 8.14h7.98m-7.98 8.13h7.98m-7.98 8.13h7.98m-7.98 8.13h7.98m-7.98 7.24h7.98m-7.98 8.14h7.98m-7.98 8.13h7.98m-7.98 8.13h7.98m-7.98 8.14h7.98m-7.98 8.13h7.98m-7.98 8.13h7.98m-7.98 8.13h7.98m-7.98 8.14h7.98m6.8-259.35h7.99m-7.99 8.13h7.99m-7.99 8.13h7.99m-7.99 8.13h7.99m-7.99 8.14h7.99m-7.99 8.13h7.99m-7.99 8.13h7.99m-7.99 8.13h7.99M368.05 96h7.99m-7.99 8.13h7.99m-7.99 8.13h7.99m-7.99 8.13h7.99m-7.99 8.14h7.99m-7.99 8.13h7.99m-7.99 8.13h7.99m-7.99 8.13h7.99m-7.99 8.14h7.99m-7.99 8.13h7.99m-7.99 8.13h7.99m-7.99 8.13h7.99m-7.99 8.14h7.99m-7.99 8.13h7.99m-7.99 8.13h7.99m-7.99 8.13h7.99m-7.99 7.24h7.99m-7.99 8.14h7.99m-7.99 8.13h7.99m-7.99 8.13h7.99m-7.99 8.14h7.99m-7.99 8.13h7.99m-7.99 8.13h7.99m-7.99 8.13h7.99m-7.99 8.14h7.99m6.8-178.03h7.98m-7.98 8.13h7.98m-7.98 8.14h7.98m-7.98 8.13h7.98m-7.98 8.13h7.98m-7.98 8.13h7.98m-7.98 8.14h7.98m-7.98 8.13h7.98m-7.98 8.13h7.98m-7.98 8.13h7.98m-7.98 8.14h7.98m-7.98 8.13h7.98m-7.98 8.13h7.98m-7.98 8.13h7.98m-7.98 7.24h7.98m-7.98 8.14h7.98m-7.98 8.13h7.98m-7.98 8.13h7.98m-7.98 8.14h7.98m-7.98 8.13h7.98m-7.98 8.13h7.98m-7.98 8.13h7.98m-7.98 8.14h7.98m6.8-178.03h7.99m-7.99 8.13h7.99m-7.99 8.14h7.99m-7.99 8.13h7.99m-7.99 8.13h7.99m-7.99 8.13h7.99m-7.99 8.14h7.99m-7.99 8.13h7.99m-7.99 8.13h7.99m-7.99 8.13h7.99m-7.99 8.14h7.99m-7.99 8.13h7.99m-7.99 8.13h7.99m-7.99 8.13h7.99m-7.99 7.24h7.99m-7.99 8.14h7.99m-7.99 8.13h7.99m-7.99 8.13h7.99m-7.99 8.14h7.99m-7.99 8.13h7.99m-7.99 8.13h7.99m-7.99 8.13h7.99m-7.99 8.14h7.99m6.8-178.03h7.98m-7.98 8.13h7.98m-7.98 8.14h7.98m-7.98 8.13h7.98m-7.98 8.13h7.98m-7.98 8.13h7.98m-7.98 8.14h7.98m-7.98 8.13h7.98m-7.98 8.13h7.98m-7.98 8.13h7.98m-7.98 8.14h7.98m-7.98 8.13h7.98m-7.98 8.13h7.98m-7.98 8.13h7.98m-7.98 7.24h7.98m-7.98 8.14h7.98m-7.98 8.13h7.98m-7.98 8.13h7.98m-7.98 8.14h7.98m-7.98 8.13h7.98m-7.98 8.13h7.98m-7.98 8.13h7.98m-7.98 8.14h7.98m6.8-178.03h7.99m-7.99 8.13h7.99m-7.99 8.14h7.99m-7.99 8.13h7.99m-7.99 8.13h7.99m-7.99 8.13h7.99m-7.99 8.14h7.99m-7.99 8.13h7.99m-7.99 8.13h7.99m-7.99 8.13h7.99m-7.99 8.14h7.99m-7.99 8.13h7.99m-7.99 8.13h7.99m-7.99 8.13h7.99m-7.99 7.24h7.99m-7.99 8.14h7.99m-7.99 8.13h7.99m-7.99 8.13h7.99m-7.99 8.14h7.99m-7.99 8.13h7.99m-7.99 8.13h7.99m-7.99 8.13h7.99m-7.99 8.14h7.99m-81.91 7.03h7.98m-7.98 8.13h7.98m-7.98 8.14h7.98m-7.98 8.13h7.98m-7.98 8.13h7.98m6.8-32.53h7.99m-7.99 8.13h7.99m-7.99 8.14h7.99m-7.99 8.13h7.99m-7.99 8.13h7.99m6.8-32.53h7.98m-7.98 8.13h7.98m-7.98 8.14h7.98m-7.98 8.13h7.98m-7.98 8.13h7.98m6.8-32.53h7.99m-7.99 8.13h7.99m-7.99 8.14h7.99m-7.99 8.13h7.99m-7.99 8.13h7.99m6.8-32.53h7.98m-7.98 8.13h7.98m-7.98 8.14h7.98m-7.98 8.13h7.98m-7.98 8.13h7.98m6.8-32.53h7.99m-7.99 8.13h7.99m-7.99 8.14h7.99m-7.99 8.13h7.99m-7.99 8.13h7.99M155.29 129.69H121.2v-21.18H60.51v-27.1H41.39v63.52H21.44" style="fill:none;stroke:#000;stroke-linecap:round;stroke-linejoin:round"/><path d="M426.3 82.26h18.29V65.32h41.57v70.37M450.15 327.5V155.74h107.67v174.31M453.97 155.54v-6.43h99.8v6.42m-97.27 7.38v166.15m7.81-166.15v166.15m7.81-166.15v166.15m7.81-166.15v166.15m7.81-166.15v166.15m7.81-166.15v166.15m7.81-166.15v166.15m7.81-166.15v166.15m7.81-166.15v166.15m7.81-166.15v166.15m7.81-166.15v166.15m7.81-166.15v166.15m7.81-166.15v166.15M456.5 169.93h94.94m-94.94 11.86h94.94m-94.94 11.86h94.94M456.5 205.5h94.94m-94.94 11.86h94.94m-94.94 11.86h94.94m-94.94 11.85h94.94m-94.94 11.86h94.94m-94.94 11.86h94.94m-94.94 11.85h94.94M456.5 288.5h94.94m-94.94 11.86h94.94m-94.94 11.85h94.94" style="fill:none;stroke:#000;stroke-linecap:round;stroke-linejoin:round"/><path d="M458.08 149.04v-7.57h45.96v7.85m46.43-1.53V85.76h53.54v245.12" style="fill:none;stroke:#000;stroke-linecap:round;stroke-linejoin:round"/><path d="M555.84 85.77v-7.35h42.9v6.92m-28.03-7.36V63.27h13.16v14.28M557.76 92.6h2.9v5.91h-2.9zm8.71 0h2.9v5.91h-2.9zm8.7 0h2.9v5.91h-2.9zm8.71 0h2.9v5.91h-2.9zm8.71 0h2.9v5.91h-2.9zm-34.83 14.79h2.9v5.91h-2.9zm8.71 0h2.9v5.91h-2.9zm8.7 0h2.9v5.91h-2.9zm8.71 0h2.9v5.91h-2.9zm8.71 0h2.9v5.91h-2.9zm-34.83 14.79h2.9v5.91h-2.9zm8.71 0h2.9v5.91h-2.9zm8.7 0h2.9v5.91h-2.9zm8.71 0h2.9v5.91h-2.9zm8.71 0h2.9v5.91h-2.9zm-34.83 14.78h2.9v5.91h-2.9zm8.71 0h2.9v5.91h-2.9zm8.7 0h2.9v5.91h-2.9zm8.71 0h2.9v5.91h-2.9zm8.71 0h2.9v5.91h-2.9zm-26.12 14.79h2.9v5.91h-2.9zm8.7 0h2.9v5.91h-2.9zm8.71 0h2.9v5.91h-2.9zm8.71 0h2.9v5.91h-2.9zm-26.12 14.79h2.9v5.91h-2.9zm8.7 0h2.9v5.91h-2.9zm8.71 0h2.9v5.91h-2.9zm8.71 0h2.9v5.91h-2.9zm-26.12 14.78h2.9v5.91h-2.9zm8.7 0h2.9v5.91h-2.9zm8.71 0h2.9v5.91h-2.9zm8.71 0h2.9v5.91h-2.9zm-26.12 14.79h2.9v5.91h-2.9zm8.7 0h2.9v5.91h-2.9zm8.71 0h2.9v5.91h-2.9zm8.71 0h2.9v5.91h-2.9zm-26.12 14.79h2.9v5.91h-2.9zm8.7 0h2.9v5.91h-2.9zm8.71 0h2.9v5.91h-2.9zm8.71 0h2.9v5.91h-2.9zm-26.12 14.78h2.9v5.91h-2.9zm8.7 0h2.9v5.91h-2.9zm8.71 0h2.9v5.91h-2.9zm8.71 0h2.9v5.91h-2.9zm-26.12 14.79h2.9v5.91h-2.9zm8.7 0h2.9v5.91h-2.9zm8.71 0h2.9v5.91h-2.9zm8.71 0h2.9v5.91h-2.9zm-26.12 14.79h2.9v5.91h-2.9zm8.7 0h2.9v5.91h-2.9zm8.71 0h2.9v5.91h-2.9zm8.71 0h2.9v5.91h-2.9zm-26.12 14.78h2.9v5.91h-2.9zm8.7 0h2.9v5.91h-2.9zm8.71 0h2.9v5.91h-2.9zm8.71 0h2.9v5.91h-2.9zm-26.12 14.79h2.9v5.91h-2.9zm8.7 0h2.9v5.91h-2.9zm8.71 0h2.9v5.91h-2.9zm8.71 0h2.9v5.91h-2.9zm-26.12 14.78h2.9v5.91h-2.9zm8.7 0h2.9v5.91h-2.9zm8.71 0h2.9v5.91h-2.9zm8.71 0h2.9v5.91h-2.9zm-26.12 14.79h2.9v5.91h-2.9zm8.7 0h2.9v5.91h-2.9zm8.71 0h2.9v5.91h-2.9zm8.71 0h2.9v5.91h-2.9zm13.29-210.53h118.08v225.88" style="fill:none;stroke:#000;stroke-linecap:round;stroke-linejoin:round"/><path d="M608.53 108.82h21.44v12.38h-21.44zm25.73 0h21.44v12.38h-21.44zm25.73 0h21.44v12.38h-21.44zm-53.25 28.88h97.25m-97.25 8.14h97.25m-97.25 8.13h97.25m-97.25 8.13h97.25m-97.25 8.13h97.25m-97.25 8.14h97.25m-97.25 8.13h97.25m-97.25 8.13h97.25m-97.25 8.13h97.25m-97.25 8.14h97.25m-97.25 8.13h97.25m-97.25 8.13h97.25m-97.25 8.13h97.25m-97.25 8.14h97.25m-97.25 8.13h97.25m-97.25 8.13h97.25m-97.25 8.13h97.25m-97.25 8.14h97.25m-97.25 8.13h97.25m-97.25 8.13h97.25m-97.25 8.13h97.25m-97.25 8.14h97.25m-97.25 8.13h97.25m-97.25 8.13h97.25m6.53-187.05h7.98m-7.98 8.14h7.98m-7.98 8.13h7.98m-7.98 8.13h7.98m-7.98 8.13h7.98m-7.98 8.14h7.98m-7.98 8.13h7.98m-7.98 8.13h7.98m-7.98 8.13h7.98m-7.98 8.14h7.98m-7.98 8.13h7.98m-7.98 8.13h7.98m-7.98 8.13h7.98m-7.98 8.14h7.98m-7.98 8.13h7.98m-7.98 8.13h7.98m-7.98 8.13h7.98m-7.98 8.14h7.98m-7.98 8.13h7.98m-7.98 8.13h7.98m-7.98 8.13h7.98m-7.98 8.14h7.98m-7.98 8.13h7.98m-7.98 8.13h7.98M617.11 104v-4.21h24.55v-2.37h15.76v4.74h22.47v1.58m-130.52 25.95h-34.08v-21.18h-27.4m-33.87-35.68v64.05m8.97-64.05v64.05m8.97-64.05v64.05" style="fill:none;stroke:#000;stroke-linecap:round;stroke-linejoin:round"/></g><path d="M43.42 429.84a15.2 15.2 0 0 0 5.48.07c0 1.11 0 2.28.08 3.5a30.5 30.5 0 0 0 .81 5.27s0 .05 0 .07c-.29-.49-1.17-1.82-1.25-1.91-1.12-1.33-4.06-3.25-5.86-2.51a2.31 2.31 0 0 0-1.07 3.25 4.85 4.85 0 0 0 3.5 2 16.3 16.3 0 0 0 4.74-.67 41 41 0 0 0 1.77 5.13c.41 1 .84 1.95 1.29 2.92-.27-.41-.51-.78-.55-.83-1.12-1.33-4.06-3.24-5.86-2.51a2.31 2.31 0 0 0-1.07 3.25 4.79 4.79 0 0 0 3.5 2 15.4 15.4 0 0 0 4.61-.63l.53 1.11c.85 1.77 1.72 3.53 2.51 5.28.28.62.53 1.24.78 1.86-.24-.37-.45-.67-.48-.72-1.12-1.33-4-3.24-5.86-2.51a2.31 2.31 0 0 0-1.02 3.33 4.82 4.82 0 0 0 3.5 2A14.8 14.8 0 0 0 58 458c.24.64.48 1.28.69 1.91.13.44.28.85.39 1.29s.23.87.34 1.3c.19.83.39 1.69.55 2.51.11.57.21 1.11.32 1.66-.27-.62-.83-1.82-.89-1.91-.9-1.49-3.51-3.82-5.4-3.37a2.3 2.3 0 0 0-1.55 3.05 4.82 4.82 0 0 0 3.09 2.56 15.6 15.6 0 0 0 4.77.06c.17.91.32 1.79.45 2.63.1.63.2 1.24.28 1.83h1.21c-.1-.65-.22-1.33-.35-2-.17-.92-.36-1.9-.57-2.9a27 27 0 0 0 2.67-1.23 17 17 0 0 0 3.84 2.61c-.36.84-.72 1.66-1.07 2.43l-.56 1.22h1.28l.33-.77c.37-.86.75-1.79 1.13-2.74a16 16 0 0 0 4.74.44 4.82 4.82 0 0 0 3.4-2.2 2.31 2.31 0 0 0-1.22-3.2c-1.83-.64-4.68 1.41-5.73 2.79-.06.08-.64 1-1 1.65.15-.39.31-.77.46-1.17.3-.8.59-1.61.89-2.47.14-.42.27-.85.41-1.28s.24-.89.37-1.34c.26-1.05.48-2.13.68-3.21a15.4 15.4 0 0 0 4.49 1.1 4.78 4.78 0 0 0 3.69-1.66 2.29 2.29 0 0 0-.72-3.34c-1.71-.92-4.84.67-6.08 1.88-.08.07-.88 1-1.31 1.58.11-.66.23-1.31.32-2 .27-1.92.48-3.87.7-5.82.07-.6.15-1.2.22-1.79a15.9 15.9 0 0 0 4.64 1.16 4.78 4.78 0 0 0 3.69-1.66 2.29 2.29 0 0 0-.72-3.34c-1.71-.92-4.83.67-6.08 1.88-.1.09-1.25 1.48-1.52 1.85.16-1.31.33-2.62.55-3.9A39 39 0 0 1 75 439c.11 0 3.18 1.26 4.67 1.17a4.8 4.8 0 0 0 3.69-1.66 2.3 2.3 0 0 0-.72-3.34c-1.71-.92-4.84.67-6.09 1.88-.08.08-1 1.14-1.36 1.65l-.1-.05a30 30 0 0 1 2.12-4.84c.45-.86.94-1.66 1.42-2.42a15.8 15.8 0 0 0 4.45 1.61 4.85 4.85 0 0 0 3.85-1.24 2.3 2.3 0 0 0-.35-3.41c-1.6-1.1-4.88.14-6.25 1.2-.06 0-.4.37-.78.74v-.28c0-.1.11-.17.16-.25.83-1.21 1.67-2.27 2.42-3.2.43-.53.83-1 1.2-1.43a15.2 15.2 0 0 0 4.65-.59 4.79 4.79 0 0 0 2.84-2.88 2.3 2.3 0 0 0-1.82-2.87c-1.92-.24-4.26 2.38-5 3.95-.07.14-.81 2.38-.77 2.38-.37.41-.77.85-1.19 1.34-.76.92-1.62 2-2.48 3.14 0-1.87-.26-5.75-2.72-6-3.25-.36-4.24 3.35-2.25 5.4a5.9 5.9 0 0 0 4.25 1.66c-.64.92-1.29 1.92-1.89 3a30.3 30.3 0 0 0-2.24 4.84v.06-2.28c-.2-1.72-1.59-4.94-3.5-5.32a2.3 2.3 0 0 0-2.69 2.04 4.82 4.82 0 0 0 1.8 3.63 15.6 15.6 0 0 0 4.32 2.05 41.5 41.5 0 0 0-1.36 5.32c-.2 1-.37 2.08-.53 3.14v-1c-.19-1.72-1.59-4.94-3.49-5.32a2.29 2.29 0 0 0-2.69 2.12 4.83 4.83 0 0 0 1.79 3.63 15.4 15.4 0 0 0 4.2 2c-.06.4-.12.81-.17 1.21-.27 1.95-.52 3.89-.83 5.79-.11.67-.24 1.33-.37 2v-.86c-.19-1.72-1.59-4.94-3.49-5.32a2.29 2.29 0 0 0-2.7 2.11 4.84 4.84 0 0 0 1.79 3.63 14.6 14.6 0 0 0 4.08 2c-.15.67-.31 1.34-.48 2-.13.43-.23.86-.39 1.29s-.29.85-.43 1.27c-.3.8-.61 1.62-.93 2.39-.21.54-.43 1.05-.65 1.56.12-.66.32-2 .32-2.08a8.8 8.8 0 0 0-1.13-4.36 3 3 0 0 0 0-.51 2.31 2.31 0 0 0-2.79-2c-1.88.48-3.12 3.75-3.24 5.49 0 .1 0 1.21.09 1.92-.09-.41-.17-.81-.27-1.23-.18-.83-.39-1.66-.61-2.55-.12-.43-.25-.86-.37-1.29s-.29-.88-.43-1.32c-.36-1-.77-2-1.21-3.06a14.9 14.9 0 0 0 4.33-1.65 4.78 4.78 0 0 0 2.16-3.42 2.3 2.3 0 0 0-2.44-2.39c-1.94.18-3.66 3.23-4 4.93 0 .1-.16 1.35-.22 2-.27-.61-.53-1.22-.82-1.83-.84-1.75-1.74-3.5-2.63-5.25l-.81-1.6a16.2 16.2 0 0 0 4.52-1.6 4.78 4.78 0 0 0 2.16-3.42 2.3 2.3 0 0 0-2.45-2.39c-1.93.18-3.66 3.23-4 4.93 0 .13-.22 1.92-.25 2.38-.59-1.18-1.16-2.37-1.69-3.55a41 41 0 0 1-1.82-4.93c.12 0 3.35-.71 4.55-1.6a4.8 4.8 0 0 0 2.06-3.34 2.3 2.3 0 0 0-2.45-2.39c-1.94.18-3.66 3.23-4 4.92 0 .11-.17 1.48-.22 2.13h-.11a29 29 0 0 1-.91-5.2c-.09-1-.13-1.9-.14-2.8a15.8 15.8 0 0 0 4.58-1.08 4.81 4.81 0 0 0 2.52-3.16 2.3 2.3 0 0 0-2.17-2.65c-1.94 0-4 2.81-4.55 4.45 0 .09-.24 1-.38 1.72v-1.22c0-1.47.14-2.81.25-4 .06-.68.14-1.29.22-1.86a15.7 15.7 0 0 0 3.55-3.05 4.83 4.83 0 0 0 .78-4 2.3 2.3 0 0 0-3.15-1.35c-1.74.86-2.25 4.33-2 6.05 0 .15.64 2.43.67 2.41a52 52 0 0 0-.59 5.77v.83c-.73-1.15-3-4.39-5.55-3.75-3.05.81-2.35 3.53.07 4.15m65.04 14.48a10.3 10.3 0 0 0 3.6 0v2.3a20 20 0 0 0 .53 3.46c-.19-.32-.77-1.19-.82-1.25-.74-.87-2.66-2.13-3.85-1.65a1.51 1.51 0 0 0-.7 2.13 3.14 3.14 0 0 0 2.3 1.34 10.1 10.1 0 0 0 3.11-.44 28 28 0 0 0 1.16 3.38c.27.64.55 1.27.85 1.91-.18-.27-.34-.51-.37-.54-.73-.88-2.66-2.13-3.84-1.65a1.51 1.51 0 0 0-.7 2.13 3.12 3.12 0 0 0 2.29 1.34 9.6 9.6 0 0 0 3-.42c.12.25.23.49.35.73.56 1.16 1.12 2.32 1.64 3.47.19.41.35.81.52 1.22-.16-.24-.29-.44-.32-.47-.73-.87-2.66-2.13-3.84-1.65a1.51 1.51 0 0 0-.7 2.14 3.14 3.14 0 0 0 2.29 1.33 9.4 9.4 0 0 0 3-.39c.16.42.32.84.45 1.26s.19.55.26.84.15.57.22.85c.12.55.25 1.12.36 1.65.08.37.14.73.21 1.09-.18-.41-.54-1.19-.58-1.26-.59-1-2.31-2.5-3.55-2.21a1.52 1.52 0 0 0-1 2 3.17 3.17 0 0 0 2.07 1.67 11 11 0 0 0 3.13 0c.11.59.21 1.17.3 1.72l.18 1.2h.79c-.07-.43-.14-.87-.23-1.34s-.24-1.25-.38-1.91a14 14 0 0 0 1.76-.79 11 11 0 0 0 2.52 1.68c-.24.56-.47 1.09-.7 1.6l-.37.8h.84c.07-.16.15-.33.22-.51.24-.56.49-1.17.74-1.79a10.6 10.6 0 0 0 3.11.29 3.14 3.14 0 0 0 2.23-1.45 1.51 1.51 0 0 0-.8-2.1c-1.2-.42-3.07.92-3.76 1.83 0 .05-.42.68-.65 1.08a71 71 0 0 0 .89-2.38l.27-.85c.09-.27.15-.58.24-.88.17-.68.32-1.39.44-2.1a10 10 0 0 0 2.95.72 3.15 3.15 0 0 0 2.43-1.09 1.51 1.51 0 0 0-.48-2.19c-1.12-.61-3.17.44-4 1.23 0 .05-.58.69-.86 1 .08-.43.15-.86.21-1.3.18-1.26.32-2.54.46-3.82 0-.4.1-.79.14-1.18a10.5 10.5 0 0 0 3 .77 3.19 3.19 0 0 0 2.43-1.09 1.52 1.52 0 0 0-.48-2.2c-1.12-.6-3.17.45-4 1.24-.06.06-.82 1-1 1.21.11-.86.22-1.71.36-2.55a27 27 0 0 1 .79-3.36 10.9 10.9 0 0 0 3.07.77 3.15 3.15 0 0 0 2.51-.89 1.52 1.52 0 0 0-.47-2.2c-1.13-.6-3.18.45-4 1.24 0 .05-.63.75-.89 1.08h-.07a19 19 0 0 1 1.39-3.18c.3-.56.62-1.09.94-1.59a10 10 0 0 0 2.9 1.07 3.15 3.15 0 0 0 2.52-.81 1.51 1.51 0 0 0-.23-2.24c-1-.72-3.2.09-4.1.79l-.51.48v-.18a2 2 0 0 1 .11-.17c.54-.79 1.09-1.49 1.58-2.1.29-.34.55-.65.8-.93a10.4 10.4 0 0 0 3-.39 3.16 3.16 0 0 0 1.86-1.89 1.51 1.51 0 0 0-1.23-1.88c-1.27-.15-2.8 1.56-3.28 2.59 0 .09-.53 1.57-.51 1.57-.24.26-.5.56-.78.88-.5.6-1.06 1.28-1.63 2.06 0-1.23-.17-3.78-1.78-4-2.14-.23-2.79 2.2-1.48 3.54a3.84 3.84 0 0 0 2.79 1.09 23 23 0 0 0-1.24 2A19 19 0 0 0 129 450v-1.5c-.13-1.14-1-3.25-2.3-3.5a1.51 1.51 0 0 0-1.76 1.39 3.16 3.16 0 0 0 1.18 2.39 10.4 10.4 0 0 0 2.84 1.35 27 27 0 0 0-.9 3.45c-.13.68-.24 1.37-.34 2.06v-.65c-.13-1.13-1-3.24-2.3-3.49a1.5 1.5 0 0 0-1.76 1.39 3.14 3.14 0 0 0 1.18 2.38 9.9 9.9 0 0 0 2.75 1.32c0 .27-.07.54-.11.8-.17 1.28-.34 2.56-.54 3.8-.07.44-.16.87-.24 1.3v-.56c-.13-1.13-1-3.25-2.3-3.5a1.51 1.51 0 0 0-1.76 1.4 3.15 3.15 0 0 0 1.18 2.38 9.4 9.4 0 0 0 2.67 1.29c-.1.44-.2.88-.31 1.3s-.15.57-.26.85-.19.56-.28.83c-.2.53-.4 1.07-.61 1.57s-.28.69-.42 1c.07-.44.2-1.3.2-1.37a5.83 5.83 0 0 0-.74-2.86 2 2 0 0 0 0-.34 1.52 1.52 0 0 0-1.83-1.31c-1.24.31-2 2.46-2.13 3.6 0 .07 0 .8.06 1.26-.06-.27-.11-.53-.18-.8-.12-.55-.25-1.09-.4-1.68l-.24-.85c-.08-.28-.19-.57-.29-.86-.23-.67-.5-1.34-.79-2a10 10 0 0 0 2.86-1 3.11 3.11 0 0 0 1.42-2.24 1.51 1.51 0 0 0-1.6-1.58c-1.27.12-2.41 2.13-2.65 3.24 0 .07-.11.89-.15 1.34-.17-.4-.34-.8-.53-1.2-.55-1.15-1.14-2.3-1.73-3.45l-.53-1.05a10.6 10.6 0 0 0 3-1.05 3.09 3.09 0 0 0 1.42-2.24 1.5 1.5 0 0 0-1.6-1.57c-1.27.12-2.41 2.12-2.65 3.23 0 .09-.15 1.26-.16 1.56-.39-.77-.77-1.55-1.11-2.33a26 26 0 0 1-1.2-3.23 10.9 10.9 0 0 0 3-1.05 3.13 3.13 0 0 0 1.42-2.25 1.51 1.51 0 0 0-1.6-1.57c-1.27.12-2.41 2.12-2.65 3.24 0 .07-.11 1-.15 1.39h-.07a18.6 18.6 0 0 1-.6-3.42c-.06-.63-.08-1.24-.09-1.84a9.9 9.9 0 0 0 3-.7 3.12 3.12 0 0 0 1.66-2.08 1.51 1.51 0 0 0-1.42-1.74c-1.28 0-2.62 1.85-3 2.93 0 .06-.16.67-.25 1.13v-.81c0-1 .09-1.84.16-2.62 0-.45.09-.85.14-1.22a9.9 9.9 0 0 0 2.33-2 3.12 3.12 0 0 0 .52-2.6 1.51 1.51 0 0 0-2.07-.89c-1.14.57-1.47 2.85-1.3 4 0 .1.42 1.6.44 1.59 0 .36-.11.74-.16 1.17-.09.78-.19 1.66-.22 2.63v.54c-.48-.75-2-2.88-3.64-2.46-2.1.48-1.66 2.27-.05 2.68m568.19 0a10.3 10.3 0 0 0 3.6 0 23 23 0 0 0 0 2.3 19 19 0 0 0 .53 3.46c-.2-.32-.78-1.19-.83-1.25-.73-.87-2.66-2.13-3.84-1.65a1.5 1.5 0 0 0-.7 2.13 3.12 3.12 0 0 0 2.29 1.34 10.1 10.1 0 0 0 3.12-.44 26 26 0 0 0 1.16 3.38c.26.64.55 1.27.85 1.91-.18-.27-.34-.51-.37-.54-.73-.88-2.66-2.13-3.84-1.65a1.5 1.5 0 0 0-.7 2.13 3.12 3.12 0 0 0 2.29 1.34 9.7 9.7 0 0 0 3-.42c.11.25.23.49.34.73.56 1.16 1.13 2.32 1.65 3.47.18.41.35.81.51 1.22-.15-.24-.29-.44-.31-.47-.74-.87-2.66-2.13-3.85-1.65a1.52 1.52 0 0 0-.7 2.14 3.16 3.16 0 0 0 2.3 1.33 9.4 9.4 0 0 0 2.94-.39c.16.42.32.84.46 1.26s.18.55.25.84.15.57.23.85c.12.55.25 1.12.36 1.65l.21 1.09c-.18-.41-.55-1.19-.58-1.26-.6-1-2.31-2.5-3.55-2.21a1.51 1.51 0 0 0-1 2 3.17 3.17 0 0 0 2.07 1.67 11 11 0 0 0 3.12 0c.11.59.21 1.17.3 1.72s.13.81.18 1.2h.8c-.07-.43-.15-.87-.23-1.34s-.24-1.25-.38-1.91a15 15 0 0 0 1.76-.79 11 11 0 0 0 2.52 1.68c-.24.56-.48 1.09-.71 1.6-.12.28-.24.54-.37.8h.84c.08-.16.15-.33.23-.51.24-.56.49-1.17.73-1.79a10.6 10.6 0 0 0 3.12.29 3.18 3.18 0 0 0 2.23-1.45 1.51 1.51 0 0 0-.8-2.1c-1.21-.42-3.07.92-3.76 1.83 0 .05-.42.68-.65 1.08.1-.25.2-.5.3-.77.2-.52.38-1.05.59-1.61.08-.28.17-.56.26-.85s.16-.58.24-.88c.18-.68.32-1.39.45-2.1a10 10 0 0 0 3 .72 3.12 3.12 0 0 0 2.42-1.09 1.5 1.5 0 0 0-.47-2.19c-1.13-.61-3.18.44-4 1.23 0 .05-.57.69-.85 1 .07-.43.15-.86.21-1.3.18-1.26.31-2.54.46-3.82 0-.4.09-.79.14-1.18a10.3 10.3 0 0 0 3 .77 3.15 3.15 0 0 0 2.42-1.09 1.52 1.52 0 0 0-.47-2.2c-1.13-.6-3.18.45-4 1.24-.06.06-.81 1-1 1.21.1-.86.21-1.71.36-2.55a25 25 0 0 1 .79-3.36 10.7 10.7 0 0 0 3.06.77 3.19 3.19 0 0 0 2.43-1.09 1.52 1.52 0 0 0-.48-2.2c-1.12-.6-3.17.45-4 1.24-.06.05-.63.75-.9 1.08h-.06a19 19 0 0 1 1.39-3.18c.29-.56.61-1.09.93-1.59a10 10 0 0 0 2.9 1.07 3.17 3.17 0 0 0 2.53-.81 1.51 1.51 0 0 0-.23-2.24c-1.05-.72-3.21.09-4.11.79l-.5.48v-.18a2 2 0 0 0 .11-.17c.55-.79 1.1-1.49 1.59-2.1.28-.34.54-.65.79-.93a10.3 10.3 0 0 0 3-.39 3.15 3.15 0 0 0 1.87-1.89 1.51 1.51 0 0 0-1.24-1.88c-1.26-.15-2.8 1.56-3.28 2.59 0 .09-.53 1.57-.5 1.57-.24.26-.5.56-.77.88-.51.6-1.07 1.28-1.63 2.06 0-1.23-.17-3.78-1.79-4-2.13-.23-2.78 2.2-1.48 3.54a3.87 3.87 0 0 0 2.79 1.09c-.42.61-.84 1.26-1.24 2a20 20 0 0 0-1.47 3.18v-1.5c-.12-1.14-1-3.25-2.29-3.5a1.51 1.51 0 0 0-1.76 1.39 3.18 3.18 0 0 0 1.17 2.39 10.5 10.5 0 0 0 2.84 1.35 27 27 0 0 0-.89 3.45c-.13.68-.24 1.37-.35 2.06V455c-.13-1.13-1-3.24-2.3-3.49a1.5 1.5 0 0 0-1.76 1.39 3.16 3.16 0 0 0 1.17 2.38 9.9 9.9 0 0 0 2.76 1.32l-.12.8c-.17 1.28-.33 2.56-.54 3.8-.07.44-.15.87-.24 1.3v-.56c-.12-1.13-1-3.25-2.29-3.5a1.51 1.51 0 0 0-1.76 1.4 3.17 3.17 0 0 0 1.17 2.38 9.6 9.6 0 0 0 2.68 1.29c-.1.44-.2.88-.32 1.3s-.15.57-.25.85-.19.56-.28.83c-.2.53-.41 1.07-.61 1.57l-.43 1c.08-.44.21-1.3.21-1.37a5.83 5.83 0 0 0-.74-2.86 2 2 0 0 0 0-.34 1.51 1.51 0 0 0-1.82-1.31c-1.24.31-2.06 2.46-2.13 3.6 0 .07 0 .8.05 1.26-.06-.27-.11-.53-.17-.8-.12-.55-.26-1.09-.4-1.68-.08-.28-.17-.56-.25-.85s-.19-.57-.28-.86c-.24-.67-.5-1.34-.79-2a10 10 0 0 0 2.86-1 3.17 3.17 0 0 0 1.42-2.24 1.51 1.51 0 0 0-1.49-1.61c-1.27.12-2.4 2.13-2.65 3.24 0 .07-.1.89-.14 1.34-.18-.4-.35-.8-.54-1.2-.55-1.15-1.14-2.3-1.72-3.45l-.54-1.05a10.6 10.6 0 0 0 3-1.05 3.15 3.15 0 0 0 1.42-2.24 1.51 1.51 0 0 0-1.61-1.57c-1.27.12-2.4 2.12-2.65 3.23 0 .09-.14 1.26-.16 1.56-.39-.77-.76-1.55-1.11-2.33a26 26 0 0 1-1.19-3.23 11 11 0 0 0 3-1.05 3.2 3.2 0 0 0 1.42-2.25 1.51 1.51 0 0 0-1.61-1.57c-1.27.12-2.4 2.12-2.65 3.24 0 .07-.11 1-.15 1.39h-.07a19.5 19.5 0 0 1-.59-3.42c-.07-.63-.09-1.24-.1-1.84a10 10 0 0 0 3-.7 3.18 3.18 0 0 0 1.66-2.08 1.52 1.52 0 0 0-1.43-1.74c-1.27 0-2.62 1.85-3 2.93 0 .06-.15.67-.25 1.13v-.81c0-1 .09-1.84.17-2.62 0-.45.09-.85.14-1.22a10.3 10.3 0 0 0 2.33-2 3.15 3.15 0 0 0 .51-2.6 1.5 1.5 0 0 0-2.06-.89c-1.14.57-1.48 2.85-1.31 4 0 .1.42 1.6.44 1.59-.06.36-.11.74-.17 1.17-.09.78-.18 1.66-.22 2.63v.54c-.47-.75-2-2.88-3.64-2.46-2.03.5-1.63 2.29.02 2.7" style="fill:#263238"/><path d="M705.07 74v201.93a17.81 17.81 0 0 1-17.8 17.8h-84.39a17.8 17.8 0 0 1-17.8-17.8V74a17.79 17.79 0 0 1 17.8-17.79h35.28v.13c1 3.75 3.44 6.19 6.11 6.19h1.53c2.66 0 5.06-2.44 6.11-6.19v-.13h35.28A17.8 17.8 0 0 1 705.07 74Z" style="fill:#fff;stroke:#263238;stroke-miterlimit:10"/><path d="M585.45 279.53a17.79 17.79 0 0 0 17.43 14.2h84.39a17.81 17.81 0 0 0 17.43-14.2ZM705.07 78.06V74a17.8 17.8 0 0 0-17.8-17.79H652v.13c-1.05 3.75-3.45 6.19-6.11 6.19h-1.53c-2.67 0-5.07-2.44-6.11-6.19v-.13h-35.37A17.79 17.79 0 0 0 585.08 74v4Z" style="fill:#92e3a9;stroke:#263238;stroke-linecap:round;stroke-linejoin:round"/><path d="M658.66 210.67v-56.14h25.77a1.18 1.18 0 0 0 1.06-.68l19.57-42.8v-5.61l-21.38 46.75h-25V78.68h-2.34v30.78c-23.27-2.3-36.91 8.67-44.27 18.4a62.4 62.4 0 0 0-10.15 20.66l-16.82-10.68v2.77l30.12 19.12v34.11l-30.1-5.49v2.37l71.24 13v6.4L585.08 267v3l32.22-25.74 24.56 33.23a1.16 1.16 0 0 0 .94.47.9.9 0 0 0 .28 0l38.71-9.96v11h2.34v-33.56a1.17 1.17 0 0 0-.64-1l-8.7-4.39 14.86-16.21 15.41 5.92v-2.49l-15.31-5.89a1.14 1.14 0 0 0-1.28.3l-15.84 17.27-29.77-15.06 15.36-12.27a1.19 1.19 0 0 0 .44-.95m23.13 35.49v19.44l-38.52 9.87-24.15-32.66 21.73-17.36Zm-25.47-44.82-38.81-7.08V161.2l38.81 24.64Zm0-18.26L604 149.83a60.7 60.7 0 0 1 9.94-20.56c10.18-13.45 24.45-19.32 42.41-17.47Z" style="fill:#ccc"/><path d="M705.07 186.66h-3.5l-8.81 22.05h-17.64l9.31-21.55h-13.71v-21.07h20.57l13.78-26.74zm-115.48-85.35h17.49v14.58h-17.49zm20.41 0h12.59v10.5H610zm-.77 46.43 43.29 28v-58.66s-30.96-3.01-43.29 30.66m17.1-46.43h8.16v6.8h-8.16zm23.32 137.02-15.74 11.08 8.74 16.33 31.49-1.75 1.75-15.16-12.25-5.25-5.24 8.17-5.25-2.92 4.66-8.75zm-50.45-32.88v31.49l-14.12 7.19v-39.35zM622.71 225v-18.45l-19.59-.92v29.32zm2.94-18.31v16.81l11.76-5.97v-10.29z" style="fill:#c4c4c4"/><path d="M712.69 145.85v-22.54h-2V70a17.8 17.8 0 0 0-17.8-17.79h-95.61A17.8 17.8 0 0 0 579.49 70v218.64a17.8 17.8 0 0 0 17.79 17.8h95.58a17.8 17.8 0 0 0 17.8-17.8V165.07h2v-13.32h-2v-5.9Zm-7.62 130.08a17.81 17.81 0 0 1-17.8 17.8h-84.39a17.8 17.8 0 0 1-17.8-17.8V74a17.79 17.79 0 0 1 17.8-17.79h35.28v.13c1 3.75 3.44 6.19 6.11 6.19h1.53c2.66 0 5.06-2.44 6.11-6.19v-.13h35.28A17.8 17.8 0 0 1 705.07 74Z" style="fill:#707070;stroke:#263238;stroke-linejoin:round"/><path d="M690.8 54.63h-91.46a17.8 17.8 0 0 0-17.79 17.79v213.77A17.8 17.8 0 0 0 599.34 304h91.46a17.8 17.8 0 0 0 17.8-17.8V72.42a17.8 17.8 0 0 0-17.8-17.79Zm14.27 221.3a17.81 17.81 0 0 1-17.8 17.8h-84.39a17.8 17.8 0 0 1-17.8-17.8V74a17.79 17.79 0 0 1 17.8-17.79h35.28v.13c1 3.75 3.44 6.19 6.11 6.19h1.53c2.66 0 5.06-2.44 6.11-6.19v-.13h35.28A17.8 17.8 0 0 1 705.07 74Z" style="fill:#263238;stroke:#263238;stroke-linejoin:round"/><circle cx="644.71" cy="57.1" r="1.67" style="fill:#fff"/><path d="M595.75 63.5c0 1.69-1.9 2.3-1.91 3.59v.09h1.84v.57h-2.46v-.49c0-1.81 1.9-2.16 1.9-3.74 0-.57-.19-.88-.66-.88s-.65.33-.65.83V64h-.59v-.45c0-.86.4-1.43 1.26-1.43s1.27.52 1.27 1.38m3.06-.01v.15a1.11 1.11 0 0 1-.68 1.15 1.11 1.11 0 0 1 .68 1.16v.43c0 .86-.4 1.42-1.26 1.42s-1.26-.56-1.26-1.42V66h.59v.42c0 .51.2.81.65.81s.66-.29.66-.86v-.43c0-.56-.23-.82-.71-.84h-.33v-.56h.37c.41 0 .67-.28.67-.77v-.25c0-.58-.2-.88-.66-.88s-.65.32-.65.82v.29h-.59v-.26c0-.85.4-1.41 1.26-1.41s1.26.56 1.26 1.41m1.19.43v.77h-.6v-.77Zm0 3v.78h-.6V67Zm1.29-2.5a.91.91 0 0 1 .83-.46c.72 0 1 .53 1 1.33v1.09c0 .86-.4 1.42-1.26 1.42s-1.26-.56-1.26-1.42V66h.59v.41c0 .51.2.81.65.81s.66-.3.66-.81v-1.08c0-.5-.21-.8-.66-.8a.61.61 0 0 0-.63.6v.12h-.58l.15-3.11H603v.56h-1.65Zm4.99-.94v.11h-.58v-.15c0-.5-.21-.8-.67-.8s-.68.31-.68.91v1.26a.91.91 0 0 1 .91-.61c.72 0 1 .53 1 1.33v.85c0 .86-.43 1.42-1.28 1.42s-1.29-.56-1.29-1.42v-2.86c0-.88.4-1.44 1.29-1.44s1.3.55 1.3 1.4m-1.93 2.1v.84c0 .51.21.81.67.81s.66-.3.66-.81v-.84c0-.5-.22-.81-.66-.81s-.67.31-.67.81m61.55-1.85h1.58v3.96h-1.58zm2.11-.79h1.58v4.75h-1.58zm2.12-.56h1.58v5.31h-1.58zm2.11-.98h1.58v6.29h-1.58zm21.17 6.18h-9.5v-5.8h9.5Zm-9-.53h8.44V62.3h-8.44Z" style="fill:#263238"/><path d="M685.23 62.88h5.01v3.6h-5.01zm7.85 1.11h1.19v1.37h-1.19zm-12.65 2.33a.4.4 0 0 1-.18 0 2.77 2.77 0 0 0-3.27 0 .35.35 0 0 1-.5 0 .35.35 0 0 1 0-.49 3.44 3.44 0 0 1 4.09 0 .35.35 0 0 1 .12.48.33.33 0 0 1-.26.01" style="fill:#263238"/><path d="M681.14 65.12a.3.3 0 0 1-.18-.05c-2.79-1.66-4.67 0-4.69 0a.36.36 0 0 1-.47-.54 4.72 4.72 0 0 1 5.53 0 .35.35 0 0 1 .12.48.37.37 0 0 1-.31.11" style="fill:#263238"/><path d="M681.79 63.74a.3.3 0 0 1-.18-.05c-3.54-2.1-5.89-.12-6 0a.36.36 0 0 1-.47-.54s2.83-2.41 6.82 0a.36.36 0 0 1 .13.49.37.37 0 0 1-.3.1m-2.43 3.17a.89.89 0 1 1-.89-.89.89.89 0 0 1 .89.89m9.19 77.67c-3.45-.27-7.5 1.26-9.06 3.43s1.29 7.39 1.29 7.39 9.65-4.25 11.2-6.41.02-4.14-3.43-4.41m-3.94 5.49c-1.38-.11-2-.9-1.37-1.77a4.45 4.45 0 0 1 3.62-1.37c1.38.11 2 .9 1.37 1.77a4.45 4.45 0 0 1-3.62 1.37" style="fill:#263238"/><path d="M680.78 132.6a8.13 8.13 0 0 0-8.12 8.12c0 4.49 8.12 14.29 8.12 14.29s8.12-9.8 8.12-14.29a8.12 8.12 0 0 0-8.12-8.12m0 11.37a3.25 3.25 0 1 1 3.25-3.25 3.26 3.26 0 0 1-3.25 3.28Z" style="fill:#92e3a9;stroke:#263238;stroke-linecap:round;stroke-linejoin:round"/><path d="m642.57 223.51-1.16.95" style="fill:none;stroke:#263238;stroke-miterlimit:10;stroke-width:3px"/><path d="m639.07 226.39-17.61 14.5" style="fill:none;stroke:#263238;stroke-miterlimit:10;stroke-width:3px;stroke-dasharray:3.041029930114746,3.041029930114746"/><path d="m620.28 241.85-1.15.96m57.61-87.8h-18.08v55.26l-16.09 13.24" style="fill:none;stroke:#263238;stroke-miterlimit:10;stroke-width:3px"/><circle cx="642.86" cy="223.85" r="4.62" style="fill:#92e3a9;stroke:#263238;stroke-linecap:round;stroke-linejoin:round"/><path d="M51 52.18h217.73a8.14 8.14 0 0 1 8.14 8.14v147.82a8.75 8.75 0 0 1-8.75 8.75H47.44a4.61 4.61 0 0 1-4.61-4.61v-152a8.14 8.14 0 0 1 8.17-8.1" style="fill:#fff"/><path d="M276.88 109.83v-4.4h-4.65l-7.39-12.57h12v-3.15H263l-3-5h16.84v-3.17h-18.65l-5.91-10.06h-3.77l5.65 10.06h-29.9l-4.67-10.06h-3.78l4.42 10.06h-27.62l-2-10.06h-3.77l1.68 10.06h-26.63l-.15-10.06H158l-.11 10.06h-26.8l1.72-10.06H129l-2 10.06h-26.59l3.48-10.06h-3.78l-3.74 10.06H69.31L75 71.48h-3.81l-5.91 10.06H42.82v3.14h20.61l-3 5H42.82v3.15h15.81l-7.39 12.57h-8.42v4.4h5.84l-5.84 9.94v14H77l-9.58 25.78h-24.6v9.43h21.06l-15.19 40.86a5.25 5.25 0 0 0 4.92 7.08l16.58-47.95h39.64l-9.44 47.95h7.55l8.2-47.95h40.74l-.54 47.95h7.56l-.71-47.95h40l8 47.95h7.56l-9.27-47.95h49.07l18.31 41.74v-15.92l-12-25.82h12v-9.43h-16.37l-12-25.78h28.37v-5.66h-31l-8.47-18.24H270l6.88 12.17v-8.67l-2.07-3.51ZM99.32 84.68h27.12l-1 5H97.58Zm-2.83 8.18h28.34l-2.48 12.57h-30.2Zm25 17-3.59 18.24H84.32l6.3-18.24ZM67.55 84.68H95.2l-1.87 5H64.72ZM63 92.86h29.2l-4.67 12.57H55.9Zm-19.81 35.21 10.24-18.24h32.42l-6.78 18.24Zm68.5 31.44H73.45l8.91-25.78h34.41Zm45.29 0h-39.22l4.41-25.78h35.1Zm.35-31.44h-34.2l3.12-18.24h31.29Zm.25-22.64H127l2.15-12.57h28.57Zm.18-15.72h-28.07l.86-5h27.27Zm98.16-5 2.83 5h-30.69l-2.34-5Zm-30.73 8.18 5.52 12.57h-33.48l-2.44-12.57Zm-3.58-8.18 2.2 5h-29.62l-1-5Zm-59.68 0h27.17l.84 5H162Zm.12 8.18h28.41l2.11 12.57h-30.33Zm.26 17h31l3.05 18.24h-33.78Zm.74 49.68-.39-25.78h34.64l4.32 25.78Zm91.38 0h-46.75l-5-25.78h40.42Zm-13.79-31.44h-39l-3.52-18.24h34.56Zm-5.27-22.64-5.85-12.57h31l7.06 12.57Z" style="fill:#b0b0b0"/><path d="M42.82 187.81h67.6a13.91 13.91 0 0 1 13.91 13.91v15.18h0-76.89a4.61 4.61 0 0 1-4.61-4.61v-24.48z" style="fill:#fff;stroke:#263238;stroke-linecap:round;stroke-linejoin:round"/><path d="M62.14 187.81H42.82v23.83a5.26 5.26 0 0 0 5.26 5.25h14.06Z" style="fill:#666;stroke:#263238;stroke-linecap:round;stroke-linejoin:round"/><path d="M52.5 197.33v-2.24l-7.3 4.21 7.3 4.21v-2.91a4.29 4.29 0 0 1-.74 8.51h-2.59a1.62 1.62 0 0 0 0 3.23h2.59a7.52 7.52 0 0 0 .74-15Z" style="fill:#fff;stroke:#263238;stroke-linecap:round;stroke-linejoin:round"/><path d="M204.12 187.81h72.75V203A13.91 13.91 0 0 1 263 216.89h-67.6 0v-20.33a8.75 8.75 0 0 1 8.72-8.75" style="fill:#fff;stroke:#263238;stroke-linecap:round;stroke-linejoin:round" transform="rotate(180 236.125 202.35)"/><path d="M51 52.18h217.73a8.14 8.14 0 0 1 8.14 8.14v14.94h0H42.82h0V60.32A8.14 8.14 0 0 1 51 52.18" style="fill:#92e3a9;stroke:#263238;stroke-linecap:round;stroke-linejoin:round"/><path d="M51 52.18h44.5v36.48h0-52.68 0V60.32A8.14 8.14 0 0 1 51 52.18" style="fill:#92e3a9;stroke:#263238;stroke-linecap:round;stroke-linejoin:round"/><path d="m77.54 196.66-.31 1.62h-.83l1.54-8.06h1.31l1.54 8.06h-.9l-.31-1.62Zm.12-.77h1.79l-.91-4.66Zm5.63-5.67c1.26 0 1.79.65 1.79 1.84v.66c0 .89-.31 1.44-1 1.66.74.22 1 .81 1 1.68v1.25a2 2 0 0 0 .16 1h-.91a2 2 0 0 1-.15-1V196c0-.92-.43-1.2-1.18-1.2h-.63v3.44h-.9v-8.06Zm-.23 3.8c.71 0 1.14-.23 1.14-1.11v-.77c0-.72-.27-1.1-.93-1.1h-.88v3Zm4.77-3.8c1.26 0 1.79.65 1.79 1.84v.66c0 .89-.31 1.44-1 1.66.74.22 1 .81 1 1.68v1.25a2.16 2.16 0 0 0 .16 1h-.9a2 2 0 0 1-.15-1V196c0-.92-.43-1.2-1.18-1.2h-.63v3.44H86v-8.06ZM87.6 194c.71 0 1.14-.23 1.14-1.11v-.77c0-.72-.27-1.1-.94-1.1h-.87v3Zm3.87-3.78v8.06h-.9v-8.06Zm1.6 0 1.31 7 1.3-7h.83L95 198.28h-1.32l-1.52-8.06Zm4.75 6.44-.31 1.62h-.83l1.55-8.06h1.3l1.54 8.06h-.9l-.31-1.62Zm.12-.77h1.79l-.91-4.66Zm3.83 2.39v-8.06h.9v7.24H105v.82Zm-21.16 5.88c0-1.1-.39-1.4-1-1.4s-1 .33-1 1.21v.79h-1.84v-.67c0-2 1-3.1 2.89-3.1s2.89 1.13 2.89 3.1v.32a2.42 2.42 0 0 1-1.36 2.59 2.52 2.52 0 0 1 1.36 2.59v1c0 2-1 3.1-2.89 3.1s-2.89-1.13-2.89-3.1v-1h1.83v1.14c0 .88.39 1.22 1 1.22s1-.3 1-1.4v-1c0-1.15-.39-1.57-1.27-1.57h-.65v-1.76h.76c.72 0 1.16-.32 1.16-1.31Zm5.11.73v1.86h-1.87v-1.86Zm0 6.71v1.87h-1.87v-1.87Zm4.28-8.84c-.62 0-1 .33-1 1.21v1.32h-1.88v-1.2c0-2 1-3.1 2.89-3.1s2.89 1.13 2.89 3.1c0 3.88-3.86 5.32-3.86 7.35a1 1 0 0 0 0 .26h3.67v1.77h-5.59V212c0-3.63 3.85-4.23 3.85-7.79.03-1.15-.39-1.45-.97-1.45m3.94 1.33c0-2 1-3.1 2.94-3.1s2.94 1.13 2.94 3.1v6.42c0 2-1 3.1-2.94 3.1s-2.94-1.13-2.94-3.1Zm1.94 6.54c0 .88.39 1.22 1 1.22s1-.34 1-1.22V204c0-.88-.39-1.21-1-1.21s-1 .33-1 1.21Zm13.66-6.45v1.61c0 2-1 3-2.88 3h-.92v4.64h-1.94v-12.3h2.86c1.93 0 2.88 1.08 2.88 3.05m-3.8-1.28v4.17h.92c.61 0 1-.28 1-1.16v-1.85c0-.88-.34-1.16-1-1.16Zm8.81 6.99 1.32-8.76h2.69v12.34h-1.83v-8.85l-1.34 8.85h-1.83l-1.45-8.72v8.72h-1.69v-12.34h2.7Zm96.36-17.74v.22h-.85v-.26c0-.73-.28-1.15-.92-1.15s-.92.42-.92 1.14c0 1.8 2.7 2 2.7 4.25 0 1.22-.58 2-1.81 2s-1.81-.79-1.81-2v-.46h.84v.5c0 .73.3 1.15.94 1.15s.95-.42.95-1.15c0-1.79-2.7-2-2.7-4.24 0-1.24.58-2 1.79-2s1.79.78 1.79 2m2.56-1.93c1.27 0 1.81.75 1.81 2v1a1.69 1.69 0 0 1-1.88 1.94h-.79v3.18h-.9v-8.06Zm-.07 4.08c.67 0 1-.31 1-1.09v-1.07c0-.73-.26-1.1-.92-1.1h-.86v3.26Zm5.45-.51v.81h-2v2.86h2.42v.82H216v-8.06h3.32v.78h-2.42v2.75Zm4.15 0v.81h-2v2.86h2.42v.82h-3.31v-8.06h3.31v.78H221v2.75Zm3.16-3.57c1.26 0 1.83.76 1.83 2v4.07c0 1.23-.57 2-1.83 2h-1.89v-8.06Zm0 7.24c.64 0 1-.4 1-1.14v-4.14c0-.74-.32-1.14-1-1.14h-1v6.42Zm-15.66 5.3c-.61 0-1 .33-1 1.21v1.32h-1.83v-1.2c0-2 1-3.1 2.89-3.1s2.89 1.13 2.89 3.1c0 3.88-3.86 5.32-3.86 7.35a1 1 0 0 0 0 .26h3.66v1.77h-5.6V212c0-3.63 3.84-4.23 3.84-7.79.02-1.15-.37-1.45-.99-1.45m5.89 6.73v1.14c0 .88.38 1.2 1 1.2s1-.32 1-1.2v-2.71c0-.88-.38-1.22-1-1.22s-1 .34-1 1.22v.37h-1.84l.36-7.16H220v1.77h-3.36l-.16 2.94a1.85 1.85 0 0 1 1.69-.9c1.43 0 2.15 1 2.15 2.82v2.75c0 2-1 3.1-2.89 3.1s-2.89-1.13-2.89-3.1v-1Zm12.06.4 1.32-8.76h2.7v12.34h-1.84v-8.85l-1.33 8.85h-1.84l-1.46-8.72v8.72h-1.69v-12.34H227Zm7.36 3.58h-1.94v-12.34h1.94v5.29H238v-5.29h2v12.34h-2v-5.29h-2.2Z" style="fill:#263238"/><circle cx="255.18" cy="93.49" r="8.8" style="fill:#fff;stroke:#263238;stroke-linecap:round;stroke-linejoin:round" transform="rotate(-45 255.18 93.48)"/><path d="M255.18 90.34v7.55m3.77-3.78h-7.54" style="fill:none;stroke:#263238;stroke-linecap:round;stroke-linejoin:round;stroke-width:2px"/><circle cx="255.18" cy="117.38" r="8.8" style="fill:#fff;stroke:#263238;stroke-linecap:round;stroke-linejoin:round" transform="rotate(-13.23 255.198 117.378)"/><path d="M258.95 118.01h-7.54" style="fill:none;stroke:#263238;stroke-linecap:round;stroke-linejoin:round;stroke-width:2px"/><path d="M64.65 62.05H60v-4.47a.77.77 0 0 0-1.16-.67l-12.6 7.28a.76.76 0 0 0 0 1.33l12.6 7.28a.77.77 0 0 0 1.16-.67v-5h2.12v16.29h5V64.56a2.51 2.51 0 0 0-2.47-2.51m20.94 8.64-7.06-12.24a.9.9 0 0 0-1.55 0l-7.07 12.24a.9.9 0 0 0 .78 1.31h4.65v11.62h5V72h4.45a.89.89 0 0 0 .8-1.31m162.05 103.28h26.41v28.93h-26.41z" style="fill:#fff;stroke:#263238;stroke-linecap:round;stroke-linejoin:round"/><path d="M253.33 186.19v-8.06h.9v7.24h2.3v.82Zm4.78-8.06v8.06h-.9v-8.06Zm3.89 8.04h-.87l-1.33-6.41v6.43h-.8v-8.06h1.25l1.33 6.43 1.27-6.43h1.26v8.06h-.85v-6.49Zm4-8.04v8.06h-.9v-8.06Zm2 8.06v-7.25h-1.48v-.81h3.86v.81h-1.49v7.25ZM257.31 191c0-1.11-.39-1.41-1-1.41s-1 .34-1 1.22v.79h-1.84v-.67c0-2 1-3.1 2.89-3.1s2.89 1.13 2.89 3.1v.32c0 1.32-.42 2.15-1.35 2.53a2.52 2.52 0 0 1 1.35 2.59v1c0 2-1 3.1-2.89 3.1s-2.89-1.13-2.89-3.1v-1h1.84v1.14c0 .89.38 1.22 1 1.22s1-.3 1-1.39v-1c0-1.15-.39-1.57-1.27-1.57h-.65V193h.75c.72 0 1.17-.32 1.17-1.3Zm3.08-.11c0-2 1-3.1 2.94-3.1s2.94 1.13 2.94 3.1v6.41c0 2-1 3.1-2.94 3.1s-2.94-1.13-2.94-3.1Zm1.93 6.53c0 .89.39 1.22 1 1.22s1-.33 1-1.22v-6.65c0-.88-.39-1.22-1-1.22s-1 .34-1 1.22Z" style="fill:#263238"/><path d="m163.9 216.89-1.32-88.82h-54.29l.91-4.45-16.19 7.9 12.8 8.66 1.32-6.45h50.14l-.93 83.16z" style="fill:#fff;stroke:#263238;stroke-linecap:round;stroke-linejoin:round"/><path d="M88.94 120.74c-4.07-.32-8.85 1.49-10.68 4s1.52 8.71 1.52 8.71 11.37-5 13.2-7.55.02-4.84-4.04-5.16m-4.65 6.47c-1.62-.13-2.34-1.06-1.61-2.08a5.26 5.26 0 0 1 4.32-1.62c1.62.13 2.35 1.06 1.61 2.08a5.22 5.22 0 0 1-4.32 1.62" style="fill:#263238"/><path d="M79.78 106.63a9.56 9.56 0 0 0-9.56 9.57c0 5.28 9.56 16.84 9.56 16.84s9.57-11.56 9.57-16.84a9.56 9.56 0 0 0-9.57-9.57m0 13.39a3.83 3.83 0 1 1 3.83-3.82 3.82 3.82 0 0 1-3.83 3.8Z" style="fill:#92e3a9;stroke:#263238;stroke-linecap:round;stroke-linejoin:round"/><path d="m160.23 176.57-16.81 29.12h33.62z" style="fill:#263238"/><path d="M51 52.18h217.73a8.14 8.14 0 0 1 8.14 8.14v147.82a8.75 8.75 0 0 1-8.75 8.75H47.44a4.61 4.61 0 0 1-4.61-4.61v-152a8.14 8.14 0 0 1 8.17-8.1" style="fill:none;stroke:#263238;stroke-linecap:round;stroke-linejoin:round"/><circle cx="511.29" cy="436.12" r="16.09" style="fill:#b2b2b2;stroke:#263238;stroke-miterlimit:10"/><circle cx="511.29" cy="436.12" r="12.19" style="fill:#fff;stroke:#263238;stroke-miterlimit:10"/><path d="m516.65 440.77 5.42 1a12 12 0 0 0 .93-2.34l-4.65-3a.75.75 0 0 1-.08-1.2l4.32-3.71a12 12 0 0 0-1.14-2.16l-5.45 1.92a.75.75 0 0 1-1-.68l-.23-6.15a11.5 11.5 0 0 0-2.22-.45l-2.11 5.89a.74.74 0 0 1-1.14.35l-5.3-3.88a12 12 0 0 0-1.59 1.41l3.46 5.6a.75.75 0 0 1-.44 1.11l-6.35 1.7a12.4 12.4 0 0 0 .21 2.13l6.47.77a.75.75 0 0 1 .59 1l-2.48 5.68a12 12 0 0 0 1.95 1.21l4.33-4.27a.75.75 0 0 1 1.19.18L514 448a12.3 12.3 0 0 0 2.33-.8l-.59-5.61a.74.74 0 0 1 .91-.82Z" style="fill:#263238;stroke:#263238;stroke-miterlimit:10"/><path d="m503.56 300.9 14 11.25a5.15 5.15 0 0 1 1.92 4.37l-8.18 119.6" style="fill:none;stroke:#263238;stroke-linecap:round;stroke-linejoin:round;stroke-width:4px"/><path d="M554.68 201.8s-1.74 5-1.11 6.47a7.6 7.6 0 0 1 .48 3.95c-.16.47-3.16 5.84-2.84 6.47s3.63 2.68 3.63 2.68 3.94 8.84 5.2 8.68 7.58-3.16 7.58-3.16l.94 8.52 12.31-5 4-17.83s.16-6.62-10.1-11-18.99-1.99-20.09.22Z" style="fill:#fff;stroke:#263238;stroke-miterlimit:10"/><path d="M558 222.32s2.37.79 3.32-2.37m-5.69-10.41s1.57-1.9 3.15-.16" style="fill:none;stroke:#263238;stroke-miterlimit:10"/><path d="M558.3 212.7c.1.82-.1 1.52-.45 1.56s-.7-.59-.8-1.42.11-1.52.45-1.56.71.59.8 1.42" style="fill:#263238"/><path d="m517.6 289.06-6.79 5.21s-9.78-2-10.57-2-.63 1.89-.63 1.89-3.16 6-2.84 6.79 3.16 3.78 3.47 3.15a3.64 3.64 0 0 0 .16-2.68c-.32-1.26 2.84-3 2.84-3s6.94 2.21 9.31 2.21 6.78-3.47 6.78-3.47l5.53-5.52-5.86-4Z" style="fill:none;stroke:#263238;stroke-miterlimit:10"/><path d="M551.42 338.28s1 29.69 2.15 32.54c3.68 8.91 38.07 40.52 39.6 42.06s-.92 7.67-.92 8.6-1.53 4.29-4.6 6.44a5.18 5.18 0 0 0-1.95 5.66 30 30 0 0 1 4.71.17c2.76.31 7.06 0 8-2.76a19.4 19.4 0 0 1 4.6-8c2.46-2.46 6.45-2.46 6.14-7.37s-5.21-6.14-7.67-9.51-15.68-18.11-19.36-25.46S568.61 365 568.61 365l1.84-26.4Z" style="fill:#fff;stroke:#263238;stroke-miterlimit:10"/><path d="M603.89 408.53c-.44 1.11-.94 2.3-1.51 3.43a8.21 8.21 0 0 1-5.53 4.3l-1.53-1.26a2.3 2.3 0 0 0-1.65-.54c.06 2.41-1.42 6.27-1.42 7 0 .92-1.53 4.29-4.6 6.44a5.18 5.18 0 0 0-1.95 5.66 30 30 0 0 1 4.71.17c2.76.31 7.06 0 8-2.76a19.4 19.4 0 0 1 4.6-8c2.46-2.46 6.45-2.46 6.14-7.37-.24-3.52-2.89-5.15-5.26-7.07Z" style="fill:#92e3a9;stroke:#263238;stroke-miterlimit:10"/><path d="M566.78 335.56s2.07 17.49 3.58 22.38a74 74 0 0 1 2.06 8.09s.19 16 2.83 23.32 1.5 30 1.5 30.59-2.82 4.51-6.21 6.4-10.34 4.13-10.34 5.26a2.27 2.27 0 0 0 1.88 2.45c1.32.18 9.59.56 14.11.56a36.5 36.5 0 0 0 11.66-2.26c.94-.56.19-3.38-.19-6.2s0-18.18 0-18.18 2.07-13.92 1.88-24.07-3.76-21.07-3.76-21.07 1.13-25.77 1.69-27.08-20.69-.19-20.69-.19Z" style="fill:#fff;stroke:#263238;stroke-miterlimit:10"/><path d="M587.85 432.35c.94-.56.19-3.38-.19-6.2-.06-.45-.1-1.14-.13-2a20.5 20.5 0 0 1-8.52.67 8.2 8.2 0 0 0-.57-3 5.55 5.55 0 0 0-1.69-1.88c0 .57-2.82 4.51-6.21 6.4s-10.34 4.13-10.34 5.26a2.27 2.27 0 0 0 1.88 2.45c1.32.18 9.59.56 14.11.56a36.5 36.5 0 0 0 11.66-2.26Z" style="fill:#92e3a9;stroke:#263238;stroke-miterlimit:10"/><path d="M552.49 296.25 538 334.81s10 7.52 28.77 7.52 39.31-9 39.31-9l-13.54-36.67s-22.94-5.66-40.05-.41Z" style="fill:#263238;stroke:#263238;stroke-miterlimit:10"/><path d="m555.31 300.39-4.89 16.36m7.52-13.54-4.51 24.26m11.47-27.46-1.13 9.97m24.45-8.46 3.77 13.16" style="fill:none;stroke:#fff;stroke-miterlimit:10"/><path d="M568.09 234.31a7 7 0 0 0-4.57 3.15c-1.9 2.84-45.92 51.6-45.92 51.6a40 40 0 0 0 4.57 3.16 9.8 9.8 0 0 0 2.53.94l3.47-1.89s18.46-.95 22.41-2.21c0 0-2.69 7.89-2.05 8.52s2.84 2.68 4.89 2.84 8.36-1.1 8.36-1.1 15.62 2.21 21 2.21 9.15-1.11 10.25-2 3.63-4.26 4-7-6.63-22.09-5.84-24 3.31-15.62 1.26-24.77-6.94-8.84-10.1-10.89-14.26 1.44-14.26 1.44Z" style="fill:#b2b2b2;stroke:#263238;stroke-miterlimit:10"/><path d="M550.58 289.06s12.94-2.05 15.62-3.94 18-26.83 18-26.83m-2.43 34.11c2-.18 3.36-.18 3.36-.18m-23.35 7.1s14.2-6.16 17.51-6.63" style="fill:none;stroke:#263238;stroke-miterlimit:10"/><path d="M561.34 278.22c1.64-.68 3.32-1.43 5-2.25m-29.65 8.52a86 86 0 0 0 21.86-5.17m-25.33 3.59a56.7 56.7 0 0 0 18.93-5.21m-31.08 8.05a12.36 12.36 0 0 0 6 3.94m53.49-25.09 6.15-5.83" style="fill:none;stroke:#263238;stroke-miterlimit:10"/><path d="M576.93 232.89s10.1 7.73 12.78 11.2 2.68 13.26 3.79 13.41 9.62-5.83 10.88-10.1-7.89-9.62-13.41-12.3-12.78-4.1-14.04-2.21Z" style="fill:#b2b2b2;stroke:#263238;stroke-miterlimit:10"/><path d="M566 206.06s-.63 5.05 1.1 9 4.58 8.52 4.11 12.46-6.31 5.53-6.31 5.53 1.42 3.78 4.57 5 7.42-1.9 7.42-1.9l-.48 2.53a26.7 26.7 0 0 0 9.47-1.27c4.1-1.57 5.68-6.47 4.74-11.51s-4.26-7.74-5-10.58a6.1 6.1 0 0 1 .94-5.05s-1.73-4.73-9.15-7.73-10.27.84-11.41 3.52Z" style="fill:#92e3a9;stroke:#263238;stroke-miterlimit:10"/><path d="M569.35 208.27s1.27 12.47-2.52 20.2" style="fill:none;stroke:#263238;stroke-linecap:round;stroke-linejoin:round;stroke-width:2px"/><path d="M551.84 203.38s4.73 0 7.57 1.74 4.58 4.1 7.58 3.94 5.36-2.52 7.89-1.26a6 6 0 0 1 3.63 4.89c.15 1.74.63 3 2.68 3.47a16.7 16.7 0 0 0 5 .48c.63-.16 3.78-5 4.73-11.37s-3.94-15.77-15.3-18.61-24.89 3.62-23.78 16.72Z" style="fill:#263238;stroke:#263238;stroke-miterlimit:10"/><path d="M506.55 300.9a3 3 0 1 0-3 3 3 3 0 0 0 3-3Z" style="fill:#828282;stroke:#263238;stroke-miterlimit:10"/><circle cx="644.46" cy="436.12" r="16.09" style="fill:#b2b2b2;stroke:#263238;stroke-miterlimit:10"/><circle cx="644.46" cy="436.12" r="12.19" style="fill:#fff;stroke:#263238;stroke-miterlimit:10"/><path d="m649.83 440.77 5.41 1a12 12 0 0 0 .94-2.34l-4.65-3a.75.75 0 0 1-.08-1.2l4.31-3.71a12 12 0 0 0-1.13-2.16l-5.48 1.87a.74.74 0 0 1-1-.68l-.23-6.15a12 12 0 0 0-2.22-.45l-2.11 5.89a.74.74 0 0 1-1.15.35l-5.26-3.88a11 11 0 0 0-1.59 1.41l3.46 5.6a.75.75 0 0 1-.45 1.11l-6.34 1.7a12.4 12.4 0 0 0 .2 2.13l6.47.77a.75.75 0 0 1 .6 1l-2.48 5.68A12 12 0 0 0 639 447l4.34-4.27a.74.74 0 0 1 1.18.18l2.68 5.07a12.3 12.3 0 0 0 2.33-.8l-.59-5.61a.74.74 0 0 1 .89-.8Z" style="fill:#263238;stroke:#263238;stroke-miterlimit:10"/><path d="m514.57 393.78 31.52 42.52h102.32" style="fill:none;stroke:#263238;stroke-linecap:round;stroke-linejoin:round;stroke-width:4px"/><path d="M511.37 377.42h7.33v12.38h-7.33z" style="fill:#263238" transform="rotate(3.53 515.31 383.821)"/><path d="M453.58 362.51h-78.37v11.42h-13.64l-149-.23h-12l-72.46-3.78-2.34.34-.67 8-5 2 .66-14.35.67-13.69s-.67-10.36 3-16.37 8-19.7 28.71-23 36.4 2.67 43.74 8 14.7 23.71 18.37 33.39 3.67 12.35 3.67 12.35h135.25s3-31.72 17.36-44.41 39.07-14.35 58.1-8 30.2 27.9 23.95 48.33Z" style="fill:#263238;stroke:#263238;stroke-miterlimit:10"/><path d="M109.73 358.19c2.17 6.49 6.13 10.82 7.94 11.9l1.8 1.09s1.81-20.94 7.22-31.76 19.79-22.92 42.22-23.09c18.68-.14 35 15.87 39.32 28.15s3.25 28.5 4.33 29.22 149 1.08 149 1.08-2.88-22.83 9.38-40a44 44 0 0 1 46.91-17.69c13 3.47 27.06 14.44 31.75 22.74s4 22.72 4 22.72 4-2.88 4.69-6.49 0-15.88-4.69-26.34-12.29-19.16-12.6-22.41 1.8-26-1.81-39.69-15.87-49.42-15.87-49.42 6.13-2.9 4.69-5.06c-.68-1-7.93-2.49-18.39-3.93-12-1.65-28.09-3.23-43.31-4-28.5-1.44-65.3-1.81-83.71 2.53 0 0-16.95 2.88-20.19 4s-47.32 27.38-68.97 48.26c0 0-7.67 2.39-15.05 4.46-3.35.95-6.64 1.83-9.13 2.4-7.93 1.8-42.21 12.27-43.65 18s-4.33 32.47-4.33 32.47-6.13 5.78-7.21 10.47-6.51 23.88-4.34 30.39" style="fill:#ccc"/><path d="M374.36 312.71c38.29 0 57.38-6 66.67-11.11-.1 2.84-.17 4.89-.08 5.71.36 3.25 7.94 11.91 12.63 22.37s5.42 22.73 4.69 26.32-4.69 6.49-4.69 6.49.72-14.42-4-22.72-18.74-19.27-31.75-22.74A44 44 0 0 0 371 334.74c-12.26 17.21-9.38 40-9.38 40s-147.92-.36-149-1.08 0-17-4.33-29.22c-3.34-9.48-13.82-21.17-27-26C199 316.22 218.13 311 241.73 305c42.93-10.87 66.64 7.71 132.63 7.71m-260.29 15.17c1.08-4.69 7.21-10.47 7.21-10.47s.2-1.87.53-4.72a172 172 0 0 0 16.76 4.51 111 111 0 0 0 12.73 2c-12.47 4.26-20.78 12.55-24.61 20.2-5.41 10.82-7.22 31.76-7.22 31.76l-1.8-1.09c-1.81-1.08-5.77-5.41-7.94-11.9s3.27-25.6 4.34-30.29" style="fill:#878787"/><path d="M109.73 358.19c2.17 6.49 6.13 10.82 7.94 11.9l1.8 1.09s1.81-20.94 7.22-31.76 19.79-22.92 42.22-23.09c18.68-.14 35 15.87 39.32 28.15s3.25 28.5 4.33 29.22 149 1.08 149 1.08-2.88-22.83 9.38-40a44 44 0 0 1 46.91-17.69c13 3.47 27.06 14.44 31.75 22.74s4 22.72 4 22.72 4-2.88 4.69-6.49 0-15.88-4.69-26.34-12.29-19.16-12.6-22.41 1.8-26-1.81-39.69-15.87-49.42-15.87-49.42 6.13-2.9 4.69-5.06c-.68-1-7.93-2.49-18.39-3.93-12-1.65-28.09-3.23-43.31-4-28.5-1.44-65.3-1.81-83.71 2.53 0 0-16.95 2.88-20.19 4s-47.32 27.38-68.97 48.26c0 0-7.67 2.39-15.05 4.46-3.35.95-6.64 1.83-9.13 2.4-7.93 1.8-42.21 12.27-43.65 18s-4.33 32.47-4.33 32.47-6.13 5.78-7.21 10.47-6.51 23.88-4.34 30.39Z" style="fill:none;stroke:#263238;stroke-miterlimit:10"/><path d="m178.39 264.5 16.18.91 16.67.24 5.13-4.49s55-37.82 67-41.16 45.83-6.29 56.41-5.63 27.26 12.8 34.83 35.78 7.17 27 5.58 37-12.52 22.78-28.55 46.5-43.6 21.16-43.6 21.16l-87.45 4.8 3.46 8S329.22 367 337.56 365s10.25-8.33 17.95-20.51 44.88-63.48 52.58-72.46S429 259.4 429 259.4s-24.73-30.94-27.05-38.73c-1.29-4.31 3.3-8.54 7.65-11.46-12-1.65-28.09-3.23-43.31-4-28.5-1.44-65.3-1.81-83.71 2.53 0 0-16.95 2.88-20.19 4s-47.3 27.38-68.95 48.26c0 0-7.67 2.43-15.05 4.5Z" style="fill:#fff;stroke:#263238;stroke-miterlimit:10"/><path d="M337 214.22s-45.46-.36-63.86 5.41-75.41 52-74.33 53.4 8.3 1.81 11.55 1.45 132-11.19 132-11.19a29.76 29.76 0 0 0 12.27 5.78c7.22 1.44 26.34-.73 26.34-.73s-9-29.22-17.32-39.69-18.31-14.43-26.65-14.43Z" style="fill:#263238;stroke:#263238;stroke-miterlimit:10"/><path d="M333.47 264.05v-46.72s-40.74 1.33-50.09 2.67-12 3.34-12 3.34l-36.39 23-.28 26c29.78-2.49 78.73-6.61 98.76-8.29Z" style="fill:#fff;stroke:#263238;stroke-miterlimit:10"/><path d="m243.32 269.08-19.7 2s-5.35-3.68-5.35-4.68 4.68-2.33 4.68-2.33-2-7.68 7-12 13.69 1.66 14 5-.63 12.01-.63 12.01Z" style="fill:#ccc;stroke:#263238;stroke-miterlimit:10"/><path d="m339.8 214.38-.3 49.16 2.95-.25a29.76 29.76 0 0 0 12.27 5.78c7.22 1.44 26.34-.73 26.34-.73s-9-29.22-17.32-39.69c-7.4-9.32-16.23-13.48-23.94-14.27Z" style="fill:#fff;stroke:#263238;stroke-miterlimit:10"/><path d="M374.63 250.15c-5 .21-13.58.86-18.12 2.91-6.68 3-14.06 10.23-14.06 10.23a29.76 29.76 0 0 0 12.27 5.78c7.22 1.44 26.34-.73 26.34-.73s-2.67-8.63-6.43-18.19Z" style="fill:#263238;stroke:#263238;stroke-miterlimit:10"/><path d="m351.17 263.07 15.69-.66a7.5 7.5 0 0 0 6.68.33c3.34-1.67 2.67-4.67-.34-6s-8 1.34-8 1.34l-13.69 1s-4.02.65-.34 3.99Zm-92.01-49.74c-11.11 6.2-46.88 28.5-65.72 46.71 0 0-16.24 5.06-24.17 6.86l25.3-1.49L258 216.66s.56-1.66 1.16-3.33Z" style="fill:#ccc;stroke:#263238;stroke-miterlimit:10"/><path d="M437.47 261.69c-4.76-16-14.2-43.5-14.2-43.5S418 221.67 418 224s17 36.06 18.36 37.39a1.31 1.31 0 0 0 1.11.3Z" style="fill:#263238;stroke:#263238;stroke-miterlimit:10"/><path d="M220.61 359.57s-10.68-44.41-11-53.09 1.34-25 4.68-29.38" style="fill:none;stroke:#263238;stroke-miterlimit:10"/><path d="M438.65 271.42s-4.34-6-10-6-6 6-5 9 4.35 13.7 8.35 17.7 8 4.68 8.68-1 2.32-13.35-2.03-19.7Z" style="fill:#263238;stroke:#263238;stroke-miterlimit:10"/><path d="M408.93 210.65s-8.68 4.68-7 10 16.36 25.37 21 31.05 6 7.68 6 7.68-11 2-12.69 8 15.36 36.07 15.36 36.07m-9.31 7.37s11.35-8.35 18-10" style="fill:none;stroke:#263238;stroke-miterlimit:10"/><path d="M220.85 343.88s97.16-3 110.52-9.69 23.37-15 28.71-22c0 0 .34-3-11.35-3s-69.45 12.69-111.19 30.39" style="fill:#dedede"/><path d="M144.48 293.12s5.68-5.67 4-11-13.69-.67-18.37 2.67-8 25.37-6 25.37 20.37-17.04 20.37-17.04Z" style="fill:#fff;stroke:#263238;stroke-miterlimit:10"/><circle cx="165.85" cy="360.24" r="39.07" style="fill:#263238;stroke:#263238;stroke-miterlimit:10"/><circle cx="165.85" cy="360.24" r="27.81" style="fill:#fff;stroke:#263238;stroke-miterlimit:10" transform="rotate(-45 165.856 360.24)"/><circle cx="409" cy="360.24" r="39.07" style="fill:#263238;stroke:#263238;stroke-miterlimit:10"/><circle cx="409" cy="360.24" r="27.81" style="fill:#fff;stroke:#263238;stroke-miterlimit:10" transform="rotate(-45 409.004 360.235)"/><path d="M74.81 385.12a42.59 42.59 0 0 1-.18-60.42" style="fill:none;stroke:#92e3a9;stroke-linecap:round;stroke-linejoin:round;stroke-width:3px"/><path d="M82.25 379.87a33.67 33.67 0 0 1-.2-49.93" style="fill:none;stroke:#92e3a9;stroke-linecap:round;stroke-linejoin:round;stroke-width:3px"/><path d="M91.51 374.43a23.66 23.66 0 0 1 0-39.23" style="fill:none;stroke:#92e3a9;stroke-linecap:round;stroke-linejoin:round;stroke-width:3px"/><path d="M99.71 368.66a14.74 14.74 0 0 1 .34-27.81m198.04-168.02a42.59 42.59 0 0 1 60.42-.18" style="fill:none;stroke:#92e3a9;stroke-linecap:round;stroke-linejoin:round;stroke-width:3px"/><path d="M303.34 180.27a33.68 33.68 0 0 1 49.93-.19" style="fill:none;stroke:#92e3a9;stroke-linecap:round;stroke-linejoin:round;stroke-width:3px"/><path d="M308.77 189.54a23.67 23.67 0 0 1 39.24 0" style="fill:none;stroke:#92e3a9;stroke-linecap:round;stroke-linejoin:round;stroke-width:3px"/><path d="M314.55 197.74a14.73 14.73 0 0 1 27.8.33m148.23 187.05a42.6 42.6 0 0 0 .19-60.42" style="fill:none;stroke:#92e3a9;stroke-linecap:round;stroke-linejoin:round;stroke-width:3px"/><path d="M483.14 379.87a33.67 33.67 0 0 0 .2-49.93" style="fill:none;stroke:#92e3a9;stroke-linecap:round;stroke-linejoin:round;stroke-width:3px"/><path d="M473.88 374.43a23.66 23.66 0 0 0 0-39.23" style="fill:none;stroke:#92e3a9;stroke-linecap:round;stroke-linejoin:round;stroke-width:3px"/><path d="M465.68 368.66a14.74 14.74 0 0 0-.34-27.81" style="fill:none;stroke:#92e3a9;stroke-linecap:round;stroke-linejoin:round;stroke-width:3px"/></svg>